<svg width="255" height="318" viewBox="0 0 255 318" fill="none" xmlns="http://www.w3.org/2000/svg">
<rect x="0.435791" y="0.746094" width="253.841" height="316.976" rx="10.6118" fill="#E1D0C7"/>
<path fill-rule="evenodd" clip-rule="evenodd" d="M46.9669 33.1918C47.7823 32.2144 44.2177 32.2144 44.2177 32.2144L41.1287 34.5089C41.1287 34.5089 45.0958 35.4445 46.9669 33.1918ZM33.0798 39.778C32.6877 39.8072 31.0047 40.875 31.0047 40.875L30.5447 41.1729C30.4614 41.2285 30.3926 41.377 30.3342 41.5033C30.2936 41.5909 30.258 41.6678 30.2259 41.6956C30.3775 41.6172 30.529 41.5336 30.6702 41.4447L31.0047 41.2252L31.0726 41.1834L31.1562 41.1259L31.2294 41.0736L31.3496 40.9952L31.4332 40.9325C31.6841 40.7653 31.9455 40.5823 32.2434 40.3733L32.3061 40.3262L32.4263 40.2426L33.0798 39.778ZM47.7816 33.6632C47.678 33.9055 47.5079 34.1136 47.291 34.2633C45.8693 35.455 42.4302 35.8835 40.3395 35.1518C40.2104 35.2475 39.2921 35.8949 38.0542 36.7653L44.5625 41.0509C44.7052 41.1494 44.8191 41.2841 44.8926 41.4412C44.9661 41.5982 44.9964 41.772 44.9806 41.9447L46.58 43.0318L47.8762 44.2497L46.3082 43.4866L44.6827 42.3994C44.5472 42.4643 44.4027 42.5083 44.2541 42.5301C44.0535 42.5224 43.8593 42.457 43.6948 42.3419C43.6948 42.3419 39.878 39.6634 36.9051 37.5729C33.9288 39.6637 30.1057 42.3437 30.1057 42.3437C29.9391 42.4579 29.7431 42.5215 29.5412 42.5267C29.3926 42.5049 29.2481 42.4608 29.1126 42.396L27.4923 43.4884L25.9243 44.2567L27.2205 43.0389L28.8042 41.9517C28.7867 41.7789 28.8163 41.6045 28.8899 41.4471C28.9636 41.2898 29.0784 41.1553 29.2224 41.058L35.7494 36.7599C34.5154 35.8913 33.6004 35.2456 33.4714 35.15C31.3599 35.8817 27.9416 35.4532 26.52 34.2615L26.4991 34.2615C26.2831 34.1114 26.1143 33.9029 26.0125 33.6604C25.9107 33.4179 25.8801 33.1514 25.9241 32.8921C25.9893 32.6864 26.1003 32.4981 26.2488 32.3415C26.3973 32.1849 26.5793 32.064 26.7813 31.9879C26.7813 31.9879 26.614 31.5227 26.7918 31.2927C26.9695 31.0628 27.3615 30.9425 27.9364 30.9948C27.7482 30.8537 27.7326 30.6864 27.8057 30.5819C27.86 30.5216 27.9354 30.4846 28.0163 30.4788C28.0972 30.4729 28.1772 30.4987 28.2395 30.5505L28.8249 30.8903C28.3493 30.0436 28.2448 29.4268 28.5375 29.1184C28.6312 29.0423 28.743 28.9917 28.8621 28.9716C28.9811 28.9514 29.1034 28.9624 29.2169 29.0034C29.0648 28.9445 28.9095 28.8939 28.7518 28.8519C28.7518 28.8519 29.1385 28.0365 29.4835 27.8902C29.689 27.8201 29.9073 27.7959 30.1232 27.8194C30.339 27.8429 30.5471 27.9134 30.7327 28.0261C32.3634 28.9407 34.0202 31.9356 34.1091 34.1674L36.8977 36.0037L39.6757 34.1744C39.7646 31.9426 41.4214 28.9216 43.0522 28.0331C43.2406 27.9157 43.4531 27.842 43.6738 27.8176C43.8945 27.7932 44.1179 27.8186 44.3275 27.892C44.6724 28.0383 45.0487 28.8537 45.0487 28.8537C44.8895 28.8962 44.7325 28.9468 44.5783 29.0052C44.6969 28.9619 44.8249 28.9512 44.949 28.9742C45.0731 28.9972 45.1888 29.053 45.2839 29.1359C45.5714 29.4443 45.4721 30.061 44.9965 30.9077L45.5557 30.568C45.6189 30.5158 45.6998 30.4899 45.7815 30.4958C45.8633 30.5016 45.9396 30.5387 45.9948 30.5994C46.0679 30.7039 46.0523 30.8712 45.8589 31.0123C46.4495 30.9443 46.9094 31.1429 47.0297 31.3207C47.1499 31.4984 47.0297 31.9897 47.0297 31.9897C47.2291 32.068 47.4086 32.1899 47.555 32.3463C47.7015 32.5027 47.8113 32.6897 47.8764 32.8939C47.9181 33.1541 47.8852 33.4208 47.7816 33.6632ZM26.8231 33.19C28.6943 35.4427 32.6613 34.5071 32.6613 34.5071L29.5828 32.2126C29.5828 32.2126 26.0078 32.2126 26.8231 33.19ZM42.8011 40.8628C42.8011 40.8628 41.0763 39.7652 40.7104 39.7652V39.7913L41.3846 40.2669L41.4996 40.3506L41.5676 40.3506L42.3673 40.9307L42.4561 40.9934L42.5763 41.0718L42.6495 41.1241L42.7331 41.1711L42.7958 41.213L43.1356 41.4325C43.2767 41.5213 43.423 41.605 43.5798 41.6834C43.5463 41.6588 43.509 41.5787 43.4661 41.487C43.4088 41.3642 43.3418 41.2205 43.261 41.1607L42.8011 40.8628Z" fill="#4C4F6A"/>
<path fill-rule="evenodd" clip-rule="evenodd" d="M46.9672 279.383C47.7825 278.406 44.2179 278.406 44.2179 278.406L41.129 280.7C41.129 280.7 45.096 281.636 46.9672 279.383ZM33.08 285.969C32.6879 285.999 31.0049 287.066 31.0049 287.066L30.545 287.364C30.4616 287.42 30.3929 287.568 30.3344 287.695C30.2939 287.782 30.2582 287.859 30.2261 287.887C30.3777 287.809 30.5293 287.725 30.6704 287.636L31.0049 287.417L31.0728 287.375L31.1565 287.317L31.2296 287.265L31.3499 287.187L31.4335 287.124C31.6844 286.957 31.9457 286.774 32.2436 286.565L32.3063 286.518L32.4266 286.434L33.08 285.969ZM47.7819 279.855C47.6783 280.097 47.5082 280.305 47.2912 280.455C45.8696 281.646 42.4304 282.075 40.3397 281.343C40.2106 281.439 39.2923 282.086 38.0544 282.957L44.5625 287.242C44.7052 287.341 44.8191 287.476 44.8926 287.633C44.9661 287.79 44.9964 287.963 44.9806 288.136L46.58 289.223L47.8762 290.441L46.3082 289.678L44.6827 288.591C44.5472 288.656 44.4027 288.7 44.2541 288.722C44.0535 288.714 43.8593 288.648 43.6948 288.533C43.6948 288.533 39.8781 285.855 36.9052 283.764C33.9289 285.855 30.1059 288.535 30.1059 288.535C29.9394 288.649 29.7433 288.713 29.5414 288.718C29.3928 288.696 29.2483 288.652 29.1128 288.587L27.4926 289.68L25.9246 290.448L27.2208 289.23L28.8045 288.143C28.7869 287.97 28.8166 287.796 28.8902 287.639C28.9638 287.481 29.0787 287.347 29.2226 287.249L35.7495 282.951C34.5155 282.083 33.6004 281.437 33.4714 281.341C31.3599 282.073 27.9416 281.645 26.52 280.453H26.4991C26.2831 280.303 26.1143 280.094 26.0125 279.852C25.9107 279.609 25.8801 279.343 25.9241 279.084C25.9893 278.878 26.1003 278.69 26.2488 278.533C26.3973 278.376 26.5793 278.255 26.7813 278.179C26.7813 278.179 26.614 277.714 26.7918 277.484C26.9695 277.254 27.3615 277.134 27.9364 277.186C27.7482 277.045 27.7326 276.878 27.8057 276.773C27.86 276.713 27.9354 276.676 28.0163 276.67C28.0972 276.664 28.1772 276.69 28.2395 276.742L28.8249 277.082C28.3493 276.235 28.2448 275.618 28.5375 275.31C28.6312 275.234 28.743 275.183 28.8621 275.163C28.9811 275.143 29.1034 275.154 29.2169 275.195C29.0648 275.136 28.9095 275.085 28.7518 275.043C28.7518 275.043 29.1385 274.228 29.4835 274.082C29.689 274.012 29.9073 273.987 30.1232 274.011C30.339 274.034 30.5471 274.105 30.7327 274.217C32.3634 275.132 34.0202 278.127 34.1091 280.359L36.8978 282.195L39.676 280.366C39.7648 278.134 41.4217 275.113 43.0524 274.224C43.2409 274.107 43.4533 274.033 43.674 274.009C43.8947 273.985 44.1181 274.01 44.3277 274.083C44.6727 274.23 45.049 275.045 45.049 275.045C44.8897 275.088 44.7327 275.138 44.5786 275.197C44.6971 275.153 44.8251 275.143 44.9492 275.166C45.0733 275.189 45.189 275.244 45.2842 275.327C45.5717 275.636 45.4723 276.252 44.9967 277.099L45.556 276.759C45.6192 276.707 45.7 276.681 45.7818 276.687C45.8635 276.693 45.9399 276.73 45.995 276.791C46.0682 276.895 46.0525 277.063 45.8591 277.204C46.4497 277.136 46.9097 277.334 47.0299 277.512C47.1501 277.69 47.0299 278.181 47.0299 278.181C47.2293 278.259 47.4088 278.381 47.5553 278.538C47.7017 278.694 47.8115 278.881 47.8766 279.085C47.9183 279.346 47.8855 279.612 47.7819 279.855ZM26.8231 279.381C28.6943 281.634 32.6613 280.699 32.6613 280.699L29.5828 278.404C29.5828 278.404 26.0078 278.404 26.8231 279.381ZM42.8011 287.054C42.8011 287.054 41.0763 285.957 40.7104 285.957L40.7104 285.983L41.3846 286.458L41.4996 286.542H41.5676L42.3673 287.122L42.4561 287.185L42.5763 287.263L42.6495 287.316L42.7331 287.363L42.7958 287.404L43.1356 287.624C43.2767 287.713 43.423 287.796 43.5798 287.875C43.5463 287.85 43.509 287.77 43.4661 287.678C43.4088 287.556 43.3418 287.412 43.261 287.352L42.8011 287.054Z" fill="#4C4F6A"/>
<path fill-rule="evenodd" clip-rule="evenodd" d="M229.49 279.383C230.306 278.406 226.741 278.406 226.741 278.406L223.652 280.7C223.652 280.7 227.619 281.636 229.49 279.383ZM215.603 285.969C215.211 285.999 213.528 287.066 213.528 287.066L213.068 287.364C212.985 287.42 212.916 287.568 212.858 287.695C212.817 287.782 212.781 287.859 212.749 287.887C212.901 287.809 213.052 287.725 213.194 287.636L213.528 287.417L213.596 287.375L213.68 287.317L213.753 287.265L213.873 287.187L213.957 287.124C214.208 286.957 214.469 286.774 214.767 286.565L214.83 286.518L214.95 286.434L215.603 285.969ZM230.305 279.855C230.201 280.097 230.031 280.305 229.814 280.455C228.393 281.646 224.954 282.075 222.863 281.343C222.734 281.439 221.816 282.086 220.578 282.957L227.086 287.242C227.229 287.341 227.343 287.476 227.416 287.633C227.49 287.79 227.52 287.963 227.504 288.136L229.103 289.223L230.4 290.441L228.832 289.678L227.206 288.591C227.071 288.656 226.926 288.7 226.778 288.721C226.577 288.714 226.383 288.648 226.218 288.533C226.218 288.533 222.401 285.855 219.429 283.764C216.452 285.855 212.629 288.535 212.629 288.535C212.463 288.649 212.267 288.713 212.065 288.718C211.916 288.696 211.772 288.652 211.636 288.587L210.016 289.68L208.448 290.448L209.744 289.23L211.328 288.143C211.31 287.97 211.34 287.796 211.413 287.639C211.487 287.481 211.602 287.347 211.746 287.249L218.273 282.951C217.039 282.083 216.124 281.437 215.995 281.341C213.883 282.073 210.465 281.645 209.043 280.453L209.022 280.453C208.807 280.303 208.638 280.094 208.536 279.852C208.434 279.609 208.403 279.343 208.448 279.083C208.513 278.878 208.624 278.69 208.772 278.533C208.921 278.376 209.103 278.255 209.305 278.179C209.305 278.179 209.137 277.714 209.315 277.484C209.493 277.254 209.885 277.134 210.46 277.186C210.272 277.045 210.256 276.878 210.329 276.773C210.383 276.713 210.459 276.676 210.54 276.67C210.621 276.664 210.701 276.69 210.763 276.742L211.348 277.082C210.873 276.235 210.768 275.618 211.061 275.31C211.155 275.234 211.266 275.183 211.386 275.163C211.505 275.143 211.627 275.154 211.74 275.195C211.588 275.136 211.433 275.085 211.275 275.043C211.275 275.043 211.662 274.228 212.007 274.082C212.212 274.011 212.431 273.987 212.647 274.011C212.862 274.034 213.07 274.105 213.256 274.217C214.887 275.132 216.544 278.127 216.633 280.359L219.421 282.195L222.199 280.366C222.288 278.134 223.945 275.113 225.576 274.224C225.764 274.107 225.976 274.033 226.197 274.009C226.418 273.985 226.641 274.01 226.851 274.083C227.196 274.23 227.572 275.045 227.572 275.045C227.413 275.088 227.256 275.138 227.102 275.197C227.22 275.153 227.348 275.143 227.472 275.166C227.597 275.189 227.712 275.244 227.807 275.327C228.095 275.636 227.996 276.252 227.52 277.099L228.079 276.759C228.142 276.707 228.223 276.681 228.305 276.687C228.387 276.693 228.463 276.73 228.518 276.791C228.591 276.895 228.576 277.063 228.382 277.204C228.973 277.136 229.433 277.334 229.553 277.512C229.673 277.69 229.553 278.181 229.553 278.181C229.753 278.259 229.932 278.381 230.078 278.538C230.225 278.694 230.335 278.881 230.4 279.085C230.442 279.346 230.409 279.612 230.305 279.855ZM209.347 279.381C211.218 281.634 215.185 280.699 215.185 280.699L212.106 278.404C212.106 278.404 208.531 278.404 209.347 279.381ZM225.325 287.054C225.325 287.054 223.6 285.957 223.234 285.957L223.234 285.983L223.908 286.458L224.023 286.542L224.091 286.542L224.891 287.122L224.98 287.185L225.1 287.263L225.173 287.316L225.257 287.363L225.319 287.404L225.659 287.624C225.8 287.713 225.946 287.796 226.103 287.875C226.07 287.85 226.032 287.77 225.99 287.678C225.932 287.556 225.865 287.412 225.784 287.352L225.325 287.054Z" fill="#4C4F6A"/>
<path fill-rule="evenodd" clip-rule="evenodd" d="M229.491 33.1918C230.306 32.2144 226.741 32.2144 226.741 32.2144L223.652 34.5089C223.652 34.5089 227.619 35.4445 229.491 33.1918ZM215.603 39.778C215.211 39.8072 213.528 40.875 213.528 40.875L213.068 41.1729C212.985 41.2285 212.916 41.377 212.858 41.5033C212.817 41.5909 212.782 41.6678 212.75 41.6956C212.901 41.6172 213.053 41.5336 213.194 41.4447L213.528 41.2252L213.596 41.1834L213.68 41.1259L213.753 41.0736L213.873 40.9952L213.957 40.9325C214.208 40.7653 214.469 40.5823 214.767 40.3733L214.83 40.3262L214.95 40.2426L215.603 39.778ZM230.305 33.6632C230.202 33.9055 230.032 34.1136 229.815 34.2633C228.393 35.455 224.954 35.8835 222.863 35.1518C222.734 35.2475 221.816 35.8949 220.578 36.7653L227.086 41.0509C227.229 41.1494 227.343 41.2841 227.416 41.4412C227.49 41.5982 227.52 41.772 227.504 41.9447L229.104 43.0318L230.4 44.2497L228.832 43.4866L227.206 42.3994C227.071 42.4643 226.926 42.5083 226.778 42.5301C226.577 42.5224 226.383 42.457 226.219 42.3419C226.219 42.3419 222.402 39.6634 219.429 37.5729C216.452 39.6637 212.629 42.3437 212.629 42.3437C212.463 42.4579 212.267 42.5215 212.065 42.5267C211.916 42.5049 211.772 42.4608 211.636 42.396L210.016 43.4884L208.448 44.2567L209.744 43.0389L211.328 41.9517C211.31 41.7789 211.34 41.6045 211.414 41.4471C211.487 41.2898 211.602 41.1553 211.746 41.058L218.273 36.7599C217.039 35.8913 216.124 35.2456 215.995 35.15C213.884 35.8817 210.465 35.4532 209.044 34.2615H209.023C208.807 34.1114 208.638 33.9029 208.536 33.6604C208.434 33.4179 208.404 33.1514 208.448 32.8921C208.513 32.6864 208.624 32.4981 208.772 32.3415C208.921 32.1849 209.103 32.064 209.305 31.9879C209.305 31.9879 209.138 31.5227 209.315 31.2927C209.493 31.0628 209.885 30.9425 210.46 30.9948C210.272 30.8537 210.256 30.6864 210.329 30.5819C210.384 30.5216 210.459 30.4846 210.54 30.4788C210.621 30.4729 210.701 30.4987 210.763 30.5505L211.349 30.8903C210.873 30.0436 210.768 29.4268 211.061 29.1184C211.155 29.0423 211.267 28.9917 211.386 28.9716C211.505 28.9514 211.627 28.9624 211.741 29.0034C211.588 28.9445 211.433 28.8939 211.275 28.8519C211.275 28.8519 211.662 28.0365 212.007 27.8902C212.213 27.8201 212.431 27.7959 212.647 27.8194C212.863 27.8429 213.071 27.9134 213.256 28.0261C214.887 28.9407 216.544 31.9356 216.633 34.1674L219.421 36.0037L222.199 34.1744C222.288 31.9426 223.945 28.9216 225.576 28.0331C225.764 27.9157 225.977 27.842 226.197 27.8176C226.418 27.7932 226.642 27.8186 226.851 27.892C227.196 28.0383 227.572 28.8537 227.572 28.8537C227.413 28.8962 227.256 28.9468 227.102 29.0052C227.221 28.9619 227.349 28.9512 227.473 28.9742C227.597 28.9972 227.712 29.053 227.808 29.1359C228.095 29.4443 227.996 30.061 227.52 30.9077L228.079 30.568C228.143 30.5158 228.223 30.4899 228.305 30.4958C228.387 30.5016 228.463 30.5387 228.518 30.5994C228.592 30.7039 228.576 30.8712 228.383 31.0123C228.973 30.9443 229.433 31.1429 229.553 31.3207C229.674 31.4984 229.553 31.9897 229.553 31.9897C229.753 32.068 229.932 32.1899 230.079 32.3463C230.225 32.5027 230.335 32.6897 230.4 32.8939C230.442 33.1541 230.409 33.4208 230.305 33.6632ZM209.347 33.19C211.218 35.4427 215.185 34.5071 215.185 34.5071L212.106 32.2126C212.106 32.2126 208.531 32.2126 209.347 33.19ZM225.325 40.8628C225.325 40.8628 223.6 39.7652 223.234 39.7652L223.234 39.7913L223.908 40.2669L224.023 40.3506L224.091 40.3506L224.891 40.9307L224.98 40.9934L225.1 41.0718L225.173 41.1241L225.257 41.1711L225.32 41.213L225.659 41.4325C225.8 41.5213 225.947 41.605 226.104 41.6834C226.07 41.6588 226.033 41.5787 225.99 41.487C225.933 41.3642 225.865 41.2205 225.785 41.1607L225.325 40.8628Z" fill="#4C4F6A"/>
</svg>
