<svg width="255" height="318" viewBox="0 0 255 318" fill="none" xmlns="http://www.w3.org/2000/svg">
<rect x="0.914551" y="0.117188" width="253.841" height="316.976" rx="10.6118" fill="#E1D0C7"/>
<path d="M62.5922 111.592C63.9293 111.592 64.948 111.592 64.948 110.191C64.948 109.141 64.6297 107.453 64.6297 105.798C64.6297 104.747 64.757 103.219 64.757 102.933C64.757 101.978 64.2795 101.405 62.2738 100.577C60.7457 99.972 57.785 99.1443 54.7607 99.1443C52.564 99.1443 48.7438 99.59 45.5284 102.169C42.504 104.556 41.3897 108.186 41.3897 112.292C41.3897 116.845 42.7905 120.092 45.2737 122.225C47.7568 124.358 51.3224 125.345 55.6202 125.345C57.1802 125.345 63.2289 124.995 63.9293 123.339C64.1203 122.894 64.4705 120.506 64.5978 119.965C64.7252 119.424 65.5847 116.749 65.5847 116.113C65.5847 115.38 64.9799 114.998 64.4387 114.998C63.7383 114.998 59.9817 115.953 57.3712 115.953C53.9648 115.953 51.6089 115.189 51.6089 111.401C51.6089 109.968 51.9273 107.326 54.3786 107.326C55.8749 107.326 56.4479 108.249 56.4479 109.554C56.4479 111.051 56.4479 111.592 58.7401 111.592H62.5922ZM78.788 121.716C78.788 123.912 78.788 124.867 80.2206 124.867C81.2712 124.867 82.3536 124.645 83.4042 124.645C84.7413 124.645 86.6514 124.867 87.4473 124.867C88.5615 124.867 88.7207 123.912 88.7207 123.562C88.7207 123.085 88.657 122.957 88.1795 122.193C87.7975 121.588 87.7656 121.493 87.7656 119.328V111.815C87.7656 107.262 85.8555 104.174 81.1439 104.174C79.8386 104.174 78.7244 104.588 77.9285 105.002C77.1326 105.416 76.6232 105.862 76.3685 105.862C75.9228 105.862 75.9228 105.193 75.9228 104.811V103.187C75.9228 102.742 76.1457 100.991 76.1457 100.736C76.1457 100.45 75.9547 99.6218 74.9359 99.6218C74.0764 99.6218 72.803 99.8447 71.4659 99.8447C70.2243 99.8447 68.8553 99.6218 67.3909 99.6218C66.786 99.6218 65.9901 99.8447 65.9901 100.959C65.9901 101.436 66.0538 101.564 66.5314 102.328C66.8815 102.901 66.9452 102.933 66.9452 105.161V119.328C66.9452 121.27 66.8815 121.62 66.5314 122.193C66.0538 122.957 65.9901 123.085 65.9901 123.53C65.9901 123.88 66.1175 124.867 67.2636 124.867C68.5052 124.867 70.0333 124.645 71.5295 124.645C73.1531 124.645 74.9996 124.867 75.6045 124.867C76.655 124.867 76.8779 124.008 76.8779 123.562C76.8779 123.053 76.7506 122.894 76.3367 122.193C76.0502 121.716 75.9228 121.525 75.9228 119.328V114.202C75.9228 112.961 75.9547 111.56 77.4509 111.56C78.8835 111.56 78.788 113.025 78.788 114.107V121.716ZM92.9533 104.111C91.6481 104.111 91.5526 104.938 91.4889 105.543C91.2661 107.199 91.2024 107.676 90.8204 109.236C90.7249 109.682 90.502 110.382 90.502 110.669C90.502 111.083 90.9477 111.687 91.6799 111.687C91.9346 111.687 92.0938 111.656 93.6219 111.21C94.9272 110.828 97.0601 110.541 98.3017 110.541C100.212 110.541 100.976 110.987 100.976 111.878C100.976 112.292 100.849 112.547 100.498 112.643C100.18 112.738 99.6388 112.738 98.8429 112.77C92.6032 112.802 88.9739 114.553 88.9739 118.819C88.9739 121.525 90.693 125.154 95.9459 125.154C98.3654 125.154 99.2568 124.454 100.785 123.276C101.008 123.085 101.135 122.989 101.326 122.989C101.549 122.989 101.581 123.18 101.676 123.785C101.772 124.358 101.995 124.867 102.791 124.867C103.204 124.867 105.019 124.645 105.847 124.645C107.056 124.645 108.68 124.867 109.444 124.867C110.558 124.867 110.749 123.944 110.749 123.562C110.749 123.085 110.686 122.957 110.208 122.193C109.89 121.716 109.794 121.525 109.794 119.328V112.356C109.794 109.809 109.794 108.122 108.234 106.466C106.897 105.034 104.446 103.983 100.721 103.983C99.4478 103.983 97.3148 104.079 96.0414 104.302C95.8504 104.333 94.768 104.556 94.5451 104.556C94.3541 104.556 94.1631 104.461 93.9402 104.333C93.7174 104.206 93.3672 104.111 92.9852 104.111H92.9533ZM100.849 117.482C100.849 118.214 100.562 119.71 98.9066 119.71C98.1744 119.71 97.092 119.328 97.092 118.15C97.092 116.399 99.3523 116.399 99.9572 116.399C100.785 116.399 100.849 116.781 100.849 117.163V117.482ZM123.915 104.429C122.737 104.429 121.591 104.779 120.667 105.543C120.126 105.989 120.031 105.989 119.84 105.989C119.617 105.989 119.585 105.893 119.362 105.161C119.171 104.493 118.725 104.461 118.471 104.461C118.057 104.461 117.484 104.684 115.892 104.684C115.415 104.684 113.027 104.461 112.486 104.461C111.212 104.461 111.18 105.543 111.18 105.798C111.18 106.212 111.244 106.466 111.722 107.135C112.104 107.676 112.135 107.931 112.135 110V119.328C112.135 121.27 112.072 121.62 111.722 122.193C111.244 122.957 111.18 123.085 111.18 123.53C111.18 123.88 111.308 124.867 112.486 124.867C113.345 124.867 114.937 124.645 116.974 124.645C118.916 124.645 120.508 124.867 121.24 124.867C122.355 124.867 122.514 123.912 122.514 123.562C122.514 123.085 122.45 122.957 121.973 122.193C121.686 121.716 121.559 121.525 121.559 119.328V117.673C121.559 115.985 121.272 115.508 121.272 114.839C121.272 113.82 122.068 113.056 123.087 113.056C123.373 113.056 124.392 113.216 124.679 113.216C125.475 113.216 125.729 112.515 125.729 112.133C125.666 111.337 125.538 110.573 125.538 109.777C125.538 107.517 125.729 106.562 125.729 105.83C125.729 104.429 124.583 104.429 123.946 104.429H123.915ZM138.63 121.716C138.63 123.912 138.63 124.867 140.063 124.867C140.859 124.867 142.196 124.645 143.246 124.645C144.87 124.645 146.812 124.867 147.258 124.867C148.372 124.867 148.563 123.944 148.563 123.562C148.563 123.085 148.499 122.957 148.022 122.193C147.64 121.588 147.608 121.556 147.608 119.328V114.553C147.608 114.075 147.449 112.865 147.449 112.579C147.449 111.656 148.276 111.401 148.786 111.401C150.473 111.401 150.473 113.12 150.473 114.457V121.716C150.473 123.912 150.473 124.867 151.937 124.867C152.797 124.867 154.102 124.645 155.089 124.645C156.426 124.645 158.336 124.867 159.1 124.867C160.215 124.867 160.406 123.976 160.406 123.562C160.406 123.085 160.342 122.957 159.864 122.193C159.482 121.62 159.451 121.556 159.451 119.328V113.375C159.451 108.345 158.209 103.983 152.288 103.983C150.696 103.983 148.913 104.174 147.13 106.084C146.685 106.562 146.589 106.689 146.462 106.689C146.271 106.689 146.016 106.371 145.634 105.925C145.061 105.257 144.01 103.983 140.827 103.983C138.598 103.983 137.134 104.524 135.701 105.957C135.16 106.498 135.128 106.53 134.905 106.53C134.587 106.53 134.555 106.275 134.523 105.639C134.46 105.129 134.269 104.461 133.409 104.461C132.836 104.461 131.913 104.684 130.99 104.684C129.652 104.684 127.965 104.461 127.137 104.461C125.896 104.461 125.832 105.511 125.832 105.798C125.832 106.275 125.896 106.403 126.373 107.135C126.724 107.708 126.787 107.931 126.787 110V119.328C126.787 121.27 126.724 121.62 126.373 122.193C125.896 122.957 125.832 123.085 125.832 123.53C125.832 124.04 126.055 124.867 127.169 124.867C128.347 124.867 129.812 124.645 131.372 124.645C133.154 124.645 134.619 124.867 135.447 124.867C136.497 124.867 136.72 124.008 136.72 123.562C136.72 123.053 136.624 122.894 136.179 122.193C135.86 121.716 135.765 121.525 135.765 119.328V115.285C135.765 113.629 135.669 113.056 135.669 112.547C135.669 111.878 136.179 111.401 136.975 111.401C138.63 111.401 138.63 113.025 138.63 114.171V121.716ZM166.36 98.0619C164.481 98.0619 161.202 98.3802 161.202 100.545C161.202 102.519 163.463 102.996 166.36 102.996C168.938 102.996 171.485 102.646 171.485 100.545C171.485 98.2847 167.92 98.0619 166.391 98.0619H166.36ZM161.616 119.328C161.616 121.27 161.584 121.62 161.202 122.193C160.693 122.957 160.661 123.085 160.661 123.53C160.661 123.849 160.788 124.867 161.966 124.867C162.826 124.867 163.94 124.645 166.455 124.645C168.397 124.645 170.021 124.867 170.721 124.867C171.803 124.867 171.994 124.008 171.994 123.562C171.994 123.053 171.867 122.894 171.453 122.193C171.167 121.716 171.039 121.525 171.039 119.328V110C171.039 107.804 171.135 107.613 171.453 107.135C171.931 106.403 171.994 106.275 171.994 105.766C171.994 105.32 171.867 104.461 170.657 104.461C169.67 104.461 168.302 104.843 166.582 104.843C164.513 104.843 163.303 104.461 161.966 104.461C161.139 104.461 160.661 104.97 160.661 105.798C160.661 106.275 160.757 106.403 161.202 107.135C161.584 107.708 161.616 107.995 161.616 110V119.328ZM185.251 121.716C185.251 123.912 185.251 124.867 186.683 124.867C187.67 124.867 188.816 124.645 189.867 124.645C191.522 124.645 193.305 124.867 193.91 124.867C194.992 124.867 195.183 123.944 195.183 123.562C195.183 123.085 195.12 122.957 194.642 122.193C194.26 121.588 194.228 121.334 194.228 119.328V112.006C194.228 111.051 194.196 108.154 192.7 106.371C191.331 104.747 189.23 103.983 187.129 103.983C185.887 103.983 184.136 104.142 182.481 105.798C181.844 106.435 181.685 106.53 181.494 106.53C181.207 106.53 181.176 106.244 181.144 105.766C181.08 105.257 180.985 104.461 179.966 104.461C179.52 104.461 178.183 104.684 177.069 104.684C175.955 104.684 174.872 104.461 173.758 104.461C172.484 104.461 172.453 105.48 172.453 105.798C172.453 106.275 172.548 106.403 172.994 107.135C173.344 107.708 173.408 107.931 173.408 110V119.328C173.408 121.27 173.344 121.62 172.994 122.193C172.516 122.957 172.453 123.085 172.453 123.53C172.453 123.88 172.58 124.867 173.758 124.867C174.649 124.867 176.559 124.645 177.992 124.645C179.838 124.645 181.398 124.867 182.067 124.867C183.118 124.867 183.34 124.008 183.34 123.562C183.34 123.053 183.213 122.894 182.799 122.193C182.513 121.716 182.385 121.525 182.385 119.328V113.629C182.385 113.343 182.29 112.897 182.29 112.674C182.29 111.847 182.799 111.401 183.691 111.401C185.251 111.401 185.251 112.674 185.251 114.33V121.716ZM195.117 112.229C195.117 118.15 199.924 120.028 205.177 120.028C205.75 120.028 206.419 119.901 206.992 119.901C207.692 119.901 208.011 120.41 208.011 120.888C208.011 122.352 205.655 122.352 205.114 122.352C203.617 122.352 202.28 122.193 200.115 121.588C199.447 121.397 198.365 121.079 198.078 121.079C197.282 121.079 197.059 121.907 196.964 122.257C196.741 123.148 196.359 124.231 196.072 124.836C195.404 126.332 195.308 126.523 195.308 127C195.308 127.669 196.009 128.083 196.964 128.465C197.696 128.719 200.88 129.802 205.623 129.802C210.016 129.802 212.117 128.879 213.9 127.446C215.779 125.95 216.702 124.103 216.702 121.843C216.702 120.379 216.192 118.819 215.269 117.8C214.887 117.386 214.823 117.291 214.823 117.068C214.823 116.94 214.823 116.813 215.174 116.399C216.192 115.221 216.638 113.438 216.638 112.006C216.638 108.695 214.696 107.358 214.696 106.753C214.696 106.53 215.11 106.116 215.397 105.862C216.161 105.098 216.638 103.951 216.638 102.742C216.638 101.309 215.906 99.4945 213.486 99.4945C211.162 99.4945 210.653 100.959 210.653 101.723C210.653 102.901 211.704 103.187 211.704 103.92C211.704 104.27 211.449 104.684 211.035 104.684C210.749 104.684 210.144 104.493 209.252 104.333C208.361 104.142 207.215 103.983 205.814 103.983C200.211 103.983 195.117 105.925 195.117 112.197V112.229ZM205.846 110.255C206.896 110.255 208.043 110.828 208.043 112.038C208.043 113.311 206.992 113.98 205.814 113.98C204.668 113.98 203.617 113.375 203.617 112.133C203.617 110.923 204.732 110.255 205.814 110.255H205.846ZM90.7378 147.229C90.7378 153.15 95.545 155.028 100.798 155.028C101.371 155.028 102.039 154.901 102.612 154.901C103.313 154.901 103.631 155.41 103.631 155.888C103.631 157.352 101.275 157.352 100.734 157.352C99.2379 157.352 97.9008 157.193 95.736 156.588C95.0674 156.397 93.985 156.079 93.6985 156.079C92.9026 156.079 92.6798 156.907 92.5843 157.257C92.3614 158.148 91.9794 159.231 91.6929 159.836C91.0243 161.332 90.9288 161.523 90.9288 162C90.9288 162.669 91.6292 163.083 92.5843 163.465C93.3165 163.719 96.5 164.802 101.244 164.802C105.637 164.802 107.738 163.879 109.521 162.446C111.399 160.95 112.322 159.103 112.322 156.843C112.322 155.379 111.813 153.819 110.89 152.8C110.508 152.386 110.444 152.291 110.444 152.068C110.444 151.94 110.444 151.813 110.794 151.399C111.813 150.221 112.259 148.438 112.259 147.006C112.259 143.695 110.317 142.358 110.317 141.753C110.317 141.53 110.731 141.116 111.017 140.862C111.781 140.098 112.259 138.951 112.259 137.742C112.259 136.309 111.526 134.494 109.107 134.494C106.783 134.494 106.274 135.959 106.274 136.723C106.274 137.901 107.324 138.187 107.324 138.92C107.324 139.27 107.069 139.684 106.656 139.684C106.369 139.684 105.764 139.493 104.873 139.333C103.981 139.142 102.835 138.983 101.435 138.983C95.8315 138.983 90.7378 140.925 90.7378 147.197V147.229ZM101.466 145.255C102.517 145.255 103.663 145.828 103.663 147.038C103.663 148.311 102.612 148.98 101.435 148.98C100.288 148.98 99.2379 148.375 99.2379 147.133C99.2379 145.923 100.352 145.255 101.435 145.255H101.466ZM122.385 141.689C122.385 140.289 122.257 139.461 121.016 139.461C120.507 139.461 119.297 139.684 118.023 139.684C116.495 139.684 114.712 139.461 113.726 139.461C112.452 139.461 112.388 140.543 112.388 140.798C112.388 141.275 112.484 141.403 112.961 142.135C113.28 142.644 113.375 142.804 113.375 145.892C113.375 146.815 113.121 151.304 113.121 152.322C113.121 156.652 114.903 160.154 119.742 160.154C121.716 160.154 123.372 159.613 124.772 158.371C125.059 158.116 125.314 157.862 125.409 157.862C125.6 157.862 125.6 157.925 125.728 158.53C125.887 159.326 126.014 159.867 127.033 159.867C127.797 159.867 129.07 159.645 129.962 159.645C131.362 159.645 132.795 159.867 133.846 159.867C134.96 159.867 135.151 158.944 135.151 158.562C135.151 158.085 135.087 157.957 134.61 157.193C134.228 156.588 134.196 156.556 134.196 154.328V141.689C134.196 140.352 134.196 139.461 132.827 139.461C132.063 139.461 131.044 139.684 129.707 139.684C128.179 139.684 126.46 139.461 125.441 139.461C124.199 139.461 124.136 140.511 124.136 140.798C124.136 141.244 124.199 141.371 124.677 142.135C125.027 142.708 125.091 142.772 125.091 145L125.059 150.285C125.059 150.444 125.123 151.24 125.123 151.431C125.123 152.163 124.677 152.673 123.913 152.673C122.385 152.673 122.385 151.049 122.385 149.362V141.689ZM134.385 140.83C134.385 141.339 134.512 141.53 134.989 142.071C135.403 142.581 135.626 142.899 136.008 144.809C136.709 148.311 138.428 153.246 140.338 156.302C140.656 156.811 140.752 157.066 140.879 157.321C141.006 157.543 141.006 157.703 141.006 157.925C141.006 158.435 140.592 158.626 140.147 158.626C138.81 158.626 136.072 157.607 135.722 157.607C135.467 157.607 134.862 157.83 134.862 158.594C134.862 158.849 134.989 160.218 134.989 160.504C134.989 160.822 134.862 162.351 134.862 162.701C134.862 163.592 135.276 163.91 135.722 164.07C136.549 164.356 139.542 164.802 142.375 164.802C143.967 164.802 148.297 164.802 150.812 160.631C153.422 156.302 155.078 147.929 155.3 146.528C155.842 143.217 156.065 142.835 156.415 142.262C157.051 141.244 157.147 141.148 157.147 140.702C157.147 140.193 156.733 139.461 155.937 139.461C155.555 139.461 154.282 139.684 153.008 139.684C151.576 139.684 149.825 139.461 149.315 139.461C148.615 139.461 148.137 140.034 148.137 140.83C148.137 141.562 148.551 141.976 148.551 143.122C148.551 144.3 148.201 146.942 147.564 149.33C147.342 150.158 147.214 150.349 146.991 150.349C146.705 150.349 146.578 150.189 146.259 149.011C145.463 146.114 145.304 143.568 145.304 142.772C145.304 142.613 145.304 142.294 145.368 142.103C145.654 141.212 145.686 141.116 145.686 140.83C145.686 140.32 145.463 139.461 144.476 139.461C143.585 139.461 142.534 139.684 140.752 139.684C138.746 139.684 136.772 139.461 135.658 139.461C134.926 139.461 134.385 139.938 134.385 140.798V140.83ZM161.321 152.609C159.856 152.609 156.1 152.959 156.1 156.27C156.1 159.39 159.315 159.899 161.257 159.899C163.199 159.899 166.478 159.422 166.478 156.238C166.478 152.609 162.212 152.609 161.353 152.609H161.321Z" fill="#BA3944"/>
<path d="M111.495 198.716C111.866 197.514 112.379 196.382 113.034 195.321C113.511 194.542 114.007 194.003 114.519 193.702C115.333 193.26 116.076 193.384 116.748 194.074C117.084 194.445 117.42 195.135 117.756 196.143C117.986 196.868 118.234 197.85 118.499 199.088C118.8 200.503 119.118 202.227 119.454 204.261C119.595 205.216 119.702 206.03 119.772 206.702L120.144 205.694C120.268 205.34 120.374 205.048 120.462 204.818C120.568 204.571 120.63 204.411 120.648 204.341C121.638 201.882 122.646 199.716 123.672 197.841C124.698 195.966 125.963 194.065 127.466 192.137C127.59 191.996 127.749 191.916 127.943 191.898C128.138 191.863 128.306 191.907 128.447 192.031C128.607 192.155 128.695 192.314 128.713 192.509C128.748 192.703 128.704 192.88 128.58 193.039C127.112 194.914 125.892 196.744 124.919 198.531C123.929 200.352 122.947 202.466 121.974 204.871C121.957 204.924 121.842 205.252 121.629 205.853L121.046 207.365L120.409 208.93C120.303 209.16 120.206 209.346 120.117 209.487C120.064 209.576 120.02 209.655 119.985 209.726C119.878 209.85 119.772 209.947 119.666 210.018C119.383 210.16 119.118 210.133 118.87 209.938C118.764 209.868 118.685 209.779 118.632 209.673C118.596 209.602 118.57 209.514 118.552 209.408C118.534 209.284 118.508 209.125 118.472 208.93C118.437 208.647 118.41 208.223 118.393 207.657C118.357 206.843 118.234 205.782 118.021 204.473C117.65 202.156 117.349 200.459 117.119 199.38C116.872 198.248 116.624 197.319 116.377 196.594C116.129 195.781 115.899 195.276 115.687 195.082C115.545 194.905 115.386 194.861 115.209 194.949C114.926 195.126 114.599 195.506 114.228 196.09C113.662 197.027 113.211 198.044 112.875 199.141C112.822 199.335 112.707 199.477 112.53 199.565C112.353 199.654 112.167 199.672 111.973 199.618C111.778 199.565 111.637 199.45 111.548 199.274C111.46 199.097 111.442 198.911 111.495 198.716ZM128.229 201.927C128.211 202.068 128.123 202.616 127.964 203.571C127.804 204.456 127.689 205.234 127.619 205.906C127.513 206.79 127.468 207.489 127.486 208.002C127.521 208.568 127.592 208.913 127.698 209.036C127.804 209.16 127.893 209.231 127.964 209.249C128.017 209.249 128.096 209.213 128.202 209.143C128.538 208.895 128.919 208.364 129.343 207.551C129.75 206.755 130.272 205.437 130.908 203.598C130.979 203.421 131.103 203.288 131.28 203.2C131.457 203.112 131.633 203.103 131.81 203.173C132.005 203.226 132.146 203.341 132.235 203.518C132.323 203.695 132.341 203.881 132.288 204.075C131.616 205.986 131.059 207.365 130.616 208.214C130.086 209.222 129.564 209.912 129.051 210.283C128.644 210.584 128.238 210.708 127.831 210.655C127.389 210.619 126.991 210.398 126.637 209.992C126.301 209.602 126.106 208.966 126.053 208.081C126.036 207.462 126.08 206.675 126.186 205.72C126.257 205.119 126.372 204.341 126.531 203.386C126.69 202.431 126.779 201.891 126.796 201.767C126.832 201.555 126.92 201.396 127.062 201.29C127.221 201.166 127.398 201.122 127.592 201.157C127.804 201.175 127.964 201.263 128.07 201.422C128.193 201.564 128.246 201.732 128.229 201.927ZM128.388 197.496C128.529 197.638 128.6 197.806 128.6 198C128.6 198.195 128.529 198.363 128.388 198.504C128.246 198.646 128.078 198.716 127.884 198.716C127.689 198.716 127.521 198.646 127.38 198.504C127.238 198.363 127.168 198.195 127.168 198C127.168 197.806 127.238 197.638 127.38 197.496C127.521 197.355 127.689 197.284 127.884 197.284C128.078 197.284 128.246 197.355 128.388 197.496ZM130.787 205.933C131.212 206.18 131.645 206.233 132.087 206.092C132.635 205.897 133.113 205.49 133.52 204.871C133.909 204.27 134.086 203.704 134.05 203.173C134.033 202.714 133.82 202.422 133.414 202.298C132.936 202.121 132.441 202.378 131.928 203.067C131.344 203.828 130.964 204.783 130.787 205.933ZM130.761 207.471C130.814 207.984 130.946 208.4 131.159 208.718C131.601 209.373 132.361 209.576 133.44 209.328C134.325 209.116 135.014 208.541 135.51 207.604C135.686 207.268 135.846 206.923 135.987 206.569C136.129 206.198 136.279 205.773 136.438 205.296C136.597 204.818 136.739 204.411 136.863 204.075C136.933 203.899 137.057 203.775 137.234 203.704C137.411 203.616 137.588 203.607 137.765 203.677C137.959 203.748 138.092 203.872 138.162 204.049C138.251 204.226 138.26 204.411 138.189 204.606L137.818 205.72C137.641 206.215 137.473 206.675 137.314 207.1C137.154 207.524 136.977 207.922 136.783 208.294C136.093 209.602 135.085 210.407 133.759 210.708C132.043 211.115 130.787 210.717 129.991 209.514C129.355 208.577 129.151 207.339 129.381 205.8C129.576 204.367 130.044 203.165 130.787 202.192C131.194 201.661 131.663 201.272 132.193 201.025C132.724 200.759 133.29 200.724 133.891 200.918C134.899 201.272 135.43 201.997 135.483 203.094C135.536 203.943 135.28 204.801 134.714 205.667C134.13 206.569 133.405 207.162 132.538 207.445C131.937 207.639 131.344 207.648 130.761 207.471ZM146.409 201.873C146.215 201.891 146.047 201.935 145.905 202.006C145.622 202.165 145.463 202.422 145.428 202.775C145.233 203.589 145.49 204.288 146.197 204.871C146.339 205.013 146.498 205.128 146.675 205.216L146.675 205.137C146.869 204.535 146.896 203.792 146.754 202.908C146.648 202.466 146.533 202.121 146.409 201.873ZM138.451 201.555L138.185 202.378L137.893 203.2C137.823 203.412 137.743 203.686 137.655 204.022L137.389 204.871C137.336 205.101 137.274 205.375 137.204 205.694C137.151 205.994 137.115 206.269 137.098 206.516C137.08 206.764 137.071 207.02 137.071 207.286C137.071 207.551 137.089 207.807 137.124 208.055C137.23 208.762 137.487 209.178 137.893 209.302C138.3 209.443 138.751 209.249 139.246 208.718C139.353 208.612 139.459 208.488 139.565 208.347L139.804 208.028C139.874 207.922 139.954 207.781 140.042 207.604L140.255 207.206C140.29 207.153 140.37 207.003 140.493 206.755C140.635 206.507 140.714 206.357 140.732 206.304C140.767 206.003 140.865 205.623 141.024 205.163C141.165 204.65 141.245 204.261 141.263 203.996C141.28 203.801 141.36 203.642 141.501 203.518C141.661 203.377 141.838 203.315 142.032 203.333C142.227 203.35 142.386 203.439 142.51 203.598C142.651 203.739 142.713 203.907 142.695 204.102C142.678 204.456 142.572 204.942 142.377 205.561C142.271 205.95 142.2 206.251 142.165 206.463C142.165 206.534 142.156 206.605 142.138 206.675L142.138 206.728C142.085 207.63 142.235 208.391 142.589 209.01C142.801 209.364 143.031 209.523 143.279 209.487C144.057 209.328 144.738 208.683 145.322 207.551C145.569 207.073 145.773 206.552 145.932 205.986C145.525 205.738 145.18 205.375 144.897 204.898C144.455 204.173 144.287 203.341 144.393 202.404C144.446 201.838 144.623 201.396 144.924 201.078C145.295 200.618 145.79 200.397 146.409 200.414C146.922 200.414 147.294 200.715 147.524 201.316C147.63 201.635 147.709 202.041 147.762 202.537C147.833 203.333 147.824 204.014 147.736 204.579C147.701 204.739 147.674 204.898 147.656 205.057L147.709 205.057C148.293 205.057 149.054 204.854 149.991 204.447C150.186 204.376 150.371 204.376 150.548 204.447C150.725 204.518 150.849 204.65 150.919 204.845C151.008 205.022 151.017 205.199 150.946 205.375C150.875 205.552 150.751 205.676 150.575 205.747C149.46 206.224 148.505 206.463 147.709 206.463C147.568 206.463 147.435 206.454 147.311 206.437C147.117 207.073 146.878 207.657 146.595 208.188C145.817 209.726 144.8 210.611 143.544 210.84C143.049 210.947 142.616 210.876 142.244 210.628C141.873 210.381 141.581 210.071 141.369 209.7C141.21 209.434 141.077 209.143 140.971 208.824C140.759 209.143 140.538 209.426 140.308 209.673C139.406 210.646 138.451 210.973 137.442 210.655C136.983 210.496 136.594 210.204 136.275 209.779C135.974 209.355 135.78 208.851 135.692 208.267C135.656 207.966 135.638 207.657 135.638 207.339C135.638 207.02 135.647 206.711 135.665 206.41C135.7 206.109 135.745 205.791 135.798 205.455C135.868 205.101 135.939 204.801 136.01 204.553C136.081 204.288 136.169 203.969 136.275 203.598L136.54 202.722L136.806 201.873L137.071 201.157C137.142 200.963 137.266 200.821 137.442 200.733C137.619 200.644 137.796 200.635 137.973 200.706C138.168 200.759 138.309 200.874 138.398 201.051C138.486 201.21 138.504 201.378 138.451 201.555Z" fill="#BA3944"/>
<path d="M87.9316 217.227C88.9859 217.015 95.4685 216.007 100.854 217.227C106.24 218.447 115.543 218.76 123.925 217.227C132.307 215.694 146.487 215.037 153.573 217.227C160.659 219.417 167.52 217.227 167.52 217.227" stroke="#BA3944" stroke-width="0.795432"/>
<path d="M38.8788 44.3398C38.4016 44.2859 37.9557 44.0742 37.6111 43.738C37.2665 43.4018 37.0427 42.9601 36.9748 42.4822C36.9298 42.1208 36.5704 39.8961 36.5198 39.7041C36.5131 39.6714 36.5037 39.6393 36.4917 39.6081C36.3224 40.2007 36.2058 40.8073 36.1435 41.4206V41.4771C35.9806 42.6854 35.756 44.3398 34.1216 44.3398C33.515 44.3398 33.032 43.9389 31.9986 43.0299C31.3918 42.5171 30.7394 42.0616 30.0496 41.6691L29.6059 41.3924C29.3682 41.2532 29.17 41.055 29.0304 40.8167C28.8908 40.5784 28.8143 40.3081 28.8084 40.0316C28.8084 38.9419 29.4543 38.6426 30.8528 37.9707C31.5504 37.6652 32.2227 37.3046 32.8635 36.8922C32.7506 36.8701 32.6359 36.8588 32.5209 36.8583C31.9107 36.9294 31.3076 37.0522 30.718 37.2253C30.2282 37.3863 29.7241 37.4997 29.2128 37.5641C28.7693 37.5557 28.3447 37.3816 28.0219 37.0758C27.699 36.77 27.5009 36.3543 27.4661 35.9097V35.8702C27.5687 35.2689 27.7402 34.6815 27.9772 34.1198C28.0614 33.894 28.1232 33.7076 28.1457 33.6286C28.1681 33.5495 28.2299 33.2503 28.2917 32.9341C28.4156 32.0243 28.6495 31.1331 28.9881 30.2803C29.1472 30.0235 29.3717 29.8143 29.6384 29.6743C29.905 29.5343 30.2041 29.4686 30.5046 29.4841C31.2797 29.4841 31.4987 29.7438 32.7231 31.178L32.8298 31.3079L32.8691 31.3531C33.2184 31.8003 33.6287 32.1956 34.0879 32.5275C33.8409 31.8531 33.5482 31.1966 33.2117 30.5626C32.8161 29.9174 32.5278 29.2118 32.358 28.4734C32.358 27.9935 32.8017 26.8359 33.852 26.8359C33.9419 26.8359 34.116 26.8359 34.4137 26.8811C34.9753 26.9319 35.7785 27.0053 36.4637 27.0053C37.1336 27.0005 37.8029 26.961 38.4687 26.8868C38.7608 26.8868 38.9686 26.8359 39.1203 26.8359C40.1818 26.8359 40.6142 27.9652 40.6142 28.4621C40.4469 29.1764 40.1663 29.859 39.783 30.4835C39.4371 31.1421 39.135 31.8231 38.8788 32.5219C39.3509 32.1762 39.7725 31.7656 40.1312 31.3023C41.3781 29.8003 41.6421 29.4841 42.4621 29.4841C44.0908 29.4841 44.3155 30.7884 44.5402 32.4033C44.6485 33.1389 44.8369 33.8603 45.1018 34.5546L45.1861 34.7579C45.37 35.1298 45.4788 35.5348 45.5062 35.9493C45.4533 36.3697 45.256 36.7583 44.9483 37.048C44.6407 37.3377 44.242 37.5103 43.8213 37.5359C43.3062 37.4719 42.7958 37.3738 42.2936 37.2423C41.6686 37.0794 41.0347 36.953 40.3952 36.864C40.2969 36.8638 40.1988 36.8751 40.1031 36.8979C40.7079 37.3515 41.376 37.713 42.0858 37.9707L42.2093 38.0328C43.4955 38.6369 44.1414 38.9419 44.1414 40.0316C44.1414 40.7544 43.7595 41.1044 42.2206 42.1039C41.9959 42.2563 41.2433 42.8548 40.6985 43.2896C40.3784 43.5493 40.1031 43.7695 39.9852 43.8542C39.6695 44.1296 39.2775 44.301 38.8619 44.3455" fill="#BA3944"/>
<path d="M221.403 44.3398C220.925 44.2859 220.48 44.0742 220.135 43.738C219.79 43.4018 219.567 42.9601 219.499 42.4822C219.454 42.1208 219.094 39.8961 219.044 39.7041C219.037 39.6714 219.028 39.6393 219.016 39.6081C218.846 40.2007 218.73 40.8073 218.667 41.4206V41.4771C218.505 42.6854 218.28 44.3398 216.646 44.3398C216.039 44.3398 215.556 43.9389 214.522 43.0299C213.916 42.5171 213.263 42.0616 212.574 41.6691L212.13 41.3924C211.892 41.2532 211.694 41.055 211.554 40.8167C211.415 40.5784 211.338 40.3081 211.332 40.0316C211.332 38.9419 211.978 38.6426 213.377 37.9707C214.074 37.6652 214.747 37.3046 215.387 36.8922C215.275 36.8701 215.16 36.8588 215.045 36.8583C214.435 36.9294 213.832 37.0522 213.242 37.2253C212.752 37.3863 212.248 37.4997 211.737 37.5641C211.293 37.5557 210.869 37.3816 210.546 37.0758C210.223 36.77 210.025 36.3543 209.99 35.9097V35.8702C210.093 35.2689 210.264 34.6815 210.501 34.1198C210.585 33.894 210.647 33.7076 210.67 33.6286C210.692 33.5495 210.754 33.2503 210.816 32.9341C210.94 32.0243 211.173 31.1331 211.512 30.2803C211.671 30.0235 211.896 29.8143 212.162 29.6743C212.429 29.5343 212.728 29.4686 213.029 29.4841C213.804 29.4841 214.023 29.7438 215.247 31.178L215.354 31.3079L215.393 31.3531C215.742 31.8003 216.153 32.1956 216.612 32.5275C216.365 31.8531 216.072 31.1966 215.736 30.5626C215.34 29.9174 215.052 29.2118 214.882 28.4734C214.882 27.9935 215.326 26.8359 216.376 26.8359C216.466 26.8359 216.64 26.8359 216.938 26.8811C217.499 26.9319 218.302 27.0053 218.988 27.0053C219.658 27.0005 220.327 26.961 220.993 26.8868C221.285 26.8868 221.493 26.8359 221.644 26.8359C222.706 26.8359 223.138 27.9652 223.138 28.4621C222.971 29.1764 222.69 29.859 222.307 30.4835C221.961 31.1421 221.659 31.8231 221.403 32.5219C221.875 32.1762 222.296 31.7656 222.655 31.3023C223.902 29.8003 224.166 29.4841 224.986 29.4841C226.615 29.4841 226.839 30.7884 227.064 32.4033C227.172 33.1389 227.361 33.8603 227.626 34.5546L227.71 34.7579C227.894 35.1298 228.003 35.5348 228.03 35.9493C227.977 36.3697 227.78 36.7583 227.472 37.048C227.165 37.3377 226.766 37.5103 226.345 37.5359C225.83 37.4719 225.32 37.3738 224.817 37.2423C224.193 37.0794 223.559 36.953 222.919 36.864C222.821 36.8638 222.723 36.8751 222.627 36.8979C223.232 37.3515 223.9 37.713 224.61 37.9707L224.733 38.0328C226.019 38.6369 226.665 38.9419 226.665 40.0316C226.665 40.7544 226.283 41.1044 224.744 42.1038C224.52 42.2563 223.767 42.8548 223.222 43.2896C222.902 43.5493 222.627 43.7695 222.509 43.8542C222.193 44.1296 221.801 44.301 221.386 44.3455" fill="#BA3944"/>
<path d="M221.402 290.535C220.925 290.481 220.479 290.27 220.135 289.933C219.79 289.597 219.566 289.155 219.498 288.677C219.454 288.316 219.094 286.091 219.044 285.899C219.037 285.867 219.027 285.835 219.015 285.803C218.846 286.396 218.73 287.003 218.667 287.616V287.672C218.504 288.881 218.28 290.535 216.645 290.535C216.039 290.535 215.556 290.134 214.522 289.225C213.916 288.712 213.263 288.257 212.573 287.864L212.13 287.588C211.892 287.449 211.694 287.25 211.554 287.012C211.414 286.774 211.338 286.503 211.332 286.227C211.332 285.137 211.978 284.838 213.376 284.166C214.074 283.861 214.746 283.5 215.387 283.088C215.274 283.065 215.16 283.054 215.045 283.054C214.434 283.125 213.831 283.248 213.242 283.421C212.752 283.582 212.248 283.695 211.736 283.759C211.293 283.751 210.868 283.577 210.546 283.271C210.223 282.965 210.025 282.55 209.99 282.105V282.066C210.092 281.464 210.264 280.877 210.501 280.315C210.585 280.089 210.647 279.903 210.669 279.824C210.692 279.745 210.754 279.446 210.815 279.129C210.939 278.22 211.173 277.328 211.512 276.476C211.671 276.219 211.895 276.01 212.162 275.87C212.429 275.73 212.728 275.664 213.028 275.679C213.803 275.679 214.022 275.939 215.247 277.373L215.353 277.503L215.393 277.548C215.742 277.996 216.152 278.391 216.612 278.723C216.365 278.048 216.072 277.392 215.735 276.758C215.34 276.113 215.051 275.407 214.882 274.669C214.882 274.189 215.325 273.031 216.376 273.031C216.466 273.031 216.64 273.031 216.937 273.076C217.499 273.127 218.302 273.201 218.987 273.201C219.657 273.196 220.327 273.156 220.992 273.082C221.284 273.082 221.492 273.031 221.644 273.031C222.705 273.031 223.138 274.161 223.138 274.657C222.971 275.372 222.69 276.054 222.307 276.679C221.961 277.337 221.659 278.018 221.402 278.717C221.875 278.371 222.296 277.961 222.655 277.498C223.902 275.996 224.166 275.679 224.986 275.679C226.615 275.679 226.839 276.984 227.064 278.599C227.172 279.334 227.361 280.056 227.625 280.75L227.71 280.953C227.894 281.325 228.002 281.73 228.03 282.145C227.977 282.565 227.78 282.954 227.472 283.243C227.164 283.533 226.766 283.706 226.345 283.731C225.83 283.667 225.319 283.569 224.817 283.438C224.192 283.275 223.558 283.148 222.919 283.059C222.821 283.059 222.723 283.07 222.627 283.093C223.232 283.547 223.9 283.908 224.609 284.166L224.733 284.228C226.019 284.832 226.665 285.137 226.665 286.227C226.665 286.95 226.283 287.3 224.744 288.299C224.52 288.452 223.767 289.05 223.222 289.485C222.902 289.745 222.627 289.965 222.509 290.05C222.193 290.325 221.801 290.496 221.386 290.541" fill="#BA3944"/>
<path d="M38.8788 290.004C38.4016 289.95 37.9557 289.738 37.6111 289.402C37.2665 289.066 37.0427 288.624 36.9748 288.146C36.9298 287.785 36.5704 285.56 36.5198 285.368C36.5131 285.335 36.5037 285.303 36.4917 285.272C36.3224 285.865 36.2058 286.471 36.1435 287.085V287.141C35.9806 288.349 35.756 290.004 34.1216 290.004C33.515 290.004 33.032 289.603 31.9986 288.694C31.3918 288.181 30.7394 287.726 30.0496 287.333L29.6059 287.056C29.3682 286.917 29.17 286.719 29.0304 286.481C28.8908 286.243 28.8143 285.972 28.8084 285.696C28.8084 284.606 29.4543 284.307 30.8528 283.635C31.5504 283.329 32.2227 282.969 32.8635 282.556C32.7506 282.534 32.6359 282.523 32.5209 282.522C31.9107 282.594 31.3076 282.716 30.718 282.889C30.2282 283.05 29.7241 283.164 29.2128 283.228C28.7693 283.22 28.3447 283.046 28.0219 282.74C27.699 282.434 27.5009 282.018 27.4661 281.574V281.534C27.5687 280.933 27.7402 280.346 27.9772 279.784C28.0614 279.558 28.1232 279.372 28.1457 279.293C28.1681 279.214 28.2299 278.914 28.2917 278.598C28.4156 277.688 28.6495 276.797 28.9881 275.944C29.1472 275.688 29.3717 275.478 29.6384 275.338C29.905 275.198 30.2041 275.133 30.5046 275.148C31.2797 275.148 31.4987 275.408 32.7231 276.842L32.8298 276.972L32.8691 277.017C33.2184 277.464 33.6287 277.86 34.0879 278.192C33.8409 277.517 33.5482 276.861 33.2117 276.227C32.8161 275.582 32.5278 274.876 32.358 274.137C32.358 273.658 32.8017 272.5 33.852 272.5C33.9419 272.5 34.116 272.5 34.4136 272.545C34.9753 272.596 35.7785 272.669 36.4637 272.669C37.1336 272.665 37.8029 272.625 38.4687 272.551C38.7608 272.551 38.9686 272.5 39.1203 272.5C40.1818 272.5 40.6142 273.629 40.6142 274.126C40.4469 274.84 40.1663 275.523 39.783 276.148C39.4371 276.806 39.135 277.487 38.8788 278.186C39.3509 277.84 39.7725 277.43 40.1312 276.966C41.3781 275.464 41.6421 275.148 42.4621 275.148C44.0908 275.148 44.3155 276.452 44.5402 278.067C44.6485 278.803 44.8369 279.524 45.1018 280.219L45.1861 280.422C45.37 280.794 45.4788 281.199 45.5062 281.613C45.4533 282.034 45.256 282.422 44.9483 282.712C44.6407 283.002 44.242 283.174 43.8213 283.2C43.3062 283.136 42.7958 283.038 42.2936 282.906C41.6686 282.743 41.0347 282.617 40.3952 282.528C40.2969 282.528 40.1988 282.539 40.1031 282.562C40.7079 283.016 41.376 283.377 42.0858 283.635L42.2093 283.697C43.4955 284.301 44.1414 284.606 44.1414 285.696C44.1414 286.418 43.7595 286.768 42.2206 287.768C41.9959 287.92 41.2433 288.519 40.6985 288.954C40.3784 289.213 40.1031 289.434 39.9852 289.518C39.6695 289.794 39.2775 289.965 38.8619 290.01" fill="#BA3944"/>
</svg>
