<svg width="255" height="318" viewBox="0 0 255 318" fill="none" xmlns="http://www.w3.org/2000/svg">
<rect x="0.461914" y="0.164062" width="253.841" height="316.976" rx="10.6118" fill="#E1D0C7"/>
<path d="M43.4532 26.7434C42.7879 26.9044 42.1924 27.0654 41.5861 27.1995C41.4865 27.2124 41.3948 27.2606 41.3278 27.3355C41.2608 27.4103 41.223 27.5068 41.2213 27.6073C41.173 27.9453 41.0979 28.2886 41.0335 28.6267H40.9369L40.6203 26.3035L39.6546 26.9741C39.6009 26.8346 39.5902 26.6576 39.5044 26.6147C38.9034 26.2767 38.2542 25.9655 37.6211 25.6328C37.6076 25.7127 37.5987 25.7933 37.5943 25.8743C37.5943 26.1962 37.7016 26.6039 37.546 26.8185C37.3904 27.0332 36.9558 27.0761 36.6446 27.2424C36.5145 27.3195 36.42 27.4448 36.3817 27.5912C36.3337 27.8537 36.3015 28.1188 36.2852 28.3852H36.2261C36.1296 27.7092 36.033 27.0278 35.9364 26.3035L34.418 27.3765C34.359 27.001 34.3107 26.6844 34.2517 26.3035C33.6991 26.7934 33.0026 27.0909 32.2665 27.1512C32.2075 26.9527 32.2075 26.6683 32.0895 26.6147C31.4886 26.2498 30.8608 25.9601 30.2062 25.6328C30.1956 25.7381 30.1956 25.8441 30.2062 25.9494C30.2442 26.1184 30.2208 26.2954 30.1402 26.4488C30.0596 26.6021 29.927 26.7218 29.7663 26.7864C29.4229 26.9741 29.1332 27.2424 28.8327 27.4248C28.7412 27.4688 28.6678 27.543 28.6247 27.6349C28.5817 27.7268 28.5718 27.8308 28.5967 27.9292C28.7201 28.7608 28.822 29.5924 28.9347 30.424C28.9347 30.6065 29.0259 30.8103 28.6879 30.7835L30.2975 45.5918H41.6773C42.2138 40.6504 42.7182 35.7303 43.2333 30.7996L42.6967 30.7245C42.9596 29.3885 43.2011 28.0955 43.4532 26.7434ZM29.5463 31.202C29.4444 30.2041 29.2995 29.2115 29.1332 28.2189C29.0941 28.1196 29.0939 28.0091 29.1327 27.9096C29.1715 27.8102 29.2464 27.729 29.3424 27.6824C29.5624 27.5536 29.7717 27.3873 30.0453 27.1888C30.2653 28.852 30.115 30.4616 30.2062 32.0712C30.0336 31.9948 29.8841 31.8742 29.773 31.7216C29.6618 31.569 29.5929 31.3898 29.5731 31.202H29.5463ZM38.5601 26.7703C38.9893 26.8346 39.1288 27.0385 39.1234 27.457C39.0966 29.571 39.1234 31.6795 39.1234 33.7935C39.1234 34.1047 39.0429 34.2871 38.7425 34.3783C38.5386 34.4373 38.3454 34.5392 38.1308 34.6251C38.0187 31.9991 38.1625 29.3684 38.5601 26.7703V26.7703ZM36.3495 32.8009C36.5105 31.2879 36.6822 29.7748 36.8163 28.2618C36.8539 27.8594 36.9666 27.618 37.3851 27.5429C37.5771 27.494 37.7654 27.4313 37.9484 27.3551C37.6801 29.8929 37.4119 32.3663 37.1651 34.8665L36.1296 34.9738C36.2047 34.2173 36.2744 33.5091 36.3495 32.8009ZM34.858 27.7467C35.0668 27.5751 35.2854 27.4157 35.5126 27.2692C36.194 29.7802 36.0062 32.2804 35.5501 34.7807C35.255 32.5755 34.9599 30.365 34.6809 28.1545C34.6811 28.0773 34.6969 28.0009 34.7273 27.9299C34.7578 27.8589 34.8022 27.7948 34.858 27.7414V27.7467ZM33.8815 27.5804H33.9459C34.2678 29.9948 34.5844 32.4092 34.9116 34.8934C34.5683 34.8129 34.2785 34.7592 33.9995 34.668C33.9526 34.6397 33.9125 34.6016 33.8819 34.5562C33.8513 34.5107 33.831 34.4592 33.8225 34.4051C33.6508 33.1818 33.4737 31.9585 33.3503 30.7352C33.3511 30.3724 33.4017 30.0113 33.5006 29.6622C33.624 28.97 33.7527 28.2779 33.8815 27.5804V27.5804ZM30.7428 32.6077V26.5127C31.0251 26.6382 31.3009 26.7779 31.569 26.9312C31.6101 26.9719 31.6427 27.0204 31.6648 27.0738C31.6869 27.1273 31.6981 27.1846 31.6978 27.2424C31.6442 27.8594 31.5905 28.4764 31.4886 29.0881C31.3115 30.1611 31.1023 31.2342 30.8984 32.3073C30.8958 32.3656 30.8806 32.4228 30.8537 32.4747C30.8268 32.5265 30.789 32.572 30.7428 32.6077V32.6077ZM31.3383 32.876C31.6281 31.2664 31.9339 29.6568 32.229 28.0472C32.2665 27.838 32.3363 27.6985 32.5724 27.6663C32.8084 27.6341 33.0552 27.5482 33.3825 27.4678C32.9855 29.6139 32.5992 31.6795 32.1968 33.831C31.8963 33.5896 31.6281 33.3964 31.3866 33.1711C31.3591 33.1297 31.3405 33.083 31.3322 33.034C31.3239 32.9851 31.326 32.9349 31.3383 32.8867V32.876ZM35.255 37.8979C35.019 37.8429 34.7712 37.8694 34.5522 37.9731C34.3107 38.1447 34.3805 38.3755 34.5951 38.6491C34.7319 38.7897 34.9018 38.8939 35.0893 38.952C35.2767 39.0101 35.4757 39.0203 35.6681 38.9817C35.7272 38.8852 37.2241 36.959 38.8176 36.4386C39.2897 36.2883 39.5258 36.3742 39.5687 36.5727C39.9389 38.2091 37.4709 40.0655 36.5051 40.5591L36.3925 40.7952H36.3495C36.3276 40.8616 36.291 40.9221 36.2422 40.9723L36.21 41.0528V41.1064V41.1815C36.1691 41.2469 36.1367 41.3172 36.1135 41.3908L36.0813 41.4659C36.0181 41.5344 35.9689 41.6146 35.9364 41.702L35.8667 41.8039C35.8205 41.9191 35.7532 42.0247 35.6681 42.1151V42.1687C35.5905 42.2425 35.5269 42.3298 35.4804 42.4263C36.2289 42.7596 37.0674 42.8333 37.8626 42.6355C37.9056 42.5178 37.9844 42.4165 38.0879 42.3458C38.2898 42.3387 38.4907 42.3154 38.6888 42.276H38.8659C38.877 42.2737 38.8878 42.2701 38.8981 42.2653H38.9946C39.1327 42.2713 39.2707 42.2532 39.4024 42.2117C39.3854 42.5033 39.2785 42.7825 39.0966 43.0111V43.0647C38.7431 43.2369 38.3517 43.3163 37.9591 43.2955C37.8816 43.3232 37.8 43.3377 37.7177 43.3384C36.8128 43.4627 35.8919 43.2895 35.0941 42.8448C34.411 43.2658 33.6043 43.44 32.8084 43.3384C32.6999 43.2779 32.5869 43.2259 32.4704 43.1828C32.3199 43.052 32.1849 42.9044 32.068 42.7428C32.068 42.7428 32.068 42.7106 32.0305 42.6945C31.9915 42.5937 31.9732 42.486 31.9768 42.378V42.3082L32.1056 42.1258L32.1485 42.099L32.1861 42.0453C32.1949 42.0447 32.2034 42.042 32.2109 42.0373C32.2184 42.0326 32.2246 42.0262 32.229 42.0185C32.2381 42.0192 32.2471 42.0169 32.2548 42.0121C32.2625 42.0073 32.2685 42.0001 32.2719 41.9917C32.2808 41.9916 32.2896 41.9891 32.2972 41.9843C32.3047 41.9796 32.3109 41.9729 32.3148 41.9649L32.6636 41.8629C32.6699 41.8673 32.6774 41.8696 32.685 41.8696C32.6927 41.8696 32.7002 41.8673 32.7065 41.8629H32.8567H32.9211C33.0023 41.8619 33.0831 41.8529 33.1625 41.8361H33.5113L33.6937 41.8629C33.7848 41.8682 33.8762 41.8682 33.9673 41.8629C34.0317 41.7717 35.1853 39.8295 35.1853 39.8295C34.684 39.8288 34.2021 39.6359 33.8388 39.2905C33.4754 38.9452 33.2584 38.4736 33.2323 37.9731C33.3754 36.7855 34.1712 36.3205 35.6199 36.5781L35.255 37.8979ZM40.3199 32.4253C40.2555 32.7794 40.1858 33.1228 40.116 33.4984H40.0194C39.8907 32.157 39.7512 30.8157 39.6385 29.4744C39.6009 29.0559 39.676 28.632 39.6385 28.2189C39.5687 27.7092 39.8424 27.4838 40.2823 27.2639C40.4272 28.3369 40.6364 29.3671 40.674 30.4026C40.6314 31.0955 40.5181 31.7822 40.336 32.4521L40.3199 32.4253ZM41.13 32.6668C40.9992 32.7635 40.8739 32.8674 40.7545 32.9779C40.8511 32.4414 40.9315 31.9585 41.0174 31.4971C41.2266 30.3704 41.452 29.2437 41.6398 28.117C41.6934 27.8272 41.79 27.6609 42.0904 27.6287C42.3909 27.5965 42.5733 27.5268 42.8148 27.4624C42.6001 28.6213 42.348 29.7051 42.2085 30.805C42.1884 31.1785 42.0808 31.5421 41.8944 31.8664C41.708 32.1907 41.448 32.4667 41.1354 32.6721L41.13 32.6668Z" fill="#2A614D"/>
<path d="M43.4532 271.345C42.7879 271.506 42.1924 271.667 41.5861 271.801C41.4865 271.814 41.3948 271.862 41.3278 271.937C41.2608 272.012 41.223 272.108 41.2213 272.209C41.173 272.547 41.0979 272.89 41.0335 273.228H40.9369L40.6203 270.905L39.6546 271.576C39.6009 271.436 39.5902 271.259 39.5044 271.216C38.9034 270.878 38.2542 270.567 37.6211 270.234C37.6076 270.314 37.5987 270.395 37.5943 270.476C37.5943 270.798 37.7016 271.205 37.546 271.42C37.3904 271.635 36.9558 271.678 36.6446 271.844C36.5145 271.921 36.42 272.046 36.3817 272.193C36.3337 272.455 36.3015 272.72 36.2852 272.987H36.2261C36.1296 272.311 36.033 271.629 35.9364 270.905L34.418 271.978C34.359 271.603 34.3107 271.286 34.2517 270.905C33.6991 271.395 33.0026 271.692 32.2665 271.753C32.2075 271.554 32.2075 271.27 32.0895 271.216C31.4886 270.851 30.8608 270.562 30.2062 270.234C30.1956 270.34 30.1956 270.446 30.2062 270.551C30.2442 270.72 30.2208 270.897 30.1402 271.05C30.0596 271.204 29.927 271.323 29.7663 271.388C29.4229 271.576 29.1332 271.844 28.8327 272.026C28.7412 272.07 28.6678 272.145 28.6247 272.236C28.5817 272.328 28.5718 272.432 28.5967 272.531C28.7201 273.362 28.822 274.194 28.9347 275.026C28.9347 275.208 29.0259 275.412 28.6879 275.385L30.2975 290.193H41.6773C42.2138 285.252 42.7182 280.332 43.2333 275.401L42.6967 275.326C42.9596 273.99 43.2011 272.697 43.4532 271.345ZM29.5463 275.804C29.4444 274.806 29.2995 273.813 29.1332 272.82C29.0941 272.721 29.0939 272.611 29.1327 272.511C29.1715 272.412 29.2464 272.331 29.3424 272.284C29.5624 272.155 29.7717 271.989 30.0453 271.79C30.2653 273.454 30.115 275.063 30.2062 276.673C30.0336 276.596 29.8841 276.476 29.773 276.323C29.6618 276.171 29.5929 275.991 29.5731 275.804H29.5463ZM38.5601 271.372C38.9893 271.436 39.1288 271.64 39.1234 272.059C39.0966 274.173 39.1234 276.281 39.1234 278.395C39.1234 278.706 39.0429 278.889 38.7425 278.98C38.5386 279.039 38.3454 279.141 38.1308 279.227C38.0187 276.601 38.1625 273.97 38.5601 271.372V271.372ZM36.3495 277.402C36.5105 275.889 36.6822 274.376 36.8163 272.863C36.8539 272.461 36.9666 272.22 37.3851 272.144C37.5771 272.096 37.7654 272.033 37.9484 271.957C37.6801 274.494 37.4119 276.968 37.1651 279.468L36.1296 279.575C36.2047 278.819 36.2744 278.111 36.3495 277.402ZM34.858 272.348C35.0668 272.177 35.2854 272.017 35.5126 271.871C36.194 274.382 36.0062 276.882 35.5501 279.382C35.255 277.177 34.9599 274.967 34.6809 272.756C34.6811 272.679 34.6969 272.602 34.7273 272.531C34.7578 272.46 34.8022 272.396 34.858 272.343V272.348ZM33.8815 272.182H33.9459C34.2678 274.596 34.5844 277.011 34.9116 279.495C34.5683 279.414 34.2785 279.361 33.9995 279.27C33.9526 279.241 33.9125 279.203 33.8819 279.158C33.8513 279.112 33.831 279.061 33.8225 279.007C33.6508 277.783 33.4737 276.56 33.3503 275.337C33.3511 274.974 33.4017 274.613 33.5006 274.264C33.624 273.572 33.7527 272.879 33.8815 272.182V272.182ZM30.7428 277.209V271.114C31.0251 271.24 31.3009 271.379 31.569 271.533C31.6101 271.573 31.6427 271.622 31.6648 271.675C31.6869 271.729 31.6981 271.786 31.6978 271.844C31.6442 272.461 31.5905 273.078 31.4886 273.69C31.3115 274.763 31.1023 275.836 30.8984 276.909C30.8958 276.967 30.8806 277.024 30.8537 277.076C30.8268 277.128 30.789 277.174 30.7428 277.209V277.209ZM31.3383 277.478C31.6281 275.868 31.9339 274.258 32.229 272.649C32.2665 272.44 32.3363 272.3 32.5724 272.268C32.8084 272.236 33.0552 272.15 33.3825 272.069C32.9855 274.215 32.5992 276.281 32.1968 278.433C31.8963 278.191 31.6281 277.998 31.3866 277.773C31.3591 277.731 31.3405 277.685 31.3322 277.636C31.3239 277.587 31.326 277.536 31.3383 277.488V277.478ZM35.255 282.5C35.019 282.444 34.7712 282.471 34.5522 282.575C34.3107 282.746 34.3805 282.977 34.5951 283.251C34.7319 283.391 34.9018 283.495 35.0893 283.554C35.2767 283.612 35.4757 283.622 35.6681 283.583C35.7272 283.487 37.2241 281.561 38.8176 281.04C39.2897 280.89 39.5258 280.976 39.5687 281.174C39.9389 282.811 37.4709 284.667 36.5051 285.161L36.3925 285.397H36.3495C36.3276 285.463 36.291 285.524 36.2422 285.574L36.21 285.654V285.708V285.783C36.1691 285.848 36.1367 285.919 36.1135 285.992L36.0813 286.067C36.0181 286.136 35.9689 286.216 35.9364 286.304L35.8667 286.405C35.8205 286.521 35.7532 286.626 35.6681 286.717V286.77C35.5905 286.844 35.5269 286.931 35.4804 287.028C36.2289 287.361 37.0674 287.435 37.8626 287.237C37.9056 287.119 37.9844 287.018 38.0879 286.947C38.2898 286.94 38.4907 286.917 38.6888 286.878H38.8659C38.877 286.875 38.8878 286.872 38.8981 286.867H38.9946C39.1327 286.873 39.2707 286.855 39.4024 286.813C39.3854 287.105 39.2785 287.384 39.0966 287.613V287.666C38.7431 287.838 38.3517 287.918 37.9591 287.897C37.8816 287.925 37.8 287.939 37.7177 287.94C36.8128 288.064 35.8919 287.891 35.0941 287.446C34.411 287.867 33.6043 288.042 32.8084 287.94C32.6999 287.879 32.5869 287.827 32.4704 287.784C32.3199 287.654 32.1849 287.506 32.068 287.344C32.068 287.344 32.068 287.312 32.0305 287.296C31.9915 287.195 31.9732 287.088 31.9768 286.98V286.91L32.1056 286.727L32.1485 286.701L32.1861 286.647C32.1949 286.646 32.2034 286.644 32.2109 286.639C32.2184 286.634 32.2246 286.628 32.229 286.62C32.2381 286.621 32.2471 286.618 32.2548 286.614C32.2625 286.609 32.2685 286.602 32.2719 286.593C32.2808 286.593 32.2896 286.591 32.2972 286.586C32.3047 286.581 32.3109 286.574 32.3148 286.566L32.6636 286.464C32.6699 286.469 32.6774 286.471 32.685 286.471C32.6927 286.471 32.7002 286.469 32.7065 286.464H32.8567H32.9211C33.0023 286.463 33.0831 286.455 33.1625 286.438H33.5113L33.6937 286.464C33.7848 286.47 33.8762 286.47 33.9673 286.464C34.0317 286.373 35.1853 284.431 35.1853 284.431C34.684 284.43 34.2021 284.237 33.8388 283.892C33.4754 283.547 33.2584 283.075 33.2323 282.575C33.3754 281.387 34.1712 280.922 35.6199 281.18L35.255 282.5ZM40.3199 277.027C40.2555 277.381 40.1858 277.724 40.116 278.1H40.0194C39.8907 276.759 39.7512 275.417 39.6385 274.076C39.6009 273.657 39.676 273.234 39.6385 272.82C39.5687 272.311 39.8424 272.085 40.2823 271.865C40.4272 272.938 40.6364 273.969 40.674 275.004C40.6314 275.697 40.5181 276.384 40.336 277.054L40.3199 277.027ZM41.13 277.268C40.9992 277.365 40.8739 277.469 40.7545 277.58C40.8511 277.043 40.9315 276.56 41.0174 276.099C41.2266 274.972 41.452 273.845 41.6398 272.719C41.6934 272.429 41.79 272.262 42.0904 272.23C42.3909 272.198 42.5733 272.128 42.8148 272.064C42.6001 273.223 42.348 274.307 42.2085 275.407C42.1884 275.78 42.0808 276.144 41.8944 276.468C41.708 276.792 41.448 277.068 41.1354 277.274L41.13 277.268Z" fill="#2A614D"/>
<path d="M225.977 271.345C225.312 271.506 224.716 271.667 224.11 271.801C224.01 271.814 223.919 271.862 223.852 271.937C223.785 272.012 223.747 272.108 223.745 272.209C223.697 272.547 223.622 272.89 223.557 273.228H223.461L223.144 270.905L222.179 271.576C222.125 271.436 222.114 271.259 222.028 271.216C221.427 270.878 220.778 270.567 220.145 270.234C220.132 270.314 220.123 270.395 220.118 270.476C220.118 270.798 220.226 271.205 220.07 271.42C219.914 271.635 219.48 271.678 219.169 271.844C219.038 271.921 218.944 272.046 218.906 272.193C218.858 272.455 218.825 272.72 218.809 272.987H218.75C218.653 272.311 218.557 271.629 218.46 270.905L216.942 271.978C216.883 271.603 216.835 271.286 216.776 270.905C216.223 271.395 215.526 271.692 214.79 271.753C214.731 271.554 214.731 271.27 214.613 271.216C214.012 270.851 213.385 270.562 212.73 270.234C212.72 270.34 212.72 270.446 212.73 270.551C212.768 270.72 212.745 270.897 212.664 271.05C212.584 271.204 212.451 271.323 212.29 271.388C211.947 271.576 211.657 271.844 211.357 272.026C211.265 272.07 211.192 272.145 211.149 272.236C211.106 272.328 211.096 272.432 211.121 272.531C211.244 273.362 211.346 274.194 211.459 275.026C211.459 275.208 211.55 275.412 211.212 275.385L212.821 290.193H224.201C224.738 285.252 225.242 280.332 225.757 275.401L225.221 275.326C225.484 273.99 225.725 272.697 225.977 271.345ZM212.07 275.804C211.968 274.806 211.823 273.813 211.657 272.82C211.618 272.721 211.618 272.611 211.657 272.511C211.695 272.412 211.77 272.331 211.866 272.284C212.086 272.155 212.296 271.989 212.569 271.79C212.789 273.454 212.639 275.063 212.73 276.673C212.558 276.596 212.408 276.476 212.297 276.323C212.186 276.171 212.117 275.991 212.097 275.804H212.07ZM221.084 271.372C221.513 271.436 221.653 271.64 221.647 272.059C221.621 274.173 221.647 276.281 221.647 278.395C221.647 278.706 221.567 278.889 221.266 278.98C221.063 279.039 220.869 279.141 220.655 279.227C220.543 276.601 220.686 273.97 221.084 271.372V271.372ZM218.873 277.402C219.034 275.889 219.206 274.376 219.34 272.863C219.378 272.461 219.49 272.22 219.909 272.144C220.101 272.096 220.289 272.033 220.472 271.957C220.204 274.494 219.936 276.968 219.689 279.468L218.653 279.575C218.729 278.819 218.798 278.111 218.873 277.402ZM217.382 272.348C217.591 272.177 217.809 272.017 218.036 271.871C218.718 274.382 218.53 276.882 218.074 279.382C217.779 277.177 217.484 274.967 217.205 272.756C217.205 272.679 217.221 272.602 217.251 272.531C217.282 272.46 217.326 272.396 217.382 272.343V272.348ZM216.405 272.182H216.47C216.792 274.596 217.108 277.011 217.436 279.495C217.092 279.414 216.802 279.361 216.523 279.27C216.477 279.241 216.436 279.203 216.406 279.158C216.375 279.112 216.355 279.061 216.346 279.007C216.175 277.783 215.998 276.56 215.874 275.337C215.875 274.974 215.926 274.613 216.024 274.264C216.148 273.572 216.277 272.879 216.405 272.182V272.182ZM213.267 277.209V271.114C213.549 271.24 213.825 271.379 214.093 271.533C214.134 271.573 214.167 271.622 214.189 271.675C214.211 271.729 214.222 271.786 214.222 271.844C214.168 272.461 214.114 273.078 214.012 273.69C213.835 274.763 213.626 275.836 213.422 276.909C213.42 276.967 213.404 277.024 213.378 277.076C213.351 277.128 213.313 277.174 213.267 277.209V277.209ZM213.862 277.478C214.152 275.868 214.458 274.258 214.753 272.649C214.79 272.44 214.86 272.3 215.096 272.268C215.332 272.236 215.579 272.15 215.906 272.069C215.509 274.215 215.123 276.281 214.721 278.433C214.42 278.191 214.152 277.998 213.911 277.773C213.883 277.731 213.864 277.685 213.856 277.636C213.848 277.587 213.85 277.536 213.862 277.488V277.478ZM217.779 282.5C217.543 282.444 217.295 282.471 217.076 282.575C216.835 282.746 216.904 282.977 217.119 283.251C217.256 283.391 217.426 283.495 217.613 283.554C217.801 283.612 218 283.622 218.192 283.583C218.251 283.487 219.748 281.561 221.342 281.04C221.814 280.89 222.05 280.976 222.093 281.174C222.463 282.811 219.995 284.667 219.029 285.161L218.916 285.397H218.873C218.852 285.463 218.815 285.524 218.766 285.574L218.734 285.654V285.708V285.783C218.693 285.848 218.661 285.919 218.637 285.992L218.605 286.067C218.542 286.136 218.493 286.216 218.46 286.304L218.391 286.405C218.344 286.521 218.277 286.626 218.192 286.717V286.77C218.114 286.844 218.051 286.931 218.004 287.028C218.753 287.361 219.591 287.435 220.386 287.237C220.43 287.119 220.508 287.018 220.612 286.947C220.814 286.94 221.015 286.917 221.213 286.878H221.39C221.401 286.875 221.412 286.872 221.422 286.867H221.519C221.657 286.873 221.795 286.855 221.926 286.813C221.909 287.105 221.802 287.384 221.621 287.613V287.666C221.267 287.838 220.876 287.918 220.483 287.897C220.406 287.925 220.324 287.939 220.242 287.94C219.337 288.064 218.416 287.891 217.618 287.446C216.935 287.867 216.128 288.042 215.332 287.94C215.224 287.879 215.111 287.827 214.994 287.784C214.844 287.654 214.709 287.506 214.592 287.344C214.592 287.344 214.592 287.312 214.554 287.296C214.515 287.195 214.497 287.088 214.501 286.98V286.91L214.63 286.727L214.672 286.701L214.71 286.647C214.719 286.646 214.727 286.644 214.735 286.639C214.742 286.634 214.749 286.628 214.753 286.62C214.762 286.621 214.771 286.618 214.779 286.614C214.786 286.609 214.792 286.602 214.796 286.593C214.805 286.593 214.814 286.591 214.821 286.586C214.829 286.581 214.835 286.574 214.839 286.566L215.187 286.464C215.194 286.469 215.201 286.471 215.209 286.471C215.217 286.471 215.224 286.469 215.23 286.464H215.381H215.445C215.526 286.463 215.607 286.455 215.686 286.438H216.035L216.218 286.464C216.309 286.47 216.4 286.47 216.491 286.464C216.556 286.373 217.709 284.431 217.709 284.431C217.208 284.43 216.726 284.237 216.363 283.892C215.999 283.547 215.782 283.075 215.756 282.575C215.899 281.387 216.695 280.922 218.144 281.18L217.779 282.5ZM222.844 277.027C222.779 277.381 222.71 277.724 222.64 278.1H222.543C222.415 276.759 222.275 275.417 222.162 274.076C222.125 273.657 222.2 273.234 222.162 272.82C222.093 272.311 222.366 272.085 222.806 271.865C222.951 272.938 223.16 273.969 223.198 275.004C223.155 275.697 223.042 276.384 222.86 277.054L222.844 277.027ZM223.654 277.268C223.523 277.365 223.398 277.469 223.278 277.58C223.375 277.043 223.455 276.56 223.541 276.099C223.751 274.972 223.976 273.845 224.164 272.719C224.217 272.429 224.314 272.262 224.614 272.23C224.915 272.198 225.097 272.128 225.339 272.064C225.124 273.223 224.872 274.307 224.732 275.407C224.712 275.78 224.605 276.144 224.418 276.468C224.232 276.792 223.972 277.068 223.659 277.274L223.654 277.268Z" fill="#2A614D"/>
<path d="M225.977 26.7434C225.312 26.9044 224.716 27.0654 224.11 27.1995C224.01 27.2124 223.918 27.2606 223.851 27.3355C223.785 27.4104 223.747 27.5068 223.745 27.6073C223.697 27.9453 223.622 28.2886 223.557 28.6267H223.461L223.144 26.3035L222.178 26.9741C222.125 26.8346 222.114 26.6576 222.028 26.6147C221.427 26.2767 220.778 25.9655 220.145 25.6328C220.131 25.7127 220.122 25.7933 220.118 25.8743C220.118 26.1962 220.225 26.6039 220.07 26.8185C219.914 27.0332 219.48 27.0761 219.168 27.2424C219.038 27.3195 218.944 27.4448 218.905 27.5912C218.857 27.8537 218.825 28.1188 218.809 28.3852H218.75C218.653 27.7092 218.557 27.0278 218.46 26.3035L216.942 27.3765C216.883 27.001 216.834 26.6844 216.775 26.3035C216.223 26.7934 215.526 27.0909 214.79 27.1512C214.731 26.9527 214.731 26.6683 214.613 26.6147C214.012 26.2498 213.385 25.9601 212.73 25.6328C212.719 25.7381 212.719 25.8441 212.73 25.9494C212.768 26.1184 212.744 26.2954 212.664 26.4488C212.583 26.6021 212.451 26.7218 212.29 26.7864C211.947 26.9741 211.657 27.2424 211.356 27.4248C211.265 27.4688 211.191 27.543 211.148 27.6349C211.105 27.7268 211.095 27.8308 211.12 27.9292C211.244 28.7608 211.346 29.5924 211.458 30.424C211.458 30.6065 211.55 30.8103 211.212 30.7835L212.821 45.5918H224.201C224.738 40.6504 225.242 35.7303 225.757 30.7996L225.22 30.7245C225.483 29.3885 225.725 28.0955 225.977 26.7434ZM212.07 31.202C211.968 30.2041 211.823 29.2115 211.657 28.2189C211.618 28.1196 211.618 28.0091 211.656 27.9096C211.695 27.8102 211.77 27.729 211.866 27.6824C212.086 27.5536 212.295 27.3873 212.569 27.1888C212.789 28.852 212.639 30.4616 212.73 32.0712C212.557 31.9948 212.408 31.8742 212.297 31.7216C212.185 31.569 212.117 31.3898 212.097 31.202H212.07ZM221.084 26.7703C221.513 26.8346 221.652 27.0385 221.647 27.457C221.62 29.571 221.647 31.6795 221.647 33.7935C221.647 34.1047 221.567 34.2871 221.266 34.3783C221.062 34.4373 220.869 34.5392 220.655 34.6251C220.542 31.9991 220.686 29.3684 221.084 26.7703V26.7703ZM218.873 32.8009C219.034 31.2879 219.206 29.7748 219.34 28.2618C219.378 27.8594 219.49 27.618 219.909 27.5429C220.101 27.494 220.289 27.4313 220.472 27.3551C220.204 29.8929 219.936 32.3663 219.689 34.8665L218.653 34.9738C218.728 34.2173 218.798 33.5091 218.873 32.8009ZM217.382 27.7467C217.59 27.5751 217.809 27.4157 218.036 27.2692C218.718 29.7802 218.53 32.2804 218.074 34.7807C217.779 32.5755 217.484 30.365 217.205 28.1545C217.205 28.0773 217.221 28.0009 217.251 27.9299C217.281 27.8589 217.326 27.7948 217.382 27.7414V27.7467ZM216.405 27.5804H216.47C216.791 29.9948 217.108 32.4092 217.435 34.8934C217.092 34.8129 216.802 34.7592 216.523 34.668C216.476 34.6397 216.436 34.6016 216.406 34.5562C216.375 34.5107 216.355 34.4592 216.346 34.4051C216.174 33.1818 215.997 31.9585 215.874 30.7352C215.875 30.3724 215.925 30.0113 216.024 29.6622C216.148 28.97 216.276 28.2779 216.405 27.5804V27.5804ZM213.266 32.6077V26.5127C213.549 26.6382 213.825 26.7779 214.093 26.9312C214.134 26.9719 214.166 27.0204 214.188 27.0738C214.211 27.1273 214.222 27.1846 214.221 27.2424C214.168 27.8594 214.114 28.4764 214.012 29.0881C213.835 30.1611 213.626 31.2342 213.422 32.3073C213.419 32.3656 213.404 32.4228 213.377 32.4747C213.351 32.5265 213.313 32.572 213.266 32.6077V32.6077ZM213.862 32.876C214.152 31.2664 214.458 29.6568 214.753 28.0472C214.79 27.838 214.86 27.6985 215.096 27.6663C215.332 27.6341 215.579 27.5482 215.906 27.4678C215.509 29.6139 215.123 31.6795 214.72 33.831C214.42 33.5896 214.152 33.3964 213.91 33.1711C213.883 33.1297 213.864 33.083 213.856 33.034C213.848 32.9851 213.85 32.9349 213.862 32.8867V32.876ZM217.779 37.8979C217.543 37.8429 217.295 37.8694 217.076 37.9731C216.834 38.1447 216.904 38.3755 217.119 38.6491C217.256 38.7897 217.426 38.8939 217.613 38.952C217.8 39.0101 217.999 39.0203 218.192 38.9817C218.251 38.8852 219.748 36.959 221.341 36.4386C221.813 36.2883 222.049 36.3742 222.092 36.5727C222.463 38.2091 219.995 40.0655 219.029 40.5591L218.916 40.7952H218.873C218.851 40.8616 218.815 40.9221 218.766 40.9723L218.734 41.0528V41.1064V41.1815C218.693 41.2469 218.66 41.3172 218.637 41.3908L218.605 41.4659C218.542 41.5344 218.493 41.6146 218.46 41.702L218.39 41.8039C218.344 41.9191 218.277 42.0247 218.192 42.1151V42.1687C218.114 42.2425 218.051 42.3298 218.004 42.4263C218.753 42.7596 219.591 42.8333 220.386 42.6355C220.429 42.5178 220.508 42.4165 220.612 42.3458C220.813 42.3387 221.014 42.3154 221.213 42.276H221.39C221.401 42.2737 221.411 42.2701 221.422 42.2653H221.518C221.656 42.2713 221.794 42.2532 221.926 42.2117C221.909 42.5033 221.802 42.7825 221.62 43.0111V43.0647C221.267 43.2369 220.875 43.3163 220.483 43.2955C220.405 43.3232 220.324 43.3377 220.241 43.3384C219.336 43.4627 218.416 43.2895 217.618 42.8448C216.935 43.2658 216.128 43.44 215.332 43.3384C215.224 43.2779 215.111 43.2259 214.994 43.1828C214.844 43.052 214.709 42.9044 214.592 42.7428C214.592 42.7428 214.592 42.7106 214.554 42.6945C214.515 42.5937 214.497 42.486 214.5 42.378V42.3082L214.629 42.1258L214.672 42.099L214.71 42.0453C214.719 42.0447 214.727 42.042 214.735 42.0373C214.742 42.0326 214.748 42.0262 214.753 42.0185C214.762 42.0192 214.771 42.0169 214.778 42.0121C214.786 42.0073 214.792 42.0001 214.796 41.9917C214.805 41.9916 214.813 41.9891 214.821 41.9843C214.828 41.9796 214.835 41.9729 214.839 41.9649L215.187 41.8629C215.194 41.8673 215.201 41.8696 215.209 41.8696C215.216 41.8696 215.224 41.8673 215.23 41.8629H215.38H215.445C215.526 41.8619 215.607 41.8529 215.686 41.8361H216.035L216.217 41.8629C216.309 41.8682 216.4 41.8682 216.491 41.8629C216.555 41.7717 217.709 39.8295 217.709 39.8295C217.208 39.8288 216.726 39.6359 216.362 39.2905C215.999 38.9452 215.782 38.4736 215.756 37.9731C215.899 36.7855 216.695 36.3205 218.144 36.5781L217.779 37.8979ZM222.844 32.4253C222.779 32.7794 222.709 33.1228 222.64 33.4984H222.543C222.414 32.157 222.275 30.8157 222.162 29.4744C222.125 29.0559 222.2 28.632 222.162 28.2189C222.092 27.7092 222.366 27.4838 222.806 27.2639C222.951 28.3369 223.16 29.3671 223.198 30.4026C223.155 31.0955 223.042 31.7822 222.86 32.4521L222.844 32.4253ZM223.654 32.6668C223.523 32.7635 223.398 32.8674 223.278 32.9779C223.375 32.4414 223.455 31.9585 223.541 31.4971C223.75 30.3704 223.976 29.2437 224.163 28.117C224.217 27.8272 224.314 27.6609 224.614 27.6287C224.915 27.5965 225.097 27.5268 225.338 27.4624C225.124 28.6213 224.872 29.7051 224.732 30.805C224.712 31.1785 224.604 31.5421 224.418 31.8664C224.232 32.1907 223.972 32.4667 223.659 32.6721L223.654 32.6668Z" fill="#2A614D"/>
</svg>
