<svg width="255" height="318" viewBox="0 0 255 318" fill="none" xmlns="http://www.w3.org/2000/svg">
<rect x="0.294434" y="0.046875" width="253.841" height="316.976" rx="10.6118" fill="#E1D0C7"/>
<path d="M38.2584 44.2734C37.7812 44.2195 37.3353 44.0078 36.9907 43.6716C36.6461 43.3354 36.4223 42.8937 36.3544 42.4158C36.3095 42.0544 35.95 39.8297 35.8995 39.6377C35.8927 39.605 35.8833 39.5729 35.8714 39.5417C35.702 40.1343 35.5855 40.7409 35.5232 41.3542V41.4107C35.3603 42.619 35.1356 44.2734 33.5012 44.2734C32.8947 44.2734 32.4116 43.8725 31.3782 42.9635C30.7715 42.4507 30.1191 41.9952 29.4293 41.6027L28.9856 41.326C28.7479 41.1868 28.5497 40.9886 28.41 40.7503C28.2704 40.512 28.1939 40.2417 28.188 39.9652C28.188 38.8754 28.8339 38.5762 30.2324 37.9043C30.93 37.5988 31.6023 37.2382 32.2431 36.8258C32.1303 36.8037 32.0155 36.7924 31.9005 36.7919C31.2904 36.863 30.6873 36.9858 30.0976 37.1589C29.6078 37.3199 29.1038 37.4333 28.5924 37.4977C28.1489 37.4893 27.7244 37.3152 27.4015 37.0094C27.0786 36.7036 26.8805 36.2879 26.8457 35.8433V35.8038C26.9483 35.2025 27.1198 34.6151 27.3568 34.0534C27.4411 33.8276 27.5028 33.6412 27.5253 33.5622C27.5478 33.4831 27.6095 33.1839 27.6713 32.8677C27.7953 31.9579 28.0292 31.0667 28.3678 30.2138C28.5268 29.9571 28.7513 29.7479 29.018 29.6079C29.2847 29.4679 29.5838 29.4022 29.8842 29.4177C30.6593 29.4177 30.8783 29.6774 32.1027 31.1116L32.2094 31.2415L32.2488 31.2867C32.598 31.7339 33.0083 32.1292 33.4675 32.4611C33.2206 31.7867 32.9278 31.1302 32.5914 30.4962C32.1958 29.851 31.9074 29.1454 31.7377 28.407C31.7377 27.927 32.1814 26.7695 33.2316 26.7695C33.3215 26.7695 33.4956 26.7695 33.7933 26.8147C34.3549 26.8655 35.1581 26.9389 35.8433 26.9389C36.5133 26.9341 37.1825 26.8945 37.8484 26.8203C38.1404 26.8203 38.3483 26.7695 38.4999 26.7695C39.5614 26.7695 39.9939 27.8988 39.9939 28.3957C39.8266 29.11 39.5459 29.7926 39.1626 30.4171C38.8168 31.0757 38.5147 31.7567 38.2584 32.4555C38.7305 32.1098 39.1521 31.6992 39.5109 31.2358C40.7577 29.7339 41.0217 29.4177 41.8417 29.4177C43.4705 29.4177 43.6951 30.722 43.9198 32.3369C44.0282 33.0725 44.2165 33.7939 44.4814 34.4882L44.5657 34.6915C44.7496 35.0634 44.8584 35.4684 44.8858 35.8828C44.8329 36.3033 44.6356 36.6919 44.328 36.9816C44.0203 37.2713 43.6217 37.4439 43.2009 37.4695C42.6858 37.4055 42.1755 37.3074 41.6732 37.1759C41.0482 37.0129 40.4144 36.8866 39.7748 36.7976C39.6765 36.7973 39.5785 36.8087 39.4828 36.8314C40.0876 37.2851 40.7556 37.6466 41.4654 37.9043L41.589 37.9664C42.8751 38.5705 43.521 38.8754 43.521 39.9652C43.521 40.6879 43.1391 41.038 41.6002 42.0374C41.3755 42.1899 40.6229 42.7884 40.0781 43.2232C39.758 43.4829 39.4828 43.7031 39.3648 43.7878C39.0492 44.0632 38.6571 44.2346 38.2415 44.2791" fill="#BA3944"/>
<path d="M220.782 44.2734C220.305 44.2195 219.859 44.0078 219.515 43.6716C219.17 43.3354 218.946 42.8937 218.878 42.4158C218.833 42.0544 218.474 39.8297 218.423 39.6377C218.417 39.605 218.407 39.5729 218.395 39.5417C218.226 40.1343 218.109 40.7409 218.047 41.3542V41.4107C217.884 42.619 217.66 44.2734 216.025 44.2734C215.419 44.2734 214.936 43.8725 213.902 42.9635C213.295 42.4507 212.643 41.9952 211.953 41.6027L211.51 41.326C211.272 41.1868 211.074 40.9886 210.934 40.7503C210.794 40.512 210.718 40.2417 210.712 39.9652C210.712 38.8754 211.358 38.5762 212.756 37.9043C213.454 37.5988 214.126 37.2382 214.767 36.8258C214.654 36.8037 214.539 36.7924 214.424 36.7919C213.814 36.863 213.211 36.9858 212.622 37.1589C212.132 37.3199 211.628 37.4333 211.116 37.4977C210.673 37.4893 210.248 37.3152 209.925 37.0094C209.603 36.7036 209.404 36.2879 209.37 35.8433V35.8038C209.472 35.2025 209.644 34.6151 209.881 34.0534C209.965 33.8276 210.027 33.6412 210.049 33.5622C210.072 33.4831 210.133 33.1839 210.195 32.8677C210.319 31.9579 210.553 31.0667 210.892 30.2138C211.051 29.9571 211.275 29.7479 211.542 29.6079C211.809 29.4679 212.108 29.4022 212.408 29.4177C213.183 29.4177 213.402 29.6774 214.627 31.1116L214.733 31.2415L214.773 31.2867C215.122 31.7339 215.532 32.1292 215.991 32.4611C215.745 31.7867 215.452 31.1302 215.115 30.4962C214.72 29.851 214.431 29.1454 214.262 28.407C214.262 27.927 214.705 26.7695 215.756 26.7695C215.845 26.7695 216.02 26.7695 216.317 26.8147C216.879 26.8655 217.682 26.9389 218.367 26.9389C219.037 26.9341 219.706 26.8945 220.372 26.8203C220.664 26.8203 220.872 26.7695 221.024 26.7695C222.085 26.7695 222.518 27.8988 222.518 28.3957C222.351 29.11 222.07 29.7926 221.687 30.4171C221.341 31.0757 221.039 31.7567 220.782 32.4555C221.254 32.1098 221.676 31.6992 222.035 31.2358C223.282 29.7339 223.546 29.4177 224.366 29.4177C225.994 29.4177 226.219 30.722 226.444 32.3369C226.552 33.0725 226.74 33.7939 227.005 34.4882L227.09 34.6915C227.274 35.0634 227.382 35.4684 227.41 35.8828C227.357 36.3033 227.16 36.6919 226.852 36.9816C226.544 37.2713 226.146 37.4439 225.725 37.4695C225.21 37.4055 224.699 37.3074 224.197 37.1759C223.572 37.0129 222.938 36.8866 222.299 36.7976C222.2 36.7973 222.102 36.8087 222.007 36.8314C222.612 37.2851 223.28 37.6466 223.989 37.9043L224.113 37.9664C225.399 38.5705 226.045 38.8754 226.045 39.9652C226.045 40.6879 225.663 41.038 224.124 42.0374C223.899 42.1899 223.147 42.7884 222.602 43.2232C222.282 43.4829 222.007 43.7031 221.889 43.7878C221.573 44.0632 221.181 44.2346 220.765 44.2791" fill="#BA3944"/>
<path d="M220.783 290.465C220.306 290.411 219.86 290.199 219.515 289.863C219.171 289.527 218.947 289.085 218.879 288.607C218.834 288.246 218.474 286.021 218.424 285.829C218.417 285.796 218.408 285.764 218.396 285.733C218.226 286.326 218.11 286.932 218.048 287.546V287.602C217.885 288.81 217.66 290.465 216.026 290.465C215.419 290.465 214.936 290.064 213.903 289.155C213.296 288.642 212.643 288.187 211.954 287.794L211.51 287.517C211.272 287.378 211.074 287.18 210.934 286.942C210.795 286.703 210.718 286.433 210.712 286.157C210.712 285.067 211.358 284.768 212.757 284.096C213.454 283.79 214.127 283.43 214.768 283.017C214.655 282.995 214.54 282.984 214.425 282.983C213.815 283.054 213.212 283.177 212.622 283.35C212.132 283.511 211.628 283.625 211.117 283.689C210.673 283.681 210.249 283.507 209.926 283.201C209.603 282.895 209.405 282.479 209.37 282.035V281.995C209.473 281.394 209.644 280.806 209.881 280.245C209.965 280.019 210.027 279.833 210.05 279.754C210.072 279.675 210.134 279.375 210.196 279.059C210.32 278.149 210.554 277.258 210.892 276.405C211.051 276.149 211.276 275.939 211.542 275.799C211.809 275.659 212.108 275.594 212.409 275.609C213.184 275.609 213.403 275.869 214.627 277.303L214.734 277.433L214.773 277.478C215.122 277.925 215.533 278.321 215.992 278.653C215.745 277.978 215.452 277.322 215.116 276.688C214.72 276.042 214.432 275.337 214.262 274.598C214.262 274.118 214.706 272.961 215.756 272.961C215.846 272.961 216.02 272.961 216.318 273.006C216.879 273.057 217.683 273.13 218.368 273.13C219.038 273.126 219.707 273.086 220.373 273.012C220.665 273.012 220.873 272.961 221.024 272.961C222.086 272.961 222.518 274.09 222.518 274.587C222.351 275.301 222.07 275.984 221.687 276.609C221.341 277.267 221.039 277.948 220.783 278.647C221.255 278.301 221.677 277.891 222.035 277.427C223.282 275.925 223.546 275.609 224.366 275.609C225.995 275.609 226.22 276.913 226.444 278.528C226.553 279.264 226.741 279.985 227.006 280.68L227.09 280.883C227.274 281.255 227.383 281.66 227.41 282.074C227.357 282.495 227.16 282.883 226.852 283.173C226.545 283.463 226.146 283.635 225.725 283.661C225.21 283.597 224.7 283.499 224.198 283.367C223.573 283.204 222.939 283.078 222.299 282.989C222.201 282.989 222.103 283 222.007 283.023C222.612 283.477 223.28 283.838 223.99 284.096L224.113 284.158C225.4 284.762 226.045 285.067 226.045 286.157C226.045 286.879 225.664 287.229 224.125 288.229C223.9 288.381 223.147 288.98 222.603 289.415C222.282 289.674 222.007 289.895 221.889 289.979C221.574 290.255 221.182 290.426 220.766 290.47" fill="#BA3944"/>
<path d="M38.2586 289.937C37.7814 289.884 37.3356 289.672 36.991 289.336C36.6464 288.999 36.4226 288.558 36.3546 288.08C36.3097 287.718 35.9503 285.494 35.8997 285.302C35.893 285.269 35.8836 285.237 35.8716 285.206C35.7023 285.798 35.5857 286.405 35.5234 287.018V287.075C35.3605 288.283 35.1359 289.937 33.5015 289.937C32.8949 289.937 32.4119 289.537 31.3784 288.628C30.7717 288.115 30.1193 287.659 29.4295 287.267L28.9858 286.99C28.7481 286.851 28.5499 286.653 28.4103 286.414C28.2706 286.176 28.1942 285.906 28.1883 285.629C28.1883 284.54 28.8342 284.24 30.2327 283.568C30.9302 283.263 31.6026 282.902 32.2434 282.49C32.1305 282.468 32.0158 282.456 31.9008 282.456C31.2906 282.527 30.6875 282.65 30.0979 282.823C29.608 282.984 29.104 283.097 28.5927 283.162C28.1491 283.153 27.7246 282.979 27.4017 282.673C27.0789 282.368 26.8807 281.952 26.8459 281.507V281.468C26.9486 280.867 27.1201 280.279 27.357 279.717C27.4413 279.492 27.5031 279.305 27.5255 279.226C27.548 279.147 27.6098 278.848 27.6716 278.532C27.7955 277.622 28.0294 276.731 28.368 275.878C28.5271 275.621 28.7516 275.412 29.0183 275.272C29.2849 275.132 29.584 275.066 29.8845 275.082C30.6595 275.082 30.8786 275.341 32.103 276.776L32.2097 276.906L32.249 276.951C32.5983 277.398 33.0086 277.793 33.4678 278.125C33.2208 277.451 32.9281 276.794 32.5916 276.16C32.196 275.515 31.9077 274.809 31.7379 274.071C31.7379 273.591 32.1816 272.434 33.2319 272.434C33.3217 272.434 33.4959 272.434 33.7935 272.479C34.3552 272.53 35.1583 272.603 35.8435 272.603C36.5135 272.598 37.1827 272.559 37.8486 272.484C38.1407 272.484 38.3485 272.434 38.5001 272.434C39.5617 272.434 39.9941 273.563 39.9941 274.06C39.8268 274.774 39.5462 275.457 39.1629 276.081C38.817 276.74 38.5149 277.421 38.2586 278.12C38.7308 277.774 39.1523 277.363 39.5111 276.9C40.758 275.398 41.0219 275.082 41.8419 275.082C43.4707 275.082 43.6954 276.386 43.92 278.001C44.0284 278.737 44.2168 279.458 44.4817 280.152L44.5659 280.356C44.7499 280.727 44.8587 281.132 44.8861 281.547C44.8332 281.967 44.6359 282.356 44.3282 282.646C44.0205 282.935 43.6219 283.108 43.2011 283.134C42.686 283.07 42.1757 282.971 41.6735 282.84C41.0485 282.677 40.4146 282.551 39.7751 282.462C39.6767 282.461 39.5787 282.473 39.483 282.496C40.0878 282.949 40.7559 283.311 41.4656 283.568L41.5892 283.63C42.8754 284.235 43.5213 284.54 43.5213 285.629C43.5213 286.352 43.1394 286.702 41.6004 287.702C41.3758 287.854 40.6232 288.452 40.0784 288.887C39.7582 289.147 39.483 289.367 39.3651 289.452C39.0494 289.727 38.6574 289.899 38.2418 289.943" fill="#BA3944"/>
</svg>
