<svg width="255" height="318" viewBox="0 0 255 318" fill="none" xmlns="http://www.w3.org/2000/svg">
<rect x="0.32666" y="0.675781" width="253.841" height="316.976" rx="10.6118" fill="#E1D0C7"/>
<path d="M28.9722 32.5744C28.8889 32.8242 28.8212 33.0948 28.7484 33.3447C28.6547 33.6934 28.5454 34.0421 28.4725 34.3856C28.2101 35.7429 28.1157 37.1274 28.1915 38.5078C28.2183 38.7134 28.183 38.9223 28.0903 39.1078C27.9976 39.2932 27.8516 39.4468 27.671 39.5487C27.4536 39.6503 27.2721 39.8155 27.1505 40.0223C27.0329 40.1848 26.9792 40.3849 26.9996 40.5844C27.0209 40.7788 27.0939 40.9639 27.2111 41.1205C27.3283 41.277 27.4853 41.3992 27.6658 41.4744C27.7547 41.5376 27.8508 41.59 27.9521 41.6306C28.275 41.7223 28.6133 41.7471 28.9462 41.7034C29.3443 41.6442 29.7042 41.4335 29.9507 41.1153C30.0354 41.0072 30.0909 40.879 30.1119 40.7432C30.1329 40.6074 30.1186 40.4685 30.0704 40.3398C29.9298 39.943 29.8782 39.5201 29.9194 39.1011C29.9611 38.6743 29.9767 38.2475 30.0444 37.8311C30.1432 37.2066 30.2577 36.582 30.4035 35.9678C30.6169 35.1676 30.908 34.3902 31.2727 33.6465C31.4331 33.2941 31.6377 32.9636 31.8816 32.6629C32.0794 32.4495 32.2199 32.1788 32.4021 31.9706C32.6693 31.7001 32.9544 31.4479 33.2557 31.2159C33.6148 30.9285 34.0218 30.7065 34.458 30.5601C34.9055 30.3946 35.3726 30.2879 35.8476 30.2427C36.3452 30.198 36.8467 30.226 37.3362 30.3259C37.6065 30.384 37.8726 30.4605 38.1325 30.5549C38.4584 30.6673 38.7751 30.8048 39.0797 30.9661C39.3192 31.0962 39.5221 31.294 39.7512 31.4449C40.0475 31.6663 40.3105 31.9293 40.5319 32.2257C40.8916 32.6652 41.1828 33.1565 41.3958 33.683C41.6097 34.2109 41.7244 34.7738 41.7342 35.3433C41.7713 36.1196 41.6363 36.8946 41.3386 37.6125C41.178 38.048 40.9849 38.4708 40.7609 38.8773C40.5166 39.3109 40.227 39.7174 39.8969 40.09C39.6002 40.4023 39.3452 40.7614 39.0433 41.0685C38.3277 41.7899 37.5452 42.4416 36.7064 43.015C36.4427 43.2187 36.1369 43.361 35.8112 43.4314C35.5931 43.4665 35.3941 43.5768 35.2487 43.7431C35.1033 43.9095 35.0205 44.1214 35.0149 44.3422C35.0009 44.6483 35.0607 44.9533 35.1893 45.2314C35.318 45.5095 35.5116 45.7526 35.7539 45.9401C36.0285 46.1822 36.3878 46.3057 36.7532 46.2836C36.8804 46.2751 37.0045 46.2402 37.1174 46.181C37.2303 46.1219 37.3296 46.0398 37.409 45.9401C37.5753 45.7041 37.6477 45.4146 37.612 45.1282C37.5941 44.9452 37.6286 44.7609 37.7115 44.5968C37.7945 44.4328 37.9225 44.2957 38.0804 44.2017C38.5072 43.9155 38.96 43.6812 39.3868 43.3794C39.8136 43.0775 40.204 42.8121 40.5995 42.505C41.2073 42.0285 41.778 41.5065 42.3067 40.9436C42.3903 40.8547 42.4685 40.7608 42.5409 40.6625C42.6502 40.5324 42.7491 40.3919 42.8532 40.2565C43.0307 40.0473 43.1941 39.8265 43.3424 39.5955C43.753 38.9773 44.0868 38.3114 44.3365 37.6125C44.3938 37.3835 44.4979 37.1701 44.5447 36.9411C44.5915 36.7121 44.654 36.353 44.6956 36.0563C44.8008 35.2967 44.7673 34.5243 44.5967 33.7767C44.4363 33.0029 44.1534 32.2597 43.7588 31.5751C43.4474 31.0379 43.0773 30.5369 42.6554 30.0813C42.4316 29.8523 42.1974 29.6285 41.9632 29.4099C41.7697 29.2215 41.5627 29.0475 41.3438 28.8894C40.943 28.6188 40.5267 28.369 40.1103 28.1295C40.0315 28.078 39.9478 28.0344 39.8605 27.9994C39.5482 27.8849 39.2359 27.7756 38.9184 27.6767C38.6337 27.5724 38.3436 27.4838 38.0492 27.4113C37.6589 27.3332 37.2633 27.2812 36.8886 27.2395C36.1743 27.1674 35.4533 27.2025 34.7494 27.3436C34.1261 27.4594 33.5219 27.6608 32.9538 27.9422C32.4354 28.1805 31.952 28.4887 31.5173 28.8582C31.3091 29.0404 31.1061 29.2329 30.9135 29.4307C30.7384 29.5941 30.5733 29.7679 30.4191 29.9512C30.2577 30.1594 30.1432 30.3988 29.9767 30.5966C29.6531 31.0711 29.3776 31.5768 29.1543 32.1059C29.0799 32.2564 29.0189 32.4131 28.9722 32.5744V32.5744ZM41.0003 41.3235C40.9516 41.367 40.8886 41.3911 40.8233 41.3911C40.758 41.3911 40.695 41.367 40.6464 41.3235C40.5258 41.2132 40.4128 41.095 40.3081 40.9696C40.2673 40.9216 40.245 40.8607 40.245 40.7978C40.245 40.7349 40.2673 40.674 40.3081 40.6261C40.362 40.5714 40.4338 40.5381 40.5104 40.5324C40.5869 40.5266 40.663 40.5488 40.7244 40.5948C40.8424 40.7152 40.9536 40.8421 41.0575 40.9748C41.0903 41.0277 41.1026 41.0908 41.092 41.1522C41.0815 41.2135 41.0488 41.2689 41.0003 41.3079V41.3235ZM42.6762 39.174C42.6288 39.2491 42.5548 39.3037 42.469 39.3269C42.3832 39.35 42.2918 39.34 42.213 39.2989C42.0734 39.2069 41.9411 39.1043 41.8174 38.9918C41.7829 38.9354 41.7647 38.8705 41.7647 38.8044C41.7647 38.7383 41.7829 38.6735 41.8174 38.6171C41.8652 38.5587 41.9303 38.5172 42.0033 38.4985C42.0764 38.4797 42.1535 38.4848 42.2234 38.513L42.5721 38.7107C42.6116 38.7314 42.6465 38.7598 42.6746 38.7944C42.7027 38.829 42.7235 38.8689 42.7357 38.9118C42.7479 38.9546 42.7512 38.9995 42.7454 39.0437C42.7397 39.0879 42.725 39.1304 42.7022 39.1687L42.6762 39.174ZM42.9729 35.9574C43.1764 35.9825 43.3781 36.0208 43.5766 36.0719C43.6706 36.0943 43.7522 36.1526 43.8037 36.2343C43.8553 36.316 43.8728 36.4147 43.8525 36.5091C43.8403 36.5561 43.8191 36.6003 43.79 36.6393C43.7617 36.715 43.7056 36.7772 43.633 36.813C43.5605 36.8488 43.477 36.8555 43.3997 36.8318C43.192 36.8063 42.9867 36.7645 42.7855 36.7069C42.6924 36.6881 42.6106 36.6331 42.558 36.5541C42.5053 36.4751 42.486 36.3785 42.5045 36.2853V36.2853C42.5223 36.1852 42.5785 36.096 42.6611 36.0367C42.7438 35.9774 42.8463 35.9527 42.9469 35.9678L42.9729 35.9574ZM42.4992 33.3551C42.7338 33.2618 42.9758 33.1887 43.2227 33.1365C43.3262 33.1132 43.4348 33.1318 43.5245 33.1884C43.6143 33.245 43.6779 33.3349 43.7015 33.4384C43.7041 33.473 43.7041 33.5078 43.7015 33.5424C43.6911 33.6112 43.67 33.6779 43.6391 33.7402C43.5846 33.8033 43.5194 33.8561 43.4465 33.8964C43.2114 33.9842 42.9716 34.059 42.7283 34.1202C42.6327 34.134 42.5354 34.1134 42.4537 34.062C42.372 34.0106 42.3113 33.9318 42.2825 33.8397C42.2537 33.7475 42.2586 33.6482 42.2964 33.5594C42.3342 33.4706 42.4025 33.3981 42.4888 33.3551H42.4992ZM41.1877 30.9869C41.323 30.8724 41.4531 30.7527 41.5832 30.633C41.6446 30.5642 41.7276 30.5184 41.8185 30.5031C41.9094 30.4878 42.0028 30.5038 42.0834 30.5487C42.164 30.5935 42.2269 30.6644 42.2618 30.7497C42.2967 30.8351 42.3015 30.9297 42.2754 31.0182C42.2343 31.1111 42.1697 31.1918 42.0881 31.2524C41.9423 31.3981 41.7914 31.5386 41.6353 31.674C41.57 31.7157 41.4941 31.7378 41.4167 31.7378C41.3392 31.7378 41.2633 31.7157 41.1981 31.674C41.1366 31.6369 41.0858 31.5846 41.0506 31.5221C41.0153 31.4597 40.9968 31.3892 40.9968 31.3174C40.9968 31.2457 41.0153 31.1752 41.0506 31.1127C41.0858 31.0503 41.1366 30.998 41.1981 30.9609L41.1877 30.9869ZM37.5444 28.0307C37.6292 28.0497 37.705 28.0973 37.759 28.1655C37.813 28.2337 37.8419 28.3184 37.841 28.4054C37.8405 28.719 37.7749 29.0292 37.6484 29.3162C37.607 29.3801 37.5485 29.4311 37.4794 29.4633C37.4104 29.4956 37.3337 29.5077 37.2581 29.4984C37.1679 29.4788 37.0868 29.4299 37.0274 29.3593C36.9681 29.2886 36.9339 29.2002 36.9302 29.108C36.9562 28.9207 36.9927 28.7333 37.0291 28.5407C37.0291 28.4366 37.0707 28.3377 37.0967 28.2336C37.1419 28.1583 37.2089 28.0986 37.2889 28.0623C37.3688 28.026 37.458 28.015 37.5444 28.0307V28.0307ZM34.2706 28.2753C34.3381 28.2344 34.4155 28.2128 34.4944 28.2128C34.5733 28.2128 34.6507 28.2344 34.7182 28.2753C34.7765 28.3553 34.827 28.4407 34.8691 28.5303C34.942 28.7385 34.994 28.9571 35.0513 29.1705C35.0828 29.2611 35.0789 29.3604 35.0403 29.4482C35.0016 29.5361 34.9312 29.6061 34.8431 29.6441C34.7589 29.6781 34.6663 29.6853 34.5778 29.6648C34.4894 29.6443 34.4094 29.5971 34.3487 29.5296C34.3144 29.49 34.2927 29.4411 34.2862 29.3891C34.2185 29.1705 34.1457 28.9571 34.0988 28.7333C34.052 28.5095 34.0728 28.4106 34.2602 28.2753H34.2706ZM29.7165 35.1143C29.5552 35.0876 29.3954 35.0529 29.2376 35.0102C29.1779 34.9852 29.1284 34.9407 29.0972 34.884C29.066 34.8273 29.055 34.7617 29.0659 34.6979C29.0748 34.6358 29.1063 34.5793 29.1543 34.5389C29.2023 34.4986 29.2634 34.4774 29.3261 34.4793C29.5031 34.5023 29.6774 34.5424 29.8466 34.599C29.8892 34.6086 29.9285 34.6295 29.9604 34.6594C29.9923 34.6894 30.0155 34.7273 30.0277 34.7693C30.04 34.8113 30.0407 34.8557 30.0299 34.8981C30.0191 34.9405 29.9971 34.9792 29.9663 35.0102C29.9467 35.0578 29.9108 35.097 29.8651 35.1208C29.8194 35.1447 29.7668 35.1515 29.7165 35.1403V35.1143ZM31.6838 29.6858C31.7478 29.6338 31.8278 29.6054 31.9102 29.6054C31.9927 29.6054 32.0726 29.6338 32.1367 29.6858C32.3057 29.8503 32.4655 30.0241 32.6155 30.2062C32.6677 30.2845 32.6929 30.3778 32.6872 30.4717C32.6816 30.5657 32.6454 30.6552 32.5843 30.7267C32.5138 30.7874 32.4283 30.8281 32.3368 30.8446C32.2453 30.861 32.151 30.8527 32.0638 30.8204C31.8816 30.6018 31.6838 30.3988 31.5433 30.1698C31.4496 30.0397 31.5433 29.8055 31.6942 29.6805L31.6838 29.6858ZM30.0444 32.0799C30.0972 32.0103 30.1749 31.9638 30.2613 31.9502C30.3476 31.9366 30.4359 31.957 30.5076 32.0071L30.8147 32.1788C30.8765 32.2052 30.9271 32.2525 30.9575 32.3125C30.988 32.3724 30.9964 32.4412 30.9812 32.5067C30.9677 32.5774 30.9314 32.6416 30.8778 32.6896C30.8241 32.7376 30.7563 32.7666 30.6845 32.7722C30.5715 32.7607 30.4619 32.7271 30.3618 32.6733C30.2513 32.6291 30.1505 32.5636 30.0652 32.4807C30.0172 32.425 29.9908 32.3539 29.9908 32.2803C29.9908 32.2068 30.0172 32.1357 30.0652 32.0799H30.0444Z" fill="#E79F3E"/>
<path d="M211.357 32.5744C211.273 32.8242 211.206 33.0948 211.133 33.3447C211.039 33.6934 210.93 34.0421 210.857 34.3856C210.595 35.7429 210.5 37.1274 210.576 38.5078C210.603 38.7134 210.568 38.9223 210.475 39.1078C210.382 39.2932 210.236 39.4468 210.056 39.5487C209.838 39.6503 209.657 39.8155 209.535 40.0223C209.417 40.1848 209.364 40.3849 209.384 40.5844C209.405 40.7788 209.478 40.9639 209.596 41.1205C209.713 41.277 209.87 41.3992 210.05 41.4744C210.139 41.5376 210.235 41.59 210.337 41.6306C210.66 41.7223 210.998 41.7471 211.331 41.7034C211.729 41.6442 212.089 41.4335 212.335 41.1153C212.42 41.0072 212.475 40.879 212.496 40.7432C212.517 40.6074 212.503 40.4685 212.455 40.3398C212.314 39.943 212.263 39.5201 212.304 39.1011C212.346 38.6743 212.361 38.2475 212.429 37.8311C212.528 37.2066 212.642 36.582 212.788 35.9678C213.001 35.1676 213.293 34.3902 213.657 33.6465C213.818 33.2941 214.022 32.9636 214.266 32.6629C214.464 32.4495 214.604 32.1788 214.787 31.9706C215.054 31.7001 215.339 31.4479 215.64 31.2159C215.999 30.9285 216.406 30.7065 216.842 30.5601C217.29 30.3946 217.757 30.2879 218.232 30.2427C218.73 30.198 219.231 30.226 219.721 30.3259C219.991 30.384 220.257 30.4605 220.517 30.5549C220.843 30.6673 221.16 30.8048 221.464 30.9661C221.704 31.0962 221.907 31.294 222.136 31.4449C222.432 31.6663 222.695 31.9293 222.916 32.2257C223.276 32.6652 223.567 33.1565 223.78 33.683C223.994 34.2109 224.109 34.7738 224.119 35.3433C224.156 36.1196 224.021 36.8946 223.723 37.6125C223.563 38.048 223.369 38.4708 223.145 38.8773C222.901 39.3109 222.611 39.7174 222.281 40.09C221.985 40.4023 221.73 40.7614 221.428 41.0685C220.712 41.7899 219.93 42.4416 219.091 43.015C218.827 43.2187 218.521 43.361 218.196 43.4314C217.978 43.4665 217.779 43.5768 217.633 43.7431C217.488 43.9095 217.405 44.1214 217.399 44.3422C217.385 44.6483 217.445 44.9533 217.574 45.2314C217.702 45.5095 217.896 45.7526 218.138 45.9401C218.413 46.1822 218.772 46.3057 219.138 46.2836C219.265 46.2751 219.389 46.2402 219.502 46.181C219.615 46.1219 219.714 46.0398 219.794 45.9401C219.96 45.7041 220.032 45.4146 219.997 45.1282C219.979 44.9452 220.013 44.7609 220.096 44.5968C220.179 44.4328 220.307 44.2957 220.465 44.2017C220.892 43.9155 221.345 43.6812 221.771 43.3794C222.198 43.0775 222.588 42.8121 222.984 42.505C223.592 42.0285 224.163 41.5065 224.691 40.9436C224.775 40.8547 224.853 40.7608 224.925 40.6625C225.035 40.5324 225.134 40.3919 225.238 40.2565C225.415 40.0473 225.579 39.8265 225.727 39.5955C226.138 38.9773 226.471 38.3114 226.721 37.6125C226.778 37.3835 226.882 37.1701 226.929 36.9411C226.976 36.7121 227.039 36.353 227.08 36.0563C227.185 35.2967 227.152 34.5243 226.981 33.7767C226.821 33.0029 226.538 32.2597 226.143 31.5751C225.832 31.0379 225.462 30.5369 225.04 30.0813C224.816 29.8523 224.582 29.6285 224.348 29.4099C224.154 29.2215 223.947 29.0475 223.728 28.8894C223.328 28.6188 222.911 28.369 222.495 28.1295C222.416 28.078 222.332 28.0344 222.245 27.9994C221.933 27.8849 221.62 27.7756 221.303 27.6767C221.018 27.5724 220.728 27.4838 220.434 27.4113C220.043 27.3332 219.648 27.2812 219.273 27.2395C218.559 27.1674 217.838 27.2025 217.134 27.3436C216.511 27.4594 215.906 27.6608 215.338 27.9422C214.82 28.1805 214.337 28.4887 213.902 28.8582C213.694 29.0404 213.491 29.2329 213.298 29.4307C213.123 29.5941 212.958 29.7679 212.804 29.9512C212.642 30.1594 212.528 30.3988 212.361 30.5966C212.038 31.0711 211.762 31.5768 211.539 32.1059C211.464 32.2564 211.403 32.4131 211.357 32.5744V32.5744ZM223.385 41.3235C223.336 41.367 223.273 41.3911 223.208 41.3911C223.143 41.3911 223.08 41.367 223.031 41.3235C222.91 41.2132 222.797 41.095 222.693 40.9696C222.652 40.9216 222.63 40.8607 222.63 40.7978C222.63 40.7349 222.652 40.674 222.693 40.6261C222.746 40.5714 222.818 40.5381 222.895 40.5324C222.971 40.5266 223.048 40.5488 223.109 40.5948C223.227 40.7152 223.338 40.8421 223.442 40.9748C223.475 41.0277 223.487 41.0908 223.477 41.1522C223.466 41.2135 223.433 41.2689 223.385 41.3079V41.3235ZM225.061 39.174C225.013 39.2491 224.939 39.3037 224.854 39.3269C224.768 39.35 224.676 39.34 224.598 39.2989C224.458 39.2069 224.326 39.1043 224.202 38.9918C224.167 38.9354 224.149 38.8705 224.149 38.8044C224.149 38.7383 224.167 38.6735 224.202 38.6171C224.25 38.5587 224.315 38.5172 224.388 38.4985C224.461 38.4797 224.538 38.4848 224.608 38.513L224.957 38.7107C224.996 38.7314 225.031 38.7598 225.059 38.7944C225.087 38.829 225.108 38.8689 225.12 38.9118C225.132 38.9546 225.136 38.9995 225.13 39.0437C225.124 39.0879 225.109 39.1304 225.087 39.1687L225.061 39.174ZM225.357 35.9574C225.561 35.9825 225.763 36.0208 225.961 36.0719C226.055 36.0943 226.137 36.1526 226.188 36.2343C226.24 36.316 226.257 36.4147 226.237 36.5091C226.225 36.5561 226.204 36.6003 226.175 36.6393C226.146 36.715 226.09 36.7772 226.018 36.813C225.945 36.8488 225.862 36.8555 225.784 36.8318C225.577 36.8063 225.371 36.7645 225.17 36.7069C225.077 36.6881 224.995 36.6331 224.942 36.5541C224.89 36.4751 224.871 36.3785 224.889 36.2853V36.2853C224.907 36.1852 224.963 36.096 225.046 36.0367C225.128 35.9774 225.231 35.9527 225.331 35.9678L225.357 35.9574ZM224.884 33.3551C225.118 33.2618 225.36 33.1887 225.607 33.1365C225.711 33.1132 225.819 33.1318 225.909 33.1884C225.999 33.245 226.062 33.3349 226.086 33.4384C226.089 33.473 226.089 33.5078 226.086 33.5424C226.076 33.6112 226.055 33.6779 226.024 33.7402C225.969 33.8033 225.904 33.8561 225.831 33.8964C225.596 33.9842 225.356 34.059 225.113 34.1202C225.017 34.134 224.92 34.1134 224.838 34.062C224.757 34.0106 224.696 33.9318 224.667 33.8397C224.638 33.7475 224.643 33.6482 224.681 33.5594C224.719 33.4706 224.787 33.3981 224.873 33.3551H224.884ZM223.572 30.9869C223.708 30.8724 223.838 30.7527 223.968 30.633C224.029 30.5642 224.112 30.5184 224.203 30.5031C224.294 30.4878 224.387 30.5038 224.468 30.5487C224.548 30.5935 224.611 30.6644 224.646 30.7497C224.681 30.8351 224.686 30.9297 224.66 31.0182C224.619 31.1111 224.554 31.1918 224.473 31.2524C224.327 31.3981 224.176 31.5386 224.02 31.674C223.955 31.7157 223.879 31.7378 223.801 31.7378C223.724 31.7378 223.648 31.7157 223.583 31.674C223.521 31.6369 223.47 31.5846 223.435 31.5221C223.4 31.4597 223.381 31.3892 223.381 31.3174C223.381 31.2457 223.4 31.1752 223.435 31.1127C223.47 31.0503 223.521 30.998 223.583 30.9609L223.572 30.9869ZM219.929 28.0307C220.014 28.0497 220.09 28.0973 220.144 28.1655C220.198 28.2337 220.226 28.3184 220.226 28.4054C220.225 28.719 220.159 29.0292 220.033 29.3162C219.992 29.3801 219.933 29.4311 219.864 29.4633C219.795 29.4956 219.718 29.5077 219.643 29.4984C219.552 29.4788 219.471 29.4299 219.412 29.3593C219.353 29.2886 219.318 29.2002 219.315 29.108C219.341 28.9207 219.377 28.7333 219.414 28.5407C219.414 28.4366 219.455 28.3377 219.481 28.2336C219.526 28.1583 219.593 28.0986 219.673 28.0623C219.753 28.026 219.842 28.015 219.929 28.0307V28.0307ZM216.655 28.2753C216.723 28.2344 216.8 28.2128 216.879 28.2128C216.958 28.2128 217.035 28.2344 217.103 28.2753C217.161 28.3553 217.212 28.4407 217.254 28.5303C217.327 28.7385 217.379 28.9571 217.436 29.1705C217.467 29.2611 217.463 29.3604 217.425 29.4482C217.386 29.5361 217.316 29.6061 217.228 29.6441C217.143 29.6781 217.051 29.6853 216.962 29.6648C216.874 29.6443 216.794 29.5971 216.733 29.5296C216.699 29.49 216.677 29.4411 216.671 29.3891C216.603 29.1705 216.53 28.9571 216.483 28.7333C216.437 28.5095 216.457 28.4106 216.645 28.2753H216.655ZM212.101 35.1143C211.94 35.0876 211.78 35.0529 211.622 35.0102C211.562 34.9852 211.513 34.9407 211.482 34.884C211.451 34.8273 211.439 34.7617 211.45 34.6979C211.459 34.6358 211.491 34.5793 211.539 34.5389C211.587 34.4986 211.648 34.4774 211.711 34.4793C211.888 34.5023 212.062 34.5424 212.231 34.599C212.274 34.6086 212.313 34.6295 212.345 34.6594C212.377 34.6894 212.4 34.7273 212.412 34.7693C212.424 34.8113 212.425 34.8557 212.414 34.8981C212.404 34.9405 212.382 34.9792 212.351 35.0102C212.331 35.0578 212.295 35.097 212.25 35.1208C212.204 35.1447 212.151 35.1515 212.101 35.1403V35.1143ZM214.068 29.6858C214.132 29.6338 214.212 29.6054 214.295 29.6054C214.377 29.6054 214.457 29.6338 214.521 29.6858C214.69 29.8503 214.85 30.0241 215 30.2062C215.052 30.2845 215.077 30.3778 215.072 30.4717C215.066 30.5657 215.03 30.6552 214.969 30.7267C214.898 30.7874 214.813 30.8281 214.721 30.8446C214.63 30.861 214.536 30.8527 214.448 30.8204C214.266 30.6018 214.068 30.3988 213.928 30.1698C213.834 30.0397 213.928 29.8055 214.079 29.6805L214.068 29.6858ZM212.429 32.0799C212.482 32.0103 212.559 31.9638 212.646 31.9502C212.732 31.9366 212.82 31.957 212.892 32.0071L213.199 32.1788C213.261 32.2052 213.312 32.2525 213.342 32.3125C213.373 32.3724 213.381 32.4412 213.366 32.5067C213.352 32.5774 213.316 32.6416 213.262 32.6896C213.209 32.7376 213.141 32.7666 213.069 32.7722C212.956 32.7607 212.846 32.7271 212.746 32.6733C212.636 32.6291 212.535 32.5636 212.45 32.4807C212.402 32.425 212.375 32.3539 212.375 32.2803C212.375 32.2068 212.402 32.1357 212.45 32.0799H212.429Z" fill="#E79F3E"/>
<path d="M211.357 276.649C211.273 276.898 211.206 277.169 211.133 277.419C211.039 277.768 210.93 278.116 210.857 278.46C210.595 279.817 210.5 281.202 210.576 282.582C210.603 282.788 210.568 282.997 210.475 283.182C210.382 283.367 210.236 283.521 210.056 283.623C209.838 283.725 209.657 283.89 209.535 284.097C209.417 284.259 209.364 284.459 209.384 284.659C209.405 284.853 209.478 285.038 209.596 285.195C209.713 285.351 209.87 285.473 210.05 285.549C210.139 285.612 210.235 285.664 210.337 285.705C210.66 285.796 210.998 285.821 211.331 285.778C211.729 285.718 212.089 285.508 212.335 285.19C212.42 285.081 212.475 284.953 212.496 284.817C212.517 284.682 212.503 284.543 212.455 284.414C212.314 284.017 212.263 283.594 212.304 283.175C212.346 282.749 212.361 282.322 212.429 281.905C212.528 281.281 212.642 280.656 212.788 280.042C213.001 279.242 213.293 278.464 213.657 277.721C213.818 277.368 214.022 277.038 214.266 276.737C214.464 276.524 214.604 276.253 214.787 276.045C215.054 275.774 215.339 275.522 215.64 275.29C215.999 275.003 216.406 274.781 216.842 274.634C217.29 274.469 217.757 274.362 218.232 274.317C218.73 274.272 219.231 274.3 219.721 274.4C219.991 274.458 220.257 274.535 220.517 274.629C220.843 274.742 221.16 274.879 221.464 275.04C221.704 275.17 221.907 275.368 222.136 275.519C222.432 275.741 222.695 276.003 222.916 276.3C223.276 276.739 223.567 277.231 223.78 277.757C223.994 278.285 224.109 278.848 224.119 279.418C224.156 280.194 224.021 280.969 223.723 281.687C223.563 282.122 223.369 282.545 223.145 282.952C222.901 283.385 222.611 283.792 222.281 284.164C221.985 284.476 221.73 284.836 221.428 285.143C220.712 285.864 219.93 286.516 219.091 287.089C218.827 287.293 218.521 287.435 218.196 287.506C217.978 287.541 217.779 287.651 217.633 287.817C217.488 287.984 217.405 288.196 217.399 288.416C217.385 288.723 217.445 289.028 217.574 289.306C217.702 289.584 217.896 289.827 218.138 290.014C218.413 290.256 218.772 290.38 219.138 290.358C219.265 290.349 219.389 290.314 219.502 290.255C219.615 290.196 219.714 290.114 219.794 290.014C219.96 289.778 220.032 289.489 219.997 289.202C219.979 289.019 220.013 288.835 220.096 288.671C220.179 288.507 220.307 288.37 220.465 288.276C220.892 287.99 221.345 287.755 221.771 287.454C222.198 287.152 222.588 286.886 222.984 286.579C223.592 286.103 224.163 285.581 224.691 285.018C224.775 284.929 224.853 284.835 224.925 284.737C225.035 284.607 225.134 284.466 225.238 284.331C225.415 284.121 225.579 283.901 225.727 283.67C226.138 283.052 226.471 282.386 226.721 281.687C226.778 281.458 226.882 281.244 226.929 281.015C226.976 280.786 227.039 280.427 227.08 280.131C227.185 279.371 227.152 278.599 226.981 277.851C226.821 277.077 226.538 276.334 226.143 275.649C225.832 275.112 225.462 274.611 225.04 274.156C224.816 273.927 224.582 273.703 224.348 273.484C224.154 273.296 223.947 273.122 223.728 272.964C223.328 272.693 222.911 272.443 222.495 272.204C222.416 272.152 222.332 272.109 222.245 272.074C221.933 271.959 221.62 271.85 221.303 271.751C221.018 271.647 220.728 271.558 220.434 271.486C220.043 271.407 219.648 271.355 219.273 271.314C218.559 271.242 217.838 271.277 217.134 271.418C216.511 271.534 215.906 271.735 215.338 272.016C214.82 272.255 214.337 272.563 213.902 272.932C213.694 273.115 213.491 273.307 213.298 273.505C213.123 273.668 212.958 273.842 212.804 274.025C212.642 274.234 212.528 274.473 212.361 274.671C212.038 275.145 211.762 275.651 211.539 276.18C211.464 276.331 211.403 276.487 211.357 276.649V276.649ZM223.385 285.398C223.336 285.441 223.273 285.465 223.208 285.465C223.143 285.465 223.08 285.441 223.031 285.398C222.91 285.287 222.797 285.169 222.693 285.044C222.652 284.996 222.63 284.935 222.63 284.872C222.63 284.809 222.652 284.748 222.693 284.7C222.746 284.646 222.818 284.612 222.895 284.607C222.971 284.601 223.048 284.623 223.109 284.669C223.227 284.789 223.338 284.916 223.442 285.049C223.475 285.102 223.487 285.165 223.477 285.226C223.466 285.288 223.433 285.343 223.385 285.382V285.398ZM225.061 283.248C225.013 283.323 224.939 283.378 224.854 283.401C224.768 283.424 224.676 283.414 224.598 283.373C224.458 283.281 224.326 283.178 224.202 283.066C224.167 283.01 224.149 282.945 224.149 282.879C224.149 282.813 224.167 282.748 224.202 282.691C224.25 282.633 224.315 282.591 224.388 282.573C224.461 282.554 224.538 282.559 224.608 282.587L224.957 282.785C224.996 282.806 225.031 282.834 225.059 282.869C225.087 282.903 225.108 282.943 225.12 282.986C225.132 283.029 225.136 283.074 225.13 283.118C225.124 283.162 225.109 283.205 225.087 283.243L225.061 283.248ZM225.357 280.032C225.561 280.057 225.763 280.095 225.961 280.146C226.055 280.169 226.137 280.227 226.188 280.308C226.24 280.39 226.257 280.489 226.237 280.583C226.225 280.63 226.204 280.675 226.175 280.713C226.146 280.789 226.09 280.851 226.018 280.887C225.945 280.923 225.862 280.93 225.784 280.906C225.577 280.88 225.371 280.839 225.17 280.781C225.077 280.762 224.995 280.707 224.942 280.628C224.89 280.549 224.871 280.453 224.889 280.36V280.36C224.907 280.259 224.963 280.17 225.046 280.111C225.128 280.052 225.231 280.027 225.331 280.042L225.357 280.032ZM224.884 277.429C225.118 277.336 225.36 277.263 225.607 277.211C225.711 277.187 225.819 277.206 225.909 277.263C225.999 277.319 226.062 277.409 226.086 277.513C226.089 277.547 226.089 277.582 226.086 277.617C226.076 277.685 226.055 277.752 226.024 277.814C225.969 277.877 225.904 277.93 225.831 277.971C225.596 278.058 225.356 278.133 225.113 278.194C225.017 278.208 224.92 278.188 224.838 278.136C224.757 278.085 224.696 278.006 224.667 277.914C224.638 277.822 224.643 277.722 224.681 277.634C224.719 277.545 224.787 277.472 224.873 277.429H224.884ZM223.572 275.061C223.708 274.947 223.838 274.827 223.968 274.707C224.029 274.638 224.112 274.593 224.203 274.577C224.294 274.562 224.387 274.578 224.468 274.623C224.548 274.668 224.611 274.739 224.646 274.824C224.681 274.909 224.686 275.004 224.66 275.092C224.619 275.185 224.554 275.266 224.473 275.327C224.327 275.472 224.176 275.613 224.02 275.748C223.955 275.79 223.879 275.812 223.801 275.812C223.724 275.812 223.648 275.79 223.583 275.748C223.521 275.711 223.47 275.659 223.435 275.596C223.4 275.534 223.381 275.463 223.381 275.392C223.381 275.32 223.4 275.249 223.435 275.187C223.47 275.124 223.521 275.072 223.583 275.035L223.572 275.061ZM219.929 272.105C220.014 272.124 220.09 272.172 220.144 272.24C220.198 272.308 220.226 272.393 220.226 272.48C220.225 272.793 220.159 273.103 220.033 273.39C219.992 273.454 219.933 273.505 219.864 273.538C219.795 273.57 219.718 273.582 219.643 273.573C219.552 273.553 219.471 273.504 219.412 273.433C219.353 273.363 219.318 273.274 219.315 273.182C219.341 272.995 219.377 272.808 219.414 272.615C219.414 272.511 219.455 272.412 219.481 272.308C219.526 272.233 219.593 272.173 219.673 272.137C219.753 272.1 219.842 272.089 219.929 272.105V272.105ZM216.655 272.349C216.723 272.309 216.8 272.287 216.879 272.287C216.958 272.287 217.035 272.309 217.103 272.349C217.161 272.43 217.212 272.515 217.254 272.605C217.327 272.813 217.379 273.031 217.436 273.245C217.467 273.335 217.463 273.435 217.425 273.522C217.386 273.61 217.316 273.68 217.228 273.718C217.143 273.752 217.051 273.76 216.962 273.739C216.874 273.719 216.794 273.671 216.733 273.604C216.699 273.564 216.677 273.515 216.671 273.463C216.603 273.245 216.53 273.031 216.483 272.808C216.437 272.584 216.457 272.485 216.645 272.349H216.655ZM212.101 279.188C211.94 279.162 211.78 279.127 211.622 279.084C211.562 279.059 211.513 279.015 211.482 278.958C211.451 278.902 211.439 278.836 211.45 278.772C211.459 278.71 211.491 278.653 211.539 278.613C211.587 278.573 211.648 278.552 211.711 278.554C211.888 278.577 212.062 278.617 212.231 278.673C212.274 278.683 212.313 278.704 212.345 278.734C212.377 278.764 212.4 278.802 212.412 278.843C212.424 278.885 212.425 278.93 212.414 278.972C212.404 279.015 212.382 279.053 212.351 279.084C212.331 279.132 212.295 279.171 212.25 279.195C212.204 279.219 212.151 279.226 212.101 279.215V279.188ZM214.068 273.76C214.132 273.708 214.212 273.68 214.295 273.68C214.377 273.68 214.457 273.708 214.521 273.76C214.69 273.925 214.85 274.098 215 274.28C215.052 274.359 215.077 274.452 215.072 274.546C215.066 274.64 215.03 274.729 214.969 274.801C214.898 274.862 214.813 274.902 214.721 274.919C214.63 274.935 214.536 274.927 214.448 274.895C214.266 274.676 214.068 274.473 213.928 274.244C213.834 274.114 213.928 273.88 214.079 273.755L214.068 273.76ZM212.429 276.154C212.482 276.085 212.559 276.038 212.646 276.024C212.732 276.011 212.82 276.031 212.892 276.081L213.199 276.253C213.261 276.279 213.312 276.327 213.342 276.387C213.373 276.447 213.381 276.515 213.366 276.581C213.352 276.652 213.316 276.716 213.262 276.764C213.209 276.812 213.141 276.841 213.069 276.846C212.956 276.835 212.846 276.801 212.746 276.747C212.636 276.703 212.535 276.638 212.45 276.555C212.402 276.499 212.375 276.428 212.375 276.355C212.375 276.281 212.402 276.21 212.45 276.154H212.429Z" fill="#E79F3E"/>
<path d="M28.833 276.649C28.7497 276.898 28.6821 277.169 28.6092 277.419C28.5155 277.768 28.4062 278.116 28.3334 278.46C28.071 279.817 27.9766 281.202 28.0523 282.582C28.0791 282.788 28.0439 282.997 27.9511 283.182C27.8584 283.367 27.7124 283.521 27.5318 283.623C27.3145 283.725 27.133 283.89 27.0114 284.097C26.8938 284.259 26.84 284.459 26.8604 284.659C26.8817 284.853 26.9547 285.038 27.0719 285.195C27.1891 285.351 27.3461 285.473 27.5266 285.549C27.6155 285.612 27.7116 285.664 27.8129 285.705C28.1359 285.796 28.4741 285.821 28.807 285.778C29.2051 285.718 29.565 285.508 29.8115 285.19C29.8963 285.081 29.9518 284.953 29.9728 284.817C29.9937 284.682 29.9794 284.543 29.9312 284.414C29.7906 284.017 29.7391 283.594 29.7803 283.175C29.8219 282.749 29.8375 282.322 29.9052 281.905C30.0041 281.281 30.1186 280.656 30.2643 280.042C30.4778 279.242 30.7689 278.464 31.1335 277.721C31.2939 277.368 31.4985 277.038 31.7425 276.737C31.9402 276.524 32.0808 276.253 32.2629 276.045C32.5301 275.774 32.8153 275.522 33.1165 275.29C33.4757 275.003 33.8826 274.781 34.3188 274.634C34.7663 274.469 35.2334 274.362 35.7085 274.317C36.206 274.272 36.7075 274.3 37.197 274.4C37.4674 274.458 37.7334 274.535 37.9933 274.629C38.3192 274.742 38.6359 274.879 38.9406 275.04C39.18 275.17 39.383 275.368 39.612 275.519C39.9084 275.741 40.1713 276.003 40.3927 276.3C40.7524 276.739 41.0437 277.231 41.2567 277.757C41.4706 278.285 41.5853 278.848 41.595 279.418C41.6322 280.194 41.4971 280.969 41.1994 281.687C41.0389 282.122 40.8457 282.545 40.6217 282.952C40.3774 283.385 40.0878 283.792 39.7577 284.164C39.4611 284.476 39.206 284.836 38.9042 285.143C38.1886 285.864 37.4061 286.516 36.5672 287.089C36.3035 287.293 35.9977 287.435 35.672 287.506C35.4539 287.541 35.2549 287.651 35.1095 287.817C34.9641 287.984 34.8814 288.196 34.8757 288.416C34.8617 288.723 34.9215 289.028 35.0502 289.306C35.1788 289.584 35.3725 289.827 35.6148 290.014C35.8894 290.256 36.2487 290.38 36.6141 290.358C36.7413 290.349 36.8653 290.314 36.9782 290.255C37.0911 290.196 37.1905 290.114 37.2699 290.014C37.4362 289.778 37.5085 289.489 37.4729 289.202C37.4549 289.019 37.4894 288.835 37.5724 288.671C37.6553 288.507 37.7833 288.37 37.9413 288.276C38.3681 287.99 38.8209 287.755 39.2477 287.454C39.6745 287.152 40.0648 286.886 40.4604 286.579C41.0682 286.103 41.6388 285.581 42.1675 285.018C42.2511 284.929 42.3294 284.835 42.4017 284.737C42.511 284.607 42.6099 284.466 42.714 284.331C42.8915 284.121 43.055 283.901 43.2032 283.67C43.6139 283.052 43.9477 282.386 44.1974 281.687C44.2546 281.458 44.3587 281.244 44.4055 281.015C44.4524 280.786 44.5148 280.427 44.5565 280.131C44.6617 279.371 44.6282 278.599 44.4576 277.851C44.2972 277.077 44.0143 276.334 43.6196 275.649C43.3082 275.112 42.9381 274.611 42.5162 274.156C42.2924 273.927 42.0582 273.703 41.824 273.484C41.6306 273.296 41.4236 273.122 41.2046 272.964C40.8039 272.693 40.3875 272.443 39.9711 272.204C39.8924 272.152 39.8087 272.109 39.7213 272.074C39.409 271.959 39.0967 271.85 38.7792 271.751C38.4946 271.647 38.2044 271.558 37.9101 271.486C37.5197 271.407 37.1241 271.355 36.7494 271.314C36.0351 271.242 35.3141 271.277 34.6103 271.418C33.987 271.534 33.3827 271.735 32.8146 272.016C32.2962 272.255 31.8129 272.563 31.3781 272.932C31.1699 273.115 30.967 273.307 30.7744 273.505C30.5993 273.668 30.4342 273.842 30.2799 274.025C30.1186 274.234 30.0041 274.473 29.8375 274.671C29.514 275.145 29.2385 275.651 29.0152 276.18C28.9407 276.331 28.8798 276.487 28.833 276.649V276.649ZM40.8611 285.398C40.8125 285.441 40.7495 285.465 40.6842 285.465C40.6189 285.465 40.5559 285.441 40.5072 285.398C40.3866 285.287 40.2736 285.169 40.1689 285.044C40.1282 284.996 40.1058 284.935 40.1058 284.872C40.1058 284.809 40.1282 284.748 40.1689 284.7C40.2228 284.646 40.2947 284.612 40.3712 284.607C40.4478 284.601 40.5238 284.623 40.5853 284.669C40.7033 284.789 40.8145 284.916 40.9184 285.049C40.9511 285.102 40.9634 285.165 40.9529 285.226C40.9423 285.288 40.9097 285.343 40.8611 285.382V285.398ZM42.537 283.248C42.4896 283.323 42.4157 283.378 42.3298 283.401C42.244 283.424 42.1526 283.414 42.0738 283.373C41.9342 283.281 41.8019 283.178 41.6783 283.066C41.6438 283.01 41.6255 282.945 41.6255 282.879C41.6255 282.813 41.6438 282.748 41.6783 282.691C41.726 282.633 41.7912 282.591 41.8642 282.573C41.9372 282.554 42.0143 282.559 42.0842 282.587L42.433 282.785C42.4724 282.806 42.5073 282.834 42.5354 282.869C42.5636 282.903 42.5844 282.943 42.5965 282.986C42.6087 283.029 42.612 283.074 42.6063 283.118C42.6005 283.162 42.5858 283.205 42.5631 283.243L42.537 283.248ZM42.8337 280.032C43.0372 280.057 43.2389 280.095 43.4375 280.146C43.5315 280.169 43.613 280.227 43.6646 280.308C43.7161 280.39 43.7336 280.489 43.7133 280.583C43.7011 280.63 43.6799 280.675 43.6509 280.713C43.6226 280.789 43.5664 280.851 43.4939 280.887C43.4213 280.923 43.3379 280.93 43.2605 280.906C43.0528 280.88 42.8475 280.839 42.6463 280.781C42.5533 280.762 42.4715 280.707 42.4188 280.628C42.3661 280.549 42.3469 280.453 42.3653 280.36V280.36C42.3831 280.259 42.4394 280.17 42.522 280.111C42.6046 280.052 42.7071 280.027 42.8077 280.042L42.8337 280.032ZM42.3601 277.429C42.5946 277.336 42.8366 277.263 43.0835 277.211C43.1871 277.187 43.2956 277.206 43.3854 277.263C43.4751 277.319 43.5388 277.409 43.5624 277.513C43.5649 277.547 43.5649 277.582 43.5624 277.617C43.5519 277.685 43.5309 277.752 43.4999 277.814C43.4455 277.877 43.3803 277.93 43.3073 277.971C43.0723 278.058 42.8325 278.133 42.5891 278.194C42.4936 278.208 42.3962 278.188 42.3146 278.136C42.2329 278.085 42.1722 278.006 42.1433 277.914C42.1145 277.822 42.1194 277.722 42.1573 277.634C42.1951 277.545 42.2633 277.472 42.3497 277.429H42.3601ZM41.0485 275.061C41.1838 274.947 41.3139 274.827 41.4441 274.707C41.5055 274.638 41.5884 274.593 41.6794 274.577C41.7703 274.562 41.8637 274.578 41.9443 274.623C42.0248 274.668 42.0877 274.739 42.1226 274.824C42.1575 274.909 42.1623 275.004 42.1363 275.092C42.0951 275.185 42.0306 275.266 41.9489 275.327C41.8032 275.472 41.6522 275.613 41.4961 275.748C41.4308 275.79 41.355 275.812 41.2775 275.812C41.2 275.812 41.1242 275.79 41.0589 275.748C40.9975 275.711 40.9467 275.659 40.9114 275.596C40.8761 275.534 40.8576 275.463 40.8576 275.392C40.8576 275.32 40.8761 275.249 40.9114 275.187C40.9467 275.124 40.9975 275.072 41.0589 275.035L41.0485 275.061ZM37.4052 272.105C37.4901 272.124 37.5658 272.172 37.6198 272.24C37.6738 272.308 37.7028 272.393 37.7019 272.48C37.7013 272.793 37.6357 273.103 37.5093 273.39C37.4679 273.454 37.4093 273.505 37.3403 273.538C37.2712 273.57 37.1945 273.582 37.1189 273.573C37.0288 273.553 36.9476 273.504 36.8883 273.433C36.8289 273.363 36.7947 273.274 36.791 273.182C36.8171 272.995 36.8535 272.808 36.8899 272.615C36.8899 272.511 36.9316 272.412 36.9576 272.308C37.0027 272.233 37.0697 272.173 37.1497 272.137C37.2297 272.1 37.3188 272.089 37.4052 272.105V272.105ZM34.1314 272.349C34.1989 272.309 34.2763 272.287 34.3552 272.287C34.4341 272.287 34.5115 272.309 34.579 272.349C34.6373 272.43 34.6879 272.515 34.73 272.605C34.8028 272.813 34.8549 273.031 34.9121 273.245C34.9437 273.335 34.9397 273.435 34.9011 273.522C34.8625 273.61 34.792 273.68 34.7039 273.718C34.6197 273.752 34.5271 273.76 34.4387 273.739C34.3502 273.719 34.2702 273.671 34.2095 273.604C34.1753 273.564 34.1535 273.515 34.147 273.463C34.0794 273.245 34.0065 273.031 33.9597 272.808C33.9128 272.584 33.9336 272.485 34.121 272.349H34.1314ZM29.5773 279.188C29.416 279.162 29.2562 279.127 29.0985 279.084C29.0387 279.059 28.9893 279.015 28.9581 278.958C28.9269 278.902 28.9158 278.836 28.9267 278.772C28.9356 278.71 28.9671 278.653 29.0151 278.613C29.0631 278.573 29.1243 278.552 29.1869 278.554C29.3639 278.577 29.5382 278.617 29.7074 278.673C29.7501 278.683 29.7894 278.704 29.8212 278.734C29.8531 278.764 29.8763 278.802 29.8886 278.843C29.9008 278.885 29.9015 278.93 29.8907 278.972C29.8799 279.015 29.858 279.053 29.8271 279.084C29.8075 279.132 29.7717 279.171 29.726 279.195C29.6802 279.219 29.6276 279.226 29.5773 279.215V279.188ZM31.5447 273.76C31.6087 273.708 31.6886 273.68 31.7711 273.68C31.8535 273.68 31.9335 273.708 31.9975 273.76C32.1665 273.925 32.3264 274.098 32.4763 274.28C32.5285 274.359 32.5537 274.452 32.5481 274.546C32.5425 274.64 32.5063 274.729 32.4451 274.801C32.3746 274.862 32.2892 274.902 32.1976 274.919C32.1061 274.935 32.0118 274.927 31.9246 274.895C31.7425 274.676 31.5447 274.473 31.4042 274.244C31.3105 274.114 31.4042 273.88 31.5551 273.755L31.5447 273.76ZM29.9052 276.154C29.958 276.085 30.0358 276.038 30.1221 276.024C30.2085 276.011 30.2967 276.031 30.3684 276.081L30.6755 276.253C30.7373 276.279 30.7879 276.327 30.8184 276.387C30.8488 276.447 30.8572 276.515 30.842 276.581C30.8286 276.652 30.7922 276.716 30.7386 276.764C30.685 276.812 30.6171 276.841 30.5454 276.846C30.4324 276.835 30.3227 276.801 30.2227 276.747C30.1122 276.703 30.0114 276.638 29.926 276.555C29.878 276.499 29.8516 276.428 29.8516 276.355C29.8516 276.281 29.878 276.21 29.926 276.154H29.9052Z" fill="#E79F3E"/>
</svg>
