<svg width="19" height="19" viewBox="0 0 19 19" fill="none" xmlns="http://www.w3.org/2000/svg">
<path d="M13.6216 17.4243C13.1421 17.4494 12.6675 17.3138 12.2724 17.0387C11.8773 16.7636 11.584 16.3647 11.4385 15.9044C11.3349 15.5553 10.6151 13.4198 10.5338 13.2387C10.5217 13.2075 10.5072 13.1774 10.4903 13.1486C10.4205 13.761 10.4051 14.3784 10.4443 14.9937L10.4536 15.0494C10.4913 16.2681 10.5412 17.9369 8.92901 18.2052C8.33066 18.3048 7.78838 17.9886 6.61974 17.2615C5.93707 16.8553 5.21875 16.5131 4.47389 16.2391L3.99079 16.039C3.73345 15.9407 3.50542 15.7777 3.32855 15.5656C3.15169 15.3535 3.03191 15.0994 2.98069 14.8276C2.80181 13.7526 3.38982 13.3514 4.65905 12.459C5.29701 12.0432 5.90104 11.5771 6.46545 11.0651C6.35046 11.0619 6.23545 11.0695 6.12193 11.0879C5.53171 11.2582 4.95694 11.4783 4.40374 11.7459C3.94695 11.9851 3.46838 12.1797 2.97455 12.3272C2.53566 12.3917 2.08832 12.2896 1.71962 12.041C1.35092 11.7923 1.08725 11.4148 0.97995 10.982L0.973463 10.943C0.975965 10.3329 1.04873 9.72539 1.1903 9.13243C1.23633 8.8958 1.26669 8.70186 1.27587 8.62019C1.28506 8.53853 1.29688 8.23319 1.30592 7.91113C1.27885 6.99334 1.36326 6.07586 1.55729 5.17899C1.67204 4.89965 1.85917 4.6564 2.09924 4.47453C2.33931 4.29265 2.62356 4.17877 2.92248 4.14472C3.68704 4.01749 3.94574 4.23775 5.38895 5.4515L5.51554 5.56209L5.56173 5.60019C5.97967 5.98398 6.44931 6.30665 6.95676 6.55865C6.60246 5.93396 6.20591 5.33439 5.76993 4.76418C5.2738 4.19274 4.87353 3.544 4.58487 2.84348C4.50608 2.37004 4.75376 1.1554 5.78979 0.982992C5.87844 0.968241 6.05019 0.93966 6.35124 0.935355C6.91361 0.893289 7.71792 0.833857 8.39384 0.721379C9.05391 0.606671 9.70758 0.457772 10.3523 0.275277C10.6404 0.227335 10.837 0.143095 10.9866 0.118202C12.0337 -0.0560467 12.6457 0.986928 12.7272 1.47707C12.6795 2.20916 12.5146 2.92852 12.2391 3.60752C12.006 4.31398 11.8198 5.03528 11.6817 5.76666C12.0907 5.34813 12.4392 4.87396 12.717 4.35798C13.7004 2.67174 13.9089 2.31649 14.7178 2.18189C16.3244 1.91452 16.7602 3.16428 17.2469 4.72037C17.4745 5.42819 17.7787 6.1089 18.154 6.75028L18.2705 6.93696C18.513 7.2737 18.6868 7.65527 18.7819 8.05964C18.7987 8.48305 18.6678 8.89881 18.4119 9.23509C18.156 9.57136 17.7911 9.80702 17.3802 9.90135C16.8616 9.9228 16.3421 9.90981 15.8251 9.86249C15.1818 9.80436 14.5358 9.7838 13.8903 9.80093C13.7933 9.81685 13.6985 9.84416 13.6078 9.88229C14.2789 10.2305 14.9972 10.4775 15.7396 10.6151L15.8717 10.6561C17.2396 11.0409 17.9268 11.2357 18.1057 12.3107C18.2243 13.0236 17.9051 13.4316 16.5511 14.6701C16.3545 14.8574 15.7103 15.5713 15.2443 16.0896C14.9711 16.3984 14.7358 16.6608 14.6334 16.7637C14.3672 17.0871 14.0086 17.3206 13.6059 17.4326" fill="#BA3944"/>
</svg>
