<svg width="16" height="21" viewBox="0 0 16 21" fill="none" xmlns="http://www.w3.org/2000/svg">
<path d="M15.709 0.932334C15.0611 1.15318 14.4827 1.36767 13.8912 1.55643C13.7931 1.57831 13.7062 1.63472 13.6463 1.71537C13.5864 1.79602 13.5575 1.89552 13.5649 1.99571C13.5476 2.33671 13.5041 2.6855 13.4707 3.02798L13.3745 3.03677L12.8479 0.752035L11.9471 1.50781C11.881 1.37378 11.8542 1.19843 11.7648 1.1635C11.1356 0.88158 10.4608 0.630769 9.80005 0.357121C9.79388 0.437926 9.7923 0.519016 9.79531 0.6C9.82461 0.920583 9.96858 1.31689 9.83316 1.54477C9.69775 1.77266 9.26887 1.85495 8.97411 2.04891C8.8515 2.13751 8.76883 2.27092 8.74404 2.42014C8.7201 2.68594 8.71212 2.95294 8.72013 3.2197L8.66136 3.22507C8.50366 2.56064 8.34546 1.89086 8.18337 1.17833L6.76895 2.38514C6.67599 2.0165 6.59909 1.70565 6.50565 1.33167C5.99997 1.86986 5.33335 2.22949 4.60587 2.35654C4.52903 2.16422 4.50315 1.88104 4.38072 1.83835C3.74909 1.52972 3.09758 1.29833 2.41594 1.03197C2.41495 1.13775 2.42461 1.24337 2.44476 1.34721C2.49794 1.51209 2.49074 1.69051 2.42442 1.85055C2.35811 2.0106 2.23701 2.14183 2.0828 2.22077C1.75794 2.43903 1.49383 2.73255 1.21122 2.94156C1.12412 2.99364 1.0577 3.07424 1.02322 3.16969C0.988739 3.26514 0.988318 3.36957 1.02203 3.4653C1.22061 4.28224 1.39781 5.10113 1.58571 5.91905C1.60231 6.10072 1.7117 6.29545 1.37264 6.2995L4.32331 20.8998L15.6559 19.8641C15.7405 14.8943 15.795 9.94885 15.8591 4.9917L15.318 4.96573C15.4582 3.61139 15.581 2.30174 15.709 0.932334ZM2.26562 6.63813C2.07328 5.6536 1.83867 4.67832 1.5827 3.70499C1.53472 3.60961 1.52449 3.49964 1.55407 3.39706C1.58365 3.29447 1.65085 3.20683 1.74225 3.15164C1.94959 3.00338 2.14284 2.81871 2.39726 2.59611C2.76771 4.23243 2.7646 5.84902 3.00192 7.44364C2.82302 7.3833 2.66321 7.27682 2.53862 7.13496C2.41403 6.9931 2.32908 6.82088 2.29234 6.63569L2.26562 6.63813ZM10.8386 1.40439C11.2719 1.42944 11.4294 1.61978 11.4621 2.03703C11.6278 4.14464 11.8464 6.24202 12.0388 8.34718C12.0672 8.65708 12.0036 8.84606 11.7127 8.96424C11.515 9.04157 11.332 9.16067 11.1261 9.26569C10.7754 6.66079 10.6792 4.02795 10.8386 1.40439V1.40439ZM9.18613 7.61117C9.20872 6.08978 9.24199 4.56741 9.23786 3.04847C9.23864 2.64432 9.32887 2.39363 9.73879 2.28073C9.92565 2.21462 10.1074 2.13498 10.2827 2.04245C10.2465 4.59414 10.2045 7.0817 10.1863 9.59402L9.16483 9.79513C9.17079 9.03492 9.17579 8.32329 9.18613 7.61117ZM7.24077 2.71377C7.43311 2.52385 7.63624 2.34518 7.84916 2.17866C8.75626 4.61719 8.79681 7.12415 8.57021 9.65552C8.07564 7.48638 7.58059 5.3119 7.10156 3.13595C7.09474 3.05902 7.10351 2.98151 7.12734 2.90805C7.15118 2.83459 7.18959 2.76669 7.24028 2.70842L7.24077 2.71377ZM6.2532 2.63701L6.31731 2.63115C6.85764 5.00622 7.39262 7.38179 7.94464 9.82583C7.59536 9.77694 7.30195 9.74988 7.01581 9.68444C6.96654 9.66056 6.92309 9.62619 6.8885 9.58375C6.8539 9.54131 6.82901 9.49182 6.81556 9.43874C6.53325 8.23615 6.24559 7.03405 6.01136 5.82707C5.97914 5.46563 5.99661 5.10147 6.06331 4.74478C6.1232 4.0443 6.18844 3.34332 6.2532 2.63701V2.63701ZM3.58506 7.92911L3.03033 1.8594C3.32289 1.95865 3.61023 2.07264 3.89125 2.20096C3.93587 2.23775 3.97271 2.28307 3.99959 2.33427C4.02647 2.38547 4.04286 2.44152 4.04781 2.49914C4.05053 3.11847 4.05326 3.73781 4.00741 4.35619C3.92875 5.44092 3.81804 6.52857 3.71266 7.61574C3.71542 7.67411 3.70544 7.73237 3.6834 7.78649C3.66136 7.84061 3.62781 7.88928 3.58506 7.92911V7.92911ZM4.20256 8.14206C4.34459 6.51278 4.50265 4.88203 4.65002 3.25225C4.66838 3.04046 4.72514 2.89519 4.9573 2.84164C5.18947 2.7881 5.42744 2.68015 5.74604 2.57022C5.54598 4.74357 5.34928 6.83581 5.14436 9.015C4.82318 8.8019 4.53845 8.63397 4.2775 8.43154C4.2463 8.39286 4.22359 8.34805 4.21084 8.30001C4.1981 8.25198 4.19561 8.20181 4.20353 8.15275L4.20256 8.14206ZM8.56005 12.7867C8.31997 12.7533 8.07568 12.8023 7.86695 12.9255C7.64213 13.1184 7.73259 13.3418 7.97122 13.5948C8.12031 13.7224 8.29898 13.8106 8.49093 13.8514C8.68288 13.8922 8.882 13.8843 9.0701 13.8284C9.12009 13.7268 10.4355 11.6724 11.975 11.0091C12.4315 10.8166 12.6744 10.8806 12.7353 11.0744C13.2529 12.6703 10.964 14.7436 10.0472 15.3231L9.95647 15.5684L9.91372 15.5723C9.89796 15.6404 9.86693 15.7041 9.82298 15.7584L9.79824 15.8415L9.80313 15.8949L9.80996 15.9697C9.77517 16.0386 9.74926 16.1115 9.73283 16.1869L9.70761 16.2646C9.65098 16.3386 9.60928 16.423 9.58483 16.5129L9.52465 16.6208C9.4892 16.7397 9.43175 16.851 9.35528 16.9487L9.36016 17.0022C9.28954 17.0827 9.23412 17.1754 9.1966 17.2757C9.97237 17.5396 10.8141 17.5366 11.588 17.2673C11.6201 17.1461 11.6894 17.0381 11.786 16.9583C11.9864 16.9329 12.1844 16.8913 12.3781 16.8341L12.5544 16.818C12.5652 16.8146 12.5756 16.81 12.5855 16.8044L12.6816 16.7956C12.8196 16.789 12.9554 16.7584 13.0828 16.705C13.0924 16.997 13.0114 17.2848 12.851 17.529L12.8559 17.5824C12.5196 17.786 12.137 17.9007 11.7442 17.9157C11.6695 17.9504 11.5896 17.9722 11.5077 17.9804C10.6178 18.1866 9.68503 18.0979 8.84998 17.7276C8.2081 18.2091 7.42062 18.456 6.61877 18.4272C6.5052 18.3769 6.38793 18.3354 6.26799 18.303C6.10623 18.1865 5.95835 18.0517 5.82722 17.9015C5.82722 17.9015 5.82429 17.8695 5.78543 17.8569C5.73745 17.76 5.70948 17.6544 5.70319 17.5465L5.69684 17.477L5.80847 17.2837L5.84877 17.253L5.88129 17.1962C5.89001 17.1948 5.89825 17.1913 5.90528 17.1859C5.91231 17.1806 5.91791 17.1736 5.92159 17.1656C5.93069 17.1654 5.93949 17.1623 5.94674 17.1568C5.95398 17.1513 5.95929 17.1437 5.96189 17.1349C5.97079 17.1341 5.97926 17.1307 5.98638 17.1253C5.9935 17.1199 5.99897 17.1127 6.0022 17.1043L6.34022 16.9711C6.34689 16.9749 6.35456 16.9765 6.3622 16.9758C6.36985 16.9751 6.37709 16.9721 6.38296 16.9672L6.53257 16.9535L6.59668 16.9476C6.67743 16.9393 6.75714 16.923 6.83468 16.8989L7.18198 16.8672L7.36608 16.8773C7.45732 16.8743 7.54831 16.866 7.63858 16.8524C7.6944 16.7557 8.66638 14.7165 8.66638 14.7165C8.16713 14.7615 7.66966 14.6132 7.27641 14.3024C6.88317 13.9915 6.6241 13.5417 6.55255 13.0456C6.58695 11.85 7.33719 11.3145 8.80325 11.4391L8.56005 12.7867ZM13.1058 6.87581C13.0739 7.23431 13.0357 7.58261 13.0004 7.96297L12.9043 7.97176C12.654 6.64772 12.393 5.32465 12.1587 3.99914C12.0832 3.5858 12.1194 3.15686 12.0444 2.74887C11.9286 2.24762 12.1805 1.99831 12.5987 1.73921C12.8406 2.79463 13.1427 3.80145 13.2744 4.82925C13.295 5.52316 13.2447 6.21736 13.1243 6.90106L13.1058 6.87581ZM13.9346 7.04251C13.8131 7.15076 13.6977 7.26563 13.5889 7.38659C13.6362 6.84349 13.6724 6.35529 13.7159 5.88798C13.8218 4.74689 13.9436 3.60434 14.0281 2.46521C14.0551 2.1718 14.1362 1.99737 14.4325 1.93797C14.7287 1.87857 14.9041 1.7925 15.1386 1.70641C15.0304 2.88005 14.8779 3.98229 14.8391 5.09032C14.8531 5.46412 14.779 5.83598 14.6229 6.17592C14.4668 6.51585 14.233 6.81436 13.9404 7.04736L13.9346 7.04251Z" fill="#2A614D"/>
</svg>
