<svg width="24" height="19" viewBox="0 0 24 19" fill="none" xmlns="http://www.w3.org/2000/svg">
<path fill-rule="evenodd" clip-rule="evenodd" d="M22.6735 7.39111C23.5878 6.50553 20.0432 6.1282 20.0432 6.1282L16.7287 8.08283C16.7287 8.08283 20.5744 9.43308 22.6735 7.39111ZM8.16721 12.4703C7.77423 12.4579 5.98764 13.3415 5.98764 13.3415L5.49874 13.589C5.41 13.6355 5.32592 13.7758 5.25441 13.8952C5.20481 13.978 5.16125 14.0507 5.12637 14.075C5.28539 14.0131 5.44497 13.946 5.5947 13.8726L5.95057 13.6897L6.02256 13.6553L6.1118 13.607L6.1901 13.5628L6.31793 13.4975L6.40773 13.444C6.67491 13.3043 6.95414 13.15 7.27251 12.9737L7.33986 12.9335L7.46825 12.8631L8.16721 12.4703ZM23.4337 7.94609C23.3051 8.17611 23.1139 8.36499 22.8823 8.49087C21.3425 9.52536 17.8773 9.58749 15.8759 8.63856C15.7374 8.72004 14.7557 9.2666 13.4327 10.0011L19.4506 14.9516C19.5821 15.0646 19.6812 15.2106 19.7376 15.3746C19.7941 15.5385 19.8059 15.7145 19.7718 15.8846L21.2471 17.1349L22.4071 18.4831L20.9287 17.5583L19.4274 16.3052C19.2858 16.3553 19.1375 16.3838 18.9874 16.3898C18.7887 16.3609 18.6026 16.2753 18.4512 16.1435C18.4512 16.1435 14.9394 13.076 12.2045 10.6825C9.02353 12.4465 4.93823 14.7068 4.93823 14.7068C4.76053 14.8027 4.55885 14.8451 4.35756 14.8289C4.21208 14.7915 4.07307 14.7324 3.94521 14.6536L2.21841 15.5683L0.577883 16.1664L1.99573 15.0926L3.68559 14.1792C3.68645 14.0055 3.73436 13.8352 3.82423 13.6865C3.9141 13.5378 4.04257 13.4163 4.19599 13.3347L11.1414 9.75171C10.0062 8.7574 9.16467 8.01843 9.04658 7.90976C6.86941 8.41386 3.51574 7.62585 2.22822 6.29037L2.20743 6.28816C2.00857 6.11602 1.86284 5.89083 1.78726 5.63891C1.71169 5.387 1.70941 5.11877 1.78068 4.8656C1.86729 4.66793 1.9976 4.49248 2.16182 4.35245C2.32604 4.21243 2.51988 4.11148 2.72875 4.0572C2.72875 4.0572 2.61168 3.57694 2.81273 3.36707C3.01379 3.1572 3.41631 3.07915 3.98248 3.19199C3.81032 3.03174 3.81243 2.86377 3.89626 2.76757C3.95656 2.71334 4.03552 2.68458 4.11657 2.68733C4.19763 2.69008 4.27446 2.72412 4.33095 2.7823L4.87709 3.1821C4.49376 2.28978 4.4551 1.66543 4.77879 1.38978C4.88006 1.32401 4.99661 1.28555 5.11713 1.27812C5.23765 1.27069 5.35804 1.29454 5.46662 1.34736C5.32154 1.2726 5.17248 1.20585 5.0201 1.1474C5.0201 1.1474 5.49101 0.377558 5.84953 0.268549C6.06128 0.220614 6.28096 0.219713 6.4931 0.265908C6.70523 0.312103 6.90465 0.404269 7.0773 0.535911C8.60204 1.61806 9.93256 4.77151 9.78467 7.00016L12.3633 9.12136L15.3193 7.5964C15.6439 5.38655 17.6112 2.55789 19.3268 1.84697C19.5267 1.75016 19.7457 1.69943 19.9678 1.69851C20.1898 1.69758 20.4093 1.7465 20.6099 1.84164C20.9374 2.02368 21.2253 2.87429 21.2253 2.87429C21.0625 2.89977 20.901 2.93346 20.7415 2.97522C20.864 2.9447 20.9924 2.94758 21.1134 2.98357C21.2344 3.01956 21.3435 3.08734 21.4293 3.17985C21.6825 3.51692 21.5185 4.11969 20.9559 4.91131L21.548 4.63268C21.6164 4.58745 21.6995 4.57029 21.7802 4.58475C21.8609 4.59921 21.9329 4.64419 21.9813 4.71034C22.043 4.82203 22.0097 4.98668 21.8024 5.10654C22.3969 5.1015 22.8332 5.34768 22.934 5.53711C23.0347 5.72655 22.8632 6.20237 22.8632 6.20237C23.0532 6.30141 23.2187 6.44154 23.3478 6.61257C23.4769 6.78361 23.5663 6.98125 23.6094 7.19114C23.6233 7.45433 23.5624 7.71608 23.4337 7.94609ZM2.64308 5.25701C4.26526 7.69512 8.30905 7.18473 8.30905 7.18473L5.49072 4.57724C5.49072 4.57724 1.93576 4.1988 2.64308 5.25701ZM17.7191 14.578C17.7191 14.578 16.1201 13.304 15.7563 13.2653L15.7536 13.2913L16.3737 13.8356L16.4792 13.9309L16.5467 13.9381L17.2805 14.5997L17.3622 14.6714L17.4734 14.7621L17.5407 14.8218L17.6189 14.8775L17.6768 14.9257L17.9914 15.1799C18.1223 15.2832 18.259 15.3819 18.4066 15.4764C18.3759 15.4484 18.3472 15.3649 18.3143 15.2691C18.2703 15.141 18.2189 14.991 18.1449 14.9229L17.7191 14.578Z" fill="#4C4F6A"/>
</svg>
