<svg width="19" height="20" viewBox="0 0 19 20" fill="none" xmlns="http://www.w3.org/2000/svg">
<path d="M3.42543 4.39901C3.29993 4.63052 3.18618 4.88525 3.07093 5.11858C2.91797 5.44566 2.74962 5.77002 2.61806 6.0956C2.12336 7.3865 1.78937 8.73337 1.62363 10.1058C1.61421 10.313 1.54315 10.5126 1.41954 10.6791C1.29594 10.8456 1.12543 10.9713 0.929878 11.0403C0.698117 11.1025 0.490666 11.2335 0.334895 11.4161C0.190803 11.5556 0.103068 11.7433 0.0883991 11.9433C0.0755117 12.1384 0.115204 12.3334 0.203338 12.508C0.291472 12.6825 0.42482 12.8302 0.589477 12.9357C0.666029 13.0134 0.751527 13.0817 0.84418 13.1393C1.14624 13.2858 1.47503 13.3691 1.81041 13.3841C2.21277 13.3951 2.60383 13.2503 2.90198 12.9799C3.00427 12.8881 3.08126 12.7716 3.12554 12.6415C3.16983 12.5114 3.17993 12.3722 3.15487 12.237C3.08548 11.8218 3.10837 11.3964 3.22191 10.991C3.33721 10.5779 3.42689 10.1604 3.56601 9.76216C3.77213 9.16435 3.99362 8.56926 4.24406 7.98985C4.59356 7.239 5.01558 6.5241 5.50411 5.85532C5.72341 5.53621 5.98247 5.24632 6.27503 4.99268C6.50694 4.81697 6.69244 4.57493 6.90807 4.40163C7.21825 4.18174 7.54297 3.9831 7.88 3.80709C8.28373 3.58654 8.72314 3.4388 9.1781 3.37063C9.64761 3.28553 10.1262 3.26177 10.6018 3.29993C11.0996 3.34255 11.5885 3.45747 12.0531 3.64109C12.3093 3.74532 12.5579 3.86699 12.7974 4.00524C13.0988 4.17265 13.3867 4.36316 13.6586 4.57506C13.8717 4.74487 14.0372 4.97497 14.2364 5.16347C14.4897 5.43308 14.7029 5.73778 14.8693 6.06818C15.147 6.56361 15.3483 7.09813 15.4663 7.65366C15.5851 8.21077 15.6 8.78499 15.5104 9.34751C15.4119 10.1185 15.1439 10.8581 14.7258 11.5132C14.4919 11.9141 14.2281 12.2968 13.9367 12.6581C13.6207 13.0426 13.2647 13.3925 12.8748 13.7019C12.5283 13.9577 12.2146 14.267 11.8639 14.5168C11.0337 15.1026 10.1496 15.6082 9.22378 16.0268C8.92866 16.1814 8.60272 16.2683 8.26975 16.2809C8.04885 16.2775 7.83371 16.3515 7.66156 16.4899C7.4894 16.6284 7.37106 16.8227 7.32701 17.0392C7.25994 17.3382 7.26577 17.6489 7.34402 17.9451C7.42227 18.2414 7.57064 18.5145 7.77661 18.7413C8.00484 19.0275 8.33716 19.2117 8.70085 19.2536C8.82757 19.2674 8.95579 19.2546 9.07729 19.216C9.19878 19.1774 9.31089 19.1139 9.40643 19.0295C9.61126 18.826 9.73292 18.5536 9.74768 18.2653C9.76186 18.082 9.82794 17.9065 9.93819 17.7594C10.0484 17.6123 10.1983 17.4996 10.3702 17.4345C10.8403 17.227 11.327 17.0752 11.7998 16.8522C12.2727 16.6292 12.7033 16.4358 13.1463 16.2023C13.8277 15.8389 14.4806 15.4243 15.0992 14.9619C15.197 14.8889 15.2904 14.8101 15.3787 14.726C15.509 14.6168 15.6309 14.4957 15.7569 14.3806C15.9682 14.2054 16.1676 14.0164 16.3538 13.8148C16.8658 13.2775 17.3104 12.6799 17.678 12.0352C17.7742 11.8196 17.9139 11.6276 17.9999 11.4103C18.0859 11.1929 18.2099 10.8502 18.3025 10.5653C18.5384 9.83557 18.6399 9.06913 18.602 8.3032C18.5788 7.51332 18.4296 6.73221 18.1602 5.98934C17.947 5.40613 17.6699 4.84837 17.3337 4.32629C17.1532 4.06182 16.9615 3.80066 16.7689 3.54462C16.6113 3.32539 16.4377 3.11805 16.2497 2.92426C15.9021 2.58798 15.5356 2.26948 15.1673 1.96122C15.0987 1.89676 15.0239 1.83927 14.9439 1.7896C14.6563 1.62247 14.3679 1.46047 14.0724 1.30782C13.8103 1.15556 13.54 1.01778 13.2627 0.895106C12.8919 0.750267 12.5115 0.630147 12.1497 0.523902C11.4589 0.328563 10.7428 0.237583 10.0251 0.253979C9.3912 0.259477 8.76109 0.352619 8.1527 0.530758C7.6007 0.675154 7.0711 0.894509 6.57866 1.1827C6.34193 1.32584 6.10852 1.48013 5.88445 1.64136C5.68357 1.7718 5.49072 1.9142 5.30694 2.0678C5.11181 2.24472 4.95737 2.46055 4.75893 2.62631C4.35768 3.03728 3.99838 3.48722 3.68636 3.96945C3.58685 4.10464 3.49952 4.24838 3.42543 4.39901ZM13.7466 15.1086C13.6911 15.143 13.6249 15.1558 13.5606 15.1444C13.4963 15.133 13.4384 15.0984 13.3981 15.047C13.2985 14.9175 13.2078 14.7813 13.1266 14.6396C13.0948 14.5853 13.0834 14.5214 13.0944 14.4595C13.1053 14.3975 13.1379 14.3415 13.1864 14.3013C13.249 14.2569 13.3255 14.2366 13.4019 14.2443C13.4783 14.252 13.5493 14.2871 13.6018 14.3431C13.6971 14.4821 13.7845 14.6264 13.8637 14.7752C13.8867 14.833 13.8878 14.8973 13.8668 14.9559C13.8457 15.0145 13.8039 15.0633 13.7493 15.0933L13.7466 15.1086ZM15.7712 13.2837C15.7114 13.3495 15.629 13.3904 15.5405 13.3982C15.4519 13.4061 15.3637 13.3803 15.2933 13.3261C15.1718 13.2112 15.0594 13.0871 14.9572 12.9548C14.9331 12.8932 14.9264 12.8262 14.9379 12.7611C14.9494 12.696 14.9787 12.6353 15.0225 12.5858C15.0796 12.5367 15.151 12.5071 15.2262 12.5014C15.3014 12.4956 15.3764 12.5141 15.4403 12.554L15.7493 12.8094C15.7846 12.8366 15.814 12.8707 15.8357 12.9097C15.8573 12.9486 15.8709 12.9915 15.8754 13.0359C15.8799 13.0802 15.8754 13.125 15.862 13.1675C15.8486 13.21 15.8268 13.2493 15.7977 13.2831L15.7712 13.2837ZM16.6233 10.168C16.8193 10.2281 17.0113 10.3009 17.1979 10.3858C17.2866 10.4242 17.3567 10.4958 17.3933 10.5852C17.4298 10.6747 17.4299 10.7749 17.3934 10.8644C17.3732 10.9085 17.3446 10.9484 17.3093 10.9816C17.2682 11.0513 17.2021 11.1027 17.1244 11.1253C17.0468 11.148 16.9634 11.1401 16.8913 11.1033C16.6913 11.042 16.4964 10.9651 16.3083 10.8734C16.2199 10.8386 16.1489 10.7703 16.1108 10.6833C16.0727 10.5963 16.0706 10.4978 16.1049 10.4093C16.14 10.3138 16.2108 10.2358 16.3025 10.1917C16.3942 10.1477 16.4995 10.1413 16.5959 10.1737L16.6233 10.168ZM16.61 7.52288C16.8571 7.47188 17.1082 7.44201 17.3604 7.43357C17.4664 7.42863 17.5701 7.46592 17.6486 7.53727C17.7272 7.60863 17.7742 7.70822 17.7794 7.8142C17.7759 7.84877 17.7698 7.88303 17.7613 7.91671C17.739 7.9826 17.7067 8.04464 17.6653 8.10059C17.6008 8.1532 17.5274 8.19391 17.4485 8.22082C17.2017 8.26641 16.9526 8.29824 16.7023 8.31616C16.6058 8.31318 16.5136 8.27593 16.4421 8.21108C16.3706 8.14624 16.3245 8.05804 16.3122 7.96232C16.2998 7.86659 16.322 7.7696 16.3747 7.68873C16.4274 7.60787 16.5072 7.54842 16.5997 7.52107L16.61 7.52288ZM15.7307 4.96255C15.8839 4.87335 16.0329 4.77813 16.1819 4.6829C16.2543 4.62587 16.344 4.5952 16.4362 4.59593C16.5284 4.59666 16.6176 4.62875 16.6891 4.68691C16.7606 4.74508 16.8102 4.82586 16.8297 4.91597C16.8493 5.00607 16.8375 5.10014 16.7965 5.18268C16.7397 5.26705 16.6621 5.33527 16.5712 5.3807C16.4023 5.49883 16.2292 5.61094 16.0519 5.71701C15.9803 5.74672 15.9018 5.75534 15.8255 5.74185C15.7492 5.72837 15.6784 5.69333 15.6214 5.64089C15.5673 5.59371 15.5264 5.53337 15.5025 5.46572C15.4787 5.39807 15.4727 5.3254 15.4852 5.25477C15.4977 5.18413 15.5282 5.11792 15.5738 5.06255C15.6194 5.00718 15.6786 4.96453 15.7455 4.93873L15.7307 4.96255ZM12.6578 1.41711C12.738 1.45066 12.8043 1.51073 12.8456 1.5873C12.8869 1.66386 12.9007 1.75228 12.8846 1.83778C12.8295 2.14655 12.7109 2.44053 12.5364 2.70117C12.4845 2.75691 12.418 2.79692 12.3444 2.81662C12.2708 2.83632 12.1932 2.83493 12.1203 2.81259C12.0349 2.77765 11.9635 2.71533 11.9174 2.63542C11.8713 2.55552 11.853 2.46254 11.8654 2.37111C11.9236 2.19113 11.9921 2.01297 12.0616 1.82968C12.0797 1.72717 12.1379 1.63704 12.1816 1.53907C12.2392 1.47276 12.3156 1.42557 12.4007 1.40378C12.4857 1.382 12.5754 1.38665 12.6578 1.41711ZM9.39139 1.08803C9.46497 1.05952 9.54495 1.05172 9.62266 1.06546C9.70036 1.07919 9.77282 1.11395 9.83216 1.16596C9.87562 1.25492 9.91052 1.34781 9.93639 1.44337C9.9719 1.66107 9.98509 1.88539 10.0043 2.10549C10.0196 2.20024 9.99844 2.29726 9.94511 2.37705C9.89178 2.45685 9.81023 2.5135 9.71685 2.53564C9.62802 2.55442 9.53556 2.54542 9.45202 2.50984C9.36848 2.47427 9.29791 2.41386 9.24989 2.3368C9.22309 2.29179 9.2102 2.23986 9.21285 2.18755C9.18428 1.96051 9.14968 1.73769 9.14252 1.50915C9.13536 1.28061 9.17307 1.18685 9.38114 1.08622L9.39139 1.08803ZM3.71613 7.0297C3.56198 6.97538 3.41066 6.91334 3.26274 6.84383C3.20828 6.80885 3.16728 6.75644 3.14644 6.69516C3.1256 6.63388 3.12614 6.56735 3.14797 6.50641C3.16757 6.44686 3.20841 6.39662 3.2627 6.36527C3.31699 6.33392 3.38092 6.32366 3.44229 6.33646C3.61253 6.38992 3.77719 6.45975 3.93397 6.54496C3.97431 6.56184 4.00938 6.58922 4.03554 6.62426C4.0617 6.65929 4.07799 6.7007 4.08272 6.74417C4.08744 6.78763 4.08043 6.83157 4.06241 6.87141C4.0444 6.91125 4.01603 6.94553 3.98027 6.97069C3.95265 7.01421 3.91054 7.04656 3.86138 7.06205C3.81223 7.07754 3.75918 7.07515 3.7116 7.05533L3.71613 7.0297ZM6.59859 2.02661C6.67066 1.98656 6.75433 1.97254 6.83552 1.9869C6.91672 2.00125 6.9905 2.04311 7.04448 2.10544C7.18226 2.29695 7.30942 2.49588 7.42539 2.70133C7.46316 2.78754 7.47174 2.88372 7.44983 2.97525C7.42793 3.06678 7.37673 3.14866 7.30402 3.20842C7.22406 3.25592 7.13283 3.28112 7.03983 3.28141C6.94682 3.2817 6.85544 3.25706 6.77519 3.21006C6.63386 2.96308 6.47444 2.72877 6.37593 2.47879C6.30633 2.33435 6.43936 2.12002 6.60974 2.0233L6.59859 2.02661ZM4.56731 4.09878C4.63147 4.0394 4.71611 4.00716 4.80352 4.00882C4.89092 4.01048 4.97428 4.04591 5.03614 4.10767L5.30863 4.33027C5.36494 4.36702 5.40652 4.42243 5.42607 4.48677C5.44562 4.55111 5.44189 4.62028 5.41555 4.68215C5.38996 4.74939 5.34298 4.80634 5.28184 4.84424C5.2207 4.88214 5.14879 4.89889 5.07719 4.89189C4.96789 4.86096 4.86576 4.80878 4.77665 4.73833C4.67551 4.67557 4.58765 4.5936 4.51804 4.49705C4.48048 4.43381 4.46687 4.3592 4.47967 4.28677C4.49247 4.21435 4.53085 4.14893 4.58781 4.1024L4.56731 4.09878Z" fill="#E79F3E"/>
</svg>
