<svg width="263" height="91" viewBox="0 0 263 91" fill="none" xmlns="http://www.w3.org/2000/svg">
<path d="M261.352 40.813C261.547 46.352 258.454 51.9705 252.177 57.4123C245.912 62.843 236.658 67.9274 225.023 72.3619C201.769 81.2253 169.332 87.3705 133.239 88.6428C97.1461 89.9151 64.3571 86.0691 40.5366 78.8651C28.6189 75.2608 19.0291 70.8406 12.3975 65.8645C5.75246 60.8782 2.27208 55.4914 2.07683 49.9524C1.88158 44.4134 4.97402 38.7949 11.2515 33.3531C17.5162 27.9224 26.771 22.8379 38.4053 18.4035C61.6594 9.5401 94.0963 3.39488 130.189 2.1226C166.282 0.850324 199.071 4.69633 222.892 11.9003C234.81 15.5046 244.399 19.9248 251.031 24.9009C257.676 29.8872 261.156 35.274 261.352 40.813Z" fill="#E6F0FC" stroke="#0F15E2" stroke-width="3"/>
</svg>
