<svg width="3489" height="1859" viewBox="0 0 3489 1859" fill="none" xmlns="http://www.w3.org/2000/svg">
<path d="M3316.64 1123.51C3353.66 1359.8 3439.21 1441.23 3484.95 1461.23C3489.69 1463.3 3490.29 1472.01 3485.4 1473.7C3370.03 1513.7 3279.3 1441.41 3247.14 1398.01C2987.54 1099.61 2779.14 1153.5 2669.64 1336.51C2422.64 1789 2202.14 1856.17 2100.14 1832.51C1871.95 1779.56 1778.43 1668.34 1755.88 1581.45C1754.66 1576.76 1747.89 1575.88 1745.58 1580.13C1630.56 1792.52 1355 1867.79 1206.14 1858.01C841.368 1821.73 724.928 1552.44 711.173 1416.75C710.862 1413.69 707.856 1411.7 704.86 1412.42C385.455 1489.25 187.454 1343.17 128.145 1260.01C-181.099 893.379 141.059 587.959 342.885 479.715C344.332 478.939 345.271 477.426 345.465 475.796C440.596 -321.703 1191.4 60.1384 1558.23 353.178C1559.99 354.582 1562.48 354.54 1564.31 353.227C2150.73 -68.1829 2597.95 339.702 2750.96 600.263C2752.24 602.448 2755.02 603.198 2757.36 602.212C3158.52 432.726 3297.38 878.532 3316.64 1123.51Z" fill="#E4EFF8"/>
</svg>
