<svg width="436" height="406" viewBox="0 0 436 406" fill="none" xmlns="http://www.w3.org/2000/svg">
<path d="M427.934 5V100.5M427.934 346.5L430.934 222.5L427.934 100.5M427.934 100.5C394.6 93.3333 322.534 86.7 300.934 117.5C286.934 141 299.134 161 255.934 177C240.934 183 228.734 212.2 251.934 259C256.1 265.833 259.734 281.7 240.934 290.5" stroke="#E91C0D" stroke-width="10" stroke-linecap="round" stroke-linejoin="round"/>
<path d="M264.48 278.986C258.87 269.655 249.94 269.375 246.15 270.413C235.456 273.429 243.604 284.648 249.333 289.88C255.655 294.454 258.925 290.74 260.225 287.069C260.677 285.795 261.785 284.868 262.985 284.249C265.174 283.121 265.134 280.826 264.693 279.442C264.642 279.283 264.567 279.13 264.48 278.986Z" fill="#E91C0D"/>
<path d="M78.591 45.8943C111.899 49.3225 150.755 41.0887 166.942 36.2876C167.415 36.1475 167.912 36.399 168.112 36.8498C186.166 77.6224 149.261 94.3663 128.409 97.6464C75.4952 101.577 71.0834 63.3273 77.5926 46.4883C77.7498 46.0817 78.1574 45.8497 78.591 45.8943Z" stroke="#E91C0D" stroke-width="3.22114" stroke-linecap="round" stroke-linejoin="round"/>
<path d="M87.6043 67.9761C92.7666 68.4824 91.4065 60.8208 89.6928 55.6945C89.4438 54.9497 88.4692 54.8266 88.0232 55.473C81.4231 65.0374 84.8958 67.8076 87.6043 67.9761Z" stroke="#E91C0D" stroke-width="2" stroke-linecap="round"/>
<path d="M177.441 44.3071C168.364 8.8197 135.256 3.78711 119.864 5.8029C103.116 7.9479 69.4727 21.9955 68.6308 57.4229" stroke="#E91C0D" stroke-width="3.22114" stroke-linecap="round" stroke-linejoin="round"/>
<ellipse rx="8.32352" ry="9.20901" transform="matrix(-0.999966 0.00823141 0.00823141 0.999966 153.128 66.9803)" fill="#ECCCC8"/>
<ellipse rx="7.79223" ry="8.67772" transform="matrix(-0.999966 0.00823141 0.00823141 0.999966 101.287 72.8978)" fill="#ECCCC8"/>
<path d="M152.487 22.1953C155.057 29.2393 155.534 32.7732 155.456 38.6414M139.937 25.1323C143.03 31.4089 143.691 34.9581 143.434 41.2198M171.687 45.7849C174.387 43.9326 179.401 43.049 182.271 47.4529C185.485 52.3853 185.508 63.9481 172.866 59.9434M125.149 66.015L130.1 70.2241C130.71 70.6835 130.478 72.1331 124.672 74.2566" stroke="#E91C0D" stroke-width="3.22114" stroke-linecap="round" stroke-linejoin="round"/>
<path d="M75.1246 57.3524C70.634 56.8581 61.1272 56.5814 62.6387 68.0813C63.9221 73.3831 68.1602 78.075 77.6149 73.4634" stroke="#E91C0D" stroke-width="3.22114" stroke-linecap="round" stroke-linejoin="round"/>
<path d="M162.11 82.1377C162.906 85.6141 164.062 93.047 161.397 96.3276M169.639 71.6267C172.735 74.848 177.78 85.7083 172.211 97.6554M82.0567 81.734C80.7214 84.4606 79.7519 96.2559 82.6541 104.591M91.5183 90.8655C90.7099 93.0564 89.329 97.9126 92.1951 101.856" stroke="#E91C0D" stroke-width="3.22114" stroke-linecap="round" stroke-linejoin="round"/>
<path d="M180.404 60.3971C185.815 79.5386 187.208 112.445 149.485 90.9361" stroke="#E91C0D" stroke-width="3.22114" stroke-linecap="round"/>
<path d="M67.8887 74.9609C62.7929 94.1889 66.6501 118.219 104.014 96.0929" stroke="#E91C0D" stroke-width="3.22114" stroke-linecap="round"/>
<path d="M149.145 91.4688C143.28 102.961 125.762 120.358 102.602 98.0076" stroke="#E91C0D" stroke-width="3.17259" stroke-linecap="round"/>
<ellipse rx="2.90329" ry="4.83881" transform="matrix(-0.977904 0.209056 0.209056 0.977904 138.626 57.2763)" fill="#E91C0D"/>
<ellipse rx="2.90329" ry="4.83881" transform="matrix(-0.985538 0.169452 0.169452 0.985538 111.673 60.9561)" fill="#E91C0D"/>
<path d="M178.234 94.5C209.408 100.513 270.812 113.047 279.335 117.38C279.987 117.712 280.21 118.397 280.162 119.127C279.678 126.471 278.585 139.577 277.295 145.801C277.022 147.118 275.828 147.956 274.484 147.89C242.55 146.325 183.3 143.108 166.424 141.067C164.513 140.836 162.734 142.333 162.734 144.258V145.364M124.234 133C160.335 144.821 231.404 168.889 238.659 174.391C239.119 174.74 239.177 175.299 239.062 175.865C237.459 183.79 233.818 198.458 230.734 200C228.272 201.231 182.972 192.417 147.234 184.877M104.234 175C106.348 175.961 124.929 180.171 147.234 184.877M147.234 184.877L144.236 192.465C143.668 193.902 144.273 195.527 145.636 196.257C162.44 205.254 193.972 226.165 202.734 247.5C207.076 263.096 214.116 298.577 208.861 319.736C208.528 321.077 207.268 321.943 205.889 321.868C181.706 320.55 129.627 318.904 96.7344 322C92.4284 322 50.5815 325.663 37.3434 318.969C36.3104 318.447 35.8724 317.278 36.0678 316.137C39.1629 298.07 40.2587 268.558 26.7344 256C15.5677 244.667 1.73438 211.6 35.7344 170C47.2344 151.833 72.5344 113.4 81.7344 105" stroke="#E91C0D" stroke-width="3" stroke-linecap="round"/>
<path d="M207.235 322C208.068 327.333 208.535 338.2 203.735 345M203.735 345C200.402 349.333 190.135 355.9 175.735 347.5M203.735 345C205.545 346.163 208.337 349.011 208.193 352.657C208.12 354.498 208.801 356.551 210.523 357.205C222.411 361.719 240.404 370.195 238.957 376.367C238.856 376.797 238.746 377.229 238.701 377.668C238.085 383.673 229.043 392.438 196.47 384.061C196.318 384.021 196.162 383.993 196.005 383.978C184.093 382.797 162.036 377.697 164.951 366.408C165.105 365.812 165.508 365.316 165.999 364.944C170.196 361.765 177.011 354.647 175.735 347.5M175.735 347.5C174.402 341.667 172.135 328.6 173.735 321" stroke="#E91C0D" stroke-width="3" stroke-linecap="round"/>
<path d="M69.7333 324.002C68.2803 329.201 60.3451 347.828 53.1578 352.026M53.1578 352.026C48.3278 354.588 36.2626 356.307 26.6413 342.692M53.1578 352.026C54.3223 353.835 55.6827 357.585 54.0395 360.843C53.21 362.487 52.9787 364.638 54.2746 365.947C63.2208 374.983 76.0807 390.157 72.2047 395.173C71.9347 395.523 71.6552 395.87 71.4321 396.251C68.3822 401.461 56.52 405.688 30.3521 384.56C30.2294 384.46 30.099 384.37 29.9626 384.291C19.6121 378.278 1.65541 364.492 8.98836 355.428C9.37544 354.949 9.94811 354.665 10.5486 354.53C15.6864 353.377 24.8388 349.725 26.6413 342.692M26.6413 342.692C27.8466 336.831 31.2016 324.001 35.8086 317.748" stroke="#E91C0D" stroke-width="3" stroke-linecap="round"/>
<path d="M207.234 332C200.068 333.5 183.234 335.1 173.234 329.5" stroke="#E91C0D" stroke-width="3" stroke-linecap="round"/>
<path d="M61.733 341.65C54.5894 340.044 38.6077 334.52 31.8295 325.278" stroke="#E91C0D" stroke-width="3" stroke-linecap="round"/>
<ellipse rx="4" ry="2.5" transform="matrix(-1 0 0 1 142.234 123.5)" fill="#E91C0D"/>
<path d="M281.754 126.113C282.234 128.017 283.178 129.544 284.24 130.491C285.31 131.445 286.361 131.711 287.199 131.5C288.036 131.289 288.836 130.557 289.326 129.21C289.814 127.873 289.922 126.081 289.442 124.176C288.963 122.272 288.018 120.745 286.956 119.798C285.886 118.845 284.835 118.578 283.997 118.789C283.16 119 282.36 119.733 281.87 121.079C281.383 122.416 281.274 124.208 281.754 126.113Z" stroke="#E91C0D" stroke-width="3"/>
<path d="M246.29 178.566C245.159 179.014 243.355 179.244 241.832 179.35C240.588 179.437 239.47 180.2 239.029 181.366L233.717 195.397C233.41 196.207 233.46 197.116 233.912 197.854C237.064 203.004 241.653 206.081 243.678 207.018C251.415 210.594 255.012 208.715 256.417 206.215C257.177 204.861 258.865 203.425 259.311 201.938C259.729 200.541 260.646 199.289 261.436 198.064C262.168 196.93 262.445 195.385 262.466 194.097C262.479 193.262 262.712 192.433 263.159 191.728C266.796 185.992 260.141 183.283 258.91 182.877C257.604 182.446 254.558 181.153 252.817 179.429C251.077 177.704 248.466 177.704 246.29 178.566Z" fill="#DAD1EA" stroke="#E91C0D" stroke-width="3"/>
<path d="M300.234 146.175C295.134 149.86 288.174 155.923 277.734 144.5" stroke="#E91C0D" stroke-width="3"/>
<path d="M293.678 146.937C295.7 147.223 297.515 147.058 298.796 146.629C300.172 146.169 300.488 145.588 300.521 145.353C300.555 145.118 300.412 144.472 299.217 143.648C298.106 142.881 296.407 142.219 294.386 141.933C292.364 141.647 290.549 141.812 289.268 142.241C287.892 142.702 287.576 143.282 287.542 143.517C287.509 143.753 287.652 144.398 288.846 145.222C289.958 145.99 291.656 146.651 293.678 146.937Z" fill="#DAD1EA" stroke="#E91C0D" stroke-width="3"/>
<path d="M294.565 140.722C296.586 141.008 298.402 140.843 299.683 140.415C301.059 139.954 301.375 139.373 301.408 139.138C301.441 138.903 301.299 138.257 300.104 137.433C298.992 136.666 297.294 136.004 295.272 135.719C293.251 135.433 291.436 135.597 290.155 136.026C288.778 136.487 288.462 137.067 288.429 137.302C288.396 137.538 288.539 138.183 289.733 139.007C290.845 139.775 292.543 140.436 294.565 140.722Z" fill="#DAD1EA" stroke="#E91C0D" stroke-width="3"/>
<path d="M295.455 135.398C297.477 135.684 299.292 135.519 300.573 135.09C301.949 134.629 302.265 134.049 302.299 133.814C302.332 133.579 302.189 132.933 300.995 132.109C299.883 131.341 298.185 130.68 296.163 130.394C294.141 130.108 292.326 130.273 291.045 130.702C289.669 131.163 289.353 131.743 289.32 131.978C289.287 132.213 289.429 132.859 290.624 133.683C291.735 134.451 293.434 135.112 295.455 135.398Z" fill="#DAD1EA" stroke="#E91C0D" stroke-width="3"/>
<path d="M296.342 130.07C298.364 130.355 300.179 130.191 301.46 129.762C302.836 129.301 303.152 128.721 303.185 128.486C303.219 128.25 303.076 127.605 301.882 126.781C300.77 126.013 299.071 125.352 297.05 125.066C295.028 124.78 293.213 124.945 291.932 125.374C290.556 125.834 290.24 126.415 290.207 126.65C290.173 126.885 290.316 127.531 291.51 128.355C292.622 129.122 294.321 129.784 296.342 130.07Z" fill="#DAD1EA" stroke="#E91C0D" stroke-width="3"/>
</svg>
