<svg width="361" height="355" viewBox="0 0 361 355" fill="none" xmlns="http://www.w3.org/2000/svg">
<path d="M107.404 176.521C73.3672 204.261 45.7791 171.28 37.3485 156.367C92.0904 175.649 106.802 136.329 107.316 114.259C133.406 139.654 121.587 164.959 107.404 176.521Z" stroke="#FBFFF5" stroke-width="3" stroke-linejoin="round"/>
<path d="M4.85696 147.966C8.42021 145.363 16.9571 142.017 22.5988 149.458C21.2621 145.025 20.9813 135.789 30.5517 134.317C25.7521 135.313 15.6738 135.766 13.7569 129.607C14.3619 133.359 13.4288 142.284 4.85696 147.966Z" stroke="#FBFFF5" stroke-width="3" stroke-linejoin="round"/>
<path d="M45.2763 140.516C49.7975 137.19 60.5967 132.871 67.6239 142.199C65.9892 136.618 65.7399 124.964 77.8207 122.998C71.7593 124.309 59.0498 124.995 56.7033 117.243C57.4234 121.972 56.146 133.247 45.2763 140.516Z" stroke="#FBFFF5" stroke-width="3" stroke-linejoin="round"/>
<path d="M244.551 194.994C254.912 179.349 274.478 174.409 288.167 183.475C301.856 192.541 304.944 212.483 294.582 228.128C284.221 243.773 264.656 248.713 250.966 239.647C237.277 230.581 234.19 210.639 244.551 194.994Z" stroke="#FBFFF5" stroke-width="3"/>
<path d="M259.927 269.383L262.983 255.831M238.881 254.564L246.038 246.881M216.889 242.963L234.696 236.317M216.843 221.738L229.222 221.652M229.301 203.961L211.309 195.402M237.279 189.526L229.696 185.197M243.238 177.994L229.7 165.385M252.198 171.308L249.386 161.856M264.743 165.909L261.264 147.637M279.948 165.723L282.765 155.364M291.797 170.609L301.163 155.418M299.846 178.106L308.125 172.152M326.975 184.926L307.755 191.623M321.268 203.525L310.352 204.974M309.681 215.965L329.252 219.161M306.524 226.69L318.864 235.45M298.937 242.172L312.385 262.214M281.988 253.034L287.777 266.625" stroke="#FBFFF5" stroke-width="3" stroke-linecap="round" stroke-linejoin="round"/>
</svg>
