<svg width="277" height="254" viewBox="0 0 277 254" fill="none" xmlns="http://www.w3.org/2000/svg">
<path d="M179.567 38.0499C149.5 45.4625 112.882 42.9351 97.3838 40.6207C96.8962 40.5478 96.4369 40.8655 96.3024 41.3397C85.0484 81.0237 121.039 91.6181 140.583 91.9395C189.584 88.7286 188.756 53.1401 180.638 38.5004C180.426 38.1192 179.99 37.9456 179.567 38.0499Z" stroke="#0F15E2" stroke-width="3.22114" stroke-linecap="round" stroke-linejoin="round"/>
<path d="M88.7267 49.3198C92.4799 15.5911 122.207 6.70627 136.588 6.57182C152.231 6.38105 184.909 14.9328 190.247 47.3279" stroke="#0F15E2" stroke-width="3.22114" stroke-linecap="round" stroke-linejoin="round"/>
<ellipse cx="113.95" cy="66.9895" rx="7.71161" ry="8.53199" transform="rotate(-7.52553 113.95 66.9895)" fill="#ECCCC8"/>
<ellipse cx="162.277" cy="65.7359" rx="7.21937" ry="8.03976" transform="rotate(-7.52553 162.277 65.7359)" fill="#ECCCC8"/>
<path d="M118.639 69.2023C125.236 76.5506 142.637 87.2493 159.458 71.2574M108.77 25.8204C107.32 32.6143 107.338 35.9181 108.166 41.2919M120.663 26.8973C118.634 33.0547 118.485 36.3961 119.528 42.108M94.1955 49.938C91.4793 48.5866 86.7651 48.4221 84.6997 52.8326C82.3863 57.7722 83.8555 68.3838 94.9386 63.08" stroke="#0F15E2" stroke-width="3.22114" stroke-linecap="round" stroke-linejoin="round"/>
<path d="M139.502 62.5L135.502 67C135.002 67.5 135.402 68.8 141.002 70" stroke="#0F15E2" stroke-width="3" stroke-linecap="round"/>
<path d="M184.276 48.1026C188.333 47.0702 197.019 45.591 197.115 56.3367C196.621 61.3663 193.337 66.2173 184.068 63.205" stroke="#0F15E2" stroke-width="3.22114" stroke-linecap="round" stroke-linejoin="round"/>
<path d="M107.665 82.0533C107.383 85.3455 107.281 92.3139 110.149 94.9803M99.4032 73.3802C96.9777 76.7348 93.7496 87.349 100.399 97.5924M181.06 71.3644C182.637 73.6938 185.047 84.3907 183.459 92.4123M173.557 80.9618C174.581 82.8677 176.474 87.1452 174.352 91.1327" stroke="#0F15E2" stroke-width="3.22114" stroke-linecap="round" stroke-linejoin="round"/>
<path d="M88.0766 64.4651C85.5789 82.7245 88.5427 113.094 120.38 88.4985" stroke="#0F15E2" stroke-width="3.22114" stroke-linecap="round"/>
<path d="M193.189 63.3253C200.342 80.3097 199.901 102.854 162.769 87.3697" stroke="#0F15E2" stroke-width="3.22114" stroke-linecap="round"/>
<path d="M103.32 131.696C104.378 162.497 104.769 236.482 103.5 246M206 251.5C197.54 221.493 189.56 143.18 194.002 127" stroke="#0F15E2" stroke-width="3.17259" stroke-linecap="round"/>
<path d="M120.371 88.8711C127.245 98.9177 145.593 112.983 163.994 88.8711" stroke="#0F15E2" stroke-width="3.17259" stroke-linecap="round"/>
<ellipse cx="146.942" cy="124.96" rx="3.96574" ry="3.56916" fill="#0F15E2"/>
<ellipse cx="148.528" cy="145.581" rx="3.96574" ry="3.56916" fill="#0F15E2"/>
<ellipse cx="150.114" cy="164.616" rx="3.96574" ry="3.56916" fill="#0F15E2"/>
<ellipse cx="126.006" cy="56.2174" rx="2.68985" ry="4.48308" transform="rotate(4.06988 126.006 56.2174)" fill="#0F15E2"/>
<ellipse cx="151.211" cy="56.1182" rx="2.68985" ry="4.48308" transform="rotate(1.75881 151.211 56.1182)" fill="#0F15E2"/>
<path d="M93.0009 96C87.8494 106.454 78.2628 128.892 77.4637 141.901C77.3487 143.773 75.9131 144.785 74.6143 143.432C71.2407 139.918 65.3748 131.352 56.8881 113.458C56.1364 111.873 54.1958 111.24 52.6503 112.07C44.8045 116.283 32.7096 122.058 30.5012 122.5C27.5382 123.093 51.6843 175.316 77.0051 184.329C77.336 184.447 77.6794 184.497 78.0301 184.478C84.087 184.149 96.5116 180.984 103.501 170.5" stroke="#0F15E2" stroke-width="4" stroke-linecap="round"/>
<path d="M194.5 168.5C203 172.667 221.8 175.8 229 155C233.883 141.239 243.889 113.921 248.872 103.206C249.664 101.503 248.87 99.4107 247.102 98.7789C238.758 95.7976 226.393 91.5 225 91.5C223 91.5 209.5 133.5 209 137C208.5 140.5 199.5 107.5 183 93.5" stroke="#0F15E2" stroke-width="4" stroke-linecap="round"/>
<path d="M52 111C50 107.333 49 100.846 43 98.9995C39.5963 97.9522 33.0874 96.3291 29.0943 96.4563C27.5706 96.5048 26.9492 98.0596 27.6169 99.4301C28.7776 101.813 30.3466 104.635 31.5 105.5C33.2986 106.849 12.8564 105.368 4.35757 107.237C2.94757 107.547 2.34153 109.033 3.3695 110.047C5.80827 112.451 11.6768 115.394 23.5 116C26.8333 116 33.5 117.1 33.5 121.5" stroke="#0F15E2" stroke-width="4" stroke-linecap="round"/>
<path d="M229.5 90.5C231.26 87.2799 233.64 78.861 238.92 77.2397C241.825 76.3478 247.299 74.9802 250.832 75.0002C252.359 75.0088 252.99 76.5461 252.312 77.9135C251.307 79.9381 250.008 82.2244 249.04 82.9485C247.478 84.118 264.987 82.8654 272.631 84.4123C274.048 84.699 274.642 86.1767 273.574 87.1507C271.304 89.2207 266.143 91.6548 256.08 92.1698C253.147 92.1698 247.28 93.1358 247.28 97" stroke="#0F15E2" stroke-width="4" stroke-linecap="round"/>
</svg>
