<svg width="326" height="160" viewBox="0 0 326 160" fill="none" xmlns="http://www.w3.org/2000/svg">
<path d="M44.9979 105.379C41.1312 130.609 22.0634 140.325 6.87407 143.094C2.51086 143.889 0.237791 149.392 3.91493 151.872C32.164 170.921 66.1389 141.643 85.0752 117.568C87.685 114.25 93.2034 115.129 94.8389 119.021C113.09 162.451 150.833 146.315 171.272 129.687C173.295 128.041 176.235 128.105 178.257 129.753C200.416 147.815 218.488 135.378 227.269 123.595C229.038 121.222 232.39 120.466 234.911 122.016C277.548 148.219 316.502 121.891 321.825 100.971C334.99 32.112 285.285 27.5456 256.492 34.4606C254.083 35.0392 251.56 33.8782 250.428 31.6739C226.198 -15.5361 194.115 3.30396 178.044 21.9477C176.182 24.1068 172.915 24.491 170.631 22.786C124.004 -12.0099 97.6676 25.5108 88.8968 52.6452C88.1186 55.0528 85.7377 56.5849 83.2132 56.4133C48.3944 54.046 46.764 87.3772 44.9979 105.379Z" stroke="#E91C0D" stroke-width="3" stroke-linejoin="round"/>
</svg>
