<svg width="149" height="72" viewBox="0 0 149 72" fill="none" xmlns="http://www.w3.org/2000/svg">
<path d="M141.835 2.87641C132.918 8.49246 120.373 18.9307 112.127 26.2073C110.308 27.8131 107.609 27.905 105.643 26.483C88.053 13.7638 65.617 4.5609 52 5.5C29.5008 5.5 10.9412 24.4893 2.82853 36.2028C1.67379 37.8701 1.77426 40.0772 3.02511 41.6736C23.3682 67.6375 46.6453 71.1129 56 69.5C78.4321 64.6685 96.5219 55.0233 105.453 49.0419C107.534 47.6484 110.333 47.8175 112.171 49.5185C123.508 60.0096 133.758 66.3155 141.057 69.7479C144.707 71.4642 147.813 67.943 146.212 64.241L134.858 37.9846C134.311 36.7182 134.311 35.2818 134.858 34.0154L146.393 7.34061C147.957 3.72333 145.169 0.776067 141.835 2.87641Z" stroke="#E6F0FC" stroke-width="3" stroke-linejoin="round"/>
</svg>
