<svg width="263" height="383" viewBox="0 0 263 383" fill="none" xmlns="http://www.w3.org/2000/svg">
<path d="M261.352 332.813C261.547 338.352 258.454 343.97 252.177 349.412C245.912 354.843 236.658 359.927 225.023 364.362C201.769 373.225 169.332 379.371 133.239 380.643C97.1461 381.915 64.3571 378.069 40.5366 370.865C28.6189 367.261 19.0291 362.841 12.3975 357.864C5.75246 352.878 2.27208 347.491 2.07683 341.952C1.88158 336.413 4.97402 330.795 11.2515 325.353C17.5162 319.922 26.771 314.838 38.4053 310.403C61.6594 301.54 94.0963 295.395 130.189 294.123C166.282 292.85 199.071 296.696 222.892 303.9C234.81 307.505 244.399 311.925 251.031 316.901C257.676 321.887 261.156 327.274 261.352 332.813Z" fill="#E6F0FC" stroke="#0F15E2" stroke-width="3"/>
<path d="M83.6433 37.8551C92.0146 5.85426 122.098 0.907988 136.221 2.5631C151.58 4.31878 182.373 16.6359 184.277 48.5912C184.313 49.1899 183.798 49.6826 183.202 49.6189L84.482 39.0763C83.8908 39.0132 83.4929 38.4303 83.6433 37.8551Z" fill="#E6F0FC" stroke="#0F15E2" stroke-width="3.22114" stroke-linecap="round" stroke-linejoin="round"/>
<path d="M115.825 21C113.825 23.1667 110.425 29.2 112.825 36" stroke="#0F15E2" stroke-width="3" stroke-linecap="round"/>
<path d="M127.825 21C125.825 23.1667 122.425 29.2 124.825 36" stroke="#0F15E2" stroke-width="3" stroke-linecap="round"/>
<path d="M185.24 65.9796C190.203 83.7283 186.931 106.039 152.04 86.0104C156.187 74.3268 168.632 53.9637 185.24 65.9796Z" fill="#E6F0FC" stroke="#0F15E2" stroke-width="3.22114" stroke-linecap="round"/>
<path d="M190.016 59.5417C191.201 49.4738 183.433 49.2379 179.062 49.6754C178.619 49.7197 178.271 50.0674 178.209 50.5082L176.311 63.9959C176.251 64.4232 176.478 64.8449 176.874 65.0168C185.222 68.6448 188.922 64.3439 190.016 59.5417Z" fill="#E6F0FC" stroke="#0F15E2" stroke-width="3.22114" stroke-linecap="round" stroke-linejoin="round"/>
<path d="M80.8226 53.9035C76.05 71.7042 75.1736 102.206 109.849 81.806C124.928 52.0503 96.7808 50.8061 80.8226 53.9035Z" fill="#E6F0FC" stroke="#0F15E2" stroke-width="3.22114" stroke-linecap="round"/>
<path d="M72.604 17.1864C79.5396 3.18486 66.0889 16.4769 60.69 22.6004C60.2513 23.0981 60.1057 23.7783 60.2821 24.4179L63.2644 35.2289C63.6267 36.5425 65.2078 37.1821 66.4108 36.5421C68.4936 35.434 71.3974 33.9552 73.4803 32.9072C74.1127 32.589 74.8678 32.6381 75.4711 33.0084C80.6357 36.1783 81.4831 35.1699 81.1788 33.9106C81.095 33.5636 80.8434 33.2879 80.5603 33.0704C78.3089 31.3407 79.2138 30.8956 80 30.8956C86.7629 31.5105 88.6434 30.1959 88.7734 28.9492C88.8449 28.2633 88.0772 27.8984 87.3878 27.8856C83.2566 27.8092 81.0263 27.3076 79.9262 26.7864C79.1923 26.4386 79.498 25.6962 80.2417 25.37C85.5275 23.0508 87.1901 21.2015 87.3893 20.0264C87.5176 19.2694 86.5513 19.1027 85.8466 19.4077C79.3441 22.2214 77.3095 21.8003 77.0019 20.936C76.8814 20.5975 77.1436 20.2613 77.4021 20.0118C83.0882 14.5235 82.4136 12.5101 80.8821 12.0222C80.3399 11.8495 79.7833 12.1394 79.4005 12.5605C73.4983 19.0535 72.3046 18.7506 72.4578 17.6114C72.4772 17.4667 72.5392 17.3172 72.604 17.1864Z" fill="#E6F0FC" stroke="#0F15E2" stroke-width="3" stroke-linecap="round"/>
<path d="M194.177 29.1864C187.242 15.1849 200.692 28.4769 206.091 34.6004C206.53 35.0981 206.676 35.7783 206.499 36.4179L203.517 47.2289C203.155 48.5425 201.573 49.1821 200.37 48.5421C198.288 47.434 195.384 45.9552 193.301 44.9072C192.669 44.589 191.913 44.6381 191.31 45.0084C186.146 48.1783 185.298 47.1699 185.602 45.9106C185.686 45.5636 185.938 45.2879 186.221 45.0704C188.472 43.3407 187.567 42.8956 186.781 42.8956C180.018 43.5105 178.138 42.1959 178.008 40.9492C177.936 40.2633 178.704 39.8984 179.393 39.8856C183.525 39.8092 185.755 39.3076 186.855 38.7864C187.589 38.4386 187.283 37.6962 186.54 37.37C181.254 35.0508 179.591 33.2015 179.392 32.0264C179.264 31.2694 180.23 31.1027 180.935 31.4077C187.437 34.2214 189.472 33.8003 189.779 32.936C189.9 32.5975 189.638 32.2613 189.379 32.0118C183.693 26.5235 184.368 24.5101 185.899 24.0222C186.441 23.8495 186.998 24.1394 187.381 24.5605C193.283 31.0535 194.477 30.7506 194.323 29.6114C194.304 29.4667 194.242 29.3172 194.177 29.1864Z" fill="#E6F0FC" stroke="#0F15E2" stroke-width="3" stroke-linecap="round"/>
<path d="M152.388 86.5C161.525 92.3739 183.549 99.6855 186.347 85.4468C186.462 84.8587 186.796 84.3178 187.299 83.9928C196.545 78.0251 204.846 68.9955 199.976 47.8752C199.92 47.6315 199.906 47.375 199.942 47.1277C200.54 43.1021 201.968 35.7864 203.791 32.147C204.283 31.1639 205.521 31.1179 206.262 31.9303C218.899 45.7849 230.48 78.2567 184.644 108.996C184.175 109.311 183.843 109.796 183.76 110.355C180.65 131.485 176.511 184.047 183.571 234.298C183.737 235.475 182.869 236.541 181.681 236.582C151.884 237.621 91.4399 237.062 67.342 227.131C66.4742 226.773 66.0237 225.871 66.2209 224.953C73.0688 193.076 85.8424 131.116 86.3792 118.661C86.4104 117.936 85.9994 117.308 85.3546 116.974C60.3486 104.008 22.2717 67.6212 59.673 20.1219C60.5013 19.0699 62.1265 19.1237 62.7939 20.2844C65.1579 24.3959 68.2382 31.0709 68.3815 36.6031C68.3883 36.8659 68.3356 37.1203 68.239 37.3648C65.4865 44.3301 63.7426 58.3494 77.3867 78C82 86.5 88.4893 94.7 108.888 81.5L152.388 86.5Z" fill="#E6F0FC"/>
<path d="M108.888 81.5C113.722 92.1667 129.188 108.1 152.388 86.5M108.888 81.5C88.4893 94.7 82 86.5 77.3867 78C63.7426 58.3494 65.4865 44.3301 68.239 37.3648C68.3356 37.1203 68.3883 36.8659 68.3815 36.6031C68.2382 31.0709 65.1579 24.3959 62.7939 20.2844C62.1265 19.1237 60.5013 19.0699 59.673 20.1219C22.2717 67.6212 60.3486 104.008 85.3546 116.974C85.9994 117.308 86.4104 117.936 86.3792 118.661C85.8424 131.116 73.0688 193.076 66.2209 224.953C66.0237 225.871 66.4742 226.773 67.342 227.131C91.4399 237.062 151.884 237.621 181.681 236.582C182.869 236.541 183.737 235.475 183.571 234.298C176.511 184.047 180.65 131.485 183.76 110.355C183.843 109.795 184.175 109.311 184.644 108.996C230.48 78.2567 218.899 45.7849 206.262 31.9303C205.521 31.1179 204.283 31.1639 203.791 32.147C201.968 35.7864 200.54 43.1021 199.942 47.1277C199.906 47.375 199.92 47.6315 199.976 47.8752C204.846 68.9955 196.545 78.0251 187.299 83.9928C186.796 84.3178 186.462 84.8587 186.347 85.4468C183.549 99.6855 161.525 92.3739 152.388 86.5M108.888 81.5L152.388 86.5" stroke="#0F15E2" stroke-width="3"/>
<ellipse cx="131.615" cy="121.315" rx="3.96574" ry="3.56916" transform="rotate(7.21967 131.615 121.315)" fill="#0F15E2"/>
<ellipse cx="130.595" cy="141.973" rx="3.96574" ry="3.56916" transform="rotate(7.21967 130.595 141.973)" fill="#0F15E2"/>
<ellipse cx="129.775" cy="161.055" rx="3.96574" ry="3.56916" transform="rotate(7.21967 129.775 161.055)" fill="#0F15E2"/>
<path d="M174.904 39.1937C144.144 42.769 108.134 35.6597 93.0495 31.4159C92.575 31.2823 92.0794 31.5398 91.8863 31.9933C75.7344 69.9484 110.108 84.9818 129.457 87.7568C178.473 90.7295 182.124 55.3191 175.91 39.7752C175.748 39.3705 175.337 39.1434 174.904 39.1937Z" fill="#E6F0FC" stroke="#0F15E2" stroke-width="3.22114" stroke-linecap="round" stroke-linejoin="round"/>
<ellipse cx="106.171" cy="59.6567" rx="7.71161" ry="8.53199" transform="rotate(-0.305861 106.171 59.6567)" fill="#ECCCC8"/>
<ellipse cx="154.27" cy="64.4874" rx="7.21937" ry="8.03976" transform="rotate(-0.305861 154.27 64.4874)" fill="#ECCCC8"/>
<path d="M132.078 58.4151L127.544 62.3768C126.986 62.81 127.219 64.1499 132.624 66.0442" stroke="#0F15E2" stroke-width="3" stroke-linecap="round"/>
<path d="M98.0417 73.8073C97.3479 77.0378 95.5317 82.9895 98.0417 85.9952M90.5 64.4992C87.6721 67.5224 83.6913 76.9974 89.0005 87.9952M172.198 73C173.469 75.5091 174.782 84.7373 172.198 92.4956M163.548 81.0052C164.324 83.0247 165.664 87.5062 163.059 91.1954" stroke="#0F15E2" stroke-width="3.22114" stroke-linecap="round" stroke-linejoin="round"/>
<ellipse cx="144.5" cy="53.555" rx="2.68985" ry="4.48308" transform="rotate(8.97848 144.5 53.555)" fill="#0F15E2"/>
<path d="M112.875 46.9082C114.254 50.6109 118.367 56.0711 123.788 48.2906" stroke="#0F15E2" stroke-width="4" stroke-linecap="round"/>
<path d="M110.5 62C116.167 70.8333 132.2 84.7 151 69.5" stroke="#0F15E2" stroke-width="3" stroke-linecap="round"/>
<path d="M74.9976 44.0221C76.7197 34.0321 84.2344 36.0107 88.3015 37.6709C88.7136 37.8391 88.949 38.2715 88.8834 38.7117L86.8745 52.1833C86.8108 52.6101 86.4733 52.9499 86.045 53.0025C77.0107 54.1116 74.6831 48.9372 74.9976 44.0221Z" fill="#E6F0FC" stroke="#0F15E2" stroke-width="3.22114" stroke-linecap="round" stroke-linejoin="round"/>
</svg>
