<svg width="129" height="106" viewBox="0 0 129 106" fill="none" xmlns="http://www.w3.org/2000/svg">
<path d="M110.389 43.2456C76.2102 47.0335 36.2642 38.9254 19.539 34.1234C19.0129 33.9723 18.461 34.2552 18.244 34.7578C0.0828791 76.8095 38.1641 93.7072 59.6336 96.9035C114.046 100.495 118.311 61.195 111.502 43.8973C111.325 43.4469 110.87 43.1923 110.389 43.2456Z" stroke="white" stroke-width="3.57699" stroke-linecap="round" stroke-linejoin="round"/>
<path d="M8.74219 42.4419C17.7794 5.85558 51.799 0.397664 67.6506 2.34116C84.8992 4.4061 119.631 18.5733 120.797 55.0139" stroke="white" stroke-width="3.57699" stroke-linecap="round" stroke-linejoin="round"/>
<ellipse cx="33.9424" cy="65.5644" rx="8.56353" ry="9.47455" fill="#ECCCC8"/>
<ellipse cx="87.3275" cy="71.2131" rx="8.01692" ry="8.92794" fill="#ECCCC8"/>
<path d="M38.781 68.6791C44.9759 77.7285 62.5767 92.0375 83.4207 76.8783M34.2259 19.4844C31.6417 26.753 31.1803 30.3927 31.3107 36.4292M47.1623 22.3996C44.0328 28.8833 43.3836 32.5402 43.7005 38.9801M14.6731 43.9159C11.8794 42.0332 6.71345 41.1665 3.79819 45.7216C0.532841 50.8233 0.607031 62.7193 13.5799 58.4921" stroke="white" stroke-width="3.57699" stroke-linecap="round" stroke-linejoin="round"/>
<path d="M114.112 54.999C118.728 54.4524 128.506 54.0873 127.048 65.9312C125.773 71.3966 121.453 76.2595 111.687 71.5951" stroke="white" stroke-width="3.57699" stroke-linecap="round" stroke-linejoin="round"/>
<path d="M24.8325 81.2343C24.0429 84.8177 22.9171 92.4744 25.6866 95.8269M16.9979 70.4844C13.8397 73.8248 8.74217 85.0405 14.5727 97.2846M107.188 80.1411C108.585 82.9349 109.682 95.0617 106.767 103.662M97.5315 89.6157C98.3818 91.8628 99.8435 96.8473 96.9283 100.929" stroke="white" stroke-width="3.57699" stroke-linecap="round" stroke-linejoin="round"/>
<path d="M5.82514 59.0215C0.419791 78.7601 -0.734159 112.626 37.8928 90.1782" stroke="white" stroke-width="3.57699" stroke-linecap="round"/>
<path d="M121.707 73.0527C127.112 92.7914 123.347 117.547 84.7202 95.0993" stroke="white" stroke-width="3.57699" stroke-linecap="round"/>
<path d="M61.158 65L57.158 69.5C56.658 70 57.058 71.3 62.658 72.5" stroke="white" stroke-width="3" stroke-linecap="round"/>
</svg>
