<svg width="327" height="160" viewBox="0 0 327 160" fill="none" xmlns="http://www.w3.org/2000/svg">
<path d="M45.1112 105.379C41.235 130.615 22.1167 140.33 6.89132 143.097C2.52527 143.89 0.25468 149.396 3.93652 151.873C32.2588 170.928 66.3233 141.623 85.2985 117.545C87.9089 114.232 93.4197 115.111 95.0556 118.998C113.349 162.466 151.198 146.312 171.684 129.677C173.706 128.035 176.64 128.099 178.66 129.743C200.882 147.827 219.005 135.373 227.805 123.584C229.573 121.215 232.919 120.46 235.438 122.006C278.178 148.227 317.23 121.895 322.565 100.971C335.762 32.1 285.926 27.5441 257.07 34.4645C254.663 35.0416 252.143 33.8822 251.011 31.6814C226.72 -15.5483 194.553 3.31114 178.448 21.9599C176.588 24.1141 173.326 24.4974 171.044 22.7971C124.3 -12.0198 97.8982 25.5123 89.1082 52.65C88.329 55.0556 85.9501 56.5863 83.4273 56.4145C48.5158 54.0373 46.8816 87.3752 45.1112 105.379Z" stroke="#0F15E2" stroke-width="3" stroke-linejoin="round"/>
</svg>
