<svg width="177" height="373" viewBox="0 0 177 373" fill="none" xmlns="http://www.w3.org/2000/svg">
<path d="M120.536 38.0842C90.4419 45.5036 53.7903 42.9739 38.2783 40.6573C37.7904 40.5845 37.3306 40.9024 37.196 41.3771C25.9319 81.097 61.9548 91.7009 81.5165 92.0227C130.562 88.8088 129.733 53.1881 121.608 38.5351C121.396 38.1536 120.959 37.9798 120.536 38.0842Z" stroke="#D63725" stroke-width="3.22406" stroke-linecap="round" stroke-linejoin="round"/>
<path d="M29.6124 49.3662C33.3689 15.6069 63.1235 6.71405 77.5174 6.57948C93.1739 6.38853 125.881 14.948 131.225 47.3725" stroke="#D63725" stroke-width="3.22406" stroke-linecap="round" stroke-linejoin="round"/>
<ellipse cx="54.8604" cy="67.051" rx="7.71859" ry="8.53972" transform="rotate(-7.52553 54.8604 67.051)" fill="#ECCCC8"/>
<ellipse cx="103.231" cy="65.797" rx="7.22591" ry="8.04704" transform="rotate(-7.52553 103.231 65.797)" fill="#ECCCC8"/>
<path d="M59.552 69.2655C66.1558 76.6205 83.5725 87.3289 100.409 71.3225M49.6745 25.8443C48.2233 32.6444 48.2407 35.9511 49.0698 41.3298M61.5782 26.9222C59.5471 33.0852 59.3987 36.4296 60.4421 42.1466M35.0868 49.9837C32.3681 48.6311 27.6497 48.4665 25.5824 52.8809C23.2668 57.8251 24.7374 68.4462 35.8305 63.1376" stroke="#D63725" stroke-width="3.22406" stroke-linecap="round" stroke-linejoin="round"/>
<path d="M125.25 48.1454C129.31 47.1121 138.005 45.6316 138.1 56.387C137.606 61.4212 134.319 66.2766 125.042 63.2615" stroke="#D63725" stroke-width="3.22406" stroke-linecap="round" stroke-linejoin="round"/>
<path d="M48.5701 82.129C48.2876 85.4242 48.1855 92.3989 51.056 95.0677M40.3004 73.448C37.8727 76.8057 34.6417 87.4295 41.297 97.6821M122.032 71.4304C123.61 73.7619 126.022 84.4685 124.432 92.4973M114.521 81.0365C115.546 82.9441 117.441 87.2255 115.318 91.2166" stroke="#D63725" stroke-width="3.22406" stroke-linecap="round" stroke-linejoin="round"/>
<path d="M28.9646 64.5253C26.4646 82.8012 29.4311 113.199 61.2972 88.5805" stroke="#D63725" stroke-width="3.22406" stroke-linecap="round"/>
<path d="M134.169 63.3841C141.329 80.3839 140.887 102.949 103.721 87.4503" stroke="#D63725" stroke-width="3.22406" stroke-linecap="round"/>
<path d="M51.3633 53.625C53.7449 56.5359 60.5721 60.6112 68.8283 53.625" stroke="#D63725" stroke-width="3.17546" stroke-linecap="round"/>
<path d="M91.0562 52.4238C93.6907 55.1079 100.858 58.5504 108.45 50.8476" stroke="#D63725" stroke-width="3.17546" stroke-linecap="round"/>
<path d="M32.707 36.558C7.31081 50.7694 -25.9112 89.479 43.0696 131.134C43.7637 131.553 44.2342 132.289 44.2617 133.099C45.3252 164.384 47.0591 226.818 45.806 236.215C44.5468 253.214 42.8083 288.692 45.3804 300.839C45.5947 301.851 46.4805 302.509 47.5147 302.514C78.8107 302.641 144.365 299.281 174.066 284.831C175.179 284.29 175.622 282.975 175.171 281.822C169.561 267.478 168.46 250.925 160.123 226.292C151.746 196.581 136.171 133.519 140.139 116.485C140.226 116.111 140.406 115.806 140.665 115.522C156.596 98.078 175.356 57.2951 125.59 30.207" stroke="#D63725" stroke-width="3.17546" stroke-linecap="round"/>
<path d="M61.2866 88.9531C68.1668 99.0088 86.5315 113.087 104.949 88.9531" stroke="#D63725" stroke-width="3.17546" stroke-linecap="round"/>
<ellipse cx="87.881" cy="125.072" rx="3.96933" ry="3.5724" fill="#D63725"/>
<ellipse cx="89.4688" cy="145.713" rx="3.96933" ry="3.5724" fill="#D63725"/>
<ellipse cx="91.0562" cy="164.766" rx="3.96933" ry="3.5724" fill="#D63725"/>
<path d="M71.762 302.502C72.9528 308.324 75.255 320.761 74.9375 323.936C74.1436 330.684 69.7775 344.974 64.6172 356.088C63.1774 359.884 61.8675 365.881 66.4509 369.084C66.5494 369.152 66.6544 369.211 66.7638 369.261C70.7541 371.084 78.1462 372.982 85.9356 361.812C86.0115 361.704 86.0789 361.588 86.1335 361.467C88.8225 355.516 90.1827 343.193 93.8479 339.553C93.9424 339.459 94.0296 339.367 94.1103 339.261C97.6276 334.637 101.955 324.461 93.3374 318.08C92.5613 317.505 92.103 316.568 92.2493 315.613C92.9463 311.065 93.9904 303.912 93.9904 302.502" stroke="#D63725" stroke-width="3.17546" stroke-linecap="round"/>
<path d="M147.106 293.925C147.272 299.405 147.838 311.062 148.783 313.853C150.895 319.758 157.739 331.711 164.621 340.645C166.684 343.76 169.092 348.876 165.73 352.695C165.65 352.786 165.561 352.869 165.465 352.944C162.318 355.4 156.193 358.601 146.997 350.182C146.9 350.093 146.81 349.995 146.731 349.89C143.118 345.092 139.348 334.324 135.357 331.788C135.245 331.717 135.14 331.646 135.038 331.56C130.982 328.133 125.082 319.934 131.227 312.459C131.834 311.72 132.064 310.714 131.711 309.825C130.144 305.875 127.763 299.748 127.471 298.491" stroke="#D63725" stroke-width="3.17546" stroke-linecap="round"/>
<path d="M72.5562 308.456C77.584 309.515 88.6716 310.759 92.7997 307.266M92.0059 316.395C90.2858 320.232 87.719 330.05 92.7997 338.623" stroke="#D63725" stroke-width="3.17546" stroke-linecap="round"/>
<path d="M147.041 298.867C142.964 300.815 133.746 304.134 129.489 301.822M132.071 309.85C134.341 312.949 138.582 321.242 136.027 329.94" stroke="#D63725" stroke-width="3.17546" stroke-linecap="round"/>
<path d="M65.4116 355.986C69.7779 355.324 79.86 355.351 85.2583 360.749" stroke="#D63725" stroke-width="3.17546" stroke-linecap="round"/>
<path d="M163.575 340.563C159.615 340.788 150.831 342.858 147.377 349.339" stroke="#D63725" stroke-width="3.17546" stroke-linecap="round"/>
<path d="M79.9245 62.7168L76.749 66.2892C76.3521 66.6861 76.6696 67.7182 81.1153 68.6708" stroke="#D63725" stroke-width="2.3816" stroke-linecap="round"/>
</svg>
