<svg width="42" height="45" viewBox="0 0 42 45" fill="none" xmlns="http://www.w3.org/2000/svg">
<g clip-path="url(#clip0_1081_2)">
<path d="M1.00033 29.0325C1.00032 4.73731 12.6618 1.52888 16.9602 1.02635C23.1472 0.62045 28.4097 5.0079 30.6649 6.99868C41.6286 16.1833 42.0561 19.0013 40.0904 27.119C34.8858 43.7603 23.0315 45.036 17.6541 43.5284C4.23858 39.2608 0.961789 32.0863 1.00033 29.0325Z" stroke="#E91C0D" stroke-width="1.5"/>
<path d="M10.625 22.06C10.625 23.086 10.328 23.68 9.752 23.86C10.589 24.13 11.012 24.931 11.012 26.254C11.012 28.108 10.292 29.035 8.861 29.035H6.089C5.702 29.035 5.513 28.864 5.513 28.504V20.629C5.513 20.26 5.702 20.071 6.08 20.071H8.087C9.779 20.071 10.625 20.737 10.625 22.06ZM8.807 27.73C9.392 27.73 9.689 27.244 9.689 26.254C9.689 25.129 9.194 24.562 8.222 24.562H6.962V27.73H8.807ZM9.293 22.375C9.293 21.673 8.888 21.313 8.078 21.313H6.962V23.32H8.114C8.897 23.32 9.293 23.005 9.293 22.375ZM12.1471 29.017C11.9491 29.017 11.8501 28.9 11.8501 28.666V28.081C11.8501 27.847 11.9671 27.73 12.2011 27.73H12.4801V21.349H12.1471C11.9491 21.349 11.8501 21.241 11.8501 21.007V20.413C11.8501 20.188 11.9671 20.071 12.2011 20.071H14.2441C14.4601 20.071 14.5771 20.188 14.5771 20.422V21.007C14.5771 21.241 14.4511 21.349 14.2171 21.349H13.9021V27.73H14.2441C14.4601 27.73 14.5771 27.856 14.5771 28.09V28.684C14.5771 28.909 14.4511 29.017 14.2171 29.017H12.1471ZM15.971 29.017C15.683 29.017 15.548 28.882 15.548 28.603V20.494C15.548 20.215 15.692 20.071 15.989 20.071H16.601C16.871 20.071 17.006 20.206 17.006 20.467V27.73H19.499C19.733 27.73 19.859 27.856 19.859 28.099V28.684C19.859 28.909 19.733 29.017 19.49 29.017H15.971ZM21.1917 29.017C20.9037 29.017 20.7687 28.882 20.7687 28.603V20.494C20.7687 20.215 20.9127 20.071 21.2097 20.071H21.8217C22.0917 20.071 22.2267 20.206 22.2267 20.467V27.73H24.7197C24.9537 27.73 25.0797 27.856 25.0797 28.099V28.684C25.0797 28.909 24.9537 29.017 24.7107 29.017H21.1917ZM26.3854 29.017C26.1874 29.017 26.0884 28.9 26.0884 28.666V28.081C26.0884 27.847 26.2054 27.73 26.4394 27.73H26.7184V21.349H26.3854C26.1874 21.349 26.0884 21.241 26.0884 21.007V20.413C26.0884 20.188 26.2054 20.071 26.4394 20.071H28.4824C28.6984 20.071 28.8154 20.188 28.8154 20.422V21.007C28.8154 21.241 28.6894 21.349 28.4554 21.349H28.1404V27.73H28.4824C28.6984 27.73 28.8154 27.856 28.8154 28.09V28.684C28.8154 28.909 28.6894 29.017 28.4554 29.017H26.3854ZM34.4033 27.658C34.6643 27.658 34.7993 27.784 34.7993 28.036V28.657C34.7993 28.9 34.6643 29.017 34.3943 29.017H30.3263C30.0383 29.017 29.8943 28.846 29.8943 28.495V20.647C29.8943 20.269 30.0743 20.071 30.4433 20.071H34.3403C34.6463 20.071 34.7993 20.206 34.7993 20.467V21.079C34.7993 21.331 34.6553 21.457 34.3763 21.457H31.3253V23.644H33.9443C34.2143 23.644 34.3583 23.788 34.3583 24.067V24.553C34.3583 24.859 34.1963 25.012 33.8903 25.012H31.3253V27.658H34.4033Z" fill="#E91C0D"/>
</g>
<defs>
<clipPath id="clip0_1081_2">
<rect width="42" height="45" fill="white"/>
</clipPath>
</defs>
</svg>
