<svg width="961" height="589" viewBox="0 0 961 589" fill="none" xmlns="http://www.w3.org/2000/svg">
<g clip-path="url(#clip0_140_7)">
<path d="M0 9.99999C0 4.47714 4.47715 0 10 0H951C956.523 0 961 4.47715 961 10V579C961 584.523 956.523 589 951 589H10C4.47716 589 0 584.523 0 579V9.99999Z" fill="white"/>
<path d="M961 53H0V589H961V53Z" fill="white"/>
<g filter="url(#filter0_dd_140_7)">
<path d="M0 10C0 4.47715 4.47715 0 10 0H951C956.523 0 961 4.47715 961 10V53H0V10Z" fill="white"/>
<path d="M809.498 34.4727C814.13 34.4727 817.965 30.6294 817.965 26.0059C817.965 21.374 814.122 17.5391 809.49 17.5391C804.866 17.5391 801.031 21.374 801.031 26.0059C801.031 30.6294 804.875 34.4727 809.498 34.4727ZM809.498 33.0615C805.58 33.0615 802.451 29.9238 802.451 26.0059C802.451 22.0879 805.572 18.9502 809.49 18.9502C813.408 18.9502 816.545 22.0879 816.554 26.0059C816.562 29.9238 813.416 33.0615 809.498 33.0615ZM809.498 21.7808C809.141 21.7808 808.875 22.0381 808.875 22.4033V26.5537L808.942 28.3052L808.112 27.3091L807.124 26.313C807.008 26.2051 806.858 26.1304 806.684 26.1304C806.344 26.1304 806.086 26.396 806.086 26.728C806.086 26.9023 806.136 27.0518 806.244 27.1597L809.017 29.9238C809.183 30.0898 809.324 30.1562 809.498 30.1562C809.681 30.1562 809.83 30.0815 809.988 29.9238L812.752 27.1597C812.86 27.0518 812.926 26.9023 812.926 26.728C812.926 26.396 812.661 26.1304 812.32 26.1304C812.138 26.1304 811.988 26.1968 811.88 26.313L810.901 27.3091L810.054 28.3135L810.121 26.5537V22.4033C810.121 22.0381 809.863 21.7808 809.498 21.7808Z" fill="#737373"/>
<path d="M850.5 28.2666C850.857 28.2666 851.156 27.9678 851.156 27.6191V19.0942L851.106 17.8491L851.67 18.4385L852.924 19.7832C853.04 19.916 853.214 19.9824 853.372 19.9824C853.721 19.9824 853.978 19.7334 853.978 19.3931C853.978 19.2188 853.912 19.0859 853.787 18.9614L850.981 16.2554C850.815 16.0894 850.666 16.0312 850.5 16.0312C850.334 16.0312 850.185 16.0894 850.019 16.2554L847.213 18.9614C847.088 19.0859 847.014 19.2188 847.014 19.3931C847.014 19.7334 847.271 19.9824 847.611 19.9824C847.777 19.9824 847.952 19.916 848.068 19.7832L849.33 18.4385L849.894 17.8491L849.836 19.0942V27.6191C849.836 27.9678 850.143 28.2666 850.5 28.2666ZM845.735 34.7661H855.256C856.991 34.7661 857.863 33.9028 857.863 32.1929V23.9087C857.863 22.1987 856.991 21.3354 855.256 21.3354H852.94V22.6719H855.231C856.053 22.6719 856.526 23.1201 856.526 23.9834V32.1182C856.526 32.9814 856.053 33.4297 855.231 33.4297H845.752C844.922 33.4297 844.465 32.9814 844.465 32.1182V23.9834C844.465 23.1201 844.922 22.6719 845.752 22.6719H848.051V21.3354H845.735C844 21.3354 843.129 22.1987 843.129 23.9087V32.1929C843.129 33.9028 844 34.7661 845.735 34.7661Z" fill="#737373"/>
<path d="M891.5 33.0059C891.907 33.0059 892.248 32.6821 892.248 32.2837V26.7637H897.61C898.008 26.7637 898.349 26.4233 898.349 26.0166C898.349 25.6099 898.008 25.2778 897.61 25.2778H892.248V19.7495C892.248 19.3511 891.907 19.0273 891.5 19.0273C891.094 19.0273 890.762 19.3511 890.762 19.7495V25.2778H885.391C884.993 25.2778 884.652 25.6099 884.652 26.0166C884.652 26.4233 884.993 26.7637 885.391 26.7637H890.762V32.2837C890.762 32.6821 891.094 33.0059 891.5 33.0059Z" fill="#737373"/>
<path d="M926.325 30.8711H927.745V32.1411C927.745 33.8511 928.608 34.7144 930.351 34.7144H938.685C940.412 34.7144 941.283 33.8511 941.283 32.1411V23.7407C941.283 22.0308 940.412 21.1675 938.685 21.1675H937.257V19.8975C937.257 18.1875 936.386 17.3242 934.659 17.3242H926.325C924.582 17.3242 923.719 18.1875 923.719 19.8975V28.2979C923.719 30.0078 924.582 30.8711 926.325 30.8711ZM926.342 29.5347C925.512 29.5347 925.055 29.0864 925.055 28.2231V19.9722C925.055 19.1089 925.512 18.6606 926.342 18.6606H934.634C935.456 18.6606 935.921 19.1089 935.921 19.9722V21.1675H930.351C928.608 21.1675 927.745 22.0225 927.745 23.7407V29.5347H926.342ZM930.368 33.3779C929.546 33.3779 929.081 32.9297 929.081 32.0664V23.8154C929.081 22.9521 929.546 22.5039 930.368 22.5039H938.66C939.482 22.5039 939.947 22.9521 939.947 23.8154V32.0664C939.947 32.9297 939.482 33.3779 938.66 33.3779H930.368Z" fill="#737373"/>
<path d="M153.265 32.9873L146.682 26.5625C146.524 26.4048 146.441 26.2139 146.441 26.0063C146.441 25.7905 146.533 25.583 146.69 25.4502L153.265 19.0171C153.406 18.876 153.588 18.793 153.804 18.793C154.236 18.793 154.56 19.125 154.56 19.5566C154.56 19.7559 154.477 19.9551 154.344 20.0962L148.301 26.0063L154.344 31.9165C154.477 32.0576 154.56 32.2485 154.56 32.4561C154.56 32.8877 154.236 33.2114 153.804 33.2114C153.588 33.2114 153.406 33.1284 153.265 32.9873Z" fill="#737373"/>
<path d="M180.197 33.2197C180.413 33.2197 180.595 33.1367 180.736 32.9956L187.319 26.5625C187.477 26.4048 187.56 26.2139 187.56 26.0063C187.56 25.7905 187.477 25.5913 187.319 25.4502L180.745 19.0254C180.595 18.876 180.413 18.793 180.197 18.793C179.765 18.793 179.441 19.125 179.441 19.5566C179.441 19.7559 179.524 19.9551 179.657 20.0962L185.7 26.0063L179.657 31.9165C179.524 32.0576 179.441 32.2485 179.441 32.4561C179.441 32.8877 179.765 33.2197 180.197 33.2197Z" fill="#BFBFBF"/>
<path d="M101.321 33.6606H115.682C117.425 33.6606 118.288 32.7974 118.288 31.0874V20.9521C118.288 19.2422 117.425 18.3789 115.682 18.3789H101.321C99.5864 18.3789 98.7148 19.2339 98.7148 20.9521V31.0874C98.7148 32.8057 99.5864 33.6606 101.321 33.6606ZM101.338 32.3242C100.508 32.3242 100.051 31.8843 100.051 31.021V21.0186C100.051 20.1553 100.508 19.7153 101.338 19.7153H105.04V32.3242H101.338ZM115.665 19.7153C116.487 19.7153 116.952 20.1553 116.952 21.0186V31.021C116.952 31.8843 116.487 32.3242 115.665 32.3242H106.343V19.7153H115.665ZM103.438 22.7949C103.695 22.7949 103.911 22.5708 103.911 22.3301C103.911 22.0811 103.695 21.8652 103.438 21.8652H101.662C101.413 21.8652 101.188 22.0811 101.188 22.3301C101.188 22.5708 101.413 22.7949 101.662 22.7949H103.438ZM103.438 24.9448C103.695 24.9448 103.911 24.7207 103.911 24.4717C103.911 24.2227 103.695 24.0151 103.438 24.0151H101.662C101.413 24.0151 101.188 24.2227 101.188 24.4717C101.188 24.7207 101.413 24.9448 101.662 24.9448H103.438ZM103.438 27.0864C103.695 27.0864 103.911 26.8789 103.911 26.6299C103.911 26.3809 103.695 26.165 103.438 26.165H101.662C101.413 26.165 101.188 26.3809 101.188 26.6299C101.188 26.8789 101.413 27.0864 101.662 27.0864H103.438Z" fill="#737373"/>
<g filter="url(#filter1_i_140_7)">
<path fill-rule="evenodd" clip-rule="evenodd" d="M27 32C30.3137 32 33 29.3137 33 26C33 22.6863 30.3137 20 27 20C23.6863 20 21 22.6863 21 26C21 29.3137 23.6863 32 27 32Z" fill="#EE6A5F"/>
</g>
<path d="M32.75 26C32.75 29.1756 30.1756 31.75 27 31.75C23.8244 31.75 21.25 29.1756 21.25 26C21.25 22.8244 23.8244 20.25 27 20.25C30.1756 20.25 32.75 22.8244 32.75 26Z" stroke="#CE5347" stroke-width="0.5"/>
<g filter="url(#filter2_i_140_7)">
<path fill-rule="evenodd" clip-rule="evenodd" d="M47 32C50.3137 32 53 29.3137 53 26C53 22.6863 50.3137 20 47 20C43.6863 20 41 22.6863 41 26C41 29.3137 43.6863 32 47 32Z" fill="#F5BD4F"/>
</g>
<path d="M52.75 26C52.75 29.1756 50.1756 31.75 47 31.75C43.8244 31.75 41.25 29.1756 41.25 26C41.25 22.8244 43.8244 20.25 47 20.25C50.1756 20.25 52.75 22.8244 52.75 26Z" stroke="#D6A243" stroke-width="0.5"/>
<g filter="url(#filter3_i_140_7)">
<path fill-rule="evenodd" clip-rule="evenodd" d="M67 32C70.3137 32 73 29.3137 73 26C73 22.6863 70.3137 20 67 20C63.6863 20 61 22.6863 61 26C61 29.3137 63.6863 32 67 32Z" fill="#61C454"/>
</g>
<path d="M72.75 26C72.75 29.1756 70.1756 31.75 67 31.75C63.8244 31.75 61.25 29.1756 61.25 26C61.25 22.8244 63.8244 20.25 67 20.25C70.1756 20.25 72.75 22.8244 72.75 26Z" stroke="#58A942" stroke-width="0.5"/>
<mask id="mask0_140_7" style="mask-type:luminance" maskUnits="userSpaceOnUse" x="255" y="12" width="451" height="28">
<path d="M705.735 12H255.266V40H705.735V12Z" fill="white"/>
</mask>
<g mask="url(#mask0_140_7)">
<path d="M271.764 34.6152C271.897 34.6152 272.113 34.5654 272.32 34.4492C277.043 31.8013 278.662 30.6807 278.662 27.6509V21.3008C278.662 20.4292 278.289 20.1553 277.583 19.8564C276.603 19.4497 273.441 18.3125 272.461 17.9722C272.237 17.8975 271.997 17.8477 271.764 17.8477C271.532 17.8477 271.291 17.9141 271.075 17.9722C270.096 18.2544 266.925 19.458 265.945 19.8564C265.248 20.147 264.866 20.4292 264.866 21.3008V27.6509C264.866 30.6807 266.493 31.793 271.208 34.4492C271.424 34.5654 271.631 34.6152 271.764 34.6152ZM272.096 19.2588C273.35 19.7568 275.782 20.6367 277.068 21.0767C277.292 21.1597 277.342 21.2759 277.342 21.5581V27.3438C277.342 29.9087 276.114 30.5811 272.279 32.9136C272.038 33.063 271.905 33.1045 271.772 33.1128V19.1841C271.855 19.1841 271.963 19.209 272.096 19.2588Z" fill="#737373"/>
<path d="M297.266 18C297.266 14.6863 299.952 12 303.266 12H657.266C660.579 12 663.266 14.6863 663.266 18V34C663.266 37.3137 660.579 40 657.266 40H303.266C299.952 40 297.266 37.3137 297.266 34V18Z" fill="black" fill-opacity="0.05"/>
<mask id="mask1_140_7" style="mask-type:luminance" maskUnits="userSpaceOnUse" x="410" y="17" width="141" height="18">
<path d="M550.18 17H410.352V35H550.18V17Z" fill="white"/>
</mask>
<g mask="url(#mask1_140_7)">
<path d="M411.477 31.7168H417.055C417.811 31.7168 418.18 31.3418 418.18 30.5215V26.2207C418.18 25.4824 417.875 25.1016 417.248 25.0371V23.5605C417.248 21.3516 415.801 20.2852 414.266 20.2852C412.73 20.2852 411.283 21.3516 411.283 23.5605V25.0664C410.709 25.1543 410.352 25.5293 410.352 26.2207V30.5215C410.352 31.3418 410.721 31.7168 411.477 31.7168ZM412.227 23.4375C412.227 21.9668 413.17 21.1875 414.266 21.1875C415.361 21.1875 416.305 21.9668 416.305 23.4375V25.0312L412.227 25.0371V23.4375Z" fill="#9E9E9E"/>
<path d="M425.242 32V24.6695H426.255L426.376 26.006H426.403C426.655 25.538 426.961 25.169 427.321 24.899C427.69 24.62 428.077 24.4805 428.482 24.4805C428.653 24.4805 428.797 24.494 428.914 24.521C429.04 24.539 429.157 24.5795 429.265 24.6425L429.036 25.709C428.91 25.673 428.797 25.646 428.698 25.628C428.599 25.601 428.473 25.5875 428.32 25.5875C428.023 25.5875 427.704 25.718 427.362 25.979C427.02 26.231 426.727 26.6675 426.484 27.2885V32H425.242ZM431.772 32.1755C431.466 32.1755 431.218 32.1125 431.029 31.9865C430.84 31.8605 430.701 31.676 430.611 31.433C430.521 31.181 430.476 30.884 430.476 30.542V21.254H431.718V30.623C431.718 30.812 431.749 30.947 431.812 31.028C431.884 31.109 431.965 31.1495 432.055 31.1495C432.091 31.1495 432.127 31.1495 432.163 31.1495C432.199 31.1405 432.249 31.1315 432.312 31.1225L432.487 32.0675C432.397 32.0945 432.298 32.117 432.19 32.135C432.082 32.162 431.943 32.1755 431.772 32.1755ZM437.161 32.1755C436.567 32.1755 436.009 32.027 435.487 31.73C434.965 31.424 434.546 30.9875 434.231 30.4205C433.925 29.8445 433.772 29.1515 433.772 28.3415C433.772 27.5225 433.925 26.8295 434.231 26.2625C434.546 25.6865 434.965 25.2455 435.487 24.9395C436.009 24.6335 436.567 24.4805 437.161 24.4805C437.611 24.4805 438.038 24.566 438.443 24.737C438.857 24.908 439.222 25.16 439.537 25.493C439.852 25.826 440.099 26.231 440.279 26.708C440.459 27.185 440.549 27.7295 440.549 28.3415C440.549 29.1515 440.392 29.8445 440.077 30.4205C439.762 30.9875 439.348 31.424 438.835 31.73C438.322 32.027 437.764 32.1755 437.161 32.1755ZM437.161 31.1495C437.584 31.1495 437.953 31.0325 438.268 30.7985C438.592 30.5645 438.844 30.236 439.024 29.813C439.204 29.39 439.294 28.8995 439.294 28.3415C439.294 27.7745 439.204 27.2795 439.024 26.8565C438.844 26.4335 438.592 26.105 438.268 25.871C437.953 25.637 437.584 25.52 437.161 25.52C436.738 25.52 436.364 25.637 436.04 25.871C435.725 26.105 435.478 26.4335 435.298 26.8565C435.127 27.2795 435.041 27.7745 435.041 28.3415C435.041 28.8995 435.127 29.39 435.298 29.813C435.478 30.236 435.725 30.5645 436.04 30.7985C436.364 31.0325 436.738 31.1495 437.161 31.1495ZM441.611 32V31.3385L445.472 25.6685H442.03V24.6695H447.038V25.331L443.164 31.001H447.16V32H441.611ZM448.788 32V24.6695H450.03V32H448.788ZM449.409 23.1575C449.166 23.1575 448.968 23.0855 448.815 22.9415C448.671 22.7885 448.599 22.586 448.599 22.334C448.599 22.091 448.671 21.8975 448.815 21.7535C448.968 21.6095 449.166 21.5375 449.409 21.5375C449.652 21.5375 449.85 21.6095 450.003 21.7535C450.156 21.8975 450.232 22.091 450.232 22.334C450.232 22.586 450.156 22.7885 450.003 22.9415C449.85 23.0855 449.652 23.1575 449.409 23.1575ZM455.732 32.1755C455.399 32.1755 455.048 32.0945 454.679 31.9325C454.31 31.7705 453.968 31.541 453.653 31.244H453.599L453.491 32H452.506V21.254H453.748V24.197L453.694 25.5065C454.027 25.2185 454.391 24.9755 454.787 24.7775C455.183 24.5795 455.588 24.4805 456.002 24.4805C456.632 24.4805 457.163 24.638 457.595 24.953C458.027 25.259 458.356 25.691 458.581 26.249C458.806 26.807 458.918 27.464 458.918 28.22C458.918 29.048 458.765 29.759 458.459 30.353C458.162 30.947 457.771 31.4015 457.285 31.7165C456.808 32.0225 456.29 32.1755 455.732 32.1755ZM455.53 31.136C455.935 31.136 456.295 31.0235 456.61 30.7985C456.934 30.5645 457.186 30.2315 457.366 29.7995C457.546 29.3585 457.636 28.8365 457.636 28.2335C457.636 27.6935 457.568 27.221 457.433 26.816C457.307 26.402 457.105 26.0825 456.826 25.8575C456.547 25.6325 456.169 25.52 455.692 25.52C455.386 25.52 455.071 25.6055 454.747 25.7765C454.423 25.9475 454.09 26.195 453.748 26.519V30.38C454.063 30.659 454.378 30.857 454.693 30.974C455.017 31.082 455.296 31.136 455.53 31.136ZM461.301 32.1755C461.058 32.1755 460.846 32.09 460.666 31.919C460.495 31.739 460.41 31.514 460.41 31.244C460.41 30.956 460.495 30.7265 460.666 30.5555C460.846 30.3845 461.058 30.299 461.301 30.299C461.544 30.299 461.751 30.3845 461.922 30.5555C462.102 30.7265 462.192 30.956 462.192 31.244C462.192 31.514 462.102 31.739 461.922 31.919C461.751 32.09 461.544 32.1755 461.301 32.1755ZM466.894 35.375C466.3 35.375 465.774 35.2985 465.315 35.1455C464.856 34.9925 464.5 34.7675 464.248 34.4705C463.996 34.1825 463.87 33.8315 463.87 33.4175C463.87 33.1025 463.965 32.7965 464.154 32.4995C464.343 32.2115 464.608 31.964 464.95 31.757V31.6895C464.761 31.5725 464.604 31.415 464.478 31.217C464.352 31.019 464.289 30.776 464.289 30.488C464.289 30.182 464.374 29.912 464.545 29.678C464.725 29.444 464.91 29.2595 465.099 29.1245V29.0705C464.856 28.8815 464.635 28.616 464.437 28.274C464.239 27.932 464.14 27.5405 464.14 27.0995C464.14 26.5595 464.266 26.096 464.518 25.709C464.77 25.313 465.103 25.0115 465.517 24.8045C465.94 24.5885 466.395 24.4805 466.881 24.4805C467.097 24.4805 467.29 24.4985 467.461 24.5345C467.641 24.5705 467.794 24.6155 467.92 24.6695H470.472V25.6145H468.973C469.153 25.7855 469.297 26.0015 469.405 26.2625C469.513 26.5235 469.567 26.8115 469.567 27.1265C469.567 27.6485 469.446 28.103 469.203 28.49C468.969 28.868 468.649 29.1605 468.244 29.3675C467.839 29.5745 467.385 29.678 466.881 29.678C466.71 29.678 466.525 29.6555 466.327 29.6105C466.138 29.5655 465.963 29.5025 465.801 29.4215C465.666 29.5295 465.553 29.651 465.463 29.786C465.373 29.921 465.328 30.092 465.328 30.299C465.328 30.524 465.418 30.713 465.598 30.866C465.778 31.019 466.116 31.0955 466.611 31.0955H468.055C468.901 31.0955 469.536 31.235 469.959 31.514C470.391 31.793 470.607 32.234 470.607 32.837C470.607 33.287 470.454 33.7055 470.148 34.0925C469.842 34.4795 469.41 34.79 468.852 35.024C468.303 35.258 467.65 35.375 466.894 35.375ZM466.881 28.841C467.169 28.841 467.43 28.769 467.664 28.625C467.907 28.481 468.096 28.2785 468.231 28.0175C468.375 27.7565 468.447 27.4505 468.447 27.0995C468.447 26.7395 468.375 26.4335 468.231 26.1815C468.096 25.9205 467.911 25.7225 467.677 25.5875C467.443 25.4525 467.178 25.385 466.881 25.385C466.602 25.385 466.341 25.4525 466.098 25.5875C465.864 25.7225 465.675 25.916 465.531 26.168C465.396 26.42 465.328 26.7305 465.328 27.0995C465.328 27.4505 465.4 27.7565 465.544 28.0175C465.688 28.2785 465.877 28.481 466.111 28.625C466.345 28.769 466.602 28.841 466.881 28.841ZM467.07 34.5245C467.538 34.5245 467.943 34.4525 468.285 34.3085C468.636 34.1645 468.906 33.9755 469.095 33.7415C469.293 33.5165 469.392 33.2825 469.392 33.0395C469.392 32.6885 469.266 32.4455 469.014 32.3105C468.762 32.1755 468.393 32.108 467.907 32.108H466.638C466.503 32.108 466.35 32.099 466.179 32.081C466.017 32.072 465.855 32.045 465.693 32C465.432 32.18 465.243 32.378 465.126 32.594C465.009 32.819 464.95 33.035 464.95 33.242C464.95 33.629 465.135 33.9395 465.504 34.1735C465.882 34.4075 466.404 34.5245 467.07 34.5245ZM472.044 32V24.6695H473.286V32H472.044ZM472.665 23.1575C472.422 23.1575 472.224 23.0855 472.071 22.9415C471.927 22.7885 471.855 22.586 471.855 22.334C471.855 22.091 471.927 21.8975 472.071 21.7535C472.224 21.6095 472.422 21.5375 472.665 21.5375C472.908 21.5375 473.106 21.6095 473.259 21.7535C473.412 21.8975 473.488 22.091 473.488 22.334C473.488 22.586 473.412 22.7885 473.259 22.9415C473.106 23.0855 472.908 23.1575 472.665 23.1575ZM478.057 32.1755C477.544 32.1755 477.134 32.0765 476.828 31.8785C476.522 31.6715 476.302 31.3835 476.167 31.0145C476.041 30.6455 475.978 30.218 475.978 29.732V25.6685H474.884V24.737L476.045 24.6695L476.18 22.604H477.206V24.6695H479.204V25.6685H477.206V29.7725C477.206 30.2135 477.287 30.56 477.449 30.812C477.62 31.055 477.917 31.1765 478.34 31.1765C478.475 31.1765 478.619 31.1585 478.772 31.1225C478.925 31.0775 479.06 31.028 479.177 30.974L479.42 31.9055C479.213 31.9775 478.993 32.0405 478.759 32.0945C478.525 32.1485 478.291 32.1755 478.057 32.1755ZM480.85 32V21.254H482.092V24.197L482.038 25.709C482.38 25.367 482.745 25.079 483.132 24.845C483.519 24.602 483.964 24.4805 484.468 24.4805C485.242 24.4805 485.809 24.728 486.169 25.223C486.529 25.709 486.709 26.42 486.709 27.356V32H485.481V27.518C485.481 26.825 485.368 26.3255 485.143 26.0195C484.927 25.7135 484.576 25.5605 484.09 25.5605C483.712 25.5605 483.375 25.655 483.078 25.844C482.781 26.033 482.452 26.312 482.092 26.681V32H480.85ZM491.197 32.1755C490.423 32.1755 489.852 31.9325 489.483 31.4465C489.123 30.9605 488.943 30.2495 488.943 29.3135V24.6695H490.185V29.165C490.185 29.84 490.293 30.335 490.509 30.65C490.725 30.956 491.076 31.109 491.562 31.109C491.94 31.109 492.277 31.01 492.574 30.812C492.871 30.614 493.195 30.299 493.546 29.867V24.6695H494.775V32H493.749L493.654 30.8525H493.614C493.272 31.2485 492.907 31.568 492.52 31.811C492.142 32.054 491.701 32.1755 491.197 32.1755ZM500.477 32.1755C500.144 32.1755 499.793 32.0945 499.424 31.9325C499.055 31.7705 498.713 31.541 498.398 31.244H498.344L498.236 32H497.251V21.254H498.493V24.197L498.439 25.5065C498.772 25.2185 499.136 24.9755 499.532 24.7775C499.928 24.5795 500.333 24.4805 500.747 24.4805C501.377 24.4805 501.908 24.638 502.34 24.953C502.772 25.259 503.101 25.691 503.326 26.249C503.551 26.807 503.663 27.464 503.663 28.22C503.663 29.048 503.51 29.759 503.204 30.353C502.907 30.947 502.516 31.4015 502.03 31.7165C501.553 32.0225 501.035 32.1755 500.477 32.1755ZM500.275 31.136C500.68 31.136 501.04 31.0235 501.355 30.7985C501.679 30.5645 501.931 30.2315 502.111 29.7995C502.291 29.3585 502.381 28.8365 502.381 28.2335C502.381 27.6935 502.313 27.221 502.178 26.816C502.052 26.402 501.85 26.0825 501.571 25.8575C501.292 25.6325 500.914 25.52 500.437 25.52C500.131 25.52 499.816 25.6055 499.492 25.7765C499.168 25.9475 498.835 26.195 498.493 26.519V30.38C498.808 30.659 499.123 30.857 499.438 30.974C499.762 31.082 500.041 31.136 500.275 31.136ZM506.046 32.1755C505.803 32.1755 505.591 32.09 505.411 31.919C505.24 31.739 505.155 31.514 505.155 31.244C505.155 30.956 505.24 30.7265 505.411 30.5555C505.591 30.3845 505.803 30.299 506.046 30.299C506.289 30.299 506.496 30.3845 506.667 30.5555C506.847 30.7265 506.937 30.956 506.937 31.244C506.937 31.514 506.847 31.739 506.667 31.919C506.496 32.09 506.289 32.1755 506.046 32.1755ZM509.169 32V24.6695H510.411V32H509.169ZM509.79 23.1575C509.547 23.1575 509.349 23.0855 509.196 22.9415C509.052 22.7885 508.98 22.586 508.98 22.334C508.98 22.091 509.052 21.8975 509.196 21.7535C509.349 21.6095 509.547 21.5375 509.79 21.5375C510.033 21.5375 510.231 21.6095 510.384 21.7535C510.537 21.8975 510.613 22.091 510.613 22.334C510.613 22.586 510.537 22.7885 510.384 22.9415C510.231 23.0855 510.033 23.1575 509.79 23.1575ZM515.735 32.1755C515.141 32.1755 514.583 32.027 514.061 31.73C513.539 31.424 513.121 30.9875 512.806 30.4205C512.5 29.8445 512.347 29.1515 512.347 28.3415C512.347 27.5225 512.5 26.8295 512.806 26.2625C513.121 25.6865 513.539 25.2455 514.061 24.9395C514.583 24.6335 515.141 24.4805 515.735 24.4805C516.185 24.4805 516.613 24.566 517.018 24.737C517.432 24.908 517.796 25.16 518.111 25.493C518.426 25.826 518.674 26.231 518.854 26.708C519.034 27.185 519.124 27.7295 519.124 28.3415C519.124 29.1515 518.966 29.8445 518.651 30.4205C518.336 30.9875 517.922 31.424 517.409 31.73C516.896 32.027 516.338 32.1755 515.735 32.1755ZM515.735 31.1495C516.158 31.1495 516.527 31.0325 516.842 30.7985C517.166 30.5645 517.418 30.236 517.598 29.813C517.778 29.39 517.868 28.8995 517.868 28.3415C517.868 27.7745 517.778 27.2795 517.598 26.8565C517.418 26.4335 517.166 26.105 516.842 25.871C516.527 25.637 516.158 25.52 515.735 25.52C515.312 25.52 514.939 25.637 514.615 25.871C514.3 26.105 514.052 26.4335 513.872 26.8565C513.701 27.2795 513.616 27.7745 513.616 28.3415C513.616 28.8995 513.701 29.39 513.872 29.813C514.052 30.236 514.3 30.5645 514.615 30.7985C514.939 31.0325 515.312 31.1495 515.735 31.1495Z" fill="#555555"/>
</g>
<path d="M651.548 25.6152C651.694 25.6152 651.806 25.5684 651.888 25.4805L654.302 23.0547C654.407 22.9551 654.448 22.8379 654.448 22.7031C654.448 22.5742 654.395 22.4453 654.302 22.3516L651.888 19.9023C651.806 19.8086 651.688 19.7617 651.548 19.7617C651.284 19.7617 651.085 19.9727 651.085 20.2422C651.085 20.3652 651.132 20.4824 651.214 20.5762L652.778 22.1113C652.444 22.0527 652.104 22.0176 651.765 22.0176C648.894 22.0176 646.585 24.3203 646.585 27.1914C646.585 30.0684 648.894 32.377 651.765 32.377C654.636 32.377 656.938 30.0684 656.938 27.1914C656.938 26.9102 656.739 26.7051 656.452 26.7051C656.177 26.7051 655.995 26.9102 655.995 27.1914C655.995 29.5469 654.114 31.4336 651.765 31.4336C649.415 31.4336 647.528 29.5469 647.528 27.1914C647.528 24.8418 649.415 22.9609 651.765 22.9609C652.21 22.9609 652.62 22.9961 652.972 23.0723L651.22 24.8125C651.132 24.9062 651.085 25.0234 651.085 25.1465C651.085 25.416 651.284 25.6152 651.548 25.6152Z" fill="#797979"/>
</g>
</g>
</g>
<defs>
<filter id="filter0_dd_140_7" x="0" y="-0.5" width="961" height="54" filterUnits="userSpaceOnUse" color-interpolation-filters="sRGB">
<feFlood flood-opacity="0" result="BackgroundImageFix"/>
<feColorMatrix in="SourceAlpha" type="matrix" values="0 0 0 0 0 0 0 0 0 0 0 0 0 0 0 0 0 0 127 0" result="hardAlpha"/>
<feOffset dy="0.5"/>
<feColorMatrix type="matrix" values="0 0 0 0 0 0 0 0 0 0 0 0 0 0 0 0 0 0 0.15 0"/>
<feBlend mode="normal" in2="BackgroundImageFix" result="effect1_dropShadow_140_7"/>
<feColorMatrix in="SourceAlpha" type="matrix" values="0 0 0 0 0 0 0 0 0 0 0 0 0 0 0 0 0 0 127 0" result="hardAlpha"/>
<feOffset dy="-0.5"/>
<feComposite in2="hardAlpha" operator="out"/>
<feColorMatrix type="matrix" values="0 0 0 0 0 0 0 0 0 0 0 0 0 0 0 0 0 0 0.05 0"/>
<feBlend mode="normal" in2="effect1_dropShadow_140_7" result="effect2_dropShadow_140_7"/>
<feBlend mode="normal" in="SourceGraphic" in2="effect2_dropShadow_140_7" result="shape"/>
</filter>
<filter id="filter1_i_140_7" x="21" y="20" width="12" height="12" filterUnits="userSpaceOnUse" color-interpolation-filters="sRGB">
<feFlood flood-opacity="0" result="BackgroundImageFix"/>
<feBlend mode="normal" in="SourceGraphic" in2="BackgroundImageFix" result="shape"/>
<feColorMatrix in="SourceAlpha" type="matrix" values="0 0 0 0 0 0 0 0 0 0 0 0 0 0 0 0 0 0 127 0" result="hardAlpha"/>
<feOffset/>
<feGaussianBlur stdDeviation="3"/>
<feComposite in2="hardAlpha" operator="arithmetic" k2="-1" k3="1"/>
<feColorMatrix type="matrix" values="0 0 0 0 0.92549 0 0 0 0 0.427451 0 0 0 0 0.384314 0 0 0 1 0"/>
<feBlend mode="normal" in2="shape" result="effect1_innerShadow_140_7"/>
</filter>
<filter id="filter2_i_140_7" x="41" y="20" width="12" height="12" filterUnits="userSpaceOnUse" color-interpolation-filters="sRGB">
<feFlood flood-opacity="0" result="BackgroundImageFix"/>
<feBlend mode="normal" in="SourceGraphic" in2="BackgroundImageFix" result="shape"/>
<feColorMatrix in="SourceAlpha" type="matrix" values="0 0 0 0 0 0 0 0 0 0 0 0 0 0 0 0 0 0 127 0" result="hardAlpha"/>
<feOffset/>
<feGaussianBlur stdDeviation="3"/>
<feComposite in2="hardAlpha" operator="arithmetic" k2="-1" k3="1"/>
<feColorMatrix type="matrix" values="0 0 0 0 0.960784 0 0 0 0 0.768627 0 0 0 0 0.317647 0 0 0 1 0"/>
<feBlend mode="normal" in2="shape" result="effect1_innerShadow_140_7"/>
</filter>
<filter id="filter3_i_140_7" x="61" y="20" width="12" height="12" filterUnits="userSpaceOnUse" color-interpolation-filters="sRGB">
<feFlood flood-opacity="0" result="BackgroundImageFix"/>
<feBlend mode="normal" in="SourceGraphic" in2="BackgroundImageFix" result="shape"/>
<feColorMatrix in="SourceAlpha" type="matrix" values="0 0 0 0 0 0 0 0 0 0 0 0 0 0 0 0 0 0 127 0" result="hardAlpha"/>
<feOffset/>
<feGaussianBlur stdDeviation="3"/>
<feComposite in2="hardAlpha" operator="arithmetic" k2="-1" k3="1"/>
<feColorMatrix type="matrix" values="0 0 0 0 0.407843 0 0 0 0 0.8 0 0 0 0 0.345098 0 0 0 1 0"/>
<feBlend mode="normal" in2="shape" result="effect1_innerShadow_140_7"/>
</filter>
<clipPath id="clip0_140_7">
<rect width="961" height="589" fill="white"/>
</clipPath>
</defs>
</svg>
