<svg width="824" height="695" viewBox="0 0 824 695" fill="none" xmlns="http://www.w3.org/2000/svg">
<g filter="url(#filter0_d_180_2863)">
<ellipse cx="411.697" cy="660.94" rx="301.365" ry="2.38129" fill="#C4C4C4" fill-opacity="0.01"/>
</g>
<rect width="823.397" height="575.743" rx="13.3483" fill="#F1F1F1"/>
<path d="M0 493.719H823.397V562.393C823.397 569.765 817.421 575.741 810.049 575.741H13.3483C5.97622 575.741 0 569.765 0 562.393V493.719Z" fill="#F5F5F5"/>
<g filter="url(#filter1_d_180_2863)">
<path d="M273.059 677.081C271.597 675.62 271.736 671.26 274.911 668.879H548.494C551.669 671.26 551.934 674.7 550.346 677.081C548.706 679.543 540.557 680.08 536.323 679.992H287.082C282.848 680.08 275.44 679.462 273.059 677.081Z" fill="url(#paint0_linear_180_2863)"/>
</g>
<path d="M318.032 575.746C318.032 575.746 309.83 634.749 307.448 641.099C305.066 647.449 293.425 654.329 291.308 655.916C289.191 657.504 281.783 662.795 278.608 665.177C275.433 667.558 271.514 670.302 273.052 673.379C274.375 676.025 282.842 676.378 287.075 676.289H427.042H536.317C540.55 676.378 549.017 676.025 550.34 673.379C551.878 670.302 547.959 667.558 544.784 665.177C541.609 662.795 534.2 657.504 532.083 655.916C529.966 654.329 518.326 647.449 515.944 641.099C513.562 634.749 505.36 575.746 505.36 575.746H427.042H318.032Z" fill="#F5F5F5"/>
<path d="M318.032 575.746C318.032 575.746 309.83 634.749 307.448 641.099C305.066 647.449 293.425 654.329 291.308 655.916C289.191 657.504 281.783 662.795 278.608 665.177C275.433 667.558 271.514 670.302 273.052 673.379C274.375 676.025 282.842 676.378 287.075 676.289H427.042H536.317C540.55 676.378 549.017 676.025 550.34 673.379C551.878 670.302 547.959 667.558 544.784 665.177C541.609 662.795 534.2 657.504 532.083 655.916C529.966 654.329 518.326 647.449 515.944 641.099C513.562 634.749 505.36 575.746 505.36 575.746H427.042H318.032Z" fill="url(#paint1_radial_180_2863)"/>
<path d="M318.032 575.746C318.032 575.746 309.83 634.749 307.448 641.099C305.066 647.449 293.425 654.329 291.308 655.916C289.191 657.504 281.783 662.795 278.608 665.177C275.433 667.558 271.514 670.302 273.052 673.379C274.375 676.025 282.842 676.378 287.075 676.289H427.042H536.317C540.55 676.378 549.017 676.025 550.34 673.379C551.878 670.302 547.959 667.558 544.784 665.177C541.609 662.795 534.2 657.504 532.083 655.916C529.966 654.329 518.326 647.449 515.944 641.099C513.562 634.749 505.36 575.746 505.36 575.746H427.042H318.032Z" fill="url(#paint2_linear_180_2863)"/>
<path d="M318.032 575.746C318.032 575.746 309.83 634.749 307.448 641.099C305.066 647.449 293.425 654.329 291.308 655.916C289.191 657.504 281.783 662.795 278.608 665.177C275.433 667.558 271.514 670.302 273.052 673.379C274.375 676.025 282.842 676.378 287.075 676.289H427.042H536.317C540.55 676.378 549.017 676.025 550.34 673.379C551.878 670.302 547.959 667.558 544.784 665.177C541.609 662.795 534.2 657.504 532.083 655.916C529.966 654.329 518.326 647.449 515.944 641.099C513.562 634.749 505.36 575.746 505.36 575.746H427.042H318.032Z" fill="url(#paint3_linear_180_2863)"/>
<rect x="28.0877" y="30.7322" width="767.218" height="432.78" stroke="#E1E1E1" stroke-width="1.14414"/>
<path d="M427.405 541.994C426.806 543.399 426.098 544.692 425.277 545.881C424.158 547.502 423.242 548.625 422.536 549.248C421.441 550.27 420.269 550.794 419.013 550.824C418.112 550.824 417.024 550.563 415.759 550.035C414.489 549.508 413.322 549.248 412.256 549.248C411.137 549.248 409.937 549.508 408.653 550.035C407.367 550.563 406.332 550.839 405.54 550.866C404.336 550.918 403.136 550.38 401.937 549.248C401.173 548.57 400.216 547.408 399.071 545.762C397.841 544.005 396.831 541.967 396.039 539.643C395.191 537.133 394.766 534.703 394.766 532.35C394.766 529.655 395.339 527.33 396.487 525.382C397.389 523.817 398.589 522.583 400.092 521.677C401.594 520.771 403.217 520.309 404.965 520.28C405.921 520.28 407.176 520.58 408.734 521.171C410.289 521.764 411.287 522.065 411.724 522.065C412.051 522.065 413.16 521.713 415.039 521.012C416.817 520.362 418.317 520.093 419.546 520.199C422.876 520.472 425.377 521.806 427.041 524.209C424.063 526.043 422.59 528.611 422.619 531.905C422.646 534.471 423.562 536.607 425.363 538.302C426.179 539.089 427.09 539.698 428.104 540.13C427.884 540.777 427.652 541.398 427.405 541.994ZM419.768 511.457C419.768 513.468 419.045 515.346 417.603 517.084C415.864 519.151 413.76 520.345 411.478 520.157C411.449 519.915 411.432 519.661 411.432 519.394C411.432 517.464 412.26 515.397 413.729 513.708C414.462 512.852 415.395 512.141 416.526 511.573C417.655 511.014 418.722 510.705 419.726 510.652C419.756 510.921 419.768 511.19 419.768 511.457V511.457Z" fill="#C8C8C8"/>
<defs>
<filter id="filter0_d_180_2863" x="78.8378" y="627.064" width="665.719" height="67.7503" filterUnits="userSpaceOnUse" color-interpolation-filters="sRGB">
<feFlood flood-opacity="0" result="BackgroundImageFix"/>
<feColorMatrix in="SourceAlpha" type="matrix" values="0 0 0 0 0 0 0 0 0 0 0 0 0 0 0 0 0 0 127 0" result="hardAlpha"/>
<feOffset/>
<feGaussianBlur stdDeviation="15.7471"/>
<feColorMatrix type="matrix" values="0 0 0 0 0 0 0 0 0 0 0 0 0 0 0 0 0 0 0.46 0"/>
<feBlend mode="normal" in2="BackgroundImageFix" result="effect1_dropShadow_180_2863"/>
<feBlend mode="normal" in="SourceGraphic" in2="effect1_dropShadow_180_2863" result="shape"/>
</filter>
<filter id="filter1_d_180_2863" x="270.257" y="668.116" width="282.947" height="14.9349" filterUnits="userSpaceOnUse" color-interpolation-filters="sRGB">
<feFlood flood-opacity="0" result="BackgroundImageFix"/>
<feColorMatrix in="SourceAlpha" type="matrix" values="0 0 0 0 0 0 0 0 0 0 0 0 0 0 0 0 0 0 127 0" result="hardAlpha"/>
<feOffset dy="1.14414"/>
<feGaussianBlur stdDeviation="0.953447"/>
<feColorMatrix type="matrix" values="0 0 0 0 0 0 0 0 0 0 0 0 0 0 0 0 0 0 0.38 0"/>
<feBlend mode="normal" in2="BackgroundImageFix" result="effect1_dropShadow_180_2863"/>
<feBlend mode="normal" in="SourceGraphic" in2="effect1_dropShadow_180_2863" result="shape"/>
</filter>
<linearGradient id="paint0_linear_180_2863" x1="411.702" y1="676.287" x2="411.702" y2="680.785" gradientUnits="userSpaceOnUse">
<stop offset="0.474551" stop-color="#D4D4D4"/>
<stop offset="1" stop-color="#B4B4B4"/>
</linearGradient>
<radialGradient id="paint1_radial_180_2863" cx="0" cy="0" r="1" gradientUnits="userSpaceOnUse" gradientTransform="translate(411.696 653.27) rotate(90) scale(71.9678 476.948)">
<stop stop-color="#DBDBDB"/>
<stop offset="1" stop-color="white" stop-opacity="0"/>
</radialGradient>
<linearGradient id="paint2_linear_180_2863" x1="411.696" y1="575.746" x2="411.696" y2="676.301" gradientUnits="userSpaceOnUse">
<stop stop-color="white" stop-opacity="0"/>
<stop offset="0.541436" stop-color="white"/>
<stop offset="1" stop-color="white" stop-opacity="0"/>
</linearGradient>
<linearGradient id="paint3_linear_180_2863" x1="411.696" y1="575.746" x2="411.696" y2="646.126" gradientUnits="userSpaceOnUse">
<stop stop-color="#D7D7D7"/>
<stop offset="1" stop-color="white" stop-opacity="0"/>
</linearGradient>
</defs>
</svg>
