<svg width="961" height="589" viewBox="0 0 961 589" fill="none" xmlns="http://www.w3.org/2000/svg">
<path d="M0 9.99999C0 4.47714 4.47715 0 10 0H951C956.523 0 961 4.47715 961 10V579C961 584.523 956.523 589 951 589H10C4.47716 589 0 584.523 0 579V9.99999Z" fill="white"/>
<rect y="53" width="961" height="536" fill="white"/>
<g filter="url(#filter0_di_180_4273)">
<path d="M0 10C0 4.47715 4.47715 0 10 0H951C956.523 0 961 4.47715 961 10V53H0V10Z" fill="white"/>
<path d="M809.498 34.4727C814.13 34.4727 817.965 30.6294 817.965 26.0059C817.965 21.374 814.122 17.5391 809.49 17.5391C804.866 17.5391 801.031 21.374 801.031 26.0059C801.031 30.6294 804.875 34.4727 809.498 34.4727ZM809.498 33.0615C805.58 33.0615 802.451 29.9238 802.451 26.0059C802.451 22.0879 805.572 18.9502 809.49 18.9502C813.408 18.9502 816.545 22.0879 816.554 26.0059C816.562 29.9238 813.416 33.0615 809.498 33.0615ZM809.498 21.7808C809.141 21.7808 808.875 22.0381 808.875 22.4033V26.5537L808.942 28.3052L808.112 27.3091L807.124 26.313C807.008 26.2051 806.858 26.1304 806.684 26.1304C806.344 26.1304 806.086 26.396 806.086 26.728C806.086 26.9023 806.136 27.0518 806.244 27.1597L809.017 29.9238C809.183 30.0898 809.324 30.1562 809.498 30.1562C809.681 30.1562 809.83 30.0815 809.988 29.9238L812.752 27.1597C812.86 27.0518 812.926 26.9023 812.926 26.728C812.926 26.396 812.661 26.1304 812.32 26.1304C812.138 26.1304 811.988 26.1968 811.88 26.313L810.901 27.3091L810.054 28.3135L810.121 26.5537V22.4033C810.121 22.0381 809.863 21.7808 809.498 21.7808Z" fill="#737373"/>
<path d="M850.5 28.2666C850.857 28.2666 851.156 27.9678 851.156 27.6191V19.0942L851.106 17.8491L851.67 18.4385L852.924 19.7832C853.04 19.916 853.214 19.9824 853.372 19.9824C853.721 19.9824 853.978 19.7334 853.978 19.3931C853.978 19.2188 853.912 19.0859 853.787 18.9614L850.981 16.2554C850.815 16.0894 850.666 16.0312 850.5 16.0312C850.334 16.0312 850.185 16.0894 850.019 16.2554L847.213 18.9614C847.088 19.0859 847.014 19.2188 847.014 19.3931C847.014 19.7334 847.271 19.9824 847.611 19.9824C847.777 19.9824 847.952 19.916 848.068 19.7832L849.33 18.4385L849.894 17.8491L849.836 19.0942V27.6191C849.836 27.9678 850.143 28.2666 850.5 28.2666ZM845.735 34.7661H855.256C856.991 34.7661 857.863 33.9028 857.863 32.1929V23.9087C857.863 22.1987 856.991 21.3354 855.256 21.3354H852.94V22.6719H855.231C856.053 22.6719 856.526 23.1201 856.526 23.9834V32.1182C856.526 32.9814 856.053 33.4297 855.231 33.4297H845.752C844.922 33.4297 844.465 32.9814 844.465 32.1182V23.9834C844.465 23.1201 844.922 22.6719 845.752 22.6719H848.051V21.3354H845.735C844 21.3354 843.129 22.1987 843.129 23.9087V32.1929C843.129 33.9028 844 34.7661 845.735 34.7661Z" fill="#737373"/>
<path d="M891.5 33.0059C891.907 33.0059 892.248 32.6821 892.248 32.2837V26.7637H897.61C898.008 26.7637 898.349 26.4233 898.349 26.0166C898.349 25.6099 898.008 25.2778 897.61 25.2778H892.248V19.7495C892.248 19.3511 891.907 19.0273 891.5 19.0273C891.094 19.0273 890.762 19.3511 890.762 19.7495V25.2778H885.391C884.993 25.2778 884.652 25.6099 884.652 26.0166C884.652 26.4233 884.993 26.7637 885.391 26.7637H890.762V32.2837C890.762 32.6821 891.094 33.0059 891.5 33.0059Z" fill="#737373"/>
<path d="M926.325 30.8711H927.745V32.1411C927.745 33.8511 928.608 34.7144 930.351 34.7144H938.685C940.412 34.7144 941.283 33.8511 941.283 32.1411V23.7407C941.283 22.0308 940.412 21.1675 938.685 21.1675H937.257V19.8975C937.257 18.1875 936.386 17.3242 934.659 17.3242H926.325C924.582 17.3242 923.719 18.1875 923.719 19.8975V28.2979C923.719 30.0078 924.582 30.8711 926.325 30.8711ZM926.342 29.5347C925.512 29.5347 925.055 29.0864 925.055 28.2231V19.9722C925.055 19.1089 925.512 18.6606 926.342 18.6606H934.634C935.456 18.6606 935.921 19.1089 935.921 19.9722V21.1675H930.351C928.608 21.1675 927.745 22.0225 927.745 23.7407V29.5347H926.342ZM930.368 33.3779C929.546 33.3779 929.081 32.9297 929.081 32.0664V23.8154C929.081 22.9521 929.546 22.5039 930.368 22.5039H938.66C939.482 22.5039 939.947 22.9521 939.947 23.8154V32.0664C939.947 32.9297 939.482 33.3779 938.66 33.3779H930.368Z" fill="#737373"/>
<path d="M153.265 32.9873L146.682 26.5625C146.524 26.4048 146.441 26.2139 146.441 26.0063C146.441 25.7905 146.533 25.583 146.69 25.4502L153.265 19.0171C153.406 18.876 153.588 18.793 153.804 18.793C154.236 18.793 154.56 19.125 154.56 19.5566C154.56 19.7559 154.477 19.9551 154.344 20.0962L148.301 26.0063L154.344 31.9165C154.477 32.0576 154.56 32.2485 154.56 32.4561C154.56 32.8877 154.236 33.2114 153.804 33.2114C153.588 33.2114 153.406 33.1284 153.265 32.9873Z" fill="#737373"/>
<path d="M180.197 33.2197C180.413 33.2197 180.595 33.1367 180.736 32.9956L187.319 26.5625C187.477 26.4048 187.56 26.2139 187.56 26.0063C187.56 25.7905 187.477 25.5913 187.319 25.4502L180.745 19.0254C180.595 18.876 180.413 18.793 180.197 18.793C179.765 18.793 179.441 19.125 179.441 19.5566C179.441 19.7559 179.524 19.9551 179.657 20.0962L185.7 26.0063L179.657 31.9165C179.524 32.0576 179.441 32.2485 179.441 32.4561C179.441 32.8877 179.765 33.2197 180.197 33.2197Z" fill="#BFBFBF"/>
<path d="M101.321 33.6606H115.682C117.425 33.6606 118.288 32.7974 118.288 31.0874V20.9521C118.288 19.2422 117.425 18.3789 115.682 18.3789H101.321C99.5864 18.3789 98.7148 19.2339 98.7148 20.9521V31.0874C98.7148 32.8057 99.5864 33.6606 101.321 33.6606ZM101.338 32.3242C100.508 32.3242 100.051 31.8843 100.051 31.021V21.0186C100.051 20.1553 100.508 19.7153 101.338 19.7153H105.04V32.3242H101.338ZM115.665 19.7153C116.487 19.7153 116.952 20.1553 116.952 21.0186V31.021C116.952 31.8843 116.487 32.3242 115.665 32.3242H106.343V19.7153H115.665ZM103.438 22.7949C103.695 22.7949 103.911 22.5708 103.911 22.3301C103.911 22.0811 103.695 21.8652 103.438 21.8652H101.662C101.413 21.8652 101.188 22.0811 101.188 22.3301C101.188 22.5708 101.413 22.7949 101.662 22.7949H103.438ZM103.438 24.9448C103.695 24.9448 103.911 24.7207 103.911 24.4717C103.911 24.2227 103.695 24.0151 103.438 24.0151H101.662C101.413 24.0151 101.188 24.2227 101.188 24.4717C101.188 24.7207 101.413 24.9448 101.662 24.9448H103.438ZM103.438 27.0864C103.695 27.0864 103.911 26.8789 103.911 26.6299C103.911 26.3809 103.695 26.165 103.438 26.165H101.662C101.413 26.165 101.188 26.3809 101.188 26.6299C101.188 26.8789 101.413 27.0864 101.662 27.0864H103.438Z" fill="#737373"/>
<g filter="url(#filter1_i_180_4273)">
<path fill-rule="evenodd" clip-rule="evenodd" d="M27 32C30.3137 32 33 29.3137 33 26C33 22.6863 30.3137 20 27 20C23.6863 20 21 22.6863 21 26C21 29.3137 23.6863 32 27 32Z" fill="#EE6A5F"/>
</g>
<path d="M32.75 26C32.75 29.1756 30.1756 31.75 27 31.75C23.8244 31.75 21.25 29.1756 21.25 26C21.25 22.8244 23.8244 20.25 27 20.25C30.1756 20.25 32.75 22.8244 32.75 26Z" stroke="#CE5347" stroke-width="0.5"/>
<g filter="url(#filter2_i_180_4273)">
<path fill-rule="evenodd" clip-rule="evenodd" d="M47 32C50.3137 32 53 29.3137 53 26C53 22.6863 50.3137 20 47 20C43.6863 20 41 22.6863 41 26C41 29.3137 43.6863 32 47 32Z" fill="#F5BD4F"/>
</g>
<path d="M52.75 26C52.75 29.1756 50.1756 31.75 47 31.75C43.8244 31.75 41.25 29.1756 41.25 26C41.25 22.8244 43.8244 20.25 47 20.25C50.1756 20.25 52.75 22.8244 52.75 26Z" stroke="#D6A243" stroke-width="0.5"/>
<g filter="url(#filter3_i_180_4273)">
<path fill-rule="evenodd" clip-rule="evenodd" d="M67 32C70.3137 32 73 29.3137 73 26C73 22.6863 70.3137 20 67 20C63.6863 20 61 22.6863 61 26C61 29.3137 63.6863 32 67 32Z" fill="#61C454"/>
</g>
<path d="M72.75 26C72.75 29.1756 70.1756 31.75 67 31.75C63.8244 31.75 61.25 29.1756 61.25 26C61.25 22.8244 63.8244 20.25 67 20.25C70.1756 20.25 72.75 22.8244 72.75 26Z" stroke="#58A942" stroke-width="0.5"/>
<g clip-path="url(#clip0_180_4273)">
<path d="M271.765 34.6152C271.898 34.6152 272.114 34.5654 272.321 34.4492C277.044 31.8013 278.663 30.6807 278.663 27.6509V21.3008C278.663 20.4292 278.29 20.1553 277.584 19.8564C276.604 19.4497 273.442 18.3125 272.462 17.9722C272.238 17.8975 271.998 17.8477 271.765 17.8477C271.533 17.8477 271.292 17.9141 271.076 17.9722C270.097 18.2544 266.926 19.458 265.946 19.8564C265.249 20.147 264.867 20.4292 264.867 21.3008V27.6509C264.867 30.6807 266.494 31.793 271.209 34.4492C271.425 34.5654 271.632 34.6152 271.765 34.6152ZM272.097 19.2588C273.351 19.7568 275.783 20.6367 277.069 21.0767C277.293 21.1597 277.343 21.2759 277.343 21.5581V27.3438C277.343 29.9087 276.115 30.5811 272.28 32.9136C272.039 33.063 271.906 33.1045 271.773 33.1128V19.1841C271.856 19.1841 271.964 19.209 272.097 19.2588Z" fill="#737373"/>
<path d="M297.266 18C297.266 14.6863 299.952 12 303.266 12H657.266C660.579 12 663.266 14.6863 663.266 18V34C663.266 37.3137 660.579 40 657.266 40H303.266C299.952 40 297.266 37.3137 297.266 34V18Z" fill="black" fill-opacity="0.05"/>
<g clip-path="url(#clip1_180_4273)">
<path d="M411.477 31.7168H417.055C417.811 31.7168 418.18 31.3418 418.18 30.5215V26.2207C418.18 25.4824 417.875 25.1016 417.248 25.0371V23.5605C417.248 21.3516 415.801 20.2852 414.266 20.2852C412.73 20.2852 411.283 21.3516 411.283 23.5605V25.0664C410.709 25.1543 410.352 25.5293 410.352 26.2207V30.5215C410.352 31.3418 410.721 31.7168 411.477 31.7168ZM412.227 23.4375C412.227 21.9668 413.17 21.1875 414.266 21.1875C415.361 21.1875 416.305 21.9668 416.305 23.4375V25.0312L412.227 25.0371V23.4375Z" fill="#9E9E9E"/>
<path d="M426.292 32H425.114V21.7523H426.292V32ZM427.672 30.1262H428.85V30.1516C428.85 30.4562 428.967 30.7102 429.201 30.9133C429.434 31.113 429.827 31.2129 430.379 31.2129C430.866 31.2129 431.261 31.0944 431.562 30.8574C431.867 30.6204 432.019 30.3411 432.019 30.0195C432.019 29.5828 431.723 29.273 431.13 29.0902L430.526 28.9074L430.125 28.7805L429.307 28.5266C428.373 28.1846 427.906 27.6159 427.906 26.8203C427.906 26.2617 428.131 25.7708 428.581 25.3477C429.035 24.9245 429.709 24.7129 430.602 24.7129C431.483 24.7129 432.109 24.894 432.481 25.2562C432.854 25.6185 433.04 26.0197 433.04 26.4598V26.4852H431.852V26.4598C431.852 26.2228 431.731 26.0366 431.491 25.9012C431.254 25.7658 430.937 25.698 430.541 25.698C430.067 25.698 429.703 25.7962 429.45 25.9926C429.199 26.1889 429.074 26.431 429.074 26.7188C429.074 26.9388 429.155 27.1182 429.318 27.257C429.48 27.3924 429.754 27.516 430.14 27.6277L430.709 27.7852L431.125 27.907C431.701 28.0695 432.058 28.1846 432.197 28.2523C432.339 28.3201 432.483 28.4081 432.628 28.5164C432.828 28.6688 432.975 28.8533 433.07 29.0699C433.165 29.2832 433.212 29.5337 433.212 29.8215C433.212 30.4918 432.972 31.0555 432.491 31.5125C432.011 31.9695 431.31 32.198 430.389 32.198C429.803 32.198 429.318 32.1117 428.932 31.9391C428.549 31.763 428.243 31.5227 428.012 31.218C427.786 30.9099 427.672 30.5544 427.672 30.1516V30.1262ZM435.862 32H434.684V24.9109H435.862V26.1602C436.058 25.8013 436.272 25.522 436.502 25.3223C436.732 25.1225 436.978 24.9719 437.238 24.8703C437.499 24.7654 437.765 24.7129 438.035 24.7129C438.279 24.7129 438.491 24.7484 438.67 24.8195V26.0434C438.389 25.9079 438.093 25.8402 437.782 25.8402C437.338 25.8402 436.906 26.0349 436.487 26.4242C436.07 26.8135 435.862 27.5042 435.862 28.4961V32ZM440.837 32H439.659V21.7523H440.837V32ZM443.147 24.9109H444.335V32C444.335 32.7143 444.249 33.2475 444.076 33.5996C443.907 33.9517 443.631 34.2327 443.248 34.4426C442.869 34.6525 442.458 34.7574 442.014 34.7574C441.696 34.7574 441.352 34.7202 440.983 34.6457V33.7063L441.237 33.7316C441.471 33.7587 441.657 33.7723 441.796 33.7723C442.195 33.7723 442.52 33.6707 442.771 33.4676C443.021 33.2678 443.147 32.7786 443.147 32V24.9109ZM443.147 23.2859V22.1484H444.335V23.2859H443.147ZM447.373 32H446.195V24.9109H447.373V26.1906C447.617 25.7641 447.847 25.4577 448.064 25.2715C448.28 25.0853 448.517 24.9465 448.775 24.8551C449.035 24.7603 449.311 24.7129 449.602 24.7129C449.893 24.7129 450.173 24.7586 450.44 24.85C450.708 24.9414 450.938 25.0785 451.131 25.2613C451.327 25.4408 451.52 25.7505 451.71 26.1906C451.95 25.781 452.187 25.4797 452.421 25.2867C452.658 25.0937 452.9 24.9499 453.147 24.8551C453.394 24.7603 453.658 24.7129 453.939 24.7129C454.342 24.7129 454.706 24.8077 455.031 24.9973C455.356 25.1835 455.606 25.4509 455.782 25.7996C455.958 26.1449 456.046 26.734 456.046 27.5668V32H454.858V28.0594C454.858 27.2232 454.807 26.6951 454.706 26.475C454.608 26.2549 454.471 26.0874 454.294 25.9723C454.122 25.8572 453.91 25.7996 453.66 25.7996C453.308 25.7996 452.983 25.9079 452.685 26.1246C452.39 26.3413 452.153 26.6341 451.974 27.0031C451.798 27.3721 451.71 27.8884 451.71 28.552V32H450.532V28.0594C450.532 27.2232 450.486 26.6951 450.394 26.475C450.303 26.2549 450.158 26.0857 449.958 25.9672C449.758 25.8487 449.545 25.7895 449.318 25.7895C448.996 25.7895 448.68 25.9029 448.368 26.1297C448.057 26.3565 447.813 26.6578 447.637 27.0336C447.461 27.406 447.373 27.9121 447.373 28.552V32ZM464.546 29.3137C464.546 29.8249 464.406 30.3259 464.125 30.8168C463.847 31.3077 463.469 31.6784 462.992 31.9289C462.515 32.176 461.907 32.2996 461.169 32.2996C460.431 32.2996 459.823 32.176 459.346 31.9289C458.872 31.6784 458.495 31.3077 458.214 30.8168C457.936 30.3259 457.797 29.8249 457.797 29.3137C457.797 28.7686 457.955 28.2473 458.269 27.7496C458.584 27.2486 459.063 26.8542 459.707 26.5664C459.202 26.3159 458.823 26.0095 458.569 25.6473C458.315 25.2816 458.188 24.8618 458.188 24.3879C458.188 23.9275 458.313 23.4941 458.564 23.0879C458.818 22.6816 459.185 22.3753 459.666 22.1687C460.147 21.9589 460.648 21.8539 461.169 21.8539C461.694 21.8539 462.195 21.9589 462.672 22.1687C463.153 22.3786 463.519 22.6867 463.769 23.093C464.023 23.4958 464.15 23.9275 464.15 24.3879C464.15 24.8618 464.023 25.2816 463.769 25.6473C463.515 26.0095 463.134 26.3159 462.626 26.5664C463.27 26.8542 463.75 27.2486 464.069 27.7496C464.387 28.2473 464.546 28.7686 464.546 29.3137ZM461.169 26.0891C461.677 26.0891 462.095 25.9266 462.423 25.6016C462.755 25.2766 462.921 24.894 462.921 24.4539C462.921 23.9698 462.743 23.5805 462.388 23.2859C462.036 22.988 461.629 22.8391 461.169 22.8391C460.712 22.8391 460.306 22.988 459.95 23.2859C459.598 23.5805 459.422 23.9698 459.422 24.4539C459.422 24.894 459.586 25.2766 459.915 25.6016C460.243 25.9266 460.661 26.0891 461.169 26.0891ZM461.169 27.0742C460.797 27.0742 460.443 27.1673 460.108 27.3535C459.776 27.5397 459.512 27.8089 459.316 28.1609C459.123 28.5096 459.026 28.8685 459.026 29.2375C459.026 29.593 459.117 29.94 459.3 30.2785C459.487 30.6171 459.749 30.8743 460.087 31.0504C460.429 31.223 460.79 31.3094 461.169 31.3094C461.548 31.3094 461.907 31.223 462.246 31.0504C462.588 30.8743 462.85 30.6171 463.033 30.2785C463.219 29.94 463.312 29.593 463.312 29.2375C463.312 28.8685 463.214 28.5096 463.017 28.1609C462.825 27.8089 462.56 27.5397 462.225 27.3535C461.894 27.1673 461.541 27.0742 461.169 27.0742ZM469.775 32.2996C468.702 32.2996 467.834 31.8307 467.17 30.893C466.51 29.9552 466.18 28.6823 466.18 27.0742C466.18 25.4661 466.51 24.1949 467.17 23.2605C467.834 22.3228 468.702 21.8539 469.775 21.8539C470.848 21.8539 471.715 22.3228 472.375 23.2605C473.039 24.1949 473.371 25.4661 473.371 27.0742C473.371 28.6823 473.039 29.9552 472.375 30.893C471.715 31.8307 470.848 32.2996 469.775 32.2996ZM469.775 31.3094C470.608 31.3094 471.211 30.8811 471.583 30.0246C471.955 29.1647 472.142 28.1812 472.142 27.0742C472.142 25.9706 471.955 24.9888 471.583 24.1289C471.211 23.269 470.608 22.8391 469.775 22.8391C468.946 22.8391 468.345 23.269 467.973 24.1289C467.6 24.9888 467.414 25.9706 467.414 27.0742C467.414 28.1812 467.6 29.1647 467.973 30.0246C468.345 30.8811 468.946 31.3094 469.775 31.3094ZM477.965 32V23.3723L475.974 24.1645V23.0676L477.965 22.1484H479.148V32H477.965ZM486.571 32V23.3723L484.581 24.1645V23.0676L486.571 22.1484H487.754V32H486.571ZM494.07 32H492.395V30.3242H494.07V32ZM500.955 30.502C500.715 30.9996 500.402 31.3737 500.016 31.6242C499.63 31.8747 499.173 32 498.645 32C497.802 32 497.106 31.6699 496.557 31.0098C496.009 30.3462 495.735 29.4745 495.735 28.3945C495.735 27.6836 495.857 27.037 496.1 26.4547C496.348 25.869 496.693 25.4323 497.136 25.1445C497.583 24.8568 498.105 24.7129 498.7 24.7129C499.144 24.7129 499.542 24.8009 499.894 24.977C500.246 25.153 500.6 25.5085 500.955 26.0434V24.9109H502.133V30.7051C502.133 32.1608 501.981 33.1206 501.676 33.5844C501.372 34.0516 500.986 34.3969 500.518 34.6203C500.051 34.8471 499.503 34.9605 498.873 34.9605C498.287 34.9605 497.763 34.8725 497.299 34.6965C496.838 34.5238 496.486 34.2852 496.243 33.9805C496.002 33.6792 495.882 33.366 495.882 33.041V32.9344H497.065V33.0359C497.065 33.3474 497.235 33.5979 497.573 33.7875C497.912 33.9771 498.34 34.0719 498.858 34.0719C499.281 34.0719 499.643 33.9974 499.945 33.8484C500.249 33.7029 500.493 33.4659 500.676 33.1375C500.862 32.8125 500.955 32.2167 500.955 31.35V30.502ZM500.955 28.2422C500.955 27.4839 500.76 26.8711 500.371 26.4039C499.982 25.9333 499.516 25.698 498.975 25.698C498.399 25.698 497.92 25.935 497.538 26.409C497.158 26.8829 496.969 27.5482 496.969 28.4047C496.969 28.9464 497.045 29.4203 497.197 29.8266C497.35 30.2328 497.587 30.5409 497.908 30.7508C498.233 30.9607 498.58 31.0656 498.949 31.0656C499.545 31.0656 500.028 30.8033 500.397 30.2785C500.769 29.7504 500.955 29.0716 500.955 28.2422ZM503.95 24.9109H505.128V32H503.95V24.9109ZM503.95 23.3367V22.1484H505.128V23.3367H503.95ZM511.282 30.9945V31.9848C510.706 32.127 510.266 32.198 509.961 32.198C509.521 32.198 509.123 32.11 508.768 31.934C508.416 31.7546 508.147 31.4956 507.961 31.157C507.778 30.8185 507.686 30.2785 507.686 29.5371V25.891H506.457V24.9109H507.686V23.2352H508.87V24.9109H510.936V25.891H508.87V29.202C508.87 29.8283 508.917 30.2633 509.012 30.507C509.11 30.7474 509.264 30.9251 509.474 31.0402C509.684 31.1553 509.934 31.2129 510.225 31.2129C510.459 31.2129 510.811 31.1401 511.282 30.9945ZM513.835 32H512.657V21.7523H513.835V26.1348C514.085 25.7488 514.327 25.4628 514.561 25.2766C514.798 25.0904 515.043 24.9499 515.297 24.8551C515.554 24.7603 515.841 24.7129 516.155 24.7129C516.599 24.7129 516.997 24.8043 517.349 24.9871C517.704 25.1665 517.978 25.434 518.171 25.7895C518.368 26.1415 518.466 26.7069 518.466 27.4855V32H517.283V27.9934C517.283 27.3603 517.24 26.9117 517.156 26.6477C517.071 26.3802 516.91 26.172 516.673 26.023C516.436 25.8741 516.166 25.7996 515.861 25.7996C515.516 25.7996 515.185 25.9012 514.871 26.1043C514.559 26.3074 514.309 26.5918 514.119 26.9574C513.929 27.3197 513.835 27.8393 513.835 28.5164V32ZM524.726 24.9109H525.909V32H524.726V30.7609C524.482 31.1435 524.242 31.4296 524.005 31.6191C523.768 31.8087 523.524 31.9526 523.274 32.0508C523.023 32.149 522.751 32.198 522.456 32.198C521.799 32.198 521.242 32.0135 520.785 31.6445C520.328 31.2721 520.1 30.5257 520.1 29.4051V24.9109H521.283V28.9074C521.283 29.9434 521.42 30.5697 521.694 30.7863C521.969 31.003 522.309 31.1113 522.715 31.1113C523.067 31.1113 523.399 31.0098 523.71 30.8066C524.022 30.6001 524.269 30.3124 524.452 29.9434C524.635 29.571 524.726 29.0547 524.726 28.3945V24.9109ZM528.823 32H527.64C527.66 31.7664 527.677 31.4837 527.69 31.152C527.707 30.8168 527.719 30.5443 527.726 30.3344C527.736 30.1211 527.741 29.9772 527.741 29.9027V21.7523H528.924V26.1398C529.182 25.737 529.424 25.4458 529.651 25.2664C529.877 25.0836 530.125 24.9465 530.392 24.8551C530.659 24.7603 530.942 24.7129 531.24 24.7129C531.778 24.7129 532.271 24.8602 532.718 25.1547C533.168 25.4492 533.517 25.8893 533.764 26.475C534.014 27.0573 534.14 27.7124 534.14 28.4402C534.14 29.5168 533.879 30.4122 533.358 31.1266C532.84 31.8409 532.115 32.198 531.184 32.198C530.88 32.198 530.593 32.154 530.326 32.066C530.059 31.978 529.82 31.8493 529.61 31.6801C529.4 31.5074 529.172 31.201 528.924 30.7609L528.884 31.2738C528.867 31.5582 528.847 31.8003 528.823 32ZM528.924 28.4555C528.924 29.2612 529.097 29.923 529.442 30.441C529.791 30.9556 530.279 31.2129 530.905 31.2129C531.48 31.2129 531.958 30.9844 532.337 30.5273C532.719 30.0703 532.911 29.3865 532.911 28.4758C532.911 27.4128 532.716 26.6764 532.327 26.2668C531.937 25.8538 531.474 25.6473 530.935 25.6473C530.56 25.6473 530.209 25.7607 529.884 25.9875C529.559 26.2109 529.317 26.5461 529.158 26.993C529.002 27.4398 528.924 27.9273 528.924 28.4555ZM537.48 32H535.804V30.3242H537.48V32ZM539.49 24.9109H540.668V32H539.49V24.9109ZM539.49 23.3367V22.1484H540.668V23.3367H539.49ZM545.491 32.198C544.566 32.198 543.776 31.8832 543.119 31.2535C542.466 30.6238 542.139 29.6895 542.139 28.4504C542.139 27.2147 542.466 26.2837 543.119 25.6574C543.776 25.0277 544.566 24.7129 545.491 24.7129C546.415 24.7129 547.204 25.0277 547.857 25.6574C548.511 26.2837 548.837 27.2147 548.837 28.4504C548.837 29.6895 548.511 30.6238 547.857 31.2535C547.204 31.8832 546.415 32.198 545.491 32.198ZM545.491 31.2129C546.127 31.2129 546.638 30.9607 547.024 30.4563C547.414 29.9484 547.608 29.2798 547.608 28.4504C547.608 27.6243 547.414 26.9591 547.024 26.4547C546.638 25.9503 546.127 25.698 545.491 25.698C544.854 25.698 544.341 25.9503 543.952 26.4547C543.566 26.9591 543.373 27.6243 543.373 28.4504C543.373 29.2798 543.566 29.9484 543.952 30.4563C544.341 30.9607 544.854 31.2129 545.491 31.2129Z" fill="#4C4C4C"/>
</g>
<path d="M651.549 25.6152C651.695 25.6152 651.807 25.5684 651.889 25.4805L654.303 23.0547C654.408 22.9551 654.449 22.8379 654.449 22.7031C654.449 22.5742 654.396 22.4453 654.303 22.3516L651.889 19.9023C651.807 19.8086 651.689 19.7617 651.549 19.7617C651.285 19.7617 651.086 19.9727 651.086 20.2422C651.086 20.3652 651.133 20.4824 651.215 20.5762L652.779 22.1113C652.445 22.0527 652.105 22.0176 651.766 22.0176C648.895 22.0176 646.586 24.3203 646.586 27.1914C646.586 30.0684 648.895 32.377 651.766 32.377C654.637 32.377 656.939 30.0684 656.939 27.1914C656.939 26.9102 656.74 26.7051 656.453 26.7051C656.178 26.7051 655.996 26.9102 655.996 27.1914C655.996 29.5469 654.115 31.4336 651.766 31.4336C649.416 31.4336 647.529 29.5469 647.529 27.1914C647.529 24.8418 649.416 22.9609 651.766 22.9609C652.211 22.9609 652.621 22.9961 652.973 23.0723L651.221 24.8125C651.133 24.9062 651.086 25.0234 651.086 25.1465C651.086 25.416 651.285 25.6152 651.549 25.6152Z" fill="#797979"/>
</g>
</g>
<defs>
<filter id="filter0_di_180_4273" x="0" y="0" width="961" height="53.5" filterUnits="userSpaceOnUse" color-interpolation-filters="sRGB">
<feFlood flood-opacity="0" result="BackgroundImageFix"/>
<feColorMatrix in="SourceAlpha" type="matrix" values="0 0 0 0 0 0 0 0 0 0 0 0 0 0 0 0 0 0 127 0" result="hardAlpha"/>
<feOffset dy="0.5"/>
<feColorMatrix type="matrix" values="0 0 0 0 0 0 0 0 0 0 0 0 0 0 0 0 0 0 0.15 0"/>
<feBlend mode="normal" in2="BackgroundImageFix" result="effect1_dropShadow_180_4273"/>
<feBlend mode="normal" in="SourceGraphic" in2="effect1_dropShadow_180_4273" result="shape"/>
<feColorMatrix in="SourceAlpha" type="matrix" values="0 0 0 0 0 0 0 0 0 0 0 0 0 0 0 0 0 0 127 0" result="hardAlpha"/>
<feOffset dy="-0.5"/>
<feComposite in2="hardAlpha" operator="arithmetic" k2="-1" k3="1"/>
<feColorMatrix type="matrix" values="0 0 0 0 0 0 0 0 0 0 0 0 0 0 0 0 0 0 0.05 0"/>
<feBlend mode="normal" in2="shape" result="effect2_innerShadow_180_4273"/>
</filter>
<filter id="filter1_i_180_4273" x="21" y="20" width="12" height="12" filterUnits="userSpaceOnUse" color-interpolation-filters="sRGB">
<feFlood flood-opacity="0" result="BackgroundImageFix"/>
<feBlend mode="normal" in="SourceGraphic" in2="BackgroundImageFix" result="shape"/>
<feColorMatrix in="SourceAlpha" type="matrix" values="0 0 0 0 0 0 0 0 0 0 0 0 0 0 0 0 0 0 127 0" result="hardAlpha"/>
<feOffset/>
<feGaussianBlur stdDeviation="3"/>
<feComposite in2="hardAlpha" operator="arithmetic" k2="-1" k3="1"/>
<feColorMatrix type="matrix" values="0 0 0 0 0.92549 0 0 0 0 0.427451 0 0 0 0 0.384314 0 0 0 1 0"/>
<feBlend mode="normal" in2="shape" result="effect1_innerShadow_180_4273"/>
</filter>
<filter id="filter2_i_180_4273" x="41" y="20" width="12" height="12" filterUnits="userSpaceOnUse" color-interpolation-filters="sRGB">
<feFlood flood-opacity="0" result="BackgroundImageFix"/>
<feBlend mode="normal" in="SourceGraphic" in2="BackgroundImageFix" result="shape"/>
<feColorMatrix in="SourceAlpha" type="matrix" values="0 0 0 0 0 0 0 0 0 0 0 0 0 0 0 0 0 0 127 0" result="hardAlpha"/>
<feOffset/>
<feGaussianBlur stdDeviation="3"/>
<feComposite in2="hardAlpha" operator="arithmetic" k2="-1" k3="1"/>
<feColorMatrix type="matrix" values="0 0 0 0 0.960784 0 0 0 0 0.768627 0 0 0 0 0.317647 0 0 0 1 0"/>
<feBlend mode="normal" in2="shape" result="effect1_innerShadow_180_4273"/>
</filter>
<filter id="filter3_i_180_4273" x="61" y="20" width="12" height="12" filterUnits="userSpaceOnUse" color-interpolation-filters="sRGB">
<feFlood flood-opacity="0" result="BackgroundImageFix"/>
<feBlend mode="normal" in="SourceGraphic" in2="BackgroundImageFix" result="shape"/>
<feColorMatrix in="SourceAlpha" type="matrix" values="0 0 0 0 0 0 0 0 0 0 0 0 0 0 0 0 0 0 127 0" result="hardAlpha"/>
<feOffset/>
<feGaussianBlur stdDeviation="3"/>
<feComposite in2="hardAlpha" operator="arithmetic" k2="-1" k3="1"/>
<feColorMatrix type="matrix" values="0 0 0 0 0.407843 0 0 0 0 0.8 0 0 0 0 0.345098 0 0 0 1 0"/>
<feBlend mode="normal" in2="shape" result="effect1_innerShadow_180_4273"/>
</filter>
<clipPath id="clip0_180_4273">
<rect width="450.469" height="28" fill="white" transform="translate(255.266 12)"/>
</clipPath>
<clipPath id="clip1_180_4273">
<rect x="410.352" y="17" width="139.828" height="18" fill="white"/>
</clipPath>
</defs>
</svg>
