<svg width="300" height="300" viewBox="0 0 300 300" fill="none" xmlns="http://www.w3.org/2000/svg">
<g clip-path="url(#clip0)">
<path d="M150 0.312988C114.341 0.312988 48.588 8.16682 15.1026 24.7433C-28.9842 157.806 30.9737 248.292 150 299.65C269.026 248.292 328.984 157.358 284.897 24.7441C251.378 8.16682 185.658 0.312988 150 0.312988Z" fill="#9C824A" stroke="#9C824A" stroke-width="0.716088" stroke-miterlimit="282"/>
<path d="M150 8.86816C114.967 8.86816 75.5217 12.6829 23.8607 30.6336C-14.5964 146.783 30.0182 239.878 150 290.617C269.981 239.878 314.562 146.783 276.105 30.6336C224.444 12.6829 185.033 8.86816 150 8.86816Z" fill="#023474" stroke="#023474" stroke-width="0.716088" stroke-miterlimit="282"/>
<path d="M149.835 8.75586C114.966 8.75586 77.5296 13.159 43.7474 24.0426C8.71456 142.969 34.5617 229.808 150.033 290.533L149.835 8.75586ZM150.033 290.533C265.502 229.808 291.317 142.969 256.283 24.0426C222.502 13.159 185.098 8.75586 150.23 8.75586L150.033 290.533Z" fill="white" stroke="white" stroke-width="0.716088" stroke-miterlimit="282"/>
<path d="M150.033 8.72852C114.967 8.72852 79.4728 13.2438 50.63 21.7982C14.3456 146.447 43.4844 230.621 150.065 288.149L150.033 8.72852Z" fill="#EF0107" stroke="#EF0107" stroke-width="0.716088" stroke-miterlimit="282"/>
<path d="M150.099 8.72852C185.164 8.72852 220.659 13.2438 249.534 21.7982C285.819 146.447 256.679 230.621 150.066 288.149L150.099 8.72852Z" fill="#DB0007" stroke="#DB0007" stroke-width="0.716088" stroke-miterlimit="282"/>
<path d="M104.727 196.822C89.2519 205.855 76.9379 209.108 62.6477 212.334L54.0215 200.918C67.1594 195.253 80.7574 187.371 94.4548 175.956C95.607 187.033 101.664 194.886 104.727 196.822Z" fill="white"/>
<path d="M102.619 196.346C87.9346 204.928 67.4869 210.903 44.0769 213.82L39.3027 207.65C59.3542 201.253 78.7146 191.718 93.7293 178.311C96.0014 186.893 99.4582 192.588 102.619 196.346Z" fill="#9C824A"/>
<path d="M63.5039 143.922C63.5039 148.719 58.9607 152.59 53.3302 152.59C47.6997 152.59 43.123 148.719 43.123 143.922C43.123 139.126 47.6997 135.256 53.3302 135.256C58.9607 135.256 63.5039 139.126 63.5039 143.922Z" fill="white"/>
<path d="M62.417 126.841V159.546H92.6756C94.6508 148.579 101.961 136.938 118.522 126.841H62.417Z" fill="white"/>
<path d="M63.6366 159.546C56.8863 159.63 51.3225 152.421 51.2233 143.39C51.1574 134.357 56.5578 126.953 63.3406 126.841C63.4065 126.841 63.4724 126.841 63.5716 126.841" fill="white"/>
<path d="M59.2234 143.923C59.2234 147.625 56.0626 150.599 52.1771 150.599C48.2917 150.599 45.1309 147.626 45.1309 143.923C45.1309 140.22 48.2917 137.247 52.1771 137.247C56.0626 137.246 59.2234 140.22 59.2234 143.923Z" fill="#9C824A"/>
<path d="M63.2412 128.552V157.946H93.2698C95.6402 148.186 101.468 137.808 116.021 128.552H63.2412Z" fill="#9C824A"/>
<path d="M64.3601 157.946C58.005 158.059 52.8031 151.552 52.7047 143.446C52.6389 135.34 57.7424 128.664 64.0966 128.552C64.1625 128.552 64.2283 128.552 64.2942 128.552" fill="#9C824A"/>
<path d="M207.455 167.203C207.455 194.495 181.51 216.596 149.473 216.596C117.469 216.596 91.4912 194.495 91.4912 167.203C91.4912 139.912 117.469 117.809 149.473 117.809C181.51 117.809 207.455 139.912 207.455 167.203Z" fill="white"/>
<path d="M204.427 167.203C204.427 193.065 179.831 214.016 149.474 214.016C119.149 214.016 94.5537 193.065 94.5537 167.203C94.5537 141.371 119.149 120.391 149.474 120.391C179.831 120.39 204.427 141.343 204.427 167.203Z" fill="#9C824A"/>
<path d="M195.305 167.203C195.305 188.773 174.792 206.248 149.472 206.248C124.185 206.248 103.673 188.773 103.673 167.203C103.673 145.634 124.185 128.159 149.472 128.159C174.792 128.159 195.305 145.634 195.305 167.203Z" fill="white"/>
<path d="M192.277 167.203C192.277 187.342 173.113 203.638 149.472 203.638C125.865 203.638 106.702 187.342 106.702 167.203C106.702 147.065 125.865 130.769 149.472 130.769C173.113 130.768 192.277 147.065 192.277 167.203Z" fill="#9C824A"/>
<path d="M167.318 167.203C167.351 175.59 159.35 182.406 149.505 182.433C139.628 182.433 131.626 175.618 131.626 167.231V167.203C131.626 158.816 139.594 152.001 149.471 152.001C159.316 151.973 167.317 158.789 167.317 167.175C167.318 167.203 167.318 167.203 167.318 167.203Z" fill="white"/>
<path d="M165.212 167.203C165.212 174.609 158.197 180.611 149.506 180.611C140.814 180.611 133.768 174.637 133.734 167.232V167.204C133.734 159.799 140.781 153.796 149.473 153.796C158.165 153.796 165.212 159.771 165.212 167.175V167.203Z" fill="#9C824A"/>
<path d="M157.572 167.203C157.572 170.989 153.95 174.074 149.473 174.102C145.028 174.102 141.406 171.018 141.406 167.203C141.406 163.389 145.028 160.332 149.473 160.304C153.949 160.303 157.572 163.389 157.572 167.203Z" fill="white"/>
<path d="M155.335 167.203C155.335 169.952 152.733 172.195 149.474 172.195C146.247 172.195 143.613 169.979 143.613 167.203C143.613 164.455 146.247 162.211 149.474 162.211C152.7 162.211 155.335 164.426 155.335 167.203Z" fill="#9C824A"/>
<path d="M155.499 129.927H143.316V154.132H155.499V129.927Z" fill="white"/>
<path d="M153.621 126.448H145.226V157.218H153.621V126.448Z" fill="#9C824A"/>
<path d="M183.419 143.585L190.071 152.28L166.233 165.465L159.615 156.769L183.419 143.585Z" fill="white"/>
<path d="M187.865 143.053L192.442 149.056L162.15 165.829L157.573 159.799L187.865 143.053Z" fill="#9C824A"/>
<path d="M132.385 169.167L138.904 177.918L114.901 190.877L108.382 182.097L132.385 169.167Z" fill="white"/>
<path d="M136.467 168.662L140.978 174.72L110.489 191.185L105.978 185.126L136.467 168.662Z" fill="#9C824A"/>
<path d="M155.499 181.088H143.316V205.292H155.499V181.088Z" fill="white"/>
<path d="M153.621 177.638H145.226V208.379H153.621V177.638Z" fill="#9C824A"/>
<path d="M137.587 178.507C139.234 179.684 141.044 180.751 143.316 181.564L143.25 203.161C131.759 201.899 123.067 197.075 116.481 190.204L137.62 178.507" fill="#EF0107"/>
<path d="M137.587 178.507C139.234 179.684 141.044 180.751 143.316 181.564L143.25 203.161C131.759 201.899 123.067 197.075 116.481 190.204L137.62 178.507" stroke="#EF0107" stroke-width="0.281288" stroke-miterlimit="282"/>
<path d="M161.326 178.591C159.646 179.741 157.868 180.835 155.597 181.62L155.629 203.218C167.12 201.956 175.813 197.132 182.398 190.26L161.293 178.592" fill="#DB0007"/>
<path d="M161.326 178.591C159.646 179.741 157.868 180.835 155.597 181.62L155.629 203.218C167.12 201.956 175.813 197.132 182.398 190.26L161.293 178.592" stroke="#DB0007" stroke-width="0.281288" stroke-miterlimit="282"/>
<path d="M167.088 169.531L192.243 166.95C192.441 172.307 190.926 177.019 188.786 181.536L167.021 169.531" fill="#DB0007"/>
<path d="M167.121 169.447C167.219 169.111 167.187 168.803 167.352 167.821L192.179 165.072C192.277 166.054 192.211 166.418 192.179 166.867L167.121 169.447Z" fill="white" stroke="white" stroke-width="0.281288" stroke-miterlimit="282"/>
<path d="M203.867 151.637H236.431C235.41 154.918 234.422 158.255 229.746 159.743C222.272 162.128 206.765 164.427 206.765 164.427C206.468 160.808 205.513 155.899 203.867 151.637Z" fill="white"/>
<path d="M181.182 126.365L266.261 126.448L263.265 152.926L205.151 155.507C202.023 143.67 191.453 132.367 181.182 126.365Z" fill="white"/>
<path d="M184.21 128.244L292.832 128.327L288.683 149.898L204.393 153.432C201.067 142.717 193.462 134.891 184.21 128.244Z" fill="#9C824A"/>
<path d="M203.867 151.637H233.861C232.874 154.553 232.182 157.217 227.771 158.536C220.758 160.667 206.633 162.35 206.633 162.35C206.04 158.845 205.184 155.282 203.867 151.637Z" fill="#9C824A"/>
<path d="M170.941 87.9098C170.941 89.0882 170.645 92.3138 170.481 93.211H187.339C186.316 89.3955 185.855 84.0951 185.724 79.9999C185.724 80.2803 185.429 71.7812 185.429 71.7812C185.429 71.192 185.724 70.2948 186.152 70.0144C186.746 69.4252 187.339 69.4252 188.063 69.4252C188.787 69.1448 190.104 69.1448 190.269 71.4732L190.697 80.2803C190.861 84.4031 190.861 89.9854 190.269 93.211H206.501C206.369 92.0326 205.909 89.0874 205.777 88.2179C207.818 92.0326 212.23 94.0798 218.091 94.0798C221.581 94.0798 224.248 92.929 226.289 91.7514C226.289 92.0318 227.146 93.211 227.146 93.211H257.306C255.989 89.3955 255.132 84.0951 254.672 79.9999L250.424 51.2217L234.916 48.8658C236.234 52.6805 237.123 58.2621 237.681 62.0768L240.052 80.5891C240.48 83.8147 240.777 87.3491 240.777 91.163V91.4434L240.183 90.265C238.999 87.909 238.438 84.9923 237.977 80.5883L237.418 74.698C236.529 65.3016 230.537 61.2057 217.333 61.2057C215.16 61.2057 209.596 61.4861 206.205 62.3841L207.093 72.9304L210.617 71.1912C213.548 69.7048 215.721 69.1156 218.353 69.1156C220.429 69.1156 221.745 69.7056 222.338 70.8832C219.837 71.1912 217.069 71.7804 213.975 72.9304C209.3 74.6972 206.369 77.3612 205.052 80.2787V79.9983L204.591 70.2932C204.329 64.1224 199.62 60.0273 192.441 60.0273C189.248 60.0273 186.316 60.8969 183.683 62.3833C183.519 62.0745 183.387 61.7933 183.222 61.4853L182.629 60.3069L169.162 59.7177C169.755 61.7933 170.645 67.656 170.777 69.704C170.051 66.7865 168.142 63.5609 164.618 61.2049C161.853 59.7185 158.33 58.8489 154.675 58.8489C149.703 58.8489 144.567 60.6157 141.208 63.5609C137.685 66.4776 135.939 70.6012 135.775 75.2856C134.459 74.1072 132.714 72.9572 130.672 72.3688L124.514 69.704H124.218C122.77 69.114 122.605 68.8336 122.605 68.5533C122.77 67.9641 124.218 67.3749 126.128 67.3749C128.762 67.3749 132.418 68.5533 135.348 70.012L135.643 60.6157C133.437 59.7177 130.376 59.1569 125.963 59.1569C123.625 59.1569 119.246 59.4373 115.427 61.2041C114.405 61.7933 113.517 62.3825 112.661 62.9717L112.793 60.3061C109.27 59.7453 105.483 59.7453 100.807 63.5601C100.643 63.2513 100.346 61.7925 100.05 61.2041L85.5634 61.7933C86.584 65.3 86.7482 70.2924 86.4522 74.6964L86.1563 79.4084V79.9976C85.9911 82.3535 85.8603 84.9899 85.5634 87.3459C84.3778 84.0919 83.0938 79.6887 82.0398 76.1828L74.8627 48.583L54.3826 51.2194C54.5144 51.4998 54.8103 52.3978 54.9755 53.2666C55.1081 54.4449 55.1081 56.8009 53.1979 61.7933C49.8394 69.704 45.1635 81.7643 40.6203 90.2627C40.0275 91.441 38.8428 93.2078 38.8428 93.2078H54.8112C55.1081 91.1599 56.1286 87.6263 57.1492 84.9891C59.3554 84.9891 65.0518 84.9891 67.6847 84.6803C68.2776 86.7559 68.8704 89.3923 69.0355 91.1591L69.299 93.2071H101.237C100.512 88.8031 100.808 82.9404 101.073 79.6872C101.369 75.8724 102.257 73.236 104.168 71.7772C105.616 70.2908 107.229 70.0104 108.415 70.0104C108.251 75.2832 112.202 77.64 115.725 79.098L122.013 81.762C124.219 82.9404 124.219 83.2207 124.219 83.8099C124.087 84.6795 122.309 84.9883 120.696 84.9883C117.338 84.9883 112.794 83.2207 107.822 78.5372L107.526 90.8503C111.477 92.6171 116.449 93.4866 120.862 93.4866C128.171 93.4866 135.941 90.5691 137.983 84.9875C141.638 90.8495 148.816 93.4866 155.862 93.4866C162.149 93.4914 166.824 91.7514 170.941 87.9098ZM60.9687 75.8763C61.8575 73.8292 62.5812 72.0616 63.8986 68.836C64.7874 72.0616 65.2151 74.1095 65.6437 75.596C63.8986 75.8763 63.0098 75.8763 60.9687 75.8763ZM150.592 72.6508C150.592 68.5556 152.337 66.7888 154.083 66.7888C154.676 66.7888 155.993 66.48 156.585 68.5556C156.881 69.4252 157.012 70.0144 157.012 70.2948C157.012 71.4732 156.289 71.7812 155.4 71.7812V72.0616C155.4 72.0616 152.93 72.6508 150.592 73.548C150.592 73.24 150.592 72.9596 150.592 72.6508ZM167.285 81.1775C164.189 83.5059 161.984 84.9923 158.33 84.9923C155.4 84.6835 153.654 83.2247 152.633 81.1775C155.696 80.2803 167.549 76.4655 170.94 75.2871C170.94 77.6431 171.072 80.2795 171.072 80.2795V85.2727L167.285 81.1775ZM221.876 85.2735C219.111 85.2735 218.518 83.5059 218.386 82.3559C218.518 81.1775 218.945 79.4107 223.357 78.2331C223.49 79.6919 223.653 80.8695 223.653 80.8695V82.0471C223.785 82.9443 223.785 83.8139 223.916 84.6835C223.358 84.9923 222.634 84.9923 221.876 85.2735Z" fill="#9C824A"/>
<path d="M133.141 62.0766C131.693 61.7962 129.487 61.207 125.964 61.207C123.199 61.207 119.543 61.7962 116.744 62.9746C113.518 64.7414 111.18 67.0698 111.048 69.7346C110.752 73.8297 113.254 75.5965 116.908 77.0553C119.378 78.2337 121.749 79.4113 123.198 80.0005C125.107 80.87 126.852 81.7673 126.72 83.8152C126.556 85.8632 124.35 87.3496 120.696 87.3496C117.633 87.3496 113.254 85.5828 110.159 83.226L110.027 89.3968C112.661 90.5752 116.908 91.1636 120.86 91.1636C127.577 91.1636 135.939 88.5272 136.071 82.0476C136.235 77.0553 132.121 75.2877 129.651 74.1377C127.149 73.2405 124.646 72.0629 123.495 71.7817C122.309 71.1926 119.971 70.6041 120.136 68.2474C120.4 66.2002 123.199 65.3022 126.128 65.3022C128.598 65.3022 131.1 65.8914 133.01 66.7886" fill="white"/>
<path d="M72.9856 51.2217L57.4448 52.9885C57.7417 54.7561 57.1489 58.262 55.5355 62.3848C52.3422 70.2947 47.0735 83.505 42.957 91.1622H52.6381C53.1976 88.4982 53.9221 86.1698 55.4037 82.9442L69.7598 82.6354C70.3192 84.9914 71.3731 88.8062 71.5049 91.1622H84.5435C82.9302 87.909 80.8891 81.1767 79.5726 76.4647L72.9856 51.2217ZM57.4448 77.9242L64.4911 60.618L68.7393 77.6439" fill="white"/>
<path d="M110.16 62.0767L109.864 67.967C107.526 67.659 104.596 68.2474 102.258 70.2954C100.216 72.0622 98.8998 74.6993 98.6039 79.4113C98.307 83.2261 98.1752 87.6301 98.4387 91.1637H87.4736C88.1982 87.6301 88.4951 83.5341 88.6259 79.6925L88.9219 75.0082C89.2178 71.1934 89.2178 67.3786 88.4942 63.845L98.1743 63.5647C98.6029 64.743 98.8989 66.7902 98.7347 68.8374C102.982 63.2543 107.097 62.0767 110.16 62.0767Z" fill="white"/>
<path d="M248.25 52.9884L238.273 51.502C239.295 55.3451 239.591 57.9815 240.184 61.7955L242.523 80.2801C242.983 84.0949 243.411 87.6293 243.279 91.1629H254.112C253.058 87.6293 252.63 84.0949 252.202 80.2801" fill="white"/>
<path d="M203.57 91.1629C203.01 87.6293 202.713 84.0949 202.548 80.2801L202.12 70.6034C201.824 65.3022 198.302 62.3855 192.44 62.3855C189.247 62.3855 185.426 63.2551 182.201 66.7886C182.069 65.8914 181.608 63.5631 181.016 62.3855L172.258 62.0767C172.981 65.611 173.278 69.117 173.409 72.9318L173.574 80.2801C173.706 84.0949 173.574 87.6293 173.278 91.1629H184.243C183.682 87.6293 183.386 84.0949 183.221 80.2801L182.925 72.0622C182.793 69.117 185.427 67.069 188.062 67.069C191.124 67.069 192.605 68.8358 192.738 71.473L193.198 80.2801C193.331 84.0949 193.331 87.6293 193.034 91.1629" fill="white"/>
<path d="M237.845 91.163C236.529 88.2178 235.804 84.6842 235.508 80.8694L234.914 75.0067C234.321 67.9664 230.833 63.2544 217.332 63.2544C214.994 63.2544 211.636 63.5632 208.871 64.124L209.299 69.4252C212.063 67.9664 214.863 66.7888 218.386 66.7888C222.04 66.7888 225.103 68.2476 225.4 72.6507C221.876 72.9595 218.649 73.5203 214.995 75.0067C210.913 76.4655 206.665 79.4107 207.092 84.0942C207.52 89.3954 212.228 91.7514 218.09 91.7514C222.633 91.7514 225.696 89.9846 227.441 88.2178C227.737 89.3954 228.198 90.265 228.625 91.163H237.845ZM221.876 87.3482C218.648 87.3482 216.016 85.8618 215.884 82.6362C215.884 79.4107 218.222 76.7743 225.696 75.8763L226.124 80.8694C226.288 82.6362 226.288 83.8146 226.584 85.2734C225.532 86.451 223.786 87.0402 221.876 87.3482Z" fill="white"/>
<path d="M163.17 62.974C160.669 61.4876 157.738 60.8984 154.676 60.8984C147.498 60.8984 137.982 65.3024 138.278 76.4655C138.41 87.9098 148.683 91.4434 155.861 91.4434C162.149 91.4434 165.97 89.3954 169.03 86.7591L166.824 84.0943C165.212 85.2726 162.577 87.0394 158.33 87.0394C153.786 86.7591 150.888 84.0943 149.275 79.9991L169.162 73.8284C168.569 68.2476 166.232 65.022 163.17 62.974ZM156.289 73.8291L148.386 76.4655C148.222 75.2879 148.09 74.1095 148.09 72.6508C148.09 65.8908 152.469 64.7132 153.95 64.7132C156.289 64.4328 158.33 65.6104 159.086 67.9664C159.943 70.6036 159.647 72.9596 156.289 73.8291Z" fill="white"/>
<path d="M109.436 150.29L116.119 141.623L139.892 154.861L133.207 163.556L109.436 150.29Z" fill="white"/>
<path d="M107.229 147.317L111.839 141.314L142.032 158.171L137.422 164.174L107.229 147.317Z" fill="#9C824A"/>
<path d="M160.174 177.89L166.857 169.194L190.629 182.462L183.946 191.157L160.174 177.89Z" fill="white"/>
<path d="M157.967 174.916L162.577 168.915L192.77 185.771L188.16 191.746L157.967 174.916Z" fill="#9C824A"/>
</g>
<defs>
<clipPath id="clip0">
<rect width="300" height="300" fill="white"/>
</clipPath>
</defs>
</svg>
