<svg width="300" height="300" viewBox="0 0 300 300" fill="none" xmlns="http://www.w3.org/2000/svg">
<path d="M300 150C300 232.848 232.84 300 150 300C67.1554 300 0 232.848 0 150C0 67.1592 67.1554 0 150 0C232.84 0 300 67.1592 300 150Z" fill="#DBA111"/>
<path d="M294.995 150C294.995 230.081 230.081 294.996 149.999 294.996C69.9166 294.996 5.00098 230.081 5.00098 150C5.00098 69.9171 69.9166 5.00146 149.999 5.00146C230.08 5.00146 294.995 69.9171 294.995 150" fill="#034694"/>
<path d="M253.329 149.999C253.329 207.067 207.066 253.322 149.999 253.322C92.9288 253.322 46.665 207.067 46.665 149.999C46.665 92.9267 92.9288 46.6655 149.999 46.6655C207.067 46.6649 253.329 92.9267 253.329 149.999" fill="#DBA111"/>
<path d="M250.203 150C250.203 205.341 205.333 250.202 150 250.202C94.6589 250.202 49.7969 205.34 49.7969 150C49.7969 94.6592 94.6589 49.7959 150 49.7959C205.335 49.7959 250.203 94.6585 250.203 150" fill="white"/>
<path d="M64.14 236.447C65.2488 237.506 67.9765 240.103 67.9765 240.103L70.5912 237.35L62.7919 229.915L61.7885 230.967L51.3164 241.945L55.2924 245.73C55.2924 245.73 58.6506 242.208 59.8793 240.925C60.9062 241.9 63.37 244.249 63.37 244.249L65.9866 241.502C65.9866 241.502 63.5265 239.155 62.501 238.173C63.1517 237.487 63.4824 237.14 64.14 236.447" fill="#DBA111"/>
<path d="M82.9501 248.985C82.5973 246.879 81.4152 245.019 79.6267 243.748C77.8463 242.484 75.7093 241.984 73.6039 242.33C71.3364 242.715 69.2991 244.037 67.864 246.045C66.4339 248.066 65.8564 250.422 66.2414 252.699C66.5954 254.798 67.7693 256.646 69.5522 257.917C71.3364 259.185 73.4891 259.693 75.5913 259.339C77.8576 258.958 79.8961 257.634 81.3262 255.619C82.4711 254.022 83.0681 252.192 83.0681 250.363C83.0687 249.907 83.0303 249.439 82.9501 248.985H82.9501ZM71.7504 254.816C69.9277 253.527 71.4323 250.831 72.4938 249.35C73.5528 247.856 75.6058 245.546 77.4285 246.834C79.3307 248.195 77.5534 251.134 76.7002 252.328C75.8444 253.534 73.6564 256.176 71.7504 254.816V254.816Z" fill="#DBA111"/>
<path d="M95.2088 253.148C91.0119 251.024 86.1574 252.765 83.9277 257.184C82.8106 259.393 82.5922 261.817 83.3117 263.999C83.9763 266.027 85.4171 267.681 87.3704 268.664C89.3237 269.658 91.5218 269.831 93.5534 269.164C95.7339 268.453 97.5528 266.842 98.6629 264.634C100.902 260.207 99.4139 255.271 95.2088 253.148V253.148ZM90.567 265.429C90.0747 265.59 89.6077 265.54 89.0775 265.276C88.2451 264.852 87.9523 264.094 87.9523 263.247C87.9523 262.075 88.5159 260.694 88.9936 259.752C89.8216 258.115 91.5029 255.53 93.4978 256.536C94.0242 256.805 94.3391 257.154 94.4988 257.641C94.8327 258.648 94.4974 260.302 93.5976 262.073C92.7027 263.844 91.5704 265.097 90.567 265.429V265.429Z" fill="#DBA111"/>
<path d="M103.876 259.224L103.104 261.438C103.104 261.438 105.079 262.131 105.679 262.329C104.923 264.492 101.438 274.439 101.438 274.439L106.612 276.254C106.612 276.254 110.103 266.315 110.857 264.153C111.46 264.363 113.436 265.05 113.436 265.05L114.69 261.477L104.357 257.852L103.876 259.224" fill="#DBA111"/>
<path d="M125.36 264.026L118.368 262.549L118.069 263.971L114.943 278.813L122.06 280.322C124.334 280.791 125.832 280.233 126.686 279.68C127.77 278.973 128.53 277.813 128.822 276.426C128.902 276.049 128.941 275.683 128.941 275.324C128.941 274.322 128.623 273.418 128.049 272.642C128.851 272.006 129.422 271.107 129.66 269.986C129.721 269.696 129.757 269.369 129.757 269.028C129.757 267.128 128.672 264.716 125.361 264.026H125.36ZM123.436 275.356C123.361 275.695 123.225 276.144 122.968 276.311C122.731 276.465 122.274 276.485 121.684 276.357C121.684 276.357 121.415 276.298 121.097 276.235C121.324 275.164 121.476 274.451 121.698 273.379C122.002 273.451 122.391 273.527 122.391 273.527C123.308 273.721 123.484 274.4 123.484 274.893C123.485 275.091 123.46 275.259 123.436 275.356L123.436 275.356ZM122.958 267.413C123.572 267.552 124.023 267.778 124.197 268.04C124.276 268.161 124.315 268.33 124.315 268.529C124.315 268.65 124.299 268.789 124.267 268.957C124.173 269.392 124.046 269.995 122.836 269.747C122.836 269.747 122.685 269.707 122.478 269.663C122.671 268.765 122.762 268.317 122.958 267.413L122.958 267.413Z" fill="#DBA111"/>
<path d="M138.27 266.442L130.675 281.996L135.012 282.329C135.012 282.329 136.186 279.851 136.655 278.864C137.573 278.94 138.492 279.005 139.392 279.077C139.728 280.116 140.576 282.753 140.576 282.753L146.347 283.202L139.899 263.214L138.27 266.442" fill="#DBA111"/>
<path d="M155.396 278.858C155.3 276.585 154.863 266.237 154.863 266.237L149.383 266.467L150.076 283.074L161.059 282.618L160.894 278.633C160.894 278.634 156.971 278.801 155.396 278.858" fill="#DBA111"/>
<path d="M170.43 277.267C170.076 275.019 168.473 264.789 168.473 264.789L167.036 265.019L163.049 265.64L165.622 282.066L176.487 280.361L175.865 276.42C175.865 276.42 171.989 277.031 170.43 277.267Z" fill="#DBA111"/>
<path d="M201.882 266.219C201.838 267.642 200.998 268.869 199.689 269.387C198.963 269.675 198.27 269.675 197.576 269.381C196.51 268.925 195.523 267.771 194.931 266.289C194.233 264.54 194.091 263.054 194.549 262.01C194.863 261.279 195.48 260.733 196.422 260.356C197.442 259.95 198.411 260.324 199.739 261.106L200.957 261.825L202.979 258.634L201.779 257.845C199.573 256.396 196.841 256.1 194.478 257.044C192.285 257.918 190.585 259.554 189.686 261.645C188.774 263.767 188.774 266.194 189.699 268.496C191.445 272.86 196.378 275.009 200.691 273.282C203.808 272.037 205.572 269.669 205.796 266.435L205.899 264.992L201.928 264.697L201.882 266.219" fill="#DBA111"/>
<path d="M214.675 261.682C213.552 259.686 208.508 250.639 208.508 250.639L207.245 251.351L203.716 253.322L211.827 267.834L221.417 262.477L219.475 258.993C219.476 258.993 216.043 260.907 214.675 261.682" fill="#DBA111"/>
<path d="M225.341 239.301L224.165 240.161L222.105 241.675L228.837 250.85C229.145 251.265 229.145 251.543 229.118 251.705C229.053 252.178 228.56 252.691 228.124 253.005C227.919 253.152 227.443 253.352 226.956 253.276C226.608 253.225 226.333 253.036 226.089 252.706L219.436 243.634L215.003 246.88L221.623 255.907C222.606 257.243 223.826 258.033 225.25 258.25C226.847 258.499 228.663 257.955 230.35 256.708C233.821 254.17 233.765 250.8 232.25 248.735L225.341 239.301" fill="#DBA111"/>
<path d="M245.539 235.965C244.519 234.906 243.26 234.43 241.939 234.502C241.861 233.476 241.463 232.494 240.669 231.673C239.282 230.241 236.182 229.126 233.328 231.904L228.194 236.869L239.763 248.812L244.985 243.749C246.654 242.133 247.022 240.567 247.037 239.554C247.065 238.256 246.531 236.985 245.539 235.965ZM236.8 235.563C236.972 235.746 237.183 235.961 237.183 236.259C237.183 236.504 237.049 236.807 236.649 237.19C236.649 237.19 236.54 237.3 236.394 237.447C235.746 236.774 235.438 236.459 234.781 235.784C235.939 234.721 236.42 235.175 236.8 235.563V235.563ZM239.539 239.674C240.476 238.769 241.379 239.565 241.636 239.835C241.886 240.085 242.169 240.437 242.169 240.743C242.169 240.743 242.169 240.743 242.169 240.753C242.163 241.035 241.925 241.426 241.495 241.843C241.495 241.843 241.296 242.037 241.059 242.259C240.302 241.477 239.79 240.952 239.032 240.174C239.256 239.951 239.539 239.674 239.539 239.674V239.674Z" fill="#DBA111"/>
<path d="M64.1043 234.906C64.5568 235.342 67.9345 238.564 67.9345 238.564L69.0484 237.389L62.825 231.454L62.5744 231.717L52.8604 241.907L55.2535 244.191C55.2535 244.191 59.3924 239.853 59.8379 239.378C60.2904 239.809 63.3356 242.709 63.3356 242.709L64.4514 241.538C64.4514 241.538 61.4062 238.64 60.9537 238.21C61.3577 237.787 63.7041 235.325 64.1043 234.906" fill="white"/>
<path d="M78.9903 244.635C77.4479 243.537 75.6019 243.098 73.79 243.401C71.8007 243.743 70.0166 244.904 68.7537 246.681C67.487 248.464 66.979 250.531 67.3167 252.513C67.6202 254.329 68.6414 255.933 70.1851 257.027C71.737 258.132 73.5905 258.564 75.4107 258.259C77.3892 257.926 79.1759 256.76 80.4368 254.995C81.4447 253.571 81.9774 251.958 81.9774 250.361C81.9774 249.963 81.9427 249.56 81.8777 249.162C81.5691 247.347 80.5461 245.739 78.9904 244.635H78.9903ZM77.5862 252.964C76.5423 254.424 73.8254 257.631 71.121 255.708C68.4262 253.795 70.5657 250.178 71.6051 248.709C72.6477 247.24 75.3659 244.037 78.057 245.95C80.7619 247.88 78.6288 251.499 77.5862 252.964V252.964Z" fill="white"/>
<path d="M94.7169 254.125C91.0754 252.283 86.8564 253.816 84.8999 257.685C83.9148 259.63 83.7204 261.747 84.3458 263.666C84.9201 265.409 86.1685 266.835 87.8617 267.687C89.5588 268.555 91.4616 268.709 93.2142 268.132C95.1208 267.502 96.7125 266.09 97.6976 264.146C99.6484 260.277 98.3685 255.965 94.7169 254.125V254.125ZM88.5863 266.243C85.6377 264.76 87.2066 260.859 88.0214 259.257C88.8336 257.647 91.0406 254.071 93.9848 255.567C94.7686 255.959 95.2918 256.542 95.5411 257.305C96.1192 259.072 95.1814 261.354 94.5692 262.567C93.9602 263.772 92.674 265.883 90.9056 266.463C90.1489 266.719 89.3663 266.641 88.5863 266.243Z" fill="white"/>
<path d="M104.909 259.582L104.491 260.764C104.491 260.764 106.552 261.488 107.068 261.67C106.84 262.317 102.823 273.77 102.823 273.77L105.945 274.867C105.945 274.867 109.964 263.414 110.189 262.766C110.705 262.945 112.766 263.666 112.766 263.666L113.304 262.145L105.024 259.238L104.909 259.582" fill="white"/>
<path d="M125.14 265.088L119.214 263.837L119.134 264.197L116.237 277.979L122.285 279.249C123.822 279.571 125.101 279.411 126.091 278.763C126.947 278.204 127.521 277.313 127.756 276.203C127.816 275.9 127.852 275.611 127.852 275.329C127.852 274.124 127.254 273.103 126.187 272.372C127.423 272.017 128.307 271.107 128.592 269.757C128.641 269.546 128.67 269.297 128.67 269.015C128.669 267.636 127.944 265.68 125.14 265.088H125.14ZM123.068 266.308C124.065 266.519 124.755 266.9 125.106 267.442C125.308 267.75 125.407 268.111 125.407 268.53C125.407 268.734 125.381 268.946 125.333 269.177C124.948 271.012 123.465 270.992 122.613 270.806C122.613 270.806 121.71 270.62 121.187 270.51C121.309 269.945 121.997 266.673 122.115 266.109C122.494 266.186 123.068 266.308 123.068 266.308V266.308ZM122.613 272.46C124.297 272.814 124.562 274.143 124.562 274.95C124.562 275.297 124.508 275.544 124.501 275.585C124.331 276.381 124.028 276.92 123.561 277.221C123.069 277.55 122.359 277.613 121.46 277.427C121.46 277.427 120.383 277.196 119.805 277.081C119.929 276.489 120.735 272.671 120.857 272.089C121.351 272.192 122.613 272.46 122.613 272.46H122.613Z" fill="white"/>
<path d="M139.252 266.921L132.358 281.032L134.344 281.18C134.344 281.18 135.803 278.113 135.996 277.721C136.416 277.754 139.79 278.016 140.204 278.05C140.336 278.454 141.389 281.725 141.389 281.725L144.808 281.989L139.688 266.115L139.252 266.921V266.921ZM138.495 272.595C138.829 273.661 139.47 275.716 139.682 276.387C139.001 276.336 137.433 276.214 136.759 276.163C137.068 275.529 138.007 273.597 138.495 272.595Z" fill="white"/>
<path d="M154.349 279.994C154.322 279.306 153.815 267.373 153.815 267.373L153.463 267.386L150.512 267.507L151.118 281.943L159.925 281.57L159.848 279.768C159.849 279.768 154.986 279.974 154.349 279.994" fill="white"/>
<path d="M169.524 278.525C169.414 277.845 167.561 266.032 167.561 266.032L167.208 266.089L164.296 266.55L166.534 280.821L175.242 279.447L174.961 277.663C174.96 277.664 170.147 278.42 169.524 278.525" fill="white"/>
<path d="M202.966 266.243C202.915 268.123 201.811 269.716 200.092 270.409C199.091 270.807 198.102 270.793 197.147 270.383C195.801 269.813 194.625 268.465 193.912 266.694C193.11 264.673 192.981 262.903 193.541 261.579C193.977 260.578 194.806 259.829 196.018 259.348C197.603 258.713 199.058 259.437 200.29 260.168L200.598 260.348L201.484 258.956L201.188 258.756C199.276 257.504 196.915 257.243 194.883 258.056C192.957 258.828 191.462 260.252 190.686 262.075C189.89 263.921 189.897 266.065 190.712 268.085C192.232 271.897 196.523 273.77 200.291 272.268C203.024 271.171 204.507 269.189 204.705 266.359L204.731 265.994L202.987 265.874L202.966 266.243" fill="white"/>
<path d="M214.253 263.164C213.912 262.567 208.086 252.128 208.086 252.128L207.765 252.307L205.199 253.744L212.237 266.348L219.931 262.052L219.056 260.474C219.057 260.475 214.797 262.848 214.253 263.164" fill="white"/>
<path d="M225.103 240.822L224.806 241.04L223.627 241.907L229.715 250.203C230.123 250.761 230.283 251.318 230.196 251.864C230.051 252.853 229.151 253.611 228.774 253.881C228.342 254.206 227.552 254.476 226.795 254.353C226.153 254.258 225.627 253.919 225.204 253.353L219.193 245.154L216.53 247.117L222.502 255.258C223.306 256.357 224.287 257.004 225.415 257.171C227.194 257.44 228.863 256.45 229.702 255.838C232.584 253.719 232.622 251.069 231.377 249.382L225.103 240.822" fill="white"/>
<path d="M244.755 236.724C243.637 235.567 242.207 235.304 240.724 235.874C240.842 235.528 240.912 235.175 240.912 234.823C240.912 233.965 240.57 233.128 239.884 232.422C238.954 231.466 236.547 230.284 234.085 232.678L229.733 236.894L239.779 247.265L244.228 242.952C245.35 241.875 245.935 240.713 245.949 239.539C245.967 238.513 245.55 237.543 244.755 236.724V236.724ZM238.268 236.273C238.268 236.999 237.795 237.596 237.413 237.968C237.413 237.968 236.746 238.616 236.37 238.987C235.964 238.571 233.636 236.172 233.237 235.747C233.507 235.485 233.933 235.08 233.933 235.08C235.292 233.756 236.486 233.668 237.581 234.804C238.083 235.325 238.268 235.817 238.268 236.273V236.273ZM241.035 243.799C240.623 243.375 237.909 240.566 237.492 240.142C237.851 239.797 238.78 238.892 238.78 238.892C240.553 237.184 242.35 238.994 242.426 239.078C242.985 239.655 243.259 240.201 243.259 240.744C243.259 240.754 243.259 240.76 243.259 240.765C243.252 241.361 242.907 241.985 242.251 242.633C242.252 242.633 241.386 243.466 241.035 243.799V243.799Z" fill="white"/>
<path d="M83.3573 51.1837L77.2942 52.8189L77.9903 54.9905C78.8278 57.6235 78.0698 60.3802 76.0175 62.1802C74.8758 63.1811 73.5574 63.6405 72.1033 63.5408C69.8938 63.3925 67.3996 61.9624 65.4344 59.7131C63.1182 57.0599 61.9626 54.5058 62.1096 52.3411C62.2119 50.7627 62.9793 49.3761 64.4517 48.0861C66.0781 46.6617 68.1406 46.7173 70.9383 47.272L73.0134 47.6822L74.3551 41.8754L72.2662 41.3661C67.7745 40.2547 63.0904 41.3464 59.7487 44.2717C53.204 49.9984 52.6701 59.3509 58.5073 66.0261C63.9317 72.2275 73.3435 72.9034 79.4779 67.5377C83.8963 63.6784 85.4356 58.7406 83.9348 53.2733L83.3573 51.1837" fill="#DBA111"/>
<path d="M99.8215 20.7732L93.6284 23.6896C93.6284 23.6896 97.0857 31.0162 98.274 33.5413C96.5076 34.3718 94.7966 35.1803 93.0282 36.0152C91.8354 33.492 88.3763 26.1623 88.3763 26.1623L80.2217 30.0121L92.6407 56.3547L100.802 52.5068C100.802 52.5068 96.9544 44.3592 95.7168 41.7173C97.4845 40.8899 99.1942 40.0821 100.966 39.2478C102.207 41.8821 106.05 50.031 106.05 50.031L114.21 46.1806L101.794 19.8442L99.8215 20.7732" fill="#DBA111"/>
<path d="M127.433 37.0928C127.035 35.1313 126.631 33.1357 126.239 31.1768C128.758 30.67 135.453 29.3181 135.453 29.3181L134.275 23.4671C134.275 23.4671 127.577 24.8208 125.056 25.3301C124.693 23.5365 124.393 22.03 124.027 20.2389C126.644 19.7113 133.808 18.2636 133.808 18.2636L132.627 12.415L130.484 12.8455L114.004 16.1784L119.765 44.728L138.54 40.9325L137.36 35.0871C137.36 35.0871 130.067 36.557 127.433 37.0928" fill="#DBA111"/>
<path d="M154.062 11.7382L145.033 11.5508L144.988 13.7281L144.424 40.6678L163.376 41.0654L163.512 34.7574C163.512 34.7574 156.236 34.6009 153.577 34.5466C153.653 30.9808 154.061 11.7382 154.061 11.7382" fill="#DBA111"/>
<path d="M183.319 26.426C180.977 24.7056 180.291 24.0158 180.528 23.0761C180.644 22.5888 181.175 21.0332 182.858 21.4497C183.87 21.7097 184.877 22.243 185.326 24.4216L185.819 26.84L191.78 24.8255L191.409 22.9486C190.676 19.2623 187.558 16.1244 183.645 15.1468C180.842 14.4507 178.032 14.823 175.726 16.2083C173.609 17.4762 172.12 19.4775 171.532 21.846C170.035 27.8164 174.06 30.6911 176.721 32.5958C179.449 34.5465 180.142 35.3102 179.726 36.9397C179.595 37.449 179.296 37.851 178.826 38.1357C178.28 38.4569 177.595 38.573 177.037 38.4279C175.604 38.0751 174.984 37.3979 174.38 35.5443L173.648 33.3222L167.666 35.7684L168.245 37.6674C169.367 41.3575 172.044 43.6832 176.425 44.7807C181.349 46.0126 187.323 43.7482 188.811 37.8359C190.363 31.6062 186.124 28.4847 183.319 26.426" fill="#DBA111"/>
<path d="M204.859 41.959C207.156 43.1203 213.247 46.2001 213.247 46.2001L215.94 40.8747C215.94 40.8747 209.845 37.7949 207.555 36.6375C208.375 35.0041 209.069 33.6308 209.888 32.0007C212.265 33.2011 218.797 36.5024 218.797 36.5024L221.483 31.1771L204.531 22.6104L203.551 24.551L191.391 48.6021L208.485 57.2357L211.18 51.9135C211.18 51.9135 204.538 48.5579 202.138 47.3493C203.037 45.562 203.96 43.7469 204.859 41.959" fill="#DBA111"/>
<path d="M238.621 44.6791L211.457 58.7346L216.654 63.254C216.654 63.254 221.137 60.8703 222.767 60.0145C223.978 61.0697 225.764 62.6235 226.957 63.6592C226.372 65.3922 224.712 70.265 224.712 70.265L231.871 76.4941L243.485 42.248L238.621 44.6791" fill="#DBA111"/>
<path d="M82.3399 52.9558L79.1382 53.8261L79.373 54.5506C80.3904 57.7466 79.4727 61.0896 76.9704 63.2777C75.5333 64.5386 73.8577 65.1161 72.0067 64.9968C69.3825 64.8207 66.5917 63.2455 64.3393 60.6693C61.7637 57.7207 60.487 54.8056 60.6561 52.2382C60.7887 50.2887 61.7441 48.5229 63.4961 46.9905C65.7965 44.9792 68.6927 45.3471 71.2216 45.8476L71.9164 45.9821L72.6169 42.9471L71.9208 42.7735C67.8842 41.7827 63.6955 42.7514 60.7053 45.3693C54.7893 50.5507 54.3141 59.0133 59.604 65.0669C64.5002 70.6649 72.9861 71.2783 78.5261 66.4402C82.5431 62.9174 83.893 58.622 82.5324 53.6596L82.3399 52.9559" fill="white"/>
<path d="M100.44 22.0813L95.5676 24.3849C95.5676 24.3849 99.6692 33.0886 100.209 34.2328C99.1662 34.7269 93.3789 37.4578 92.3287 37.9481C91.7904 36.802 87.6913 28.099 87.6913 28.099L82.1533 30.708L93.3335 54.4157L98.8677 51.8105C98.8677 51.8105 94.3287 42.1892 93.7822 41.0248C94.8317 40.5306 100.612 37.8068 101.662 37.3107C102.207 38.472 106.747 48.0989 106.747 48.0989L112.274 45.4874L101.095 21.7759L100.44 22.0813" fill="white"/>
<path d="M126.292 38.8052C126.065 37.666 124.755 31.1794 124.527 30.0403C125.74 29.7967 133.74 28.1798 133.74 28.1798L133.135 25.1845C133.135 25.1845 125.137 26.7945 123.918 27.0412C123.696 25.9242 122.542 20.217 122.32 19.1012C123.542 18.8507 132.096 17.1283 132.096 17.1283L131.489 14.1318L115.718 17.3145L120.906 43.0109L136.828 39.7967L136.223 36.8001C136.221 36.8008 127.524 38.5559 126.292 38.8052" fill="white"/>
<path d="M152.576 13.1637L146.462 13.0312L146.449 13.7532L145.907 39.242L161.958 39.5822L162.03 36.1798C162.03 36.1798 153.34 35.9962 152.096 35.9697C152.127 34.6096 152.576 13.1638 152.576 13.1638" fill="white"/>
<path d="M183.211 20.0434C185.154 20.53 186.277 21.8288 186.753 24.1292L186.918 24.9333L190.107 23.8553L189.987 23.2261C189.357 20.085 186.67 17.4016 183.295 16.5527C180.868 15.9475 178.451 16.2649 176.48 17.4483C174.697 18.5199 173.44 20.2081 172.944 22.1993C171.688 27.2072 174.952 29.5397 177.57 31.411C180.22 33.3062 181.818 34.6 181.137 37.2879C180.867 38.4069 180.136 39.0462 179.573 39.3826C178.699 39.9058 177.628 40.0692 176.686 39.8382C174.753 39.3535 173.758 38.3141 173.003 35.9954L172.757 35.2545L169.447 36.6044L169.64 37.24C170.602 40.4025 172.94 42.4075 176.788 43.3706C181.015 44.4264 186.138 42.5135 187.4 37.4779C188.715 32.1999 185.25 29.6458 182.446 27.5959C180.066 25.8389 178.629 24.6644 179.118 22.7231C179.546 20.9875 180.983 19.4855 183.211 20.0434" fill="white"/>
<path d="M209.248 30.0509C210.364 30.612 218.148 34.5457 218.148 34.5457L219.533 31.8149L205.175 24.5615L204.847 25.209L193.35 47.9613L207.842 55.2853L209.223 52.5558C209.223 52.5558 201.31 48.5552 200.19 47.9865C200.712 46.9477 203.698 41.0487 204.217 40.0093C205.321 40.5672 212.602 44.2466 212.602 44.2466L213.99 41.5157C213.99 41.5157 206.701 37.8395 205.597 37.2784C206.111 36.2649 208.735 31.0645 209.248 30.0509" fill="white"/>
<path d="M239.289 45.9729L214.028 59.0458L216.851 61.5002C216.851 61.5002 222.208 58.6602 222.966 58.2588C223.595 58.8079 228.035 62.6703 228.65 63.2061C228.382 64.0044 226.398 69.8056 226.398 69.8056L231.192 73.9735L240.952 45.1929L239.289 45.9729ZM225.891 56.7549C227.085 56.137 230.138 54.551 232 53.5822C231.307 55.5614 230.165 58.8205 229.727 60.089C228.758 59.2408 226.861 57.5923 225.891 56.7549Z" fill="white"/>
<path d="M221.662 146.064C219.59 140.577 212.456 138.194 205.713 140.739C202.901 141.797 200.598 143.565 199.028 145.653C203.481 132.945 221.618 130.248 221.618 118.425C221.618 98.609 193.476 104.16 197.571 118.428C197.571 111.954 207.874 110.768 207.874 118.428C207.874 126.09 189.909 131.114 189.909 144.058C189.909 158.326 204.18 159.647 202.735 172.697C202.49 174.947 200.07 177.904 196.567 177.904C174.709 177.904 182.512 150.995 174.874 142.807L175.274 137.279C179.689 139.986 191.403 133.644 183.691 123.975C183.691 128.73 173.791 128.467 173.791 119.483C173.791 107.328 185.154 113.671 185.707 116.355C185.162 111.928 184.956 109.119 185.687 106.568C179.561 108.544 178.988 105.003 179.763 103.632C180.65 102.048 181.837 100.197 184.224 100.197C185.514 100.197 186.288 100.376 186.745 100.691C187.508 101.213 188.066 100.021 187.956 101.129C188.612 100.132 188.35 101.377 188.982 100.376C189.626 99.3825 190.494 98.2585 192.019 96.7608L191.953 94.5185L193.738 95.1729L195.452 92.4017C193.602 88.5677 191.093 90.4144 189.245 85.6608C187.7 85.2594 163.628 87.8773 164.326 78.2749C162.364 78.2749 157.714 79.3503 160.591 83.2601C158.354 83.5295 156.742 80.9887 153.369 87.8609C157.594 87.0688 155.407 91.7914 155.407 93.1351C155.407 101.842 143.816 101.695 143.816 97.6166C141.023 100.331 142.607 106.267 146.832 107.729C146.832 107.729 145.225 114.078 141.259 118.103C135.372 117.868 125.928 116.845 120.494 111.709C118.151 109.496 116.291 108.29 114.706 107.67V104.792C117.026 103.657 119.57 101.648 122.214 98.2894C124.276 95.7706 125.392 92.5406 125.092 89.1105C125.053 88.7009 124.992 88.2963 124.92 87.9019C124.898 87.7763 124.867 87.6545 124.838 87.5295C124.78 87.2531 124.713 86.988 124.633 86.7148C124.595 86.5829 124.559 86.4478 124.517 86.3172C124.427 86.0433 124.329 85.7814 124.222 85.5213C124.177 85.4122 124.146 85.296 124.094 85.1938C123.947 84.8435 123.782 84.5141 123.605 84.1821C123.529 84.0476 123.449 83.9221 123.375 83.7984C123.253 83.599 123.138 83.397 123.01 83.2045C122.906 83.0518 122.798 82.8972 122.689 82.7432C122.576 82.5961 122.458 82.4453 122.342 82.2976C122.214 82.1398 122.088 81.9726 121.951 81.8161C121.86 81.7125 121.762 81.6129 121.666 81.5176C121.322 81.1383 120.95 80.7855 120.561 80.4485C120.529 80.4207 120.49 80.3847 120.453 80.3557C120.236 80.1701 120.004 79.9928 119.776 79.8236C119.718 79.7795 119.658 79.7365 119.592 79.6911C119.349 79.5195 119.1 79.3516 118.84 79.1913C118.824 79.1813 118.809 79.175 118.798 79.1635C116.324 77.6489 113.334 76.8562 110.177 77.1067C102.574 77.712 96.9235 84.0641 97.5584 91.2954C98.0526 96.9293 102.208 101.429 107.61 102.864C105.715 103.922 104.114 104.532 103.752 104.532C103.812 104.571 103.89 104.616 103.976 104.671C103.998 104.681 104.024 104.696 104.05 104.71C104.123 104.757 104.21 104.806 104.299 104.854C104.321 104.866 104.349 104.879 104.37 104.892C104.492 104.953 104.617 105.017 104.759 105.085C104.781 105.095 104.807 105.103 104.83 105.114C104.955 105.172 105.082 105.232 105.217 105.284C105.256 105.302 105.297 105.318 105.339 105.331C105.67 105.47 106.042 105.594 106.449 105.71C106.507 105.726 106.568 105.739 106.618 105.755C106.783 105.797 106.95 105.835 107.123 105.877C107.18 105.887 107.238 105.899 107.299 105.911C107.517 105.95 107.746 105.989 107.975 106.017C107.995 106.017 108.014 106.027 108.033 106.027V107.663C107.947 107.682 107.87 107.691 107.789 107.704C105.317 108.111 103.71 108.872 102.983 111.073C102.261 113.283 103.003 114.081 104.161 115.631C103.183 117.38 100.619 118.034 103.965 121.897C103.721 123.356 104.03 125.68 106.154 126.385C106.847 126.62 107.424 126.745 108.033 126.85L108.03 155.816C105.912 156.938 104.867 158.338 104.289 159.642C104.289 159.642 102.589 155.868 102.701 163.345C104.633 161.846 103.872 165.081 103.872 165.081C101.242 168.489 104.583 168.304 104.583 168.304C106.849 166.041 106.387 169.329 106.387 169.329C106.387 173.34 108.016 174.91 108.03 174.916V196.983L106.105 196.988L106.124 203.077L109.489 203.072C107.6 203.856 106.355 205.72 106.536 207.782C106.765 210.38 109.165 212.311 111.898 212.1C114.629 211.88 116.659 209.602 116.426 206.998C116.271 205.2 115.08 203.734 113.461 203.06L116.566 203.051L116.553 196.962L114.701 196.971L114.704 177.392C115.086 177.602 115.499 177.747 115.947 177.845C116.126 177.878 116.303 177.903 116.485 177.915C116.565 177.928 116.649 177.928 116.729 177.93C116.231 175.356 117.768 173.65 117.768 173.65C118.558 172.462 119.7 171.536 120.999 170.882C124.885 168.932 130.187 169.425 131.772 172.599C141.814 169.952 150.443 159.859 150.443 159.859L155.386 168.272C144.906 171.775 122.08 191.619 137.925 198.492C137.919 200.492 137.651 215.34 128.13 214.16C114.418 212.471 110.999 218.145 113.632 224.522C112.394 229.9 116.536 231.766 116.536 231.766C115.914 228.66 117.408 226.086 123.075 226.119C123.046 231.786 126.705 232.808 126.705 232.808C126.731 227.955 130.103 226.158 133.099 226.171C133.077 230.17 137.723 231.689 137.723 231.689C137.723 231.689 136.545 227.081 141.797 226.171C155.09 223.855 142.605 210.182 162.822 206.415C162.822 206.415 152.755 204.897 152.755 199.394C152.755 194.384 161.867 190.959 165.005 190.959C171.439 203.253 178.429 203.35 180.261 203.438C183.111 206.62 182.156 217.348 178.042 217.137C162.983 216.329 163.534 225.489 165.222 227.363C165.029 230.918 167.795 232.972 167.795 232.972C167.795 229.161 171.422 228.089 176.072 228.341C175.828 232.997 178.794 233.692 178.794 233.692C178.876 229.007 182.342 228.212 184.804 228.341C184.625 231.624 187.884 232.591 187.884 232.591C187.884 232.591 187.563 228.423 191.951 228.423C200.274 228.418 188.186 210.581 204.43 192.94C190.161 199.545 182.569 183.034 182.569 179.865C189.903 188.448 213.682 190.161 213.682 175.5C213.682 161.495 198.289 156.276 205.491 150.919C209.68 147.805 217.917 154.097 213.204 160.597C219.962 158.092 223.728 151.548 221.661 146.064L221.662 146.064ZM130.452 146.506C125.072 149.669 121.465 153.671 116.561 155.421C115.816 155.683 115.222 155.757 114.706 155.724V128.386C116.006 128.508 119.378 128.97 123.32 130.6C127.225 132.73 127.225 137.134 122.297 138.178C125.412 144.142 136.201 141.222 138.552 136.365C139.704 136.263 140.722 138.319 141.679 140.263C140.165 141.049 137.067 142.612 130.452 146.506V146.506ZM190.666 101.187C190.074 101.99 189.49 102.789 188.979 103.473C190.344 105.74 192.91 107.158 195.723 106.898C199.609 106.53 202.47 103.08 202.113 99.1899C202.092 99.0486 202.072 98.9211 202.053 98.7829C201.637 100.797 199.263 102.503 196.243 102.782C193.956 102.997 191.886 102.34 190.666 101.187H190.666Z" fill="#D1D3D4"/>
<path d="M103.747 84.7364C103.747 84.7407 103.737 84.7507 103.737 84.7597H103.734C103.794 84.6152 103.858 84.4707 103.932 84.3293C103.862 84.4638 103.798 84.5956 103.746 84.7364L103.747 84.7364ZM103.994 199.396C104 199.392 104.01 199.392 104.012 199.385H104.011C104.006 199.393 104.001 199.393 103.994 199.396H103.994ZM103.823 73.0652H103.831H103.823ZM101.767 198.723L105.132 198.719C104.721 198.891 104.35 199.116 104.012 199.385C104.347 199.257 104.701 199.179 105.077 199.179C106.765 199.179 108.131 200.546 108.131 202.235C108.131 203.921 106.765 205.288 105.077 205.288C103.711 205.288 102.568 204.392 102.181 203.152V203.429C102.412 206.033 104.806 207.965 107.543 207.74C110.271 207.527 112.3 205.243 112.075 202.645C111.915 200.855 110.727 199.386 109.107 198.712L112.21 198.699L112.196 192.61L110.344 192.62V173.041C108.535 172.102 107.49 170.056 107.894 167.955C109.052 167.955 110.089 168.256 110.782 168.73C109.713 171.084 112.373 173.577 112.373 173.577C111.875 171.004 113.41 169.302 113.41 169.302C114.205 168.111 115.347 167.183 116.64 166.528C120.531 164.578 125.831 165.07 127.415 168.243C137.458 165.6 146.087 155.502 146.087 155.502L151.033 163.909C162.624 163.909 158.59 155.229 157.832 154.472C160.501 154.472 164.254 156.436 164.254 160.783C164.254 171.459 133.218 172.98 133.218 185.939C133.218 191.38 138.611 193.449 138.611 193.449C138.611 205.264 130.498 212.283 124.949 212.283C116.075 212.283 109.28 210.485 109.28 220.162H112.373C109.434 223.1 112.177 227.411 112.177 227.411C111.558 224.308 113.056 221.739 118.722 221.766H122.257C120.01 224.011 121.323 227.419 122.356 228.459C122.376 223.6 125.745 221.804 128.744 221.822C129.832 221.822 131.31 221.822 131.31 221.822C130.612 222.51 131.733 225.704 133.37 227.335C133.37 227.335 132.187 222.732 137.444 221.822C150.734 219.506 138.246 205.833 158.463 202.06C158.463 202.06 148.403 200.547 148.403 195.038C148.403 190.037 157.511 186.604 160.643 186.604C163.112 186.251 165.464 186.34 167.477 186.772C168.296 194.709 177.407 194.323 179.393 194.323C187.123 202.054 177.428 214.464 177.428 214.464C165.564 214.464 160.869 216.102 160.869 223.01H163.114C161.856 224.275 162.569 227.753 163.436 228.62C163.436 224.807 167.069 223.741 171.719 223.987H174.165C172.971 225.179 173.182 228.079 174.446 229.338C174.515 224.652 177.986 223.857 180.453 223.987H182.491C181.728 224.757 182.491 227.2 183.537 228.247C183.537 228.247 183.215 224.076 187.6 224.071C195.926 224.071 183.832 206.228 200.085 188.588C185.817 195.196 178.219 178.68 178.219 175.51C185.554 184.096 209.338 185.809 209.338 171.152C209.338 159.326 198.367 153.768 199.276 149.099C199.592 145.525 202.59 142.723 206.251 142.723C210.115 142.723 213.247 145.863 213.247 149.727C213.247 152.674 211.438 155.19 208.86 156.224C208.866 156.224 208.866 156.217 208.866 156.217C208.86 156.224 208.852 156.231 208.852 156.244C215.604 153.739 219.375 147.193 217.315 141.71C215.237 136.223 208.103 133.834 201.365 136.378C198.542 137.443 196.247 139.205 194.679 141.296C199.124 128.589 217.264 125.896 217.264 114.069C217.264 94.2524 189.122 99.8056 193.216 114.074C193.216 113.86 193.229 113.648 193.256 113.442C193.973 105.376 208.391 103.728 208.391 114.242C208.391 123.224 189.925 128.203 189.925 140.288C189.925 152.7 203.566 155.805 203.566 168.866C203.566 170.422 202.744 177.12 193.683 177.12C184.939 177.12 180.736 172.233 178.349 165.855C173.895 157.251 175.531 143.819 170.516 138.449L170.914 132.926C175.332 135.636 187.05 129.288 179.353 119.619C179.353 124.379 169.444 124.11 169.444 115.13C169.444 102.975 180.801 109.318 181.353 111.999C180.808 107.575 180.594 104.759 181.34 102.217C175.208 104.187 174.644 100.649 175.407 99.2749C176.304 97.687 177.49 95.8391 179.872 95.8391C183.316 95.8391 183.098 97.1032 182.917 98.8842C184.232 96.8949 184.606 95.3998 187.667 92.4065L187.602 90.1584L189.378 90.8186L191.104 88.0442C189.258 84.2102 186.747 86.0644 184.892 81.3071C183.353 80.9032 163.115 79.0357 163.815 69.4302C162.024 69.4302 157.149 75.6062 160.447 78.9107C160.447 78.9107 157.837 78.9107 156.246 78.9107C153.998 79.1764 148.754 77.6081 145.388 84.4765C153.675 76.1906 159.055 95.9584 143.791 95.9584V95.9555C141.538 95.9612 139.606 95.0221 139.476 93.4336C137.955 100.106 147.57 102.182 147.57 102.182C147.57 104.164 142.754 114.896 140.413 117.234C141.991 118.813 142.481 128.341 135.186 128.341C137.816 121.228 130.08 115.201 122.565 111.214C122.572 111.214 122.572 111.214 122.575 111.214C121.214 110.696 119.919 110.068 118.718 109.31C114.105 107.203 110.355 106.016 110.355 106.016V100.44C112.675 99.3023 115.219 97.2928 117.862 93.9347C119.928 91.4184 121.039 88.1884 120.737 84.7558C120.705 84.3456 120.644 83.9473 120.563 83.5459C120.545 83.4209 120.516 83.3023 120.489 83.1774C120.428 82.9009 120.361 82.6289 120.281 82.3632C120.245 82.2276 120.207 82.1001 120.16 81.9656C120.073 81.6917 119.973 81.4241 119.871 81.1641C119.825 81.0537 119.787 80.9483 119.742 80.8391C119.591 80.4958 119.426 80.1581 119.252 79.8344C119.182 79.6962 119.097 79.5718 119.024 79.4399C118.902 79.2418 118.784 79.0455 118.658 78.853C118.552 78.699 118.447 78.5412 118.334 78.3879C118.222 78.2408 118.11 78.0893 117.991 77.948C117.863 77.7807 117.734 77.6173 117.596 77.4608C117.506 77.3572 117.411 77.2575 117.314 77.1591C116.967 76.7836 116.598 76.4308 116.211 76.1001C116.172 76.0686 116.139 76.0256 116.1 75.9978C115.883 75.8148 115.655 75.6381 115.421 75.4715C115.359 75.4311 115.301 75.3787 115.241 75.337C114.993 75.1609 114.748 74.9994 114.487 74.8372C114.471 74.83 114.456 74.8175 114.441 74.812C111.969 73.2897 108.978 72.5046 105.822 72.7514C105.142 72.8057 104.48 72.9275 103.834 73.0657C99.4568 74.7432 96.2715 79.8665 96.2715 85.9303C96.2715 91.6444 99.1046 96.5172 103.089 98.4616C103.143 98.4768 103.201 98.4989 103.258 98.5128C101.359 99.5705 99.7584 100.181 99.3949 100.181C99.4568 100.221 99.537 100.265 99.6233 100.323C99.6454 100.333 99.6687 100.345 99.6941 100.359C99.7704 100.403 99.8506 100.448 99.9465 100.499C99.9699 100.512 99.9919 100.525 100.018 100.533C100.132 100.594 100.265 100.665 100.402 100.733C100.427 100.74 100.453 100.752 100.473 100.766C100.593 100.823 100.723 100.874 100.864 100.932C100.903 100.948 100.939 100.964 100.98 100.98C101.318 101.113 101.686 101.243 102.097 101.358C102.154 101.371 102.209 101.387 102.267 101.404C102.427 101.445 102.594 101.484 102.767 101.52C102.825 101.536 102.886 101.545 102.947 101.558C103.165 101.6 103.389 101.638 103.624 101.666C103.641 101.666 103.659 101.669 103.675 101.681C105.125 101.799 106.838 101.44 106.838 101.44V104.674C106.578 104.674 104.3 103.939 103.675 103.315C103.598 103.326 103.515 103.341 103.432 103.356C100.965 103.76 99.3565 104.519 98.632 106.725C97.91 108.934 98.6516 109.732 99.809 111.282C98.8238 113.025 96.2678 113.683 99.607 117.549C99.3697 119.005 99.6745 121.334 101.796 122.04C102.491 122.275 103.069 122.393 103.675 122.502C104.932 122.502 106.838 123.552 106.838 126.162V151.054C107.983 151.12 109.225 151.275 110.354 151.372V124.032C111.654 124.157 115.029 124.618 118.965 126.242C119.011 126.264 119.045 126.29 119.084 126.315C119.082 126.313 119.077 126.313 119.077 126.31C119.437 126.354 119.802 126.431 120.164 126.539C122.786 127.345 124.418 129.621 123.806 131.635C123.193 133.646 120.562 134.625 117.945 133.822C121.054 139.79 131.849 136.87 134.2 132.013C135.346 131.911 136.366 133.968 137.325 135.908C137.325 135.908 140.029 136.944 146.725 136.944C146.725 136.944 119.617 154.251 111.777 154.251C108.427 154.251 100.997 154.251 100.997 156.784C98.9549 156.784 96.0107 160.254 96.0107 162.238C97.9413 160.731 99.5141 160.731 99.5141 160.731C101.16 160.731 102.087 161.223 102.087 161.223C101.484 161.819 98.7788 164.871 98.7788 167.242C101.044 164.973 102.032 164.982 102.032 164.982C102.032 164.982 104.4 164.677 105.243 165.525C104.673 166.091 103.675 168.144 103.675 170.572C103.675 170.572 105.08 167.86 106.838 167.86V193.88C106.838 194.675 103.248 195.438 101.769 195.438L101.767 198.723ZM102.872 120C102.203 120.025 101.886 119.157 101.88 118.842C101.864 118.524 102.114 117.64 102.781 117.613C104.369 117.559 107.546 118.321 107.558 118.634C107.571 118.944 104.459 119.942 102.872 120V120ZM101.847 115.705C100.926 115.64 100.622 114.396 100.653 113.958C100.682 113.529 101.167 112.339 102.087 112.406C104.285 112.571 108.546 114.103 108.51 114.536C108.483 114.976 104.042 115.867 101.847 115.705ZM101.469 110.203C100.494 109.946 100.414 108.55 100.532 108.089C100.654 107.629 101.408 106.452 102.387 106.706C104.711 107.315 108.983 109.814 108.861 110.272C108.742 110.731 103.795 110.812 101.469 110.202V110.203ZM108.668 94.698C109.072 93.7349 108.986 92.4197 108.736 91.182C108.694 91.182 108.653 91.1849 108.61 91.1849C105.814 91.1849 103.548 88.9173 103.548 86.1259C103.507 85.6482 103.574 85.1849 103.735 84.7596H103.738C103.738 84.7495 103.744 84.7399 103.748 84.7362C104.352 82.6195 106.295 81.0606 108.612 81.0606C111.4 81.0606 113.672 83.3282 113.672 86.1259C113.671 89.3528 111.399 92.3234 108.669 94.6983L108.668 94.698Z" fill="#034694"/>
<path d="M184.628 99.119C185.982 101.387 188.555 102.804 191.367 102.542C195.26 102.179 198.113 98.7271 197.757 94.8325C197.742 94.6949 197.717 94.5624 197.699 94.4248C197.286 96.4368 194.901 98.1471 191.887 98.4267C189.594 98.6413 187.527 97.9836 186.307 96.8319C185.719 97.6372 185.128 98.4349 184.628 99.119" fill="#ED1C24"/>
<path d="M175.177 85.9937L177.622 86.1224L176.398 87.7999C176.398 87.7999 174.766 88.3162 175.177 85.9937ZM169.346 85.9937H172.868C172.868 85.9937 172.741 88.8355 175.312 89.0899L174.766 89.9949C174.766 89.9949 167.856 88.1887 169.346 85.9937Z" fill="white"/>
<path d="M108.862 110.273C108.984 109.814 104.712 107.315 102.388 106.707C101.409 106.453 100.655 107.63 100.533 108.09C100.414 108.551 100.495 109.947 101.47 110.203C103.796 110.812 108.743 110.732 108.862 110.273V110.273ZM108.512 114.536C108.548 114.103 104.287 112.571 102.089 112.406C101.169 112.339 100.684 113.529 100.655 113.958C100.624 114.396 100.927 115.64 101.849 115.705C104.043 115.868 108.484 114.976 108.512 114.536ZM103.674 101.679V103.313C104.299 103.938 106.577 104.672 106.837 104.672V101.438C106.838 101.438 105.124 101.797 103.674 101.679V101.679ZM102.782 117.613C102.115 117.64 101.865 118.524 101.881 118.842C101.887 119.157 102.205 120.026 102.873 120C104.46 119.943 107.572 118.944 107.559 118.633C107.546 118.321 104.37 117.558 102.782 117.613V117.613ZM99.5132 160.73C96.8858 164.135 98.7779 167.241 98.7779 167.241C98.7779 164.87 101.483 161.817 102.086 161.222C102.086 161.222 101.16 160.73 99.5132 160.73V160.73ZM107.896 167.954C107.492 170.054 108.537 172.1 110.346 173.04C110.731 173.239 111.149 173.397 111.588 173.484C111.776 173.527 111.952 173.549 112.134 173.57C112.214 173.571 112.295 173.573 112.375 173.576C112.375 173.576 109.714 171.085 110.784 168.73C110.09 168.254 109.054 167.953 107.896 167.953V167.954ZM103.087 98.4613C99.1029 96.5169 96.2699 91.6441 96.2699 85.9306C96.2699 79.8675 99.4551 74.7435 103.832 73.066C97.2607 74.522 92.6252 80.3617 93.2052 86.9442C93.6968 92.5201 97.7707 96.9789 103.087 98.4613ZM145.387 84.4765C149.615 83.6807 151.05 87.4402 151.05 88.7858C151.05 93.8826 147.08 95.9363 143.789 95.9558V95.9587C159.054 95.9587 153.675 76.191 145.387 84.4769V84.4765ZM135.184 128.341C142.479 128.341 141.989 118.813 140.411 117.234C142.752 114.896 147.569 104.165 147.569 102.182C147.569 102.182 137.94 100.106 139.478 93.4244C139.475 93.4201 139.475 93.4173 139.475 93.4115L139.346 93.3882C136.722 96.1569 138.317 101.932 142.48 103.372C142.48 103.372 140.873 109.721 136.908 113.747C132.959 113.594 127.425 113.074 122.564 111.214C130.078 115.202 137.816 121.229 135.185 128.342L135.184 128.341ZM106.686 82.5939C108.573 82.4431 110.234 83.7804 110.395 85.5829C110.551 87.3765 109.146 88.9618 107.257 89.1114C105.364 89.2635 103.699 87.9262 103.548 86.1256C103.548 88.9164 105.814 91.1846 108.611 91.1846C108.652 91.1846 108.694 91.1818 108.736 91.1818C108.987 92.4194 109.073 93.7346 108.669 94.6977C111.4 92.3228 113.671 89.3522 113.671 86.1253C113.671 83.3276 111.4 81.06 108.611 81.06C106.282 81.06 104.332 82.6283 103.735 84.7589C104.178 83.5876 105.297 82.7059 106.686 82.5936L106.686 82.5939ZM160.446 78.9107C157.148 75.6062 162.023 69.4302 163.814 69.4302C161.855 69.4302 153.361 74.9915 156.244 78.9107C157.836 78.9107 160.446 78.9107 160.446 78.9107ZM117.944 133.821C120.561 134.624 123.192 133.645 123.805 131.634C124.417 129.619 122.785 127.344 120.163 126.538C119.802 126.43 119.436 126.353 119.076 126.309C122.862 128.467 122.818 132.797 117.944 133.821ZM110.353 106.016C110.353 106.016 114.103 107.203 118.717 109.311C117.79 108.736 116.921 108.089 116.14 107.354C113.798 105.14 111.935 103.934 110.353 103.322V106.016V106.016ZM111.776 154.25C119.616 154.25 146.724 136.943 146.724 136.943C140.029 136.943 137.324 135.907 137.324 135.907C135.813 136.695 132.711 138.251 126.099 142.146C120.719 145.313 117.112 149.317 112.207 151.065C111.459 151.335 110.866 151.398 110.353 151.37C109.224 151.273 107.982 151.119 106.837 151.051V126.16C106.837 123.549 104.931 122.5 103.674 122.5V151.467C101.554 152.591 100.51 153.988 99.9366 155.294C99.9366 155.294 95.8944 154.755 96.0099 162.236C96.0099 160.252 98.954 156.782 100.996 156.782C100.996 154.25 108.426 154.25 111.776 154.25V154.25ZM179.394 194.323C177.409 194.323 168.297 194.709 167.478 186.772C165.464 186.339 163.114 186.252 160.645 186.603C167.086 198.897 174.079 198.996 175.909 199.09C178.756 202.266 177.802 212.992 173.688 212.777C158.629 211.975 159.182 221.136 160.869 223.01C160.869 216.102 165.565 214.464 177.428 214.464C177.428 214.464 187.125 202.054 179.394 194.323V194.323ZM182.491 223.987H180.453C180.28 227.278 183.538 228.247 183.538 228.247C182.491 227.201 181.728 224.757 182.491 223.987V223.987ZM163.435 228.621C162.569 227.753 161.855 224.276 163.114 223.01H160.868C160.681 226.572 163.435 228.621 163.435 228.621V228.621ZM208.388 114.242C208.388 103.725 193.964 105.378 193.252 113.453C193.888 107.534 203.525 106.661 203.525 114.075C203.525 121.737 185.553 126.756 185.553 139.705C185.553 153.974 199.82 155.294 198.377 168.339C198.133 170.598 195.713 173.549 192.21 173.549C184.699 173.549 180.679 170.361 178.345 165.856C180.732 172.233 184.934 177.122 193.679 177.122C202.74 177.122 203.562 170.425 203.562 168.869C203.562 155.808 189.921 152.703 189.921 140.29C189.923 128.204 208.388 123.225 208.388 114.242V114.242ZM102.031 164.982C102.031 169.009 103.674 170.571 103.674 170.571C103.674 168.143 104.672 166.091 105.242 165.525C104.399 164.676 102.031 164.982 102.031 164.982V164.982ZM206.25 142.723C202.589 142.723 199.591 145.525 199.276 149.099C199.442 148.241 200.014 147.407 201.13 146.573C205.325 143.455 213.546 149.735 208.857 156.225C211.434 155.19 213.245 152.675 213.245 149.727C213.246 145.862 210.114 142.723 206.25 142.723V142.723ZM174.164 223.987H171.719C171.469 228.638 174.445 229.338 174.445 229.338C173.182 228.079 172.972 225.179 174.164 223.987ZM105.079 199.18C104.701 199.18 104.348 199.258 104.012 199.386C102.849 200.271 102.14 201.645 102.183 203.153C102.57 204.393 103.713 205.289 105.079 205.289C106.767 205.289 108.133 203.922 108.133 202.236C108.133 200.547 106.767 199.18 105.079 199.18V199.18ZM122.258 221.767H118.724C118.693 227.432 122.358 228.46 122.358 228.46C121.324 227.42 120.013 224.011 122.258 221.767H122.258ZM133.22 185.939C133.22 172.981 164.256 171.46 164.256 160.784C164.256 156.436 160.503 154.473 157.834 154.473C158.59 155.229 162.626 163.91 151.035 163.91C140.553 167.418 117.726 187.26 133.571 194.138C133.563 196.132 133.295 210.981 123.779 209.814C110.07 208.118 106.65 213.785 109.282 220.162C109.282 210.486 116.077 212.283 124.951 212.283C130.5 212.283 138.613 205.265 138.613 193.449C138.613 193.449 133.22 191.38 133.22 185.939V185.939ZM106.838 193.881V167.86C105.079 167.86 103.675 170.572 103.675 170.572V192.772V192.63L101.752 192.636L101.769 195.439C103.248 195.438 106.838 194.675 106.838 193.881L106.838 193.881ZM112.18 227.411C112.18 227.411 109.436 223.1 112.376 220.162H109.282C108.04 225.546 112.18 227.411 112.18 227.411ZM131.312 221.823C131.312 221.823 129.834 221.823 128.746 221.823C128.727 225.822 133.372 227.336 133.372 227.336C131.735 225.706 130.614 222.511 131.312 221.823Z" fill="#6A7AB5"/>
<path d="M45.0136 178.623L44.8426 178.098L44.7694 177.551C44.5189 175.68 44.0664 172.194 41.3753 171.571C40.6558 171.403 39.9124 171.489 39.1191 171.816C39.3349 170.988 39.3097 170.238 39.0496 169.551C38.0575 166.971 34.5454 167.003 32.6584 167.028H32.1036L31.557 166.927C29.7035 166.586 26.2456 165.94 24.8269 168.308C24.4457 168.94 24.2942 169.672 24.3592 170.525C23.641 170.062 22.9171 169.854 22.1869 169.889C19.4252 170.036 18.3693 173.388 17.8045 175.191L17.6322 175.715L17.376 176.202C16.4709 177.864 14.7928 180.944 16.6054 183.03C17.0894 183.588 17.7407 183.961 18.5726 184.158C17.9149 184.703 17.4902 185.326 17.3046 186.038C16.5833 188.703 19.4473 190.741 20.9809 191.833L21.4309 192.165L21.8184 192.556C23.1178 193.932 25.5325 196.476 28.0752 195.399C28.748 195.109 29.3059 194.608 29.7527 193.879C30.0708 194.674 30.5283 195.263 31.1449 195.67C33.4611 197.17 36.2816 195.08 37.7988 193.964L38.2475 193.635L38.7454 193.391C40.4494 192.575 43.6239 191.068 43.3841 188.316C43.3204 187.578 43.0117 186.9 42.4595 186.25C43.3096 186.2 44.0127 185.942 44.5832 185.48C46.7341 183.742 45.6144 180.413 45.0136 178.623" fill="white"/>
<path d="M32.915 180.855C48.3659 189.987 43.6074 179.945 43.2678 178.46C42.9258 176.98 42.7957 165.872 32.915 180.855Z" fill="#ED1C24"/>
<path d="M31.9439 183.141C28.0335 200.65 36.1137 193.028 37.4169 192.251C38.7195 191.468 49.244 187.909 31.9439 183.141" fill="#ED1C24"/>
<path d="M29.4632 182.929C11.5951 184.615 21.3477 189.947 22.4932 190.943C23.6418 191.936 30.2729 200.85 29.4632 182.929Z" fill="#ED1C24"/>
<path d="M28.902 180.497C21.7704 164.028 19.7136 174.949 19.1197 176.352C18.5259 177.743 12.0967 186.81 28.902 180.497Z" fill="#ED1C24"/>
<path d="M284.119 176.203L283.864 175.716L283.689 175.192C283.124 173.388 282.068 170.037 279.314 169.89C278.576 169.855 277.856 170.061 277.137 170.52C277.203 169.673 277.043 168.941 276.672 168.308C275.247 165.939 271.794 166.585 269.94 166.927L269.388 167.028H268.836C266.956 167.003 263.44 166.971 262.452 169.551C262.183 170.237 262.164 170.988 262.374 171.815C261.593 171.49 260.848 171.405 260.124 171.571C257.435 172.193 256.973 175.68 256.735 177.551L256.653 178.098L256.486 178.623C255.882 180.413 254.766 183.742 256.917 185.481C257.487 185.943 258.185 186.201 259.04 186.252C258.488 186.901 258.18 187.58 258.116 188.318C257.878 191.07 261.047 192.576 262.754 193.392L263.247 193.637L263.696 193.965C265.218 195.082 268.041 197.171 270.35 195.671C270.975 195.265 271.428 194.675 271.743 193.88C272.193 194.609 272.745 195.111 273.424 195.401C275.965 196.478 278.383 193.933 279.681 192.558L280.071 192.167L280.515 191.834C282.054 190.743 284.916 188.704 284.197 186.041C284.004 185.326 283.588 184.704 282.926 184.16C283.755 183.962 284.408 183.589 284.889 183.032C286.705 180.945 285.029 177.865 284.119 176.203" fill="white"/>
<path d="M270.459 179.219C257.004 167.349 268.021 168.766 269.536 168.633C271.043 168.506 281.654 165.192 270.459 179.219Z" fill="#ED1C24"/>
<path d="M268.587 180.855C253.136 189.987 257.885 179.945 258.231 178.46C258.57 176.98 258.699 165.872 268.587 180.855Z" fill="#ED1C24"/>
<path d="M269.554 183.141C273.466 200.65 265.385 193.028 264.079 192.251C262.778 191.468 252.257 187.909 269.554 183.141" fill="#ED1C24"/>
<path d="M272.032 182.929C289.901 184.615 280.155 189.947 279.005 190.943C277.863 191.936 271.223 200.85 272.032 182.929Z" fill="#ED1C24"/>
<path d="M272.588 180.497C279.724 164.028 281.776 174.949 282.373 176.352C282.963 177.743 289.393 186.81 272.588 180.497Z" fill="#ED1C24"/>
<path d="M276.06 181.011C276.043 180.868 275.997 180.739 275.977 180.601C277.412 179.547 278.962 178.418 278.962 178.418L278.813 178.084C278.813 178.084 277.005 178.399 275.27 178.702C274.4 177.275 272.916 176.308 271.217 176.142C270.678 174.52 270.139 172.868 270.139 172.868L269.775 172.899C269.775 172.899 269.531 174.621 269.285 176.307C268.241 176.589 267.304 177.18 266.591 178.026C266.211 178.481 265.937 178.997 265.718 179.535C263.971 179.535 262.125 179.541 262.125 179.541L262.048 179.901C262.048 179.901 263.769 180.739 265.359 181.518C265.364 181.663 265.346 181.806 265.359 181.952C265.481 183.353 266.136 184.61 267.194 185.527C266.635 187.273 266.007 189.224 266.007 189.224L266.315 189.41C266.315 189.41 267.764 187.908 269.055 186.583C269.729 186.804 270.447 186.892 271.172 186.827C271.903 186.772 272.596 186.553 273.224 186.226C274.721 187.304 276.408 188.524 276.408 188.524L276.685 188.286C276.685 188.286 275.728 186.478 274.875 184.859C275.759 183.768 276.176 182.407 276.06 181.01" fill="white"/>
<path d="M270.432 178.322C269.585 178.388 268.822 178.788 268.277 179.442C267.733 180.091 267.469 180.911 267.547 181.753C267.694 183.498 269.239 184.795 270.979 184.641C271.832 184.563 272.588 184.165 273.141 183.519C273.68 182.864 273.943 182.049 273.872 181.201C273.719 179.456 272.173 178.164 270.432 178.322Z" fill="#ED1C24"/>
<path d="M31.0382 179.219C44.498 167.349 33.4743 168.766 31.9641 168.633C30.4488 168.506 19.8398 165.192 31.0382 179.219Z" fill="#ED1C24"/>
<path d="M36.1341 181.518C37.7353 180.74 39.4481 179.9 39.4481 179.9L39.3679 179.54C39.3679 179.54 37.5257 179.535 35.7744 179.535C35.5623 178.997 35.2865 178.481 34.9047 178.026C34.1928 177.18 33.2562 176.59 32.2098 176.306C31.97 174.619 31.7258 172.899 31.7258 172.899L31.3559 172.868C31.3559 172.868 30.8201 174.519 30.2887 176.142C28.579 176.308 27.0934 177.275 26.2244 178.702C24.497 178.399 22.6781 178.084 22.6781 178.084L22.5381 178.418C22.5381 178.418 24.0843 179.547 25.5182 180.601C25.4949 180.74 25.4532 180.868 25.438 181.01C25.3194 182.415 25.7454 183.767 26.6283 184.859C25.7687 186.477 24.812 188.286 24.812 188.286L25.0953 188.524C25.0953 188.524 26.7798 187.304 28.2749 186.226C28.9034 186.554 29.5958 186.765 30.3247 186.827C31.0555 186.893 31.7712 186.804 32.4453 186.583C33.7321 187.909 35.1799 189.41 35.1799 189.41L35.4973 189.223C35.4973 189.223 34.8675 187.271 34.3058 185.532C35.3616 184.609 36.0167 183.352 36.1411 181.951C36.1562 181.806 36.1339 181.663 36.1339 181.518" fill="white"/>
<path d="M33.2215 179.443C32.6749 178.788 31.9157 178.387 31.0649 178.323C29.3262 178.165 27.7794 179.457 27.6279 181.202C27.556 182.051 27.8179 182.865 28.3575 183.52C28.9027 184.166 29.6696 184.564 30.5159 184.642C32.2546 184.796 33.8008 183.498 33.9517 181.755C34.023 180.911 33.7629 180.092 33.2215 179.443" fill="#ED1C24"/>
<path d="M33.0055 104.55C25.4833 103.222 18.2804 108.271 16.9512 115.793C15.624 123.321 20.6679 130.523 28.1907 131.851C35.7199 133.179 42.926 128.132 44.2507 120.606C45.5823 113.083 40.5353 105.88 33.0055 104.55" fill="white"/>
<path d="M36.1432 115.034C36.0214 114.96 35.8093 114.822 35.5524 114.652C34.4158 113.899 32.1873 112.425 32.1261 112.381C31.8175 112.169 31.5171 111.967 31.2211 111.767C30.2303 111.104 29.3442 110.526 28.5111 110.045C28.1899 109.863 27.8794 109.692 27.567 109.54C26.2423 108.871 24.9725 108.467 23.4736 108.335C22.318 109.17 21.3152 110.203 20.5029 111.397C23.9494 112.642 27.3145 114.635 34.3211 118.987C34.7219 118.06 36.063 115.208 36.1432 115.034" fill="#ED1C24"/>
<path d="M32.9126 122.464C33.0526 122.115 33.6686 120.556 33.9205 119.956C26.7403 115.495 23.4061 113.522 19.952 112.301C19.4162 113.263 19.0148 114.312 18.7529 115.429C20.7245 118.136 26.0082 120.796 32.9126 122.464Z" fill="#ED1C24"/>
<path d="M32.1348 111.13C34.8234 109.539 37.8779 109.972 40.2358 110.777C39.3566 109.642 38.292 108.649 37.0537 107.877C34.8265 107.434 31.7505 107.364 29.3018 109.311C30.1923 109.834 31.1118 110.444 32.1348 111.13Z" fill="#ED1C24"/>
<path d="M21.4074 123.975C21.7671 124.222 22.1357 124.456 22.5276 124.677C23.319 125.114 24.176 125.492 25.0615 125.816C25.437 125.958 25.8188 126.09 26.2038 126.214C27.5506 126.657 30.6412 127.46 30.8715 127.514C30.9189 127.395 32.0769 124.531 32.5162 123.443C27.1631 122.115 21.3013 119.791 18.5162 116.77C18.349 118.165 18.414 119.545 18.7087 120.854C19.2963 122.134 20.2398 123.154 21.4074 123.975" fill="#ED1C24"/>
<path d="M31.0519 128.632L29.9348 128.345C28.8992 128.082 27.7764 127.787 26.6348 127.437C27.1914 128.623 28.0674 129.548 29.0014 130.263C30.2529 130.429 31.488 130.398 32.6751 130.193C31.8175 129.525 31.0519 128.632 31.0519 128.632" fill="#ED1C24"/>
<path d="M42.2482 114.666C41.9938 113.835 41.66 113.03 41.2403 112.279C39.1299 111.338 35.9156 110.419 33.1084 111.792L36.9803 114.349C37.7875 114.277 38.5303 114.255 39.21 114.271C39.5811 114.277 39.9257 114.297 40.2551 114.329C41.0131 114.396 41.66 114.518 42.2482 114.666" fill="#ED1C24"/>
<path d="M40.266 115.374C40.153 121.737 37.1534 126.644 34.5684 129.715C38.6144 128.309 41.8053 124.822 42.6012 120.318C42.8738 118.778 42.8258 117.264 42.5406 115.823C41.912 115.628 41.1603 115.464 40.2661 115.374" fill="#ED1C24"/>
<path d="M28.335 108.772C30.1469 107.174 32.287 106.635 34.2605 106.591C33.7594 106.43 33.2489 106.292 32.7168 106.202C29.9027 105.705 27.1498 106.228 24.8115 107.495C26.0567 107.738 27.182 108.175 28.335 108.772Z" fill="#ED1C24"/>
<path d="M37.1272 115.381C36.2064 117.299 35.665 118.473 35.2156 119.542C35.0774 119.865 34.943 120.18 34.8073 120.507C34.5927 121.042 33.9313 122.708 33.9313 122.708L33.5368 123.685L31.8271 127.921C32.2986 128.546 32.8697 129.056 33.4314 129.454C35.9717 126.557 39.1329 121.687 39.2295 115.313C38.5902 115.29 37.8871 115.314 37.1272 115.381" fill="#ED1C24"/>
<path d="M25.3537 127.016C24.5011 126.723 23.6497 126.388 22.8457 125.996C23.1461 126.924 23.579 127.747 24.0151 128.454C24.9271 129.039 25.9281 129.501 26.9965 129.83C26.3042 129.05 25.7065 128.127 25.3537 127.016Z" fill="#ED1C24"/>
<path d="M21.5913 125.31C21.0132 124.964 20.4755 124.578 19.9775 124.155C20.5411 125.163 21.2511 126.087 22.0747 126.897C21.8791 126.391 21.7074 125.868 21.5913 125.31" fill="#ED1C24"/>
<path d="M255.744 120.607C257.074 128.133 264.274 133.18 271.799 131.852C279.326 130.524 284.368 123.321 283.047 115.794C281.718 108.272 274.514 103.222 266.987 104.551C259.461 105.88 254.417 113.083 255.744 120.607" fill="white"/>
<path d="M263.851 115.034C263.97 114.96 264.183 114.822 264.446 114.652C265.584 113.899 267.808 112.425 267.865 112.381C268.181 112.169 268.482 111.967 268.777 111.767C269.757 111.104 270.651 110.526 271.485 110.045C271.806 109.863 272.12 109.692 272.427 109.54C273.748 108.871 275.025 108.467 276.521 108.335C277.676 109.17 278.684 110.203 279.484 111.397C276.041 112.642 272.686 114.635 265.67 118.987C265.268 118.06 263.933 115.208 263.851 115.034" fill="#ED1C24"/>
<path d="M267.084 122.464C266.942 122.115 266.321 120.556 266.083 119.956C273.249 115.495 276.594 113.522 280.045 112.301C280.578 113.263 280.982 114.312 281.244 115.429C279.269 118.136 273.986 120.796 267.084 122.464" fill="#ED1C24"/>
<path d="M267.861 111.13C265.17 109.539 262.117 109.972 259.756 110.777C260.636 109.642 261.707 108.649 262.945 107.877C265.17 107.434 268.244 107.364 270.689 109.311C269.806 109.834 268.88 110.444 267.861 111.13Z" fill="#ED1C24"/>
<path d="M278.582 123.975C278.23 124.222 277.863 124.456 277.464 124.677C276.676 125.114 275.821 125.492 274.937 125.816C274.558 125.958 274.174 126.09 273.79 126.214C272.45 126.657 269.356 127.46 269.124 127.514C269.072 127.395 267.911 124.531 267.48 123.443C272.832 122.115 278.689 119.791 281.482 116.77C281.649 118.165 281.577 119.545 281.287 120.854C280.698 122.134 279.756 123.154 278.582 123.975" fill="#ED1C24"/>
<path d="M268.946 128.632L270.056 128.345C271.095 128.082 272.224 127.787 273.367 127.437C272.802 128.623 271.93 129.548 270.997 130.263C269.748 130.429 268.509 130.398 267.328 130.193C268.176 129.525 268.946 128.632 268.946 128.632" fill="#ED1C24"/>
<path d="M257.748 114.666C258.004 113.835 258.332 113.03 258.762 112.279C260.866 111.338 264.074 110.419 266.883 111.792L263.015 114.349C262.206 114.277 261.464 114.255 260.782 114.271C260.416 114.277 260.07 114.297 259.736 114.329C258.979 114.396 258.339 114.518 257.748 114.666" fill="#ED1C24"/>
<path d="M259.73 115.374C259.84 121.737 262.847 126.644 265.435 129.715C261.378 128.309 258.183 124.822 257.396 120.318C257.126 118.778 257.164 117.264 257.459 115.823C258.083 115.628 258.839 115.464 259.73 115.374" fill="#ED1C24"/>
<path d="M271.664 108.772C269.851 107.174 267.707 106.635 265.736 106.591C266.236 106.43 266.744 106.292 267.281 106.202C270.092 105.705 272.845 106.228 275.182 107.495C273.942 107.738 272.814 108.175 271.664 108.772Z" fill="#ED1C24"/>
<path d="M262.869 115.381C263.792 117.299 264.323 118.473 264.788 119.542C264.921 119.865 265.049 120.18 265.185 120.507C265.403 121.042 266.064 122.708 266.064 122.708L266.456 123.685L268.169 127.921C267.695 128.546 267.128 129.056 266.564 129.454C264.025 126.557 260.859 121.687 260.77 115.313C261.406 115.29 262.112 115.314 262.869 115.381" fill="#ED1C24"/>
<path d="M274.643 127.016C275.497 126.723 276.342 126.388 277.153 125.996C276.844 126.924 276.42 127.747 275.978 128.454C275.067 129.039 274.066 129.501 273.002 129.83C273.693 129.05 274.29 128.127 274.643 127.016Z" fill="#ED1C24"/>
<path d="M278.408 125.31C278.979 124.964 279.518 124.578 280.018 124.155C279.454 125.163 278.749 126.087 277.922 126.897C278.114 126.391 278.287 125.868 278.408 125.31" fill="#ED1C24"/>
</svg>
