<svg width="300" height="300" viewBox="0 0 300 300" fill="none" xmlns="http://www.w3.org/2000/svg">
<path d="M150 0C67.32 0 0 67.26 0 150C0 232.68 67.32 300 150 300C232.74 300 300 232.68 300 150C300 67.26 232.74 0 150 0Z" fill="#00285D"/>
<path d="M284.4 150C284.4 75.7801 224.22 15.6001 150 15.6001C75.7796 15.6001 15.5996 75.7801 15.5996 150C15.5996 224.22 75.7796 284.4 150 284.4C224.22 284.4 284.4 224.22 284.4 150Z" fill="white"/>
<path d="M235.559 150C235.559 102.78 197.219 64.4399 149.999 64.4399C102.779 64.4399 64.4395 102.72 64.4395 150C64.4395 197.28 102.719 235.56 149.999 235.56C197.219 235.56 235.559 197.28 235.559 150" fill="#6CADDE"/>
<path d="M150 242.34C99.1202 242.34 57.6602 200.94 57.6602 150C57.6602 99.1202 99.0602 57.6602 150 57.6602C200.94 57.6602 242.34 99.0602 242.34 150C242.34 200.88 200.88 242.34 150 242.34V242.34ZM150 62.8202C101.94 62.8202 62.8202 101.94 62.8202 150C62.8202 198.06 101.94 237.18 150 237.18C198.06 237.18 237.18 198.06 237.18 150C237.18 101.94 198.06 62.8202 150 62.8202Z" fill="#00285D"/>
<path d="M150 293.88C70.6801 293.88 6.12012 229.32 6.12012 150C6.12012 70.6801 70.6801 6.12012 150 6.12012C229.32 6.12012 293.88 70.6801 293.88 150C293.82 229.32 229.32 293.88 150 293.88ZM150 9.24012C72.4201 9.24012 9.30012 72.4201 9.30012 150C9.30012 227.58 72.4201 290.76 150 290.76C227.58 290.76 290.76 227.64 290.76 150C290.76 72.4201 227.58 9.24012 150 9.24012" fill="#6CADDE"/>
<path d="M29.9403 146.7L27.4803 147.3L26.8203 144.78L30.8403 143.58H32.9403V157.62H29.9403V146.7ZM36.4803 153.84C36.4803 152.1 37.2603 151.14 38.7603 150.42C37.6803 149.76 36.9603 148.86 36.9603 147.36V147.3C36.9603 145.14 38.9403 143.46 41.8803 143.46C44.8203 143.46 46.8003 145.14 46.8003 147.3V147.36C46.8003 148.86 46.0803 149.76 45.0003 150.42C46.4403 151.14 47.2203 152.04 47.2203 153.72V153.78C47.2203 156.36 44.9403 157.86 41.8203 157.86C38.7003 157.86 36.4803 156.24 36.4803 153.84V153.84ZM44.2803 153.6C44.2803 152.46 43.2603 151.86 41.8803 151.86C40.5003 151.86 39.4803 152.52 39.4803 153.6V153.66C39.4803 154.62 40.3803 155.4 41.8803 155.4C43.3803 155.34 44.2803 154.56 44.2803 153.6V153.6ZM43.8603 147.72C43.8603 146.82 43.1403 146.04 41.8803 146.04C40.6203 146.04 39.9003 146.82 39.9003 147.66V147.72C39.9003 148.68 40.6803 149.46 41.8803 149.46C43.0803 149.4 43.8603 148.68 43.8603 147.72V147.72ZM257.64 151.92C256.92 152.52 256.02 152.88 254.82 152.88C251.82 152.88 249.84 151.2 249.84 148.38V148.32C249.84 145.5 252 143.46 255.18 143.46C257.04 143.46 258.12 143.94 259.2 144.96C260.22 145.98 260.82 147.48 260.82 150.24V150.3C260.82 154.8 258.72 157.92 254.76 157.92C252.72 157.92 251.34 157.26 250.2 156.24L251.82 153.9C252.84 154.74 253.68 155.1 254.88 155.1C256.92 155.1 257.52 153.12 257.64 151.92V151.92ZM257.7 148.26C257.7 147 256.8 146.1 255.24 146.1C253.74 146.1 252.84 147 252.84 148.2V148.26C252.84 149.52 253.74 150.36 255.3 150.36C256.8 150.36 257.7 149.46 257.7 148.26ZM270.6 154.62H263.76L263.28 152.46L270.9 143.58H273.48V152.1H275.34V154.56H273.48V157.56H270.6V154.62ZM270.6 152.16V147.84L266.88 152.16H270.6Z" fill="#6CADDE"/>
<path d="M150 237.18C101.94 237.18 62.8203 198.06 62.8203 150C62.8203 101.94 101.94 62.8198 150 62.8198C198.06 62.8198 237.18 101.94 237.18 150C237.18 198.06 198.06 237.18 150 237.18ZM150 66.0598C103.74 66.0598 66.0603 103.74 66.0603 150C66.0603 196.32 103.74 233.94 150 233.94C196.32 233.94 234 196.26 234 150C233.94 103.68 196.32 66.0598 150 66.0598Z" fill="white"/>
<path fill-rule="evenodd" clip-rule="evenodd" d="M148.38 74.9399C105.36 74.9399 80.5204 80.5799 80.5204 80.5799C80.5204 80.5799 70.6204 118.26 76.2604 166.62C78.6004 186.9 95.1004 230.52 149.76 245.4C204.42 230.52 220.86 186.9 223.26 166.62C228.9 118.32 219 80.5799 219 80.5799C219 80.5799 194.16 74.9399 151.14 74.9399H148.38V74.9399Z" fill="#00285D"/>
<path fill-rule="evenodd" clip-rule="evenodd" d="M215.76 155.34C215.28 169.98 213 213.84 149.76 237.9C86.9998 214.5 83.7598 169.14 83.7598 155.34H215.76Z" fill="#96C1E7"/>
<path fill-rule="evenodd" clip-rule="evenodd" d="M213.84 152.94C215.52 116.64 209.4 87.1802 209.4 87.1802C209.4 87.1802 185.82 82.6802 149.82 82.6802C113.82 82.6802 89.82 87.6602 89.82 87.6602C89.82 87.6602 83.28 117.24 85.08 152.94H213.84V152.94Z" fill="white"/>
<path d="M151.74 236.64L85.0205 156C82.5605 172.62 96.0605 221.58 151.74 236.64V236.64Z" fill="#6CADDF"/>
<path d="M104.88 155.46L166.62 229.92C172.86 226.92 177.42 224.04 181.86 220.5L127.92 155.46H104.88ZM147.78 155.52L193.38 210.54C197.88 205.44 201.66 200.88 204.36 196.02L170.82 155.52H147.78V155.52ZM214.62 155.52L191.82 155.46L210.96 178.56C214.26 171.42 214.62 159.48 214.62 155.52Z" fill="#6CADDE"/>
<path d="M176.7 185.7C176.52 185.16 176.1 184.74 175.56 184.56L171.78 183.24C171.42 183.12 171.12 183.12 170.76 183.24C170.46 181.92 169.68 180.72 168.6 179.94C168.48 179.82 168.3 179.76 168.18 179.64C167.94 179.46 167.64 179.34 167.34 179.22L165.9 178.68C164.76 178.32 163.68 177.96 162.3 176.94C160.98 175.98 160.38 175.14 159.84 174.3C159.72 174.12 159.54 173.88 159.42 173.7C159.06 173.1 158.58 172.62 157.98 172.2C157.02 171.48 155.88 171.12 154.68 171.12C154.44 171.12 154.14 171.18 153.9 171.24V171.18C153.96 170.7 153.84 170.22 153.6 169.86L151.26 166.68C150.9 166.2 150.42 165.96 149.82 165.96C149.28 165.96 148.74 166.2 148.38 166.62L145.92 169.8C145.62 170.22 145.5 170.7 145.56 171.18C145.38 171.18 145.14 171.12 144.96 171.12C143.76 171.12 142.62 171.48 141.66 172.14C141.54 172.26 141.42 172.32 141.3 172.44C141.06 172.62 140.82 172.86 140.64 173.1C140.28 173.52 139.98 173.94 139.68 174.3C138.96 175.26 138.3 176.16 136.92 177.18C135.6 178.14 134.64 178.44 133.62 178.74C133.38 178.8 133.14 178.86 132.96 178.92C132.3 179.1 131.64 179.4 131.1 179.82C129.96 180.66 129.18 181.86 128.94 183.24C128.52 183.12 128.16 183.06 127.74 183.18L123.96 184.44C123.42 184.62 123 185.04 122.82 185.58C122.64 186.12 122.76 186.66 123.06 187.14L125.34 190.44C125.58 190.8 126 191.04 126.42 191.16C125.82 192.42 125.7 193.92 126.12 195.24C126.18 195.42 126.24 195.54 126.3 195.72C126.42 196.02 126.54 196.26 126.72 196.56C127.02 197.04 127.32 197.4 127.62 197.82C128.34 198.78 129 199.68 129.54 201.3C130.02 202.8 130.02 203.88 129.96 204.84V205.56C129.9 206.28 130.02 206.94 130.2 207.6C130.62 208.92 131.58 210 132.72 210.66C132.6 210.9 132.48 211.2 132.48 211.5V215.46C132.48 216 132.78 216.54 133.2 216.9C133.62 217.2 134.22 217.32 134.76 217.14L138.6 216C138.96 215.88 139.2 215.64 139.44 215.4C140.58 216.48 142.2 217.02 143.76 216.9C144.06 216.9 144.36 216.84 144.72 216.78C145.26 216.66 145.74 216.48 146.22 216.36C147.36 216 148.44 215.64 150.18 215.64C151.8 215.64 152.76 216 153.72 216.3C153.96 216.36 154.14 216.48 154.38 216.54C155.04 216.78 155.76 216.96 156.42 216.96C157.86 216.96 159.18 216.42 160.26 215.4C160.5 215.64 160.74 215.88 161.04 216L164.82 217.2C165.36 217.38 165.96 217.26 166.38 216.96C166.86 216.66 167.1 216.12 167.1 215.58L167.22 211.62C167.22 211.32 167.1 211.02 166.98 210.72C168.12 210.06 169.08 208.98 169.5 207.66C169.56 207.48 169.62 207.36 169.62 207.18L169.8 206.28C169.86 205.74 169.86 205.26 169.86 204.72C169.86 203.52 169.86 202.44 170.4 200.76C170.88 199.26 171.54 198.42 172.14 197.64C172.32 197.46 172.44 197.28 172.56 197.1C173.04 196.56 173.34 195.96 173.58 195.3C174.06 193.92 173.88 192.36 173.22 191.1C173.58 190.98 173.88 190.8 174.06 190.5L176.34 187.26C176.76 186.84 176.88 186.24 176.7 185.7V185.7Z" fill="#00285D"/>
<path d="M147.66 194.22C147.66 193.02 148.68 192 149.88 192C151.14 192 152.1 193.02 152.1 194.22C152.1 195.42 151.08 196.44 149.88 196.44C148.68 196.44 147.66 195.48 147.66 194.22Z" fill="#FFC758"/>
<path d="M149.88 175.32C149.52 173.94 148.68 172.8 147.54 172.14L149.88 169.14L152.1 172.14C151.02 172.92 150.24 174 149.88 175.32ZM131.94 188.46C130.74 187.68 129.96 186.66 129.54 185.4L126 186.6L128.16 189.72C129.12 188.82 130.5 188.4 131.94 188.46V188.46ZM138.9 209.16C137.82 210 136.5 210.48 135.18 210.48L135.24 214.2L138.9 213.12C138.36 211.92 138.42 210.48 138.9 209.16V209.16ZM160.86 209.22C161.34 210.54 161.4 211.86 160.98 213.12L164.52 214.26L164.64 210.48C163.38 210.54 162 210.06 160.86 209.22V209.22ZM167.64 188.46C169.08 188.4 170.34 188.76 171.42 189.54L173.58 186.54L169.98 185.28C169.74 186.54 168.84 187.68 167.64 188.46V188.46ZM145.32 209.28C143.64 209.28 142.32 207.9 142.32 206.28C142.32 206.04 142.08 205.98 141.96 206.1C140.88 207.42 140.04 208.56 139.98 210C139.92 212.1 141.66 213.78 143.76 213.78H144.18C144.36 213.78 144.6 213.78 144.84 213.72C146.34 213.36 147.6 212.64 150.12 212.64C152.22 212.64 153.36 213.18 154.44 213.54C154.86 213.72 155.34 213.84 155.88 213.84C157.98 213.84 159.72 212.16 159.66 210.06C159.66 208.62 158.76 207.48 157.68 206.16C157.56 206.04 157.38 206.1 157.38 206.34C157.38 207.96 156 209.34 154.38 209.34C153.12 209.34 151.5 208.26 149.94 208.26C148.56 208.2 146.58 209.28 145.32 209.28V209.28ZM143.34 205.14C143.34 206.52 144.48 207.66 145.86 207.66C145.98 207.66 146.16 207.66 146.34 207.6C146.4 207.6 146.46 207.54 146.52 207.54H146.64C147.48 207.3 148.32 206.88 149.82 206.88C151.38 206.88 152.1 207.3 152.94 207.54C153.24 207.66 153.54 207.72 153.84 207.72C155.22 207.72 156.36 206.58 156.36 205.2C156.36 204.84 156.3 204.48 156.12 204.18L155.94 203.82C155.94 203.82 151.68 198.06 151.56 197.88C151.38 197.64 151.08 197.7 150.9 197.76C150.72 197.82 150.18 197.94 149.82 197.94C149.46 197.94 149.04 197.88 148.74 197.76C148.44 197.64 148.26 197.58 148.08 197.88C147.9 198.12 144.84 202.26 143.88 203.58C143.58 204 143.34 204.54 143.34 205.14V205.14ZM162.96 203.22C162.48 204.78 160.74 205.68 159.18 205.14C158.94 205.08 158.82 205.2 158.94 205.38C159.9 206.82 160.74 207.96 162.06 208.44C164.04 209.1 166.2 208.02 166.86 206.04C166.92 205.92 166.92 205.8 166.98 205.68C167.04 205.5 167.1 205.32 167.1 205.08C167.22 203.52 166.92 202.14 167.7 199.74C168.36 197.76 169.26 196.86 169.92 195.9C170.22 195.54 170.46 195.12 170.64 194.64C171.3 192.66 170.22 190.5 168.18 189.9C166.8 189.48 165.42 189.96 163.8 190.56C163.62 190.62 163.68 190.8 163.86 190.86C165.48 191.4 166.32 193.08 165.84 194.64C165.42 195.84 163.92 197.04 163.44 198.54C162.9 199.86 163.32 202.08 162.96 203.22V203.22ZM158.34 203.88C159.66 204.3 161.1 203.58 161.52 202.26C161.58 202.14 161.64 201.96 161.64 201.78V201.48C161.64 200.58 161.52 199.68 161.94 198.24C162.42 196.74 163.08 196.2 163.56 195.48C163.74 195.24 163.86 195 163.98 194.7C164.4 193.38 163.68 192 162.36 191.52C162 191.4 161.64 191.4 161.34 191.4C161.22 191.4 161.04 191.46 160.92 191.46C160.92 191.46 154.08 193.68 153.84 193.74C153.54 193.86 153.54 194.16 153.54 194.34C153.54 194.52 153.48 195.06 153.42 195.42C153.3 195.72 153.12 196.14 152.88 196.32C152.7 196.56 152.52 196.74 152.76 196.98C152.94 197.22 155.94 201.36 156.96 202.68C157.32 203.28 157.74 203.64 158.34 203.88V203.88ZM162.48 184.68C163.86 185.64 164.16 187.5 163.14 188.88C163.02 189.06 163.14 189.24 163.32 189.18C165 188.76 166.38 188.28 167.22 187.14C168.48 185.46 168.06 183.12 166.38 181.86C166.26 181.8 166.14 181.74 166.02 181.62C165.84 181.5 165.72 181.44 165.48 181.32C164.04 180.72 162.6 180.6 160.56 179.1C158.88 177.9 158.28 176.76 157.56 175.86C157.32 175.44 156.96 175.08 156.54 174.78C154.86 173.58 152.46 173.94 151.26 175.62C150.42 176.82 150.42 178.26 150.54 179.94C150.54 180.12 150.72 180.12 150.84 180C151.8 178.68 153.72 178.38 155.04 179.34C156.06 180.06 156.72 181.86 158.04 182.82C159.24 183.66 161.46 183.96 162.48 184.68V184.68ZM161.64 189.18C162.48 188.04 162.24 186.48 161.1 185.7C160.98 185.58 160.86 185.52 160.68 185.46C160.62 185.46 160.56 185.4 160.5 185.4C160.44 185.4 160.44 185.4 160.38 185.34C159.54 185.04 158.58 184.92 157.38 184.02C156.12 183.12 155.76 182.34 155.22 181.68C155.04 181.44 154.86 181.2 154.62 181.02C153.48 180.18 151.92 180.48 151.08 181.56C150.84 181.86 150.72 182.16 150.66 182.52C150.6 182.64 150.6 182.82 150.6 182.94C150.6 182.94 150.6 190.08 150.66 190.32C150.66 190.68 150.96 190.74 151.14 190.8C151.32 190.86 151.86 191.04 152.1 191.28C152.4 191.46 152.7 191.82 152.82 192.06C152.94 192.3 153.12 192.48 153.42 192.36C153.66 192.24 158.58 190.68 160.2 190.2C160.8 190.02 161.28 189.66 161.64 189.18ZM144.6 179.4C145.98 178.44 147.84 178.74 148.8 180.06C148.92 180.24 149.16 180.18 149.16 180C149.22 178.32 149.22 176.88 148.44 175.68C147.24 174 144.84 173.64 143.16 174.84C143.04 174.9 142.92 175.02 142.86 175.08C142.74 175.2 142.56 175.32 142.38 175.5C141.36 176.64 140.82 178.02 138.72 179.46C137.04 180.66 135.78 180.9 134.64 181.26C134.16 181.38 133.74 181.56 133.32 181.86C131.64 183.06 131.22 185.46 132.48 187.14C133.38 188.28 134.76 188.7 136.38 189.18C136.56 189.24 136.62 189.06 136.5 188.88C135.54 187.56 135.84 185.64 137.16 184.68C138.18 183.96 140.1 183.9 141.42 182.94C142.62 182.16 143.58 180.12 144.6 179.4V179.4ZM148.68 181.56C147.84 180.42 146.28 180.18 145.14 181.02C145.02 181.08 144.9 181.2 144.78 181.32C144.72 181.38 144.72 181.44 144.66 181.5C144.66 181.56 144.6 181.56 144.6 181.56C144.06 182.28 143.64 183.12 142.44 183.96C141.18 184.86 140.34 184.92 139.5 185.28C139.2 185.34 138.96 185.46 138.66 185.64C137.52 186.48 137.28 188.04 138.12 189.12C138.36 189.42 138.6 189.66 138.9 189.84L139.26 190.02C139.26 190.02 146.16 192.24 146.34 192.3C146.7 192.42 146.82 192.12 146.94 192C147.06 191.82 147.42 191.46 147.66 191.22C147.96 191.04 148.32 190.86 148.62 190.74C148.92 190.68 149.16 190.62 149.1 190.26V183.24C149.16 182.7 149.04 182.1 148.68 181.56V181.56ZM134.04 194.7C133.5 193.14 134.4 191.46 135.96 190.92C136.2 190.86 136.2 190.62 136.02 190.56C134.4 189.96 133.02 189.48 131.64 189.9C129.6 190.5 128.52 192.66 129.18 194.64C129.24 194.76 129.24 194.88 129.3 195C129.36 195.18 129.42 195.36 129.54 195.54C130.32 196.86 131.46 197.82 132.24 200.22C132.9 202.2 132.72 203.46 132.72 204.6C132.66 205.08 132.72 205.56 132.9 206.04C133.56 208.02 135.72 209.16 137.7 208.44C139.08 207.96 139.92 206.82 140.82 205.38C140.94 205.26 140.76 205.14 140.58 205.2C139.02 205.74 137.28 204.84 136.8 203.28C136.38 202.08 136.92 200.22 136.44 198.72C136.08 197.4 134.46 195.9 134.04 194.7V194.7ZM137.4 191.52C136.08 191.94 135.36 193.38 135.78 194.7C135.78 194.82 135.9 195 135.96 195.18C136.02 195.24 136.02 195.3 136.08 195.36C136.08 195.36 136.08 195.42 136.14 195.42C136.68 196.14 137.34 196.8 137.82 198.24C138.3 199.68 138.12 200.52 138.18 201.42C138.18 201.72 138.18 202.02 138.3 202.32C138.72 203.64 140.16 204.36 141.48 203.94C141.84 203.82 142.14 203.64 142.38 203.4C142.5 203.34 142.62 203.22 142.68 203.1C142.68 203.1 146.88 197.34 147 197.1C147.18 196.8 147 196.62 146.88 196.44C146.76 196.26 146.46 195.84 146.34 195.48C146.22 195.18 146.16 194.7 146.22 194.4C146.28 194.1 146.28 193.86 145.92 193.8C145.62 193.74 140.76 192.12 139.14 191.64C138.6 191.4 138 191.34 137.4 191.52Z" fill="#ED3024"/>
<path d="M171 116.76L186.42 111.42C186.42 111.42 185.1 117.84 185.46 122.82C185.94 129.24 189.66 134.16 189.66 134.16L170.64 140.76L171 116.76Z" fill="#FFC758"/>
<path d="M189.66 134.22C189.66 134.22 186.3 129.36 185.7 123.72C185.28 119.52 185.7 115.86 186.42 111.42C185.76 114.36 183.24 122.64 176.28 130.32C173.46 133.44 172.26 136.14 171.72 138L171.42 101.58C171.42 101.58 167.76 102.9 167.4 102.96C166.92 103.08 166.8 103.38 166.74 103.5C166.74 103.74 166.56 103.86 166.32 103.92C166.02 104.04 163.92 104.76 162.42 105.24C162.18 105.36 162.24 105.6 162.42 105.6C164.16 105.54 166.68 105.36 166.92 105.3C167.28 105.24 167.4 105.06 167.46 104.82V104.76C167.52 104.46 167.76 104.28 168.06 104.28C168.24 104.28 169.62 104.1 170.46 104.04L170.1 143.22H171.84V140.4L189.66 134.22V134.22Z" fill="#D4A11E"/>
<path d="M121.14 141.78C121.14 141.78 118.26 139.62 117.48 135.66C116.7 131.58 118.74 129.18 118.74 129.18L137.46 122.76C137.46 122.76 136.32 126.48 137.4 130.68C138.78 136.08 141.66 139.62 141.66 139.62C141.66 139.62 134.82 138.36 128.16 139.14C121.8 140.04 121.14 141.78 121.14 141.78ZM99.5996 137.1C99.5996 137.1 101.94 130.74 108.78 123.78C113.94 118.5 117.36 116.94 117.36 116.94C117.36 116.94 114.36 121.26 113.1 128.34C112.32 132.72 113.16 138.3 113.16 138.3C113.16 138.3 109.68 137.58 105.6 137.16C102.24 136.8 99.5996 137.1 99.5996 137.1V137.1Z" fill="#FFC758"/>
<path d="M117.36 116.94C117.36 116.94 114.42 121.26 113.16 128.34C112.38 132.72 113.22 138.3 113.22 138.3C113.22 138.3 112.32 138.12 110.34 137.64C101.94 135.78 117.36 116.94 117.36 116.94V116.94ZM128.34 122.1L128.16 105.24H128.1C127.68 105.36 124.44 106.5 124.08 106.62C123.66 106.74 123.42 107.04 123.42 107.16C123.42 107.4 123.24 107.52 122.94 107.58C122.64 107.7 120.54 108.42 119.04 108.9C118.8 109.02 118.86 109.26 119.1 109.26C120.84 109.14 123.3 108.96 123.6 108.96C123.96 108.9 124.14 108.72 124.14 108.48V108.42C124.2 108.12 124.44 107.94 124.74 107.94C124.92 107.94 126.24 107.76 127.08 107.7L126.96 122.1H128.34V122.1ZM150.18 106.92H151.5V90.7202C151.5 90.7202 147.84 91.9802 147.48 92.1002C147 92.2202 146.82 92.5202 146.82 92.6402C146.82 92.8802 146.64 93.0002 146.4 93.0602C146.1 93.1202 144 93.9002 142.5 94.3802C142.2 94.5002 142.32 94.7402 142.5 94.7402C144.24 94.6802 146.76 94.4402 147 94.4402C147.36 94.3802 147.48 94.2002 147.54 93.9602V93.9002C147.6 93.6002 147.84 93.4202 148.14 93.4202C148.32 93.4202 149.58 93.2402 150.42 93.1802L150.18 106.92V106.92Z" fill="#D4A11E"/>
<path d="M146.881 94.5001H146.941C147.301 94.4401 147.421 94.2601 147.481 94.0201V93.9601C147.541 93.7801 147.661 93.6001 147.841 93.5401L147.361 92.1001C146.941 92.2201 146.761 92.5201 146.761 92.6401C146.761 92.8201 146.641 92.9401 146.401 93.0001L146.881 94.5001ZM123.541 109.02H123.601C123.961 108.96 124.081 108.78 124.141 108.54V108.48C124.201 108.3 124.321 108.12 124.501 108.06L124.021 106.62C123.601 106.74 123.421 107.04 123.421 107.16C123.421 107.34 123.301 107.46 123.061 107.52L123.541 109.02ZM166.801 105.36H166.861C167.221 105.3 167.341 105.12 167.401 104.88V104.82C167.461 104.64 167.581 104.46 167.761 104.4L167.281 102.96C166.861 103.08 166.681 103.38 166.681 103.5C166.681 103.68 166.561 103.8 166.321 103.92L166.801 105.36Z" fill="#FFC758"/>
<path d="M141.66 139.68C141.66 139.68 138.66 135.3 137.46 130.62C136.44 126.6 137.46 122.76 137.46 122.76C137.46 122.76 135.42 129.66 130.68 133.38C127.32 136.02 119.28 138.42 121.14 141.78C121.38 141.3 122.22 140.46 125.58 139.68C126 139.56 126.42 139.5 126.84 139.44V145.02H128.58V139.2C134.7 138.6 141.66 139.68 141.66 139.68Z" fill="#D4A11E"/>
<path d="M119.22 128.1C119.22 128.1 117.06 126.78 117.3 122.52C117.54 118.14 119.76 116.22 119.82 116.1L134.4 111.12C134.4 111.12 133.32 113.28 134.1 116.58C135 120.6 137.58 122.82 137.58 122.82C137.58 122.82 130.26 122.94 123.66 125.16C120.36 126.24 119.22 128.1 119.22 128.1V128.1Z" fill="#FFC758"/>
<path d="M127.86 118.86C132.06 115.38 134.34 111 134.34 111C134.34 111 133.74 113.82 134.22 116.28C135 120.54 137.52 122.76 137.52 122.76C137.52 122.76 131.64 122.88 125.16 124.62C120.96 125.82 119.58 127.5 119.22 128.04C117.84 124.92 123.54 122.4 127.86 118.86V118.86Z" fill="#D4A11E"/>
<path d="M144.48 142.92C144.48 142.92 140.46 139.86 139.5 134.28C138.72 129.84 141.72 126.6 141.72 126.6L164.52 118.74C164.52 118.74 163.26 123.78 164.4 128.58C165.72 134.04 170.7 140.76 170.7 140.76C170.7 140.76 161.22 138.06 153.06 139.08C145.2 140.1 144.48 142.92 144.48 142.92V142.92ZM139.8 106.8C139.62 103.32 142.02 100.62 142.2 100.44L158.58 94.7402C158.58 94.7402 157.5 97.3202 157.8 99.5402C158.28 103.74 160.68 105.96 160.68 105.96C160.68 105.96 154.26 105.6 146.7 108.24C142.5 109.68 142.08 111.72 142.08 111.72C142.08 111.72 140.04 111.06 139.8 106.8V106.8Z" fill="#FFC758"/>
<path d="M152.76 102.36C155.7 99.7802 158.52 94.7402 158.52 94.7402C158.52 94.7402 157.44 97.3202 157.74 99.5402C158.22 103.74 160.62 105.96 160.62 105.96C160.62 105.96 153.72 105.9 147 108.24C144.12 109.26 142.32 110.82 142.08 111.72C141.06 108.42 148.74 105.96 152.76 102.36V102.36Z" fill="#D4A11E"/>
<path d="M142.14 125.64C142.14 125.64 139.8 122.94 139.32 118.74C138.84 114.36 141.48 112.56 141.66 112.5L160.56 105.96C160.56 105.96 160.02 107.34 160.5 111.18C160.92 114.36 164.04 118.74 164.04 118.74C164.04 118.74 153.96 118.98 147.72 121.44C143.88 122.88 142.14 125.64 142.14 125.64V125.64Z" fill="#FFC758"/>
<path d="M154.68 114.72C158.76 111.18 160.62 105.96 160.62 105.96C160.62 105.96 160.08 108.96 160.62 111.3C161.58 115.44 164.46 118.86 164.46 118.86C164.46 118.86 155.7 118.98 149.28 121.14C145.14 122.52 142.56 124.98 142.14 125.7C141.3 122.16 150.6 118.2 154.68 114.72V114.72Z" fill="#D4A11E"/>
<path d="M171.06 141.12C171.06 141.12 165.9 134.46 164.4 128.58C163.44 124.68 164.16 120.3 164.46 118.74C163.92 120.78 161.82 127.5 156.78 132.12C151.98 136.56 142.44 138.72 144.48 142.92C144.84 142.2 145.92 140.64 149.82 139.68L149.76 145.08H151.56V139.32C160.02 138.06 171.06 141.12 171.06 141.12Z" fill="#D4A11E"/>
<path fill-rule="evenodd" clip-rule="evenodd" d="M179.819 153.66C181.019 153.42 182.219 153.18 183.959 152.7C183.839 152.64 183.779 152.58 183.659 152.46C181.739 150.3 182.099 148.08 183.239 146.94C187.499 142.92 187.439 140.04 187.439 140.04C187.439 140.04 177.059 142.2 163.499 142.86C162.599 142.92 159.419 144.3 158.519 144.3C156.659 144.36 154.739 144.42 152.759 144.42C127.079 144.6 119.879 142.86 111.419 141.24C102.899 139.62 99.1195 137.88 99.1195 137.88L98.8195 138.78C98.8195 138.78 105.539 141.36 110.399 143.76C111.419 144.24 115.439 150.3 116.759 152.34H86.2195C84.5395 117.36 91.3195 88.68 91.3195 88.68C91.3195 88.68 114.719 83.7 149.819 83.7V79.98C112.499 79.98 87.6595 85.26 87.6595 85.26C87.6595 85.26 76.7995 123.48 82.5595 169.02C84.9595 187.98 100.679 223.5 149.639 239.94L151.799 236.94L149.639 233.94C103.499 218.46 90.0595 187.26 87.7195 169.38C87.1795 165.42 86.8195 161.52 86.5195 157.62H149.819V152.28H117.299C118.019 149.94 120.299 149.34 123.119 150.06C126.059 150.78 128.939 151.5 131.759 151.38C138.719 151.02 137.699 149.16 138.299 149.22C145.439 149.64 148.139 151.38 154.439 151.32C160.139 151.2 162.119 149.76 162.659 149.7C169.619 149.64 172.259 152.82 179.219 153.42C179.459 153.66 179.639 153.66 179.819 153.66Z" fill="#FFC758"/>
<path fill-rule="evenodd" clip-rule="evenodd" d="M211.8 85.5002C211.8 85.5002 187.08 80.2202 149.76 80.2202V83.9402C184.92 83.9402 208.2 88.9202 208.2 88.9202C208.2 88.9202 214.98 117.6 213.3 152.58H182.64C180.18 150.24 181.62 147.12 182.4 146.4C186 143.16 186 141 186 141C186 141 177.72 143.04 164.1 143.64C163.2 143.7 159.42 145.38 158.46 145.44C156.6 145.5 153.9 145.56 151.92 145.56C134.16 145.56 125.52 145.2 110.1 141.9C110.4 142.26 110.52 142.44 110.82 142.8C110.88 142.92 117.54 144.66 117.66 144.78C118.68 146.16 120 147.12 121.62 147.96C124.08 149.28 127.74 150.42 130.8 150.6C137.76 151.02 136.44 148.44 137.1 148.44C144.24 148.32 148.8 150.9 155.04 150.78C160.74 150.66 160.92 148.92 161.46 148.86C167.1 148.56 172.8 151.02 177.72 152.58H149.7V157.92H212.88C212.58 161.76 212.22 165.72 211.68 169.68C209.34 187.56 195.84 218.76 149.7 234.24V240.24C198.72 223.8 214.44 188.28 216.84 169.32C222.6 123.72 211.8 85.5002 211.8 85.5002Z" fill="#D4A11E"/>
<path d="M35.2803 101.94L37.8603 97.0802L49.4403 96.2402L43.5603 86.2202L46.1403 81.3602L66.7203 92.2202L64.3803 96.7202L50.9403 89.6402L56.7003 100.02L56.6403 100.14L44.8803 101.34L58.2603 108.36L55.9203 112.8L35.2803 101.94ZM58.8603 65.4002L62.1003 61.9802L85.9803 70.8002L82.3203 74.7002L77.0403 72.6602L70.3203 79.8002L72.6603 84.9002L69.0603 88.6802L58.8603 65.4002V65.4002ZM72.5403 70.8602L64.9203 67.9202L68.2803 75.3602L72.5403 70.8602V70.8602ZM77.2803 48.4202L81.3603 46.0202L98.1003 52.5602L90.6603 40.3202L94.9803 37.7402L107.04 57.6002L103.32 59.8802L86.0403 53.0402L93.6603 65.7002L89.4003 68.3402L77.2803 48.4202ZM108.54 44.4002V44.3402C106.68 37.9802 109.98 31.3802 116.88 29.4002C121.08 28.2002 124.02 28.8602 126.66 30.3002L124.56 34.8002C122.4 33.7202 120.36 33.3002 118.14 33.9002C114.36 34.9802 112.56 38.8802 113.64 42.7202V42.7802C114.72 46.6202 118.32 49.0202 122.16 47.9402C124.74 47.2202 126 45.7202 127.26 43.6202L131.28 45.9002C129.72 49.0202 127.56 51.3002 123.24 52.5602C116.76 54.4802 110.4 50.8202 108.54 44.4002V44.4002ZM136.44 25.7402L141.54 25.6202L141.78 34.8002L151.2 34.5602L151.02 25.3802L156.12 25.2002L156.72 48.4802L151.56 48.6002L151.32 39.3002L141.9 39.5402L142.14 48.8402L137.04 48.9602L136.44 25.7402ZM186.24 51.6602L190.5 49.6202C191.64 52.0802 193.2 54.0002 195.6 55.0802C197.52 55.9802 199.02 55.7402 199.56 54.4802V54.4202C200.1 53.2202 199.68 52.3202 196.56 49.7402C192.84 46.6802 190.62 44.2202 192.54 40.0202V39.9602C194.34 36.1202 198.54 35.0402 202.86 37.0202C205.92 38.4602 208.14 40.6202 209.46 43.3202L205.44 45.7202C204.18 43.5602 202.68 41.9402 200.88 41.1002C199.14 40.2602 197.82 40.6802 197.34 41.7002V41.7602C196.68 43.1402 197.4 44.0402 200.64 46.6202C204.42 49.7402 206.1 52.3802 204.42 56.0402V56.1002C202.5 60.3002 198.18 61.2002 193.62 59.0402C190.44 57.7202 187.74 55.0802 186.24 51.6602V51.6602ZM220.2 52.9802L214.56 48.7202L217.38 44.9402L232.74 56.6402L229.86 60.4202L224.22 56.1002L213 70.8602L208.92 67.7402L220.2 52.9802ZM256.98 86.0402L261.78 95.5202C263.1 98.1602 263.4 100.62 262.74 102.66C262.14 104.4 260.82 105.84 258.9 106.86H258.84C255.48 108.54 252.48 107.82 250.14 105.66L245.28 114.48L242.58 109.14L247.02 101.34L245.22 97.7402L238.56 101.1L236.28 96.5402L256.98 86.0402V86.0402ZM251.52 100.32C252.66 102.54 254.46 103.2 256.2 102.36H256.26C258.24 101.4 258.54 99.4802 257.4 97.2602L255.12 92.7002L249.18 95.7002L251.52 100.32ZM170.7 41.3402L179.28 43.2002L181.68 39.0602L171.66 36.9002L172.68 32.2802L184.86 34.9202L185.82 30.4202L168.66 26.7002L163.74 49.5002L181.02 53.2202L182.04 48.7802L169.68 46.0802L170.7 41.3402ZM239.76 63.5402L221.88 78.4802L233.28 92.1002L236.76 89.1602L228.66 79.5002L232.44 76.3202L238.14 83.1602L242.76 81.6002L235.92 73.4402L239.52 70.3802L247.56 79.9202L251.04 76.9802L239.76 63.5402ZM110.52 261.9V261.84C110.52 255.12 115.62 249.6 122.88 249.6C127.32 249.6 130.02 251.1 132.24 253.26L128.94 257.1C127.14 255.42 125.28 254.4 122.88 254.4C118.86 254.4 115.98 257.7 115.98 261.78V261.84C115.98 265.92 118.8 269.28 122.88 269.28C125.58 269.28 127.26 268.2 129.12 266.52L132.42 269.88C129.96 272.46 127.26 274.14 122.7 274.14C115.68 274.08 110.52 268.74 110.52 261.9V261.9ZM137.46 250.02H142.68V273.72H137.46V250.02ZM154.8 254.82H147.6V250.02H167.22V254.82H160.02V273.72H154.8V254.82ZM178.5 264.36L169.38 250.02H175.44L181.08 259.5L186.84 250.02H192.78L183.66 264.24V273.66H178.44V264.36H178.5Z" fill="#00285D"/>
</svg>
