<svg width="300" height="300" viewBox="0 0 300 300" fill="none" xmlns="http://www.w3.org/2000/svg">
<g clip-path="url(#clip0)">
<path d="M160.439 287.95C159.251 291.398 155.467 299.851 146.308 299.851C135.889 299.851 132.276 288.724 132.101 288.255L131.793 287.202C131.793 287.202 140.765 287.938 145.707 287.938C150.637 287.938 159.084 287.457 160.451 287.202L160.439 287.95H160.439Z" fill="black"/>
<path d="M187.776 282.464L189.913 282.732C187.363 289.31 182.783 296.681 173.807 296.681C165.052 296.681 160.734 291.679 158.926 288.335L157.396 287.413C157.396 287.413 172.478 286.932 187.776 282.464" fill="black"/>
<path d="M105.156 282.464L103.019 282.732C105.556 289.31 110.157 296.681 119.162 296.681C127.868 296.681 132.56 291.416 134.494 288.335L135.531 287.413C135.531 287.413 120.475 286.932 105.156 282.464" fill="black"/>
<path d="M153.617 288.652C152.196 290.66 151.241 290.557 149.562 290.557C148.691 290.557 147.441 291.248 147.453 292.523C147.491 293.527 148.32 294.342 149.683 294.342C152.783 294.342 155.154 290.1 155.784 288.295C155.784 288.295 157.601 288.221 158.13 288.167C158.13 288.167 154.879 297.76 146.42 297.76C137.948 297.76 134.493 288.282 134.493 288.282C134.493 288.282 141.636 288.71 145.707 288.71C149.791 288.71 152.391 288.673 153.617 288.652" fill="url(#paint0_radial)"/>
<path d="M106.307 284.424C111.812 285.864 115.745 287.082 125.018 288.192C125.018 288.192 124.722 289.118 122.705 289.044C121.934 288.995 121.83 288.805 121.563 288.76C120.967 288.653 120.104 289.25 120.192 290.241C120.284 290.94 120.875 291.808 122.934 291.808C124.993 291.808 127.389 290.155 128.601 288.608C128.601 288.608 129.831 288.892 131.11 288.953C131.11 288.953 127.147 294.416 119.363 294.416C110.816 294.416 107.632 286.843 106.307 284.424" fill="url(#paint1_radial)"/>
<path d="M145.603 239.462C175.124 239.462 207.828 221.576 230.79 195.791C233.29 193.002 237.478 187.704 247.45 187.704C257.439 187.704 270.716 196.692 269.162 213.048C268.003 224.961 250.755 251.84 221.222 268.373C191.697 284.971 164.497 288.521 145.603 288.521C126.692 288.521 99.5175 284.971 69.9759 268.373C40.4468 251.84 23.2028 224.961 22.0526 213.048C20.4982 196.692 33.7792 187.704 43.7473 187.704C53.7445 187.704 57.9493 193.002 60.4413 195.791C83.3694 221.576 116.091 239.462 145.603 239.462V239.462Z" fill="#FFE500" stroke="black" stroke-width="2.09797" stroke-miterlimit="3.863"/>
<path d="M145.353 243.427C115.649 243.427 81.8487 226.125 56.9536 198.136C54.4199 195.293 51.1944 191.636 43.5184 191.636C39.0344 191.636 33.9504 194.006 30.5791 197.671C28.0412 200.394 25.195 205.195 25.8784 212.554C26.8661 222.608 43.0058 248.627 71.7723 264.785C94.9588 277.805 119.716 284.383 145.353 284.383C171.015 284.383 195.773 277.805 218.959 264.785C247.717 248.627 263.882 222.608 264.832 212.554C265.545 205.195 262.678 200.394 260.173 197.671C256.785 194.006 251.689 191.636 247.226 191.636C239.516 191.636 236.295 195.293 233.784 198.136C208.904 226.125 175.062 243.427 145.353 243.427V243.427Z" fill="#DA020E"/>
<path d="M273.134 97.4639L273.238 90.6681C275.359 92.2683 279.347 92.293 281.681 89.8371C282.743 88.7182 283.348 86.9864 283.26 85.2051C283.16 83.1936 282.235 81.1038 280.714 79.6311C272.096 71.3174 264.441 63.016 264.441 63.016C263.649 61.7819 262.411 60.8893 261.695 60.5848C260.64 60.0871 256.89 58.3964 254.031 62.6828C251.452 66.5661 251.835 72.0414 252.331 74.0407L260.411 84.9131C263.178 88.3768 270.975 95.7444 273.134 97.4639Z" fill="black"/>
<path d="M100.422 26.9922C110.594 23.6189 119.895 20.8299 132.431 19.7357L134.331 18.6826C127.334 13.2319 120.383 9.51318 113.461 9.51318C109.115 9.51318 100.272 12.4298 98.3008 27.8314L100.422 26.9922V26.9922Z" fill="black"/>
<path d="M190.806 26.9922C180.629 23.6189 171.337 20.8299 158.814 19.7357L156.889 18.6826C163.915 13.2319 170.849 9.51318 177.779 9.51318C182.13 9.51318 190.935 12.4298 192.948 27.8314L190.806 26.9922V26.9922Z" fill="black"/>
<path d="M134.11 19.2255C139.228 9.51309 143.908 6 146.525 6C149.758 6 153.567 11.0763 156.559 17.6458L157.189 19.1349L154.559 18.9334C152.834 18.6125 147.921 18.5508 146.045 18.5508C144.12 18.5508 139.97 18.5508 137.469 18.7812L134.11 19.2255V19.2255Z" fill="black"/>
<path d="M93.7586 238.102L86.3493 251.323C84.1114 255.297 81.807 257.819 78.0273 255.68C74.3059 253.602 75.1685 250.591 77.4522 246.486L84.8824 233.248L78.8899 229.965L71.0388 243.956C66.7174 251.657 72.1556 256.433 76.4146 258.749C80.961 261.233 87.5786 263.08 91.8625 255.437L99.7678 241.385L93.7586 238.102V238.102ZM189.038 265.341L186.542 257.756L193.977 255.386L192.947 252.231L185.505 254.613L183.388 248.13L190.997 245.666L189.972 242.543L176.041 247.015L183.784 270.512L199.14 265.596L198.127 262.462L189.038 265.341V265.341ZM204.953 234.933L196.473 239.758L209.029 261.252L217.476 256.431C226.206 251.462 227.035 243.934 223.597 237.895C219.459 230.729 212.629 230.564 204.953 234.933V234.933ZM217.767 241.474C220.947 246.974 220.301 250.985 215.405 253.753L213.071 255.094L203.853 239.372L206.362 237.936C212.242 234.6 215.58 237.57 217.767 241.474V241.474ZM149.929 251.545L150.383 254.766L157.392 253.787L160.422 275.03L166.94 274.138L163.918 252.907L170.823 251.961L170.348 248.694L149.929 251.545V251.545ZM143.995 251.746L137.431 251.393L136.119 276.075L142.686 276.42L143.995 251.746V251.746ZM124.067 248.729L119.495 265.595L110.94 245.253L105.619 243.842L99.1343 267.722L104.931 269.24L109.54 252.234L118.224 272.749L123.429 274.135L129.889 250.247L124.067 248.729V248.729Z" fill="#FFE500"/>
<path d="M89.5293 92.8932V208.66L145.604 244.227L201.674 208.66L201.757 93.0701C199.961 91.5069 196.232 88.0802 193.31 86.2866H97.6388C95.2176 87.965 90.3669 92.0046 89.5293 92.8932H89.5293Z" fill="#FFE500"/>
<g filter="url(#filter0_f)">
<path d="M89.5293 45.8706L89.5293 92.8932V208.66L145.604 244.227L201.674 208.66L201.757 46.0475" stroke="#B54005" stroke-width="10" stroke-miterlimit="3.863"/>
</g>
<path d="M168.015 175.953V171.65C168.015 171.65 166.856 169.881 163.985 169.881C161.122 169.881 159.41 170.733 159.41 171.445C159.41 172.609 161.972 175.953 168.015 175.953V175.953ZM145.404 137.865L149.737 130.394L153.134 137.865H158.76C155.376 140.999 153.992 145.742 153.992 148.906V152.353C153.992 153.817 153.246 156.24 153.246 156.24C153.246 156.24 158.13 159.914 158.88 160.552C159.193 160.794 159.535 160.942 159.31 161.58C158.922 162.654 155.605 164.13 155.267 164.41C154.517 165.068 154.321 165.463 154.517 166.113C154.755 166.739 155.376 166.854 156.647 166.409C157.93 166.002 160.589 164.624 162.818 163.682C165.04 162.728 168.015 162.97 168.015 162.97V158.754H159.614V145.356L158.13 142.994L161.835 136.478L165.56 143.036L164.094 145.356V152.353H168.373V145.356L166.898 143.036L170.615 136.528L174.316 143.036L172.853 145.356V152.353H177.162V145.356L175.637 143.036L179.367 136.528L183.084 143.036L181.6 145.356L181.671 158.733H173.203V164.92C175.124 166.702 176.937 170.733 176.937 173.106C176.937 175.538 175.333 176.566 175.333 176.566C175.87 178.475 175.766 179.269 175.537 180.997C175.333 182.753 173.111 185.493 173.111 185.493V217.468C173.111 219.64 168.015 219.426 168.015 217.571V186.213C165.131 183.099 157.28 180.651 157.28 180.651C154.401 183.494 152.629 188.43 152.629 188.43C153.88 189.294 155.826 188.43 156.559 187.591C157.28 186.752 158.759 186.534 159.614 187.064C160.451 187.591 160.66 187.792 160.372 189.026C160.043 190.326 159.518 192.404 159.518 193.856C159.518 195.345 161.214 195.012 162.481 195.123C165.04 195.345 165.46 198.167 165.248 199.742C165.04 201.326 164.289 204.687 164.289 206.777C164.289 208.846 164.402 210.936 164.61 212.121C164.831 213.264 165.248 214.527 165.131 216.004C165.002 217.991 163.764 218.307 162.481 217.032C161.214 215.778 143.474 197.11 143.474 197.11C142.295 200.907 147.204 207.382 148.787 209.381C150.383 211.38 150.279 212.849 148.883 214.219C147.516 215.572 144.853 216.296 144.332 217.571C143.791 218.805 145.603 222.606 149.333 227.321C153.05 232.027 145.066 235.186 140.303 236.128C135.506 237.058 135.506 233.808 135.84 232.027C136.156 230.262 136.156 229.188 136.04 227.637C135.936 226.058 134.469 223.869 132.431 221.249C130.418 218.616 130.418 216.222 131.256 210.121C132.102 204.037 131.902 200.154 131.902 200.154C131.902 200.154 129.776 200.24 126.693 200.154C123.625 200.039 121.079 198.282 120.863 190.935C120.65 183.609 120.475 166.113 119.971 164.279C119.479 162.464 117.491 162.131 116.654 161.889C115.783 161.675 115.741 160.436 116.583 159.992C118.8 158.927 121.459 156.24 120.475 154.57C119.479 152.896 115.574 153.242 112.962 154.504C110.34 155.755 107.577 158.503 106.865 159.252C106.177 159.992 105.581 159.992 105.656 159.194C105.744 158.338 105.173 154.336 104.835 152.95C104.46 151.551 103.194 148.906 102.764 148.206C102.343 147.503 102.764 147.232 103.481 147.503C104.169 147.783 105.744 148.429 107.223 148.815C108.715 149.26 110.136 148.536 110.815 147.162C111.524 145.742 112.907 142.752 113.616 141.415C114.312 140.094 115.437 140.39 116.362 140.592C117.279 140.806 118.129 141.365 118.975 141.699C119.817 142.044 120.521 141.978 120.821 141.555C121.108 141.152 121.459 140.999 121.967 139.954C122.463 138.91 123.08 139.407 123.159 139.823C125.692 154.862 132.293 155.553 132.293 155.553C131.302 158.059 128.976 162.053 128.426 163.061C127.83 164.003 127.609 165.344 127.464 166.385C127.351 167.421 127.83 177.356 128.535 180.997C129.251 184.641 131.506 183.222 132.239 182.107C132.918 180.997 135.131 176.373 135.131 176.373C135.131 176.373 135.677 175.114 135.677 174.069C135.677 173.016 133.844 170.733 133.423 170.021C132.985 169.297 131.439 167.911 131.439 164.41C131.439 160.922 134.623 158.503 135.769 157.586C136.902 156.668 136.902 155.397 136.748 154.632C136.252 151.933 133.348 146.257 131.952 144.08C130.522 141.913 127.764 137.795 127.764 137.795H133.498L137.19 130.226L141.207 137.828L145.404 137.865L145.404 137.865ZM144.474 160.794C146.345 157.742 147.129 154.57 147.129 154.57H141.72C141.72 154.57 142.586 157.816 144.474 160.794ZM138.84 145.405C139.057 146.968 140.236 147.565 141.132 147.108C142.024 146.623 141.87 145.356 141.207 144.344C140.574 143.352 139.257 142.246 138.853 142.41C138.44 142.579 138.698 144.484 138.84 145.405H138.84ZM149.562 142.41C149.175 142.246 147.787 143.352 147.129 144.344C146.495 145.356 146.333 146.623 147.233 147.108C148.112 147.565 149.246 146.956 149.529 145.405C149.683 144.484 149.987 142.579 149.562 142.41" fill="url(#paint2_linear)"/>
<path d="M93.9287 121.753V128.722H197.384V121.753H189.754V122.878H101.558V121.753H93.9287Z" fill="#DA020E"/>
<path d="M93.9336 90.437H197.369V118.204H93.9336V90.437V90.437Z" fill="#DA020E"/>
<path d="M111.707 110.143L119.629 112.064L123.905 100.303V97.3249L111.707 110.143ZM176.996 117.076V113.454H169.52V110.41H175.629V96.9827H169.999L168.074 93.2886L166.194 96.9827H160.547V110.41H166.682V113.454H151.975V110.41H158.093V96.9827H152.455L150.55 93.2886L148.625 96.9827H143.003V110.41H149.15V113.454H134.14V110.41H140.27V96.9827H134.623L132.735 93.2886L130.798 96.9827H125.172V110.41H131.323V113.454L119.446 113.491L107.632 110.768L109.999 117.076H176.996V117.076Z" fill="#FFE500"/>
<path d="M101.01 25.8979C110.994 22.5988 118.541 20.0277 130.839 18.9499C125.171 15.0666 120.142 11.7798 114.357 11.7798C111.315 11.7798 108.715 12.9275 108.115 15.0255C107.556 16.9342 109.082 17.7652 109.623 17.6377C110.19 17.4937 110.594 17.3292 110.457 16.8108C110.311 16.2637 110.74 14.8733 112.674 14.8733C114.641 14.8733 115.383 16.671 115.383 17.9051C115.383 19.1392 113.399 21.2001 109.753 21.2001C106.177 21.2001 104.344 18.8471 104.481 16.671C102.756 19.1638 101.752 21.6855 101.01 25.8979" fill="url(#paint3_radial)"/>
<path d="M31.4333 84.9114L39.5427 74.039C40.0094 72.0397 40.3803 66.5686 37.7883 62.6853C34.9546 58.3947 31.2207 60.0895 30.1248 60.5873C29.433 60.8917 28.1745 61.7803 27.3994 63.0185C27.3994 63.0185 19.6025 71.4926 11.0221 79.831C9.80944 81.0199 8.47593 83.1919 8.36341 85.2035C8.25923 86.9888 8.98848 88.7824 10.0386 89.9013C12.3848 92.3695 16.4854 92.2708 18.5815 90.6665L18.7273 97.4622C20.886 95.7468 28.6704 88.3751 31.4333 84.9114Z" fill="black"/>
<path d="M145.604 69.0888C191.777 69.0888 218.047 111.871 223.781 119.383C233.966 132.801 246.434 143.694 260.882 140.095C282.106 134.735 281.002 103.701 281.002 103.701C275.88 100.061 267.154 95.478 251.243 73.2148C235.662 51.3918 200.403 19.0625 145.604 19.0625C90.7919 19.0625 55.5412 51.3918 39.9974 73.2148C24.0702 95.478 15.3148 100.061 10.2433 103.701C10.2433 103.701 9.0973 134.735 30.3377 140.095C44.7772 143.694 57.2373 132.801 67.4387 119.383C73.152 111.871 99.439 69.0888 145.604 69.0888V69.0888Z" fill="#FFE500" stroke="black" stroke-width="2.09797" stroke-miterlimit="3.863"/>
<path d="M145.604 65.027C190.118 65.027 216.592 102.301 226.167 115.751C238.837 132.446 249.564 138.748 259.869 136.161C274.763 132.417 276.613 112.182 276.813 106.057V105.814L276.647 105.686C271.396 102.095 262.611 96.1428 247.893 75.5456C239.112 63.2458 205.779 23.084 145.604 23.084C85.4494 23.084 52.0864 63.2458 43.3102 75.5456C28.7124 96.0111 19.532 102.252 14.6146 105.584L14.4062 105.752L14.4313 105.966C14.6313 112.104 16.4857 132.446 31.342 136.161C41.66 138.748 52.4074 132.446 65.0445 115.751C74.6104 102.301 101.11 65.027 145.604 65.027" fill="#DA020E"/>
<path d="M121.421 33.8896C113.253 35.5968 107.873 41.5411 109.636 49.5997C110.661 53.952 114.595 61.9613 127.038 59.3491C130.493 58.6992 132.36 57.3416 134.168 55.6345L131.901 53.0634C131.047 54.0013 129.772 55.3671 126.909 55.9553C120.887 57.21 117.308 52.4011 116.416 48.2504C115.091 42.1005 118.72 37.8634 122.821 36.9872C125.75 36.3496 127.526 37.1353 128.651 37.5672H128.688L129.451 34.4162C127.476 33.6346 125.104 33.1162 121.421 33.8896V33.8896ZM189.73 69.3429C194.402 72.1196 199.498 71.6465 201.882 67.7509C203.615 65.0276 203.632 62.7651 201.548 58.7131C201.011 57.5654 200.307 56.7427 199.836 55.6978C198.915 54.003 198.065 52.6167 198.856 51.3044C199.731 49.8811 201.757 49.7659 203.59 50.8725C205.511 52.0202 206.307 53.9166 206.712 55.2124L209.725 53.9289C208.799 51.4854 207.428 49.2928 204.295 47.4622C198.94 44.2783 194.585 45.1174 192.772 48.0999C190.934 51.0987 191.455 53.5957 192.839 56.1544C192.839 56.1544 193.697 57.6066 194.193 58.598C195.406 60.5972 196.819 63.1189 195.827 64.6944C194.627 66.6813 192.56 67.1133 190.547 65.8792C187.967 64.2748 187.363 62.4072 186.826 60.5849L183.513 61.9835C184.242 64.4928 185.955 67.0927 189.73 69.3429H189.73ZM154.067 32.5926L153.879 42.6628L144.07 42.523L144.215 32.4157L137.64 32.2964L137.202 57.0072L143.79 57.1471L143.999 45.818L153.825 45.9949L153.638 57.3034L160.218 57.4021L160.647 32.6913L154.067 32.5926V32.5926ZM248.276 111.06C248.322 111.121 252.135 112.981 256.373 109.225C259.915 106.082 258.727 101.775 255.027 97.7313L248.205 90.2485L229.606 106.794L234.003 111.607L241.408 105.05L243.546 107.431L238.858 117.872L244.471 122.298L248.276 111.06V111.06ZM251.597 98.8872C253.339 100.796 253.368 103.063 251.343 104.823C249.372 106.617 246.855 106.205 244.942 104.132L243.829 102.902L250.126 97.287L251.597 98.8872V98.8872ZM222.572 92.5744L228.802 87.4693L233.799 93.3395L236.382 91.2128L231.357 85.3179L236.628 80.9368L241.775 86.988L244.329 84.886L234.928 73.8243L215.763 89.7113L226.114 101.908L228.698 99.7898L222.572 92.5744V92.5744ZM215.388 55.4424L213.154 57.8612L218.405 62.5467L203.853 78.483L208.762 82.8394L223.293 66.8989L228.477 71.5062L230.702 69.0874L215.388 55.4424V55.4424ZM172.536 57.0089L175.186 49.4726L182.558 51.9819L183.654 48.8473L176.27 46.3421L178.516 39.8878L186.113 42.4588L187.18 39.3406L173.34 34.6387L165.206 58.0414L180.458 63.1958L181.541 60.0776L172.536 57.0089V57.0089ZM93.2793 44.9019L102.681 59.6947L81.7485 51.9815L77.0895 54.8693L90.3622 75.8614L95.4171 72.7185L85.9533 57.7736L107.102 65.5237L111.669 62.6976L98.3717 41.7179L93.2793 44.9019ZM64.0002 67.2552L59.7205 71.7884L71.718 95.3392L74.6475 92.2457L71.3888 85.9806L77.1812 79.8307L83.7488 82.5786L88.5744 77.4776L64.0002 67.2552V67.2552ZM74.1183 78.469L69.7719 83.0763L65.3046 74.6022L74.1183 78.469V78.469ZM49.8608 82.1997L45.2018 87.675L53.9072 105.446L35.2379 99.4113L31.2207 104.109L50.4025 120.008L53.3154 116.594L39.7594 105.331L57.9286 111.172L59.8413 108.934L51.1776 91.7969L64.792 103.064L69.0426 98.0991L49.8608 82.1997Z" fill="#FFE500"/>
<path d="M20.557 94.7914L20.5361 89.3408C29.9583 80.8008 34.4006 72.2197 34.4006 72.2197C34.4006 72.2197 30.9376 70.9321 29.3874 68.9863C28.6206 67.9044 28.3247 66.4277 28.4539 65.4363C28.7539 63.5769 30.2208 62.6348 30.7209 62.4209C31.8044 61.9602 33.8171 60.9153 36.0591 63.9595C38.447 67.2545 37.8177 73.5073 37.4885 74.9471C37.4885 74.9471 33.0962 82.4956 20.557 94.7914" fill="url(#paint4_radial)"/>
<path d="M30.9837 73.2138C29.7127 75.4023 26.508 80.6842 18.4028 88.1835C17.0567 89.4299 13.698 90.4871 11.7935 88.3768C11.0809 87.5582 10.61 86.4105 10.6809 85.0776C10.7725 83.535 11.7102 81.7415 12.652 80.9516C14.2855 79.59 21.249 72.6502 26.1997 67.1914C26.3372 68.1869 27.204 69.853 27.204 69.853C27.8874 70.7827 28.7209 72.1196 30.9837 73.2138" fill="url(#paint5_linear)"/>
<path d="M145.353 243.427C115.649 243.427 81.8487 226.125 56.9536 198.136C54.4199 195.293 51.1944 191.636 43.5184 191.636C39.0344 191.636 33.9504 194.006 30.5791 197.671C28.0412 200.394 25.195 205.195 25.8784 212.554C26.8661 222.608 43.0058 248.627 71.7723 264.785C94.9588 277.805 119.716 284.383 145.353 284.383" fill="url(#paint6_linear)"/>
<path d="M145.354 243.427C175.058 243.427 208.858 226.125 233.753 198.136C236.287 195.293 239.512 191.636 247.188 191.636C251.672 191.636 256.756 194.006 260.128 197.671C262.666 200.394 265.512 205.195 264.828 212.554C263.841 222.608 247.701 248.627 218.934 264.785C195.748 277.805 170.99 284.383 145.354 284.383" fill="url(#paint7_linear)"/>
<path d="M226.167 115.751C238.837 132.446 249.564 138.748 259.87 136.161C274.763 132.417 276.614 112.182 276.814 106.057V105.814L276.647 105.687C271.396 102.096 262.612 96.143 247.893 75.5459" fill="url(#paint8_linear)"/>
<path d="M65.0811 115.751C52.4106 132.446 41.6841 138.748 31.3786 136.161C16.4848 132.417 14.6346 112.182 14.4346 106.057V105.814L14.6012 105.687C19.852 102.096 28.6365 96.143 43.3552 75.5459" fill="url(#paint9_linear)"/>
<path d="M190.238 25.8979C180.254 22.5988 172.707 20.0277 160.409 18.9499C166.077 15.0666 171.106 11.7798 176.891 11.7798C179.933 11.7798 182.533 12.9275 183.133 15.0255C183.692 16.9342 182.166 17.7652 181.625 17.6377C181.058 17.4937 180.654 17.3292 180.791 16.8108C180.937 16.2637 180.508 14.8733 178.574 14.8733C176.607 14.8733 175.865 16.671 175.865 17.9051C175.865 19.1392 177.849 21.2001 181.495 21.2001C185.071 21.2001 186.904 18.8471 186.767 16.671C188.492 19.1638 189.497 21.6855 190.238 25.8979" fill="url(#paint10_radial)"/>
<path d="M146.072 12.9599C145.76 14.844 143.563 16.6499 141.342 16.6499C139.117 16.6499 138.45 16.2961 138.45 16.2961C138.113 16.8144 137.817 17.2135 137.467 17.7729C139.484 17.6947 144.164 17.5672 146.039 17.5672C147.91 17.5672 153.098 17.8346 154.215 17.9128C152.411 13.7374 148.931 7.9577 146.526 7.9577C146.443 7.9577 146.339 7.94971 146.21 7.94971C145.647 7.94971 143.698 9.61761 142.654 11.0822C141.283 13.0062 146.072 12.9599 146.072 12.9599V12.9599Z" fill="url(#paint11_radial)"/>
<path d="M270.691 94.7914L270.712 89.3408C261.29 80.8008 256.847 72.2197 256.847 72.2197C256.847 72.2197 260.31 70.9321 261.861 68.9863C262.627 67.9044 262.923 66.4277 262.794 65.4363C262.494 63.5769 261.027 62.6348 260.527 62.4209C259.444 61.9602 257.431 60.9153 255.189 63.9595C252.801 67.2545 253.43 73.5073 253.759 74.9471C253.759 74.9471 258.152 82.4956 270.691 94.7914" fill="url(#paint12_radial)"/>
<path d="M260.265 73.2138C261.536 75.4023 264.74 80.6842 272.846 88.1835C274.192 89.4299 277.55 90.4871 279.455 88.3768C280.167 87.5582 280.638 86.4105 280.567 85.0776C280.476 83.535 279.538 81.7415 278.596 80.9516C276.963 79.59 269.999 72.6502 265.049 67.1914C264.911 68.1869 264.044 69.853 264.044 69.853C263.361 70.7827 262.527 72.1196 260.265 73.2138" fill="url(#paint13_linear)"/>
<path d="M89.5293 92.8932V208.66L145.604 244.227L201.674 208.66L201.757 93.0701C199.961 91.5069 196.232 88.0802 193.31 86.2866H97.6388C95.2176 87.965 90.3669 92.0046 89.5293 92.8932H89.5293Z" stroke="black" stroke-width="2.09797" stroke-miterlimit="3.863"/>
<path d="M186.715 284.424C181.21 285.864 177.276 287.082 168.004 288.192C168.004 288.192 168.3 289.118 170.316 289.044C171.087 288.995 171.192 288.805 171.458 288.76C172.054 288.653 172.917 289.25 172.829 290.241C172.738 290.94 172.146 291.808 170.087 291.808C168.029 291.808 165.632 290.155 164.42 288.608C164.42 288.608 163.19 288.892 161.911 288.953C161.911 288.953 165.874 294.416 173.659 294.416C182.206 294.416 185.389 286.843 186.715 284.424" fill="url(#paint14_radial)"/>
<path d="M0 165.593C0 151.627 11.4807 140.27 25.6452 140.27C39.8138 140.27 51.2863 151.627 51.2863 165.593C51.2863 179.584 39.8138 190.917 25.6452 190.917C11.4807 190.917 0 179.584 0 165.593Z" fill="#FFE500" stroke="black" stroke-width="2.09797" stroke-miterlimit="3.863"/>
<path d="M5.87109 164.652C5.87109 154.063 14.7235 145.452 25.6451 145.452C36.57 145.452 45.4159 154.063 45.4159 164.652C45.4159 175.259 36.57 183.852 25.6451 183.852C14.7235 183.852 5.87109 175.259 5.87109 164.652Z" fill="url(#paint15_radial)"/>
<path d="M31.092 182.997C29.9669 183.351 29.4793 182.574 28.9668 182.014C26.9707 179.748 26.4581 173.713 26.4581 172.915C26.4581 172.113 26.7581 171.232 27.329 171.212C32.1422 171.121 35.5802 169.743 38.7348 167.156C41.8852 164.613 43.2521 161.697 43.5313 161.178C43.8063 160.603 44.4606 160.705 44.5814 161.503C44.7148 162.17 44.969 163.367 44.969 164.663C44.969 173.359 39.0306 180.463 31.092 182.997V182.997ZM26.0122 183.783C25.8747 183.783 25.7205 183.8 25.5913 183.8C22.045 183.8 18.1403 182.463 15.8275 181.163C13.4313 179.875 12.5312 173.803 12.5312 170.735C12.5312 160.742 16.6817 154.794 17.3568 153.626C18.0152 152.441 19.4988 152.318 20.5864 152.606C21.7116 152.927 22.1116 153.12 23.4077 153.498C24.0828 153.716 25.4538 153.992 26.4831 154.173C27.5124 154.416 28.6209 154.63 27.9541 156.526C27.2957 158.426 25.0537 162.993 24.8287 168.406C24.612 173.306 25.2704 178.172 26.3914 181.163C27.129 183.096 27.129 183.82 26.0122 183.783V183.783ZM11.3602 160.973C10.4142 160.479 9.27654 158.069 8.89315 157.365C8.63478 156.859 8.6348 155.411 9.00568 154.794C10.5892 152.059 12.8354 149.525 15.7274 148.204C16.0817 148.052 16.5775 148.023 16.5775 148.862C16.5775 149.311 16.8234 150.01 16.8318 150.454C16.8318 150.903 17.0235 151.82 16.4484 152.544C15.8441 153.272 13.2563 157.801 12.5937 160.339C12.4853 160.907 12.3103 161.503 11.3602 160.973V160.973ZM10.8268 177.008C8.14306 174.392 6.23029 169.653 6.23029 164.663C6.23029 162.725 6.52198 160.87 7.04289 159.109C7.04289 159.109 7.52214 158.32 7.93887 158.99C8.25974 159.484 8.70146 159.981 9.05985 160.64C9.4599 161.298 11.5352 162.857 11.3602 164.128C10.6351 168.797 11.2852 175 11.5102 176.045C11.7102 177.078 11.4227 177.518 10.8268 177.008V177.008ZM19.2987 146.575C21.2865 145.925 23.4077 145.559 25.5913 145.559C28.9126 145.559 32.138 146.155 34.8301 147.85C35.5218 148.295 35.7177 148.813 35.7177 149.582C35.7177 152.087 31.7505 152.927 29.1251 152.927C26.4831 152.927 23.2326 151.894 20.9323 151.174C18.6403 150.467 18.1403 149.158 18.1403 148.562C18.1403 147.99 18.5862 146.805 19.2987 146.575V146.575ZM37.2096 149.36C37.5638 149.644 38.5014 150.392 38.5014 150.392C40.3517 152.059 42.0227 153.959 42.9937 156.238C44.2064 159.109 40.4434 163.458 39.339 164.461C34.355 169.081 31.2337 168.995 29.4668 169.245C27.6999 169.501 26.5539 168.406 26.5998 167.094C26.7123 163.252 29.4835 156.629 30.2794 155.382C30.7878 154.58 31.6713 154.082 31.6713 154.082C33.5216 153.576 35.3176 152.815 36.2469 151.771C37.1554 150.709 37.2096 149.36 37.2096 149.36V149.36ZM25.783 144.312C13.8688 144.312 4.22168 153.84 4.22168 165.592C4.22168 177.353 13.8688 186.877 25.783 186.877C37.6888 186.877 47.3568 177.353 47.3568 165.592C47.3568 153.84 37.6888 144.312 25.783 144.312" fill="#DA020E"/>
<path d="M240.458 165.544C240.458 151.578 251.939 140.261 266.103 140.261C280.276 140.261 291.748 151.578 291.748 165.544C291.748 179.534 280.276 190.872 266.103 190.872C251.939 190.872 240.458 179.534 240.458 165.544Z" fill="#FFE500" stroke="black" stroke-width="2.09797" stroke-miterlimit="3.863"/>
<path d="M281.122 176.92C280.559 177.467 280.243 176.99 280.48 175.966C280.676 174.95 281.33 168.726 280.601 164.057C280.422 162.79 282.51 161.235 282.893 160.568C283.277 159.914 283.714 159.404 284.022 158.927C284.452 158.236 284.906 159.009 284.906 159.009C285.456 160.791 285.723 162.654 285.723 164.583C285.723 169.59 283.785 174.312 281.122 176.92V176.92ZM279.384 160.272C278.718 157.742 276.113 153.193 275.525 152.469C274.934 151.769 275.121 150.84 275.13 150.391C275.13 149.947 275.388 149.235 275.388 148.775C275.388 147.972 275.88 147.989 276.23 148.141C279.138 149.462 281.372 151.959 282.972 154.719C283.327 155.348 283.335 156.788 283.072 157.278C282.697 157.985 281.568 160.396 280.601 160.906C279.634 161.428 279.493 160.819 279.384 160.272V160.272ZM276.146 181.092C273.829 182.371 269.925 183.72 266.362 183.72H265.949C264.853 183.749 264.828 182.996 265.578 181.071C266.666 178.105 267.345 173.218 267.12 168.331C266.895 162.893 264.682 158.376 263.995 156.463C263.328 154.567 264.441 154.336 265.482 154.122C266.516 153.921 267.883 153.625 268.562 153.411C269.837 153.028 270.25 152.835 271.375 152.518C272.471 152.238 273.946 152.378 274.617 153.534C275.275 154.719 279.434 160.704 279.434 170.672C279.434 173.724 278.526 179.788 276.146 181.092ZM260.882 182.918C252.922 180.372 246.997 173.272 246.997 164.583C246.997 163.304 247.251 162.119 247.355 161.428C247.509 160.63 248.117 160.499 248.422 161.087C248.701 161.622 250.084 164.534 253.218 167.085C256.394 169.651 259.798 171.054 264.641 171.153C265.228 171.182 265.503 172.033 265.503 172.852C265.503 173.662 265.007 179.685 263.02 181.935C262.49 182.511 261.982 183.301 260.882 182.918V182.918ZM248.988 156.171C249.934 153.892 251.614 151.959 253.464 150.33C253.464 150.33 254.381 149.564 254.735 149.297C254.735 149.297 254.81 150.659 255.731 151.679C256.648 152.707 258.427 153.514 260.277 153.995C260.277 153.995 261.148 154.517 261.669 155.319C262.49 156.529 265.241 163.144 265.362 167.015C265.395 168.331 264.261 169.425 262.49 169.174C260.715 168.94 257.602 168.993 252.622 164.398C251.522 163.39 247.759 159.051 248.988 156.171V156.171ZM257.123 147.779C259.852 146.076 263.036 145.48 266.362 145.48C268.562 145.48 270.654 145.85 272.658 146.5C273.396 146.726 273.829 147.898 273.829 148.487C273.829 149.067 273.342 150.391 271.033 151.103C268.733 151.802 265.495 152.847 262.857 152.847C260.202 152.847 256.248 151.996 256.248 149.503C256.248 148.75 256.439 148.203 257.123 147.779V147.779ZM266.157 144.258C254.256 144.258 244.604 153.789 244.604 165.513C244.604 177.303 254.256 186.797 266.157 186.797C278.08 186.797 287.731 177.303 287.731 165.513C287.731 153.789 278.08 144.258 266.157 144.258Z" fill="#DA020E"/>
<path d="M246.622 164.558C246.622 153.969 255.474 145.358 266.396 145.358C277.321 145.358 286.167 153.969 286.167 164.558C286.167 175.165 277.321 183.758 266.396 183.758C255.474 183.758 246.622 175.165 246.622 164.558Z" fill="url(#paint16_radial)"/>
</g>
<defs>
<filter id="filter0_f" x="78.3465" y="39.6878" width="134.594" height="216.643" filterUnits="userSpaceOnUse" color-interpolation-filters="sRGB">
<feFlood flood-opacity="0" result="BackgroundImageFix"/>
<feBlend mode="normal" in="SourceGraphic" in2="BackgroundImageFix" result="shape"/>
<feGaussianBlur stdDeviation="3.09142" result="effect1_foregroundBlur"/>
</filter>
<radialGradient id="paint0_radial" cx="0" cy="0" r="1" gradientUnits="userSpaceOnUse" gradientTransform="translate(146.311 292.839) scale(10.0487 7.37389)">
<stop stop-color="#FFE500"/>
<stop offset="0.5" stop-color="#FFE500"/>
<stop offset="1" stop-color="#E15007"/>
</radialGradient>
<radialGradient id="paint1_radial" cx="0" cy="0" r="1" gradientUnits="userSpaceOnUse" gradientTransform="translate(118.708 289.42) scale(10.6256 9.43105)">
<stop stop-color="#FFE500"/>
<stop offset="0.5" stop-color="#FFE500"/>
<stop offset="1" stop-color="#E15007"/>
</radialGradient>
<linearGradient id="paint2_linear" x1="142.71" y1="129.872" x2="142.71" y2="184.939" gradientUnits="userSpaceOnUse">
<stop stop-color="#8F0904"/>
<stop offset="0.249601" stop-color="#B40509"/>
<stop offset="1" stop-color="#DA020E"/>
</linearGradient>
<radialGradient id="paint3_radial" cx="0" cy="0" r="1" gradientUnits="userSpaceOnUse" gradientTransform="translate(113.686 19.4576) scale(12.1483 11.4182)">
<stop stop-color="#FFE500"/>
<stop offset="0.5" stop-color="#FFE500"/>
<stop offset="1" stop-color="#E15007"/>
</radialGradient>
<radialGradient id="paint4_radial" cx="0" cy="0" r="1" gradientUnits="userSpaceOnUse" gradientTransform="translate(25.3774 80.3303) rotate(-59.9527) scale(18.7729 16.622)">
<stop stop-color="#FFE500"/>
<stop offset="0.5" stop-color="#FFE500"/>
<stop offset="1" stop-color="#E15007"/>
</radialGradient>
<linearGradient id="paint5_linear" x1="22.8301" y1="72.8859" x2="27.3729" y2="77.9444" gradientUnits="userSpaceOnUse">
<stop stop-color="#FFE500"/>
<stop offset="0.5" stop-color="#FFE500"/>
<stop offset="1" stop-color="#E15007"/>
</linearGradient>
<linearGradient id="paint6_linear" x1="33.2967" y1="196.997" x2="64.6586" y2="233.462" gradientUnits="userSpaceOnUse">
<stop stop-color="#740703"/>
<stop offset="1" stop-color="#DA020E" stop-opacity="0"/>
</linearGradient>
<linearGradient id="paint7_linear" x1="257.41" y1="196.997" x2="226.048" y2="233.462" gradientUnits="userSpaceOnUse">
<stop stop-color="#740703"/>
<stop offset="1" stop-color="#DA020E" stop-opacity="0"/>
</linearGradient>
<linearGradient id="paint8_linear" x1="269.22" y1="130.634" x2="252.204" y2="114.414" gradientUnits="userSpaceOnUse">
<stop stop-color="#740703"/>
<stop offset="1" stop-color="#DA020E" stop-opacity="0"/>
</linearGradient>
<linearGradient id="paint9_linear" x1="22.0277" y1="130.634" x2="40.0181" y2="111.401" gradientUnits="userSpaceOnUse">
<stop stop-color="#740703"/>
<stop offset="1" stop-color="#DA020E" stop-opacity="0"/>
</linearGradient>
<radialGradient id="paint10_radial" cx="0" cy="0" r="1" gradientUnits="userSpaceOnUse" gradientTransform="translate(177.562 19.4576) rotate(180) scale(12.1483 11.4182)">
<stop stop-color="#FFE500"/>
<stop offset="0.5" stop-color="#FFE500"/>
<stop offset="1" stop-color="#E15007"/>
</radialGradient>
<radialGradient id="paint11_radial" cx="0" cy="0" r="1" gradientUnits="userSpaceOnUse" gradientTransform="translate(145.624 13.9035) scale(9.17789 8.65967)">
<stop stop-color="#FFE500"/>
<stop offset="0.5" stop-color="#FFE500"/>
<stop offset="1" stop-color="#E15007"/>
</radialGradient>
<radialGradient id="paint12_radial" cx="0" cy="0" r="1" gradientUnits="userSpaceOnUse" gradientTransform="translate(265.871 80.3303) rotate(-120.047) scale(18.7728 16.622)">
<stop stop-color="#FFE500"/>
<stop offset="0.5" stop-color="#FFE500"/>
<stop offset="1" stop-color="#E15007"/>
</radialGradient>
<linearGradient id="paint13_linear" x1="268.418" y1="72.8859" x2="263.875" y2="77.9444" gradientUnits="userSpaceOnUse">
<stop stop-color="#FFE500"/>
<stop offset="0.5" stop-color="#FFE500"/>
<stop offset="1" stop-color="#E15007"/>
</linearGradient>
<radialGradient id="paint14_radial" cx="0" cy="0" r="1" gradientUnits="userSpaceOnUse" gradientTransform="translate(174.313 289.42) rotate(180) scale(10.6257 9.43105)">
<stop stop-color="#FFE500"/>
<stop offset="0.5" stop-color="#FFE500"/>
<stop offset="1" stop-color="#E15007"/>
</radialGradient>
<radialGradient id="paint15_radial" cx="0" cy="0" r="1" gradientUnits="userSpaceOnUse" gradientTransform="translate(25.6435 164.652) scale(19.7724 19.1999)">
<stop stop-color="#DA030E" stop-opacity="0"/>
<stop offset="0.875" stop-color="#DA020E" stop-opacity="0"/>
<stop offset="1" stop-color="#DA020E"/>
</radialGradient>
<radialGradient id="paint16_radial" cx="0" cy="0" r="1" gradientUnits="userSpaceOnUse" gradientTransform="translate(266.394 164.558) scale(19.7724 19.1999)">
<stop stop-color="#DA030E" stop-opacity="0"/>
<stop offset="0.875" stop-color="#DA020E" stop-opacity="0"/>
<stop offset="1" stop-color="#DA020E"/>
</radialGradient>
<clipPath id="clip0">
<rect width="300" height="300" fill="white"/>
</clipPath>
</defs>
</svg>
